<?xml version="1.0" encoding="utf-8"?>
<!-- Generator: Adobe Illustrator 17.1.0, SVG Export Plug-In . SVG Version: 6.00 Build 0)  -->
<!DOCTYPE svg PUBLIC "-//W3C//DTD SVG 1.1//EN" "http://www.w3.org/Graphics/SVG/1.1/DTD/svg11.dtd">
<svg version="1.1" id="Ebene_1" xmlns="http://www.w3.org/2000/svg" xmlns:xlink="http://www.w3.org/1999/xlink" x="0px" y="0px"
	 viewBox="0 0 595.3 841.9" enable-background="new 0 0 595.3 841.9" xml:space="preserve">
<g id="SPLINE">
	
		<path fill="none" stroke="#FF0000" stroke-width="0.9921" stroke-linecap="round" stroke-linejoin="round" stroke-miterlimit="10" d="
		M103.4,433c0-6.1,2.7-11.6,6.9-15.4l-3.8-6.4l-15.3,0l0,60.6l65.6,0l0-60.6l-15.3,0l-3.8,6.4c4.2,3.8,6.9,9.2,6.9,15.4
		c0,11.4-9.2,20.6-20.6,20.6S103.4,444.4,103.4,433z"/>
</g>
<g id="POLYLINE">
	
		<polyline fill="none" stroke="#FF0000" stroke-width="0.9921" stroke-linecap="round" stroke-linejoin="round" stroke-miterlimit="10" points="
		138.3,458.1 138.3,466.9 109.7,466.9 109.7,458.1 138.3,458.1 	"/>
</g>
<g id="POLYLINE_1_">
	
		<polyline fill="none" stroke="#FF0000" stroke-width="0.9921" stroke-linecap="round" stroke-linejoin="round" stroke-miterlimit="10" points="
		245.7,630.7 254.9,630.7 254.9,622.2 297.4,622.2 297.4,592.1 305.9,592.1 305.9,577.9 297.4,577.9 297.4,563.7 305.9,563.7 
		305.9,549.5 297.4,549.5 297.4,535.7 305.7,535.7 305.7,526.4 290.8,526.4 290.8,529.3 283.7,529.3 283.7,526.4 275.9,526.4 
		275.9,516.5 283.7,516.5 283.7,513.7 290.8,513.7 290.8,516.5 305.7,516.5 305.7,507.3 297.4,507.3 297.4,492.8 305.9,492.8 
		305.9,478.7 297.4,478.7 297.4,464.5 305.9,464.5 305.9,450.3 297.4,450.3 297.4,421 254.9,421 254.9,412.5 245.7,412.5 
		245.7,427.4 248.5,427.4 248.5,434.5 245.7,434.5 245.7,442.2 235.8,442.2 235.8,434.5 232.9,434.5 232.9,427.4 235.8,427.4 
		235.8,412.5 226.6,412.5 226.6,421 184,421 184,442.7 169,442.7 169,471.6 184,471.6 184,569.6 169,569.6 169,598.5 184,598.5 
		184,622.2 226.6,622.2 226.6,630.7 235.8,630.7 235.8,615.8 233,615.8 233,608.7 235.8,608.7 235.8,600.9 245.7,600.9 245.7,608.7 
		248.6,608.7 248.6,615.8 245.7,615.8 245.7,630.7 	"/>
</g>
<g id="SPLINE_1_">
	
		<path fill="none" stroke="#00CC66" stroke-width="0.9921" stroke-linecap="round" stroke-linejoin="round" stroke-miterlimit="10" d="
		M489,285.5l-6.4,10.8c2.8,2.8,4.6,6.7,4.6,11c0,8.6-7,15.6-15.6,15.6s-15.6-7-15.6-15.6c0-4.3,1.7-8.2,4.6-11L409,210.1H176.6
		v228.2h327.7V285.5H489z"/>
</g>
<g id="SPLINE_2_">
	
		<circle fill="none" stroke="#00CC66" stroke-width="0.9921" stroke-linecap="round" stroke-linejoin="round" stroke-miterlimit="10" cx="368.1" cy="302.6" r="7.1"/>
</g>
<g id="SPLINE_3_">
	
		<circle fill="none" stroke="#00CC66" stroke-width="0.9921" stroke-linecap="round" stroke-linejoin="round" stroke-miterlimit="10" cx="368" cy="331.2" r="7.1"/>
</g>
<g id="POLYLINE_2_">
	
		<polyline fill="none" stroke="#00CC66" stroke-width="0.9921" stroke-linecap="round" stroke-linejoin="round" stroke-miterlimit="10" points="
		191.2,385.5 181.2,385.5 181.2,356.9 191.2,356.9 191.2,385.5 	"/>
</g>
<g id="POLYLINE_3_">
	
		<polyline fill="none" stroke="#00CC66" stroke-width="0.9921" stroke-linecap="round" stroke-linejoin="round" stroke-miterlimit="10" points="
		191.2,343 181.2,343 181.2,328.5 191.2,328.5 191.2,343 	"/>
</g>
<g id="POLYLINE_4_">
	
		<polyline fill="none" stroke="#00CC66" stroke-width="0.9921" stroke-linecap="round" stroke-linejoin="round" stroke-miterlimit="10" points="
		191.2,314.6 181.2,314.6 181.2,300.2 191.2,300.2 191.2,314.6 	"/>
</g>
<g id="POLYLINE_5_">
	
		<polyline fill="none" stroke="#00CC66" stroke-width="0.9921" stroke-linecap="round" stroke-linejoin="round" stroke-miterlimit="10" points="
		191.2,286.3 181.2,286.3 181.2,271.8 191.2,271.8 191.2,286.3 	"/>
</g>
<g id="POLYLINE_6_">
	
		<polyline fill="none" stroke="#00CC66" stroke-width="0.9921" stroke-linecap="round" stroke-linejoin="round" stroke-miterlimit="10" points="
		191.2,250.9 181.2,250.9 181.2,222.3 191.2,222.3 191.2,250.9 	"/>
</g>
<g id="SPLINE_4_">
	
		<circle fill="none" stroke="#00CC66" stroke-width="0.9921" stroke-linecap="round" stroke-linejoin="round" stroke-miterlimit="10" cx="199.9" cy="242.1" r="5.7"/>
</g>
<g id="SPLINE_5_">
	
		<circle fill="none" stroke="#00CC66" stroke-width="0.9921" stroke-linecap="round" stroke-linejoin="round" stroke-miterlimit="10" cx="200" cy="400.5" r="5.7"/>
</g>
<g id="POLYLINE_7_">
	
		<polyline fill="none" stroke="#00CC66" stroke-width="0.9921" stroke-linecap="round" stroke-linejoin="round" stroke-miterlimit="10" points="
		241.7,231.9 211.9,231.9 211.9,215.8 241.7,215.8 241.7,231.9 	"/>
</g>
<g id="SPLINE_6_">
	
		<circle fill="none" stroke="#00CC66" stroke-width="0.9921" stroke-linecap="round" stroke-linejoin="round" stroke-miterlimit="10" cx="253.7" cy="380.7" r="7.1"/>
</g>
<g id="SPLINE_7_">
	
		<circle fill="none" stroke="#00CC66" stroke-width="0.9921" stroke-linecap="round" stroke-linejoin="round" stroke-miterlimit="10" cx="282" cy="380.9" r="7.1"/>
</g>
<g id="SPLINE_8_">
	
		<circle fill="none" stroke="#00CC66" stroke-width="0.9921" stroke-linecap="round" stroke-linejoin="round" stroke-miterlimit="10" cx="310.4" cy="380.7" r="7.1"/>
</g>
<g id="POLYLINE_8_">
	
		<polyline fill="none" stroke="#00CC66" stroke-width="0.9921" stroke-linecap="round" stroke-linejoin="round" stroke-miterlimit="10" points="
		338.8,215.8 368.6,215.8 368.6,231.9 338.8,231.9 338.8,215.8 	"/>
</g>
<g id="SPLINE_9_">
	
		<circle fill="none" stroke="#00CC66" stroke-width="0.9921" stroke-linecap="round" stroke-linejoin="round" stroke-miterlimit="10" cx="368.1" cy="380.7" r="7.1"/>
</g>
<g id="SPLINE_10_">
	
		<circle fill="none" stroke="#00CC66" stroke-width="0.9921" stroke-linecap="round" stroke-linejoin="round" stroke-miterlimit="10" cx="368.1" cy="356" r="8.5"/>
</g>
<g id="SPLINE_11_">
	
		<circle fill="none" stroke="#00CC66" stroke-width="0.9921" stroke-linecap="round" stroke-linejoin="round" stroke-miterlimit="10" cx="382.5" cy="242.1" r="5.7"/>
</g>
<g id="SPLINE_12_">
	
		<circle fill="none" stroke="#00CC66" stroke-width="0.9921" stroke-linecap="round" stroke-linejoin="round" stroke-miterlimit="10" cx="382.5" cy="400.5" r="5.7"/>
</g>
<g id="POLYLINE_9_">
	
		<polyline fill="none" stroke="#00CC66" stroke-width="0.9921" stroke-linecap="round" stroke-linejoin="round" stroke-miterlimit="10" points="
		401.5,385.5 391.6,385.5 391.6,356.9 401.5,356.9 401.5,385.5 	"/>
</g>
<g id="POLYLINE_10_">
	
		<polyline fill="none" stroke="#00CC66" stroke-width="0.9921" stroke-linecap="round" stroke-linejoin="round" stroke-miterlimit="10" points="
		401.5,343 391.6,343 391.6,328.5 401.5,328.5 401.5,343 	"/>
</g>
<g id="POLYLINE_11_">
	
		<polyline fill="none" stroke="#00CC66" stroke-width="0.9921" stroke-linecap="round" stroke-linejoin="round" stroke-miterlimit="10" points="
		401.5,314.6 391.6,314.6 391.6,300.2 401.5,300.2 401.5,314.6 	"/>
</g>
<g id="POLYLINE_12_">
	
		<polyline fill="none" stroke="#00CC66" stroke-width="0.9921" stroke-linecap="round" stroke-linejoin="round" stroke-miterlimit="10" points="
		401.5,286.3 391.6,286.3 391.6,271.8 401.5,271.8 401.5,286.3 	"/>
</g>
<g id="POLYLINE_13_">
	
		<polyline fill="none" stroke="#00CC66" stroke-width="0.9921" stroke-linecap="round" stroke-linejoin="round" stroke-miterlimit="10" points="
		401.5,250.8 391.6,250.8 391.6,222.4 401.5,222.4 401.5,250.8 	"/>
</g>
<g id="POLYLINE_14_">
	
		<polyline fill="none" stroke="#00CC66" stroke-width="0.9921" stroke-linecap="round" stroke-linejoin="round" stroke-miterlimit="10" points="
		486,341.2 457.1,341.2 457.1,332.4 486,332.4 486,341.2 	"/>
</g>
<g id="SPLINE_13_">
	
		<path fill="none" stroke="#FF0000" stroke-width="0.9921" stroke-linecap="round" stroke-linejoin="round" stroke-miterlimit="10" d="
		M180.5,497.8c0-0.4-1.3-0.4-2.8-0.4s-2.8,0-2.8,0.4h-13.1v-7.1v-14.2H90.8v70.9h70.9v-14.2v-7.1h13.1c0,0.4,1.3,0.4,2.8,0.4
		s2.8,0,2.8-0.4h1.6v-28.3H180.5z"/>
</g>
<g id="POLYLINE_15_">
	
		<polyline fill="none" stroke="#FF0000" stroke-width="0.9921" stroke-linecap="round" stroke-linejoin="round" stroke-miterlimit="10" points="
		119.1,541.8 105,541.8 105,533.3 119.1,533.3 119.1,541.8 	"/>
</g>
<g id="POLYLINE_16_">
	
		<polyline fill="none" stroke="#FF0000" stroke-width="0.9921" stroke-linecap="round" stroke-linejoin="round" stroke-miterlimit="10" points="
		119.1,490.8 105,490.8 105,482.2 119.1,482.2 119.1,490.8 	"/>
</g>
<g id="POLYLINE_17_">
	
		<polyline fill="none" stroke="#FF0000" stroke-width="0.9921" stroke-linecap="round" stroke-linejoin="round" stroke-miterlimit="10" points="
		147.5,541.8 133.3,541.8 133.3,533.3 147.5,533.3 147.5,541.8 	"/>
</g>
<g id="POLYLINE_18_">
	
		<polyline fill="none" stroke="#FF0000" stroke-width="0.9921" stroke-linecap="round" stroke-linejoin="round" stroke-miterlimit="10" points="
		147.5,490.8 133.3,490.8 133.3,482.2 147.5,482.2 147.5,490.8 	"/>
</g>
<g id="POLYLINE_19_">
	
		<polyline fill="none" stroke="#FF0000" stroke-width="0.9921" stroke-linecap="round" stroke-linejoin="round" stroke-miterlimit="10" points="
		163.2,623.3 163.2,600.6 149,600.6 149,592.1 134.8,592.1 134.8,600.6 120.6,600.6 120.6,592.1 106.4,592.1 106.4,600.6 
		92.2,600.6 92.2,623.3 163.2,623.3 	"/>
</g>
<g id="POLYLINE_20_">
	
		<polyline fill="none" stroke="#FF0000" stroke-width="0.9921" stroke-linecap="round" stroke-linejoin="round" stroke-miterlimit="10" points="
		92.2,554.7 92.2,577.4 106.4,577.4 106.4,585.9 120.6,585.9 120.6,577.4 134.8,577.4 134.8,585.9 149,585.9 149,577.4 163.2,577.4 
		163.2,554.7 92.2,554.7 	"/>
</g>
<g id="POLYLINE_21_">
	
		<polyline fill="none" stroke="#FF0000" stroke-width="0.9921" stroke-linecap="round" stroke-linejoin="round" stroke-miterlimit="10" points="
		463.2,630.8 476.8,630.8 476.8,622.3 506.2,622.3 506.2,420.9 476.8,420.9 476.8,412.4 463.2,412.4 463.2,420.9 448.5,420.9 
		448.5,412.4 434.9,412.4 434.9,420.9 420.3,420.9 420.3,412.4 411.1,412.4 411.1,427.1 413.9,427.1 413.9,434.2 411.1,434.2 
		411.1,442 401.2,442 401.2,434.2 398.3,434.2 398.3,427.1 401.2,427.1 401.2,412.4 391.9,412.4 391.9,420.9 377.1,420.9 
		377.1,412.4 363.5,412.4 363.5,420.9 348.7,420.9 348.7,412.4 335.1,412.4 335.1,420.9 308,420.9 308,622.3 335.1,622.3 
		335.1,630.8 348.7,630.8 348.7,622.3 363.5,622.3 363.5,630.8 377.1,630.8 377.1,622.3 391.4,622.3 391.4,630.8 401.2,630.8 
		401.2,616.1 398.3,616.1 398.3,609 401.2,609 401.2,601.2 411.1,601.2 411.1,609 413.9,609 413.9,616.1 411.1,616.1 411.1,630.8 
		420.3,630.8 420.3,622.3 434.9,622.3 434.9,630.8 448.5,630.8 448.5,622.3 463.2,622.3 463.2,630.8 	"/>
</g>
<g id="POLYLINE_22_">
	
		<polyline fill="none" stroke="#FF0000" stroke-width="0.9921" stroke-linecap="round" stroke-linejoin="round" stroke-miterlimit="10" points="
		456.4,518.8 456.4,524.4 453.5,524.4 453.5,518.8 456.4,518.8 	"/>
</g>
<g id="POLYLINE_23_">
	
		<polyline fill="none" stroke="#FF0000" stroke-width="0.9921" stroke-linecap="round" stroke-linejoin="round" stroke-miterlimit="10" points="
		357.2,518.8 357.2,524.4 354.3,524.4 354.3,518.8 357.2,518.8 	"/>
</g>
<g id="POLYLINE_24_">
	
		<polyline fill="none" stroke="#FF0000" stroke-width="0.9921" stroke-linecap="round" stroke-linejoin="round" stroke-miterlimit="10" points="
		315.3,464.9 315.3,450.4 324,450.4 324,464.9 315.3,464.9 	"/>
</g>
<g id="POLYLINE_25_">
	
		<polyline fill="none" stroke="#FF0000" stroke-width="0.9921" stroke-linecap="round" stroke-linejoin="round" stroke-miterlimit="10" points="
		315.3,493.2 315.3,478.8 324,478.8 324,493.2 315.3,493.2 	"/>
</g>
<g id="POLYLINE_26_">
	
		<polyline fill="none" stroke="#FF0000" stroke-width="0.9921" stroke-linecap="round" stroke-linejoin="round" stroke-miterlimit="10" points="
		315.3,535.8 315.3,507.1 324,507.1 324,535.8 315.3,535.8 	"/>
</g>
<g id="POLYLINE_27_">
	
		<polyline fill="none" stroke="#FF0000" stroke-width="0.9921" stroke-linecap="round" stroke-linejoin="round" stroke-miterlimit="10" points="
		315.3,564.1 315.3,549.6 324,549.6 324,564.1 315.3,564.1 	"/>
</g>
<g id="POLYLINE_28_">
	
		<polyline fill="none" stroke="#FF0000" stroke-width="0.9921" stroke-linecap="round" stroke-linejoin="round" stroke-miterlimit="10" points="
		315.3,592.5 315.3,578 324,578 324,592.5 315.3,592.5 	"/>
</g>
<g id="POLYLINE_29_">
	
		<polyline fill="none" stroke="#FF0000" stroke-width="0.9921" stroke-linecap="round" stroke-linejoin="round" stroke-miterlimit="10" points="
		217.6,408.5 224.2,397 231.3,401.2 245.5,376.6 238.3,372.5 248.8,354.3 256.1,358.6 263.2,346.3 255.8,342.1 263,329.7 
		270.3,333.9 277.4,321.7 270,317.4 277.1,305.1 284.4,309.4 291.5,297.1 284.2,292.9 291.3,280.4 298.6,284.6 303.2,276.6 
		290.3,269.2 288.9,271.6 282.8,268.1 284.2,265.6 277.5,261.7 282.4,253.2 289.2,257 290.6,254.6 296.7,258.1 295.3,260.6 
		308.2,268 312.8,260.1 305.5,255.8 331.9,210 91.6,210.1 91.6,408.5 217.6,408.5 	"/>
</g>
<g id="POLYLINE_30_">
	
		<polyline fill="none" stroke="#FF0000" stroke-width="0.9921" stroke-linecap="round" stroke-linejoin="round" stroke-miterlimit="10" points="
		222.3,318.9 249.3,334.5 232.3,364 205.3,348.4 222.3,318.9 	"/>
</g>
<g id="POLYLINE_31_">
	
		<polyline fill="none" stroke="#FF0000" stroke-width="0.9921" stroke-linecap="round" stroke-linejoin="round" stroke-miterlimit="10" points="
		148.8,392.8 177.1,392.8 177.1,401.3 148.8,401.3 148.8,392.8 	"/>
</g>
<g id="POLYLINE_32_">
	
		<polyline fill="none" stroke="#FF0000" stroke-width="0.9921" stroke-linecap="round" stroke-linejoin="round" stroke-miterlimit="10" points="
		98.4,239.5 107.2,239.5 107.2,253.9 98.4,253.9 98.4,239.5 	"/>
</g>
<g id="POLYLINE_33_">
	
		<polyline fill="none" stroke="#FF0000" stroke-width="0.9921" stroke-linecap="round" stroke-linejoin="round" stroke-miterlimit="10" points="
		98.4,267.8 107.2,267.8 107.2,282.3 98.4,282.3 98.4,267.8 	"/>
</g>
<g id="POLYLINE_34_">
	
		<polyline fill="none" stroke="#FF0000" stroke-width="0.9921" stroke-linecap="round" stroke-linejoin="round" stroke-miterlimit="10" points="
		98.4,296.1 107.2,296.1 107.2,324.8 98.4,324.8 98.4,296.1 	"/>
</g>
<g id="POLYLINE_35_">
	
		<polyline fill="none" stroke="#FF0000" stroke-width="0.9921" stroke-linecap="round" stroke-linejoin="round" stroke-miterlimit="10" points="
		98.4,338.7 107.2,338.7 107.2,353.1 98.4,353.1 98.4,338.7 	"/>
</g>
<g id="POLYLINE_36_">
	
		<polyline fill="none" stroke="#FF0000" stroke-width="0.9921" stroke-linecap="round" stroke-linejoin="round" stroke-miterlimit="10" points="
		98.4,367 107.2,367 107.2,381.5 98.4,381.5 98.4,367 	"/>
</g>
<g id="SPLINE_14_">
	
		<circle fill="none" stroke="#FF0000" stroke-width="0.9921" stroke-linecap="round" stroke-linejoin="round" stroke-miterlimit="10" cx="239.5" cy="522" r="5"/>
</g>
<g id="SPLINE_15_">
	
		<circle fill="none" stroke="#FF0000" stroke-width="0.9921" stroke-linecap="round" stroke-linejoin="round" stroke-miterlimit="10" cx="239.5" cy="568.9" r="5"/>
</g>
<g id="SPLINE_16_">
	
		<circle fill="none" stroke="#FF0000" stroke-width="0.9921" stroke-linecap="round" stroke-linejoin="round" stroke-miterlimit="10" cx="239.5" cy="475.1" r="5"/>
</g>
<g id="POLYLINE_37_">
	
		<polyline fill="none" stroke="#FF0000" stroke-width="0.9921" stroke-linecap="round" stroke-linejoin="round" stroke-miterlimit="10" points="
		354.7,210.2 348.1,221.7 340.9,217.6 326.8,242.1 333.9,246.3 323.5,264.4 316.2,260.2 309.1,272.4 316.4,276.7 309.3,289 
		302,284.8 294.9,297.1 302.2,301.3 295.2,313.6 287.8,309.4 280.7,321.6 288.1,325.9 280.9,338.3 273.6,334.1 269,342.1 
		281.9,349.5 283.3,347.1 289.5,350.6 288.1,353.1 294.8,357 289.8,365.6 283.1,361.7 281.7,364.1 275.5,360.6 277,358.1 
		264.1,350.7 259.5,358.7 266.8,362.9 240.4,408.8 480.7,408.7 480.7,210.2 354.7,210.2 	"/>
</g>
<g id="POLYLINE_38_">
	
		<polyline fill="none" stroke="#FF0000" stroke-width="0.9921" stroke-linecap="round" stroke-linejoin="round" stroke-miterlimit="10" points="
		325.5,337.7 305.8,326.4 315.7,309.2 335.4,320.5 325.5,337.7 	"/>
</g>
<g id="POLYLINE_39_">
	
		<polyline fill="none" stroke="#FF0000" stroke-width="0.9921" stroke-linecap="round" stroke-linejoin="round" stroke-miterlimit="10" points="
		362.4,301.9 330.5,283.5 344.6,258.9 376.6,277.4 362.4,301.9 	"/>
</g>
<g id="POLYLINE_40_">
	
		<polyline fill="none" stroke="#FF0000" stroke-width="0.9921" stroke-linecap="round" stroke-linejoin="round" stroke-miterlimit="10" points="
		423.5,225.9 395.1,225.9 395.1,217.4 423.5,217.4 423.5,225.9 	"/>
</g>
<g id="POLYLINE_41_">
	
		<polyline fill="none" stroke="#FF0000" stroke-width="0.9921" stroke-linecap="round" stroke-linejoin="round" stroke-miterlimit="10" points="
		473.9,379.3 465.1,379.3 465.1,364.8 473.9,364.8 473.9,379.3 	"/>
</g>
<g id="POLYLINE_42_">
	
		<polyline fill="none" stroke="#FF0000" stroke-width="0.9921" stroke-linecap="round" stroke-linejoin="round" stroke-miterlimit="10" points="
		473.9,350.9 465.1,350.9 465.1,336.5 473.9,336.5 473.9,350.9 	"/>
</g>
<g id="POLYLINE_43_">
	
		<polyline fill="none" stroke="#FF0000" stroke-width="0.9921" stroke-linecap="round" stroke-linejoin="round" stroke-miterlimit="10" points="
		473.9,322.6 465.1,322.6 465.1,294 473.9,294 473.9,322.6 	"/>
</g>
<g id="POLYLINE_44_">
	
		<polyline fill="none" stroke="#FF0000" stroke-width="0.9921" stroke-linecap="round" stroke-linejoin="round" stroke-miterlimit="10" points="
		473.9,280.1 465.1,280.1 465.1,265.6 473.9,265.6 473.9,280.1 	"/>
</g>
<g id="POLYLINE_45_">
	
		<polyline fill="none" stroke="#FF0000" stroke-width="0.9921" stroke-linecap="round" stroke-linejoin="round" stroke-miterlimit="10" points="
		473.9,251.7 465.1,251.7 465.1,237.3 473.9,237.3 473.9,251.7 	"/>
</g>
<g id="POLYLINE_46_">
	
		<path fill="none" stroke="#FF0000" stroke-width="0.9921" stroke-linecap="round" stroke-linejoin="round" stroke-miterlimit="10" d="
		M473.6,251.5"/>
</g>
<g id="POLYLINE_47_">
	
		<path fill="none" stroke="#FF0000" stroke-width="0.9921" stroke-linecap="round" stroke-linejoin="round" stroke-miterlimit="10" d="
		M473.6,265.7"/>
</g>
<g id="SPLINE_17_">
	
		<path fill="none" stroke="#333333" stroke-width="0.9921" stroke-linecap="round" stroke-linejoin="round" stroke-miterlimit="10" d="
		M470.6,423.6c-1.2,0-1.7,0-2.5,0.2v9.5h5.5v-6.9C473.6,424.1,472.4,423.6,470.6,423.6z"/>
</g>
<g id="SPLINE_18_">
	
		<path fill="none" stroke="#333333" stroke-width="0.9921" stroke-linecap="round" stroke-linejoin="round" stroke-miterlimit="10" d="
		M457.9,423.6c-1.2,0-1.7,0-2.5,0.2v9.5h5.5v-6.9C460.9,424.1,459.7,423.6,457.9,423.6z"/>
</g>
<g id="SPLINE_19_">
	
		<path fill="none" stroke="#333333" stroke-width="0.9921" stroke-linecap="round" stroke-linejoin="round" stroke-miterlimit="10" d="
		M433.4,423.6c-1.2,0-1.9,0.1-2.5,0.3v9.4h5.5v-6.9C436.3,424.1,435.2,423.6,433.4,423.6z"/>
</g>
<g id="POLYLINE_48_">
	
		<polyline fill="none" stroke="#333333" stroke-width="0.9921" stroke-linecap="round" stroke-linejoin="round" stroke-miterlimit="10" points="
		481,433.3 478.1,433.3 478.1,415.8 481,415.8 481,433.3 	"/>
</g>
<g id="SPLINE_20_">
	
		<circle fill="none" stroke="#333333" stroke-width="0.9921" stroke-linecap="round" stroke-linejoin="round" stroke-miterlimit="10" cx="491.8" cy="424.2" r="9"/>
</g>
<g id="SPLINE_21_">
	
		<circle fill="none" stroke="#333333" stroke-width="0.9921" stroke-linecap="round" stroke-linejoin="round" stroke-miterlimit="10" cx="491.8" cy="424.2" r="6"/>
</g>
<g id="SPLINE_22_">
	
		<path fill="none" stroke="#333333" stroke-width="0.9921" stroke-linecap="round" stroke-linejoin="round" stroke-miterlimit="10" d="
		M430.9,421.5c0.7-0.1,1.6-0.2,2.7-0.2c3,0,5.3,1.5,5.3,5.3v6.7h3.5c-1.2-0.6-1.9-1.7-1.9-3.3v-0.2c0-2.3,2.2-3.6,5.8-3.7
		c0.7,0,1.4,0,2.1-0.1v-0.6c0-1.4-1.1-1.9-2.9-1.9c-1.6,0-2.9,0.4-3.7,0.8c-0.2-0.7-0.5-1.5-0.7-2.2c1.3-0.5,2.8-0.9,4.6-0.9
		c2.9,0,5.2,1.2,5.2,4.5v7.5h2.2v-11.4c1.2-0.4,3-0.6,5.1-0.6c3,0,5.3,1.5,5.3,5.3v6.7h2.4v-11.4c1.2-0.4,3-0.6,5.1-0.6
		c2.1,0,3.7,0.7,4.6,2.3c0.1,0.1,0.1,0.2,0.2,0.4l0.1,0.3v-8.4h-44.8V421.5z"/>
</g>
<g id="POLYLINE_49_">
	
		<polyline fill="none" stroke="#333333" stroke-width="0.9921" stroke-linecap="round" stroke-linejoin="round" stroke-miterlimit="10" points="
		428.4,415.8 425.4,415.8 425.4,433.3 428.4,433.3 428.4,415.8 	"/>
</g>
<g id="SPLINE_23_">
	
		<path fill="none" stroke="#333333" stroke-width="0.9921" stroke-linecap="round" stroke-linejoin="round" stroke-miterlimit="10" d="
		M448.3,431.5V428c-3.3,0-5.5,0.1-5.5,1.8v0.2c0,1.3,1.2,1.7,2.8,1.7C446.8,431.7,447.5,431.6,448.3,431.5z"/>
</g>
<g id="SPLINE_24_">
	
		<path fill="none" stroke="#333333" stroke-width="0.9921" stroke-linecap="round" stroke-linejoin="round" stroke-miterlimit="10" d="
		M497.2,423.6c-0.1-1-0.5-2-1.2-2.8h-8.3c-0.6,0.8-1.1,1.7-1.2,2.8H497.2z"/>
</g>
<g id="SPLINE_25_">
	
		<path fill="none" stroke="#333333" stroke-width="0.9921" stroke-linecap="round" stroke-linejoin="round" stroke-miterlimit="10" d="
		M486.5,424.8c0.1,1,0.5,2,1.2,2.8h8.4c0.6-0.8,1-1.7,1.2-2.8H486.5z"/>
</g>
<g id="SPLINE_26_">
	
		<circle fill="none" stroke="#00CC66" stroke-width="0.9921" stroke-linecap="round" stroke-linejoin="round" stroke-miterlimit="10" cx="452.1" cy="220.2" r="4.3"/>
</g>
<g id="SPLINE_27_">
	
		<circle fill="none" stroke="#00CC66" stroke-width="0.9921" stroke-linecap="round" stroke-linejoin="round" stroke-miterlimit="10" cx="452.1" cy="220.2" r="9.2"/>
</g>
<g id="SPLINE_28_">
	
		<circle fill="none" stroke="#00CC66" stroke-width="0.9921" stroke-linecap="round" stroke-linejoin="round" stroke-miterlimit="10" cx="473" cy="220.2" r="4.3"/>
</g>
<g id="SPLINE_29_">
	
		<circle fill="none" stroke="#00CC66" stroke-width="0.9921" stroke-linecap="round" stroke-linejoin="round" stroke-miterlimit="10" cx="473" cy="220.2" r="9.2"/>
</g>
<g id="SPLINE_30_">
	
		<circle fill="none" stroke="#00CC66" stroke-width="0.9921" stroke-linecap="round" stroke-linejoin="round" stroke-miterlimit="10" cx="431.1" cy="220.2" r="4.3"/>
</g>
<g id="SPLINE_31_">
	
		<circle fill="none" stroke="#00CC66" stroke-width="0.9921" stroke-linecap="round" stroke-linejoin="round" stroke-miterlimit="10" cx="431.1" cy="220.2" r="9.2"/>
</g>
<g id="SPLINE_32_">
	
		<circle fill="none" stroke="#00CC66" stroke-width="0.9921" stroke-linecap="round" stroke-linejoin="round" stroke-miterlimit="10" cx="493.9" cy="220.2" r="4.3"/>
</g>
<g id="SPLINE_33_">
	
		<circle fill="none" stroke="#00CC66" stroke-width="0.9921" stroke-linecap="round" stroke-linejoin="round" stroke-miterlimit="10" cx="493.9" cy="220.2" r="9.2"/>
</g>
<g id="SPLINE_34_">
	
		<circle fill="none" stroke="#00CC66" stroke-width="0.9921" stroke-linecap="round" stroke-linejoin="round" stroke-miterlimit="10" cx="452.1" cy="242.5" r="4.3"/>
</g>
<g id="SPLINE_35_">
	
		<circle fill="none" stroke="#00CC66" stroke-width="0.9921" stroke-linecap="round" stroke-linejoin="round" stroke-miterlimit="10" cx="452.1" cy="242.5" r="9.2"/>
</g>
<g id="SPLINE_36_">
	
		<circle fill="none" stroke="#00CC66" stroke-width="0.9921" stroke-linecap="round" stroke-linejoin="round" stroke-miterlimit="10" cx="473" cy="242.5" r="4.3"/>
</g>
<g id="SPLINE_37_">
	
		<circle fill="none" stroke="#00CC66" stroke-width="0.9921" stroke-linecap="round" stroke-linejoin="round" stroke-miterlimit="10" cx="473" cy="242.5" r="9.2"/>
</g>
<g id="SPLINE_38_">
	
		<circle fill="none" stroke="#00CC66" stroke-width="0.9921" stroke-linecap="round" stroke-linejoin="round" stroke-miterlimit="10" cx="493.9" cy="264" r="4.3"/>
</g>
<g id="SPLINE_39_">
	
		<circle fill="none" stroke="#00CC66" stroke-width="0.9921" stroke-linecap="round" stroke-linejoin="round" stroke-miterlimit="10" cx="493.9" cy="264" r="9.2"/>
</g>
<g id="SPLINE_40_">
	
		<circle fill="none" stroke="#00CC66" stroke-width="0.9921" stroke-linecap="round" stroke-linejoin="round" stroke-miterlimit="10" cx="493.9" cy="242.5" r="4.3"/>
</g>
<g id="SPLINE_41_">
	
		<circle fill="none" stroke="#00CC66" stroke-width="0.9921" stroke-linecap="round" stroke-linejoin="round" stroke-miterlimit="10" cx="493.9" cy="242.5" r="9.2"/>
</g>
</svg>
