G75*
%MOIN*%
%OFA0B0*%
%FSLAX26Y26*%
%IPPOS*%
%LPD*%
%AMOC8*
5,1,8,0,0,1.08239X$1,22.5*
%
%ADD10OC8,0.063000*%
%ADD11C,0.074000*%
%ADD12C,0.065000*%
%ADD13OC8,0.056000*%
%ADD14C,0.063370*%
%ADD15C,0.055496*%
%ADD16R,0.067307X0.067307*%
%ADD17C,0.067307*%
%ADD18C,0.064000*%
%ADD19C,0.170000*%
%ADD20R,0.106299X0.106299*%
%ADD21C,0.106299*%
%ADD22C,0.016000*%
%ADD23C,0.064961*%
D10*
X00902539Y01342402D03*
X01002539Y01342402D03*
X01102539Y01342402D03*
X01202539Y01342402D03*
X01202539Y01642402D03*
X01102539Y01642402D03*
X01002539Y01642402D03*
X00902539Y01642402D03*
D11*
X00775866Y01759740D03*
X00623780Y01620079D03*
X00548780Y01670079D03*
X00548780Y01570079D03*
X00442874Y01293307D03*
X00442874Y01206693D03*
X00142874Y01206693D03*
X00142874Y01293307D03*
X00841118Y00516976D03*
X01019118Y00516976D03*
X01234819Y00516976D03*
X01412819Y00516976D03*
X01628520Y00516976D03*
X01806520Y00516976D03*
X01806520Y00260976D03*
X01628520Y00260976D03*
X01412819Y00260976D03*
X01234819Y00260976D03*
X01019118Y00260976D03*
X00841118Y00260976D03*
X01306685Y01440965D03*
X01392189Y01440465D03*
X01392189Y01740465D03*
X01306685Y01740965D03*
X01250000Y01862500D03*
X01100969Y01759142D03*
X01100969Y02059142D03*
X01056260Y02154803D03*
X01250000Y02162500D03*
X00775866Y02059740D03*
X00756260Y02154803D03*
X00670827Y02080315D03*
X00670827Y02380315D03*
X01239591Y02731363D03*
X01361679Y02730763D03*
X01476168Y02723962D03*
X01573811Y02942895D03*
X01688300Y02936094D03*
X01451723Y02943495D03*
X02362103Y02332615D03*
X02574235Y02544747D03*
X02661291Y02051984D03*
X02661291Y01751984D03*
X02608055Y01601976D03*
X02430055Y01601976D03*
X02430055Y01345976D03*
X02430055Y01201976D03*
X02608055Y01201976D03*
X02608055Y01345976D03*
X02608055Y00945976D03*
X02430055Y00945976D03*
X02430055Y00516976D03*
X02608055Y00516976D03*
X02608055Y00260976D03*
X02430055Y00260976D03*
D12*
X02166890Y00913386D03*
X02166890Y01013386D03*
X01499748Y01639457D03*
X01499748Y01739457D03*
X01002795Y01759504D03*
X01002795Y01859504D03*
X01102047Y01217894D03*
X01102047Y01117894D03*
D13*
X02518055Y00781476D03*
X02518055Y00681476D03*
D14*
X02173976Y02428346D03*
X02073976Y02428346D03*
X01973976Y02428346D03*
X01873976Y02428346D03*
X01773976Y02428346D03*
X01673976Y02428346D03*
X01573976Y02428346D03*
X01473976Y02428346D03*
X01373976Y02428346D03*
X01273976Y02428346D03*
X01173976Y02428346D03*
X01073976Y02428346D03*
X00973976Y02428346D03*
X00873976Y02428346D03*
X00773976Y02428346D03*
X00773976Y03028346D03*
X00873976Y03028346D03*
X00973976Y03028346D03*
X01073976Y03028346D03*
X01173976Y03028346D03*
X01273976Y03028346D03*
X01373976Y03028346D03*
X01473976Y03028346D03*
X01573976Y03028346D03*
X01673976Y03028346D03*
X01773976Y03028346D03*
X01873976Y03028346D03*
X01973976Y03028346D03*
X02073976Y03028346D03*
X02173976Y03028346D03*
D15*
X02193063Y01822441D02*
X02137567Y01822441D01*
X02137567Y01722441D02*
X02193063Y01722441D01*
X02193063Y01622441D02*
X02137567Y01622441D01*
X02137567Y01522441D02*
X02193063Y01522441D01*
X02193063Y01422441D02*
X02137567Y01422441D01*
X02137567Y01322441D02*
X02193063Y01322441D01*
X02193063Y01222441D02*
X02137567Y01222441D01*
X02137567Y01122441D02*
X02193063Y01122441D01*
X01893063Y01122441D02*
X01837567Y01122441D01*
X01837567Y01222441D02*
X01893063Y01222441D01*
X01893063Y01322441D02*
X01837567Y01322441D01*
X01837567Y01422441D02*
X01893063Y01422441D01*
X01893063Y01522441D02*
X01837567Y01522441D01*
X01837567Y01622441D02*
X01893063Y01622441D01*
X01893063Y01722441D02*
X01837567Y01722441D01*
X01837567Y01822441D02*
X01893063Y01822441D01*
D16*
X02322402Y01822441D03*
D17*
X02322402Y01722441D03*
X02322402Y01622441D03*
X02322402Y01522441D03*
X02322402Y01422441D03*
X02322402Y01322441D03*
X02322402Y01222441D03*
X02322402Y01122441D03*
D18*
X00500000Y02968000D02*
X00500000Y03032000D01*
X00400000Y03032000D02*
X00400000Y02968000D01*
X00300000Y02968000D02*
X00300000Y03032000D01*
X00232354Y01629528D02*
X00168354Y01629528D01*
X00168354Y01529528D02*
X00232354Y01529528D01*
X00232354Y01429528D02*
X00168354Y01429528D01*
D19*
X00302717Y02505906D03*
X00420827Y02690945D03*
X00184606Y02690945D03*
D20*
X00070433Y01960630D03*
D21*
X00212165Y01779528D03*
X00338150Y02059055D03*
X00385394Y02165354D03*
X00511378Y01799213D03*
D22*
X00027235Y00031997D02*
X02816820Y00031997D01*
X02819668Y00034845D02*
X02809210Y00024387D01*
X02795548Y00018728D01*
X02788153Y00018000D01*
X00055902Y00018000D01*
X00048507Y00018728D01*
X00034845Y00024387D01*
X00024387Y00034845D01*
X00018728Y00048507D01*
X00018000Y00055902D01*
X00018000Y01889480D01*
X00062433Y01889480D01*
X00062433Y01952629D01*
X00078433Y01952629D01*
X00078433Y01889480D01*
X00125952Y01889480D01*
X00130530Y01890707D01*
X00134635Y01893077D01*
X00137986Y01896428D01*
X00140356Y01900532D01*
X00141583Y01905110D01*
X00141582Y01952630D01*
X00078434Y01952630D01*
X00078434Y01968630D01*
X00141583Y01968630D01*
X00141583Y02016149D01*
X00140356Y02020727D01*
X00137986Y02024832D01*
X00134635Y02028183D01*
X00130530Y02030553D01*
X00125952Y02031779D01*
X00078433Y02031779D01*
X00078433Y01968630D01*
X00062433Y01968630D01*
X00062433Y02031779D01*
X00018000Y02031779D01*
X00018000Y03109211D01*
X00018649Y03117456D01*
X00023745Y03133141D01*
X00033438Y03146483D01*
X00046780Y03156176D01*
X00062465Y03161272D01*
X00070711Y03161921D01*
X02788153Y03161921D01*
X02795548Y03161193D01*
X02809210Y03155534D01*
X02819668Y03145077D01*
X02825327Y03131414D01*
X02826055Y03124020D01*
X02826055Y00055902D01*
X02825327Y00048507D01*
X02819668Y00034845D01*
X02825115Y00047996D02*
X00018940Y00047996D01*
X00018000Y00063994D02*
X02826055Y00063994D01*
X02826055Y00079993D02*
X00018000Y00079993D01*
X00018000Y00095991D02*
X02826055Y00095991D01*
X02826055Y00111990D02*
X02765017Y00111990D01*
X02762703Y00109676D02*
X02784379Y00131352D01*
X02796110Y00159673D01*
X02796110Y00190327D01*
X02784379Y00218648D01*
X02762703Y00240324D01*
X02734382Y00252055D01*
X02703728Y00252055D01*
X02675407Y00240324D01*
X02653731Y00218648D01*
X02642000Y00190327D01*
X02642000Y00159673D01*
X02653731Y00131352D01*
X02675407Y00109676D01*
X02703728Y00097945D01*
X02734382Y00097945D01*
X02762703Y00109676D01*
X02781016Y00127988D02*
X02826055Y00127988D01*
X02826055Y00143987D02*
X02789613Y00143987D01*
X02796110Y00159985D02*
X02826055Y00159985D01*
X02826055Y00175984D02*
X02796110Y00175984D01*
X02795425Y00191982D02*
X02826055Y00191982D01*
X02826055Y00207981D02*
X02788798Y00207981D01*
X02779048Y00223979D02*
X02826055Y00223979D01*
X02826055Y00239978D02*
X02763049Y00239978D01*
X02826055Y00255976D02*
X02659055Y00255976D01*
X02659055Y00250832D02*
X02651291Y00232087D01*
X02636944Y00217741D01*
X02618200Y00209976D01*
X02597910Y00209976D01*
X02579166Y00217741D01*
X02564819Y00232087D01*
X02557055Y00250832D01*
X02557055Y00271121D01*
X02564819Y00289866D01*
X02579166Y00304212D01*
X02597910Y00311976D01*
X02618200Y00311976D01*
X02636944Y00304212D01*
X02651291Y00289866D01*
X02659055Y00271121D01*
X02659055Y00250832D01*
X02654559Y00239978D02*
X02675061Y00239978D01*
X02659062Y00223979D02*
X02643183Y00223979D01*
X02649313Y00207981D02*
X02444935Y00207981D01*
X02442934Y00207331D02*
X02451168Y00210006D01*
X02458881Y00213936D01*
X02465885Y00219025D01*
X02472007Y00225146D01*
X02477095Y00232150D01*
X02481025Y00239864D01*
X02483701Y00248097D01*
X02485055Y00256648D01*
X02485055Y00258976D01*
X02432056Y00258976D01*
X02432056Y00262976D01*
X02485055Y00262976D01*
X02485055Y00265305D01*
X02483701Y00273856D01*
X02481025Y00282089D01*
X02477095Y00289803D01*
X02472007Y00296806D01*
X02465885Y00302928D01*
X02458881Y00308016D01*
X02451168Y00311947D01*
X02442934Y00314622D01*
X02434384Y00315976D01*
X02432055Y00315976D01*
X02432055Y00262977D01*
X02428055Y00262977D01*
X02428055Y00315976D01*
X02425726Y00315976D01*
X02417176Y00314622D01*
X02408942Y00311947D01*
X02401229Y00308016D01*
X02394225Y00302928D01*
X02388103Y00296806D01*
X02383015Y00289803D01*
X02379085Y00282089D01*
X02376409Y00273856D01*
X02375055Y00265305D01*
X02375055Y00262976D01*
X02428054Y00262976D01*
X02428054Y00258976D01*
X02375055Y00258976D01*
X02375055Y00256648D01*
X02376409Y00248097D01*
X02379085Y00239864D01*
X02383015Y00232150D01*
X02388103Y00225146D01*
X02394225Y00219025D01*
X02401229Y00213936D01*
X02408942Y00210006D01*
X02417176Y00207331D01*
X02425726Y00205976D01*
X02428055Y00205976D01*
X02428055Y00258976D01*
X02432055Y00258976D01*
X02432055Y00205976D01*
X02434384Y00205976D01*
X02442934Y00207331D01*
X02432055Y00207981D02*
X02428055Y00207981D01*
X02415175Y00207981D02*
X01821400Y00207981D01*
X01819399Y00207331D02*
X01827632Y00210006D01*
X01835346Y00213936D01*
X01842350Y00219025D01*
X01848471Y00225146D01*
X01853560Y00232150D01*
X01857490Y00239864D01*
X01860165Y00248097D01*
X01861520Y00256648D01*
X01861520Y00258976D01*
X01808520Y00258976D01*
X01808520Y00262976D01*
X01861520Y00262976D01*
X01861520Y00265305D01*
X01860165Y00273856D01*
X01857490Y00282089D01*
X01853560Y00289803D01*
X01848471Y00296806D01*
X01842350Y00302928D01*
X01835346Y00308016D01*
X01827632Y00311947D01*
X01819399Y00314622D01*
X01810848Y00315976D01*
X01808520Y00315976D01*
X01808520Y00262977D01*
X01804519Y00262977D01*
X01804519Y00315976D01*
X01802191Y00315976D01*
X01793640Y00314622D01*
X01785407Y00311947D01*
X01777693Y00308016D01*
X01770690Y00302928D01*
X01764568Y00296806D01*
X01759479Y00289803D01*
X01755549Y00282089D01*
X01752874Y00273856D01*
X01751520Y00265305D01*
X01751520Y00262976D01*
X01804519Y00262976D01*
X01804519Y00258976D01*
X01751520Y00258976D01*
X01751520Y00256648D01*
X01752874Y00248097D01*
X01755549Y00239864D01*
X01759479Y00232150D01*
X01764568Y00225146D01*
X01770690Y00219025D01*
X01777693Y00213936D01*
X01785407Y00210006D01*
X01793640Y00207331D01*
X01802191Y00205976D01*
X01804519Y00205976D01*
X01804519Y00258976D01*
X01808520Y00258976D01*
X01808520Y00205976D01*
X01810848Y00205976D01*
X01819399Y00207331D01*
X01808520Y00207981D02*
X01804519Y00207981D01*
X01791640Y00207981D02*
X01427699Y00207981D01*
X01425698Y00207331D02*
X01433931Y00210006D01*
X01441645Y00213936D01*
X01448649Y00219025D01*
X01454770Y00225146D01*
X01459859Y00232150D01*
X01463789Y00239864D01*
X01466464Y00248097D01*
X01467819Y00256648D01*
X01467819Y00258976D01*
X01414820Y00258976D01*
X01414820Y00262976D01*
X01467819Y00262976D01*
X01467819Y00265305D01*
X01466464Y00273856D01*
X01463789Y00282089D01*
X01459859Y00289803D01*
X01454770Y00296806D01*
X01448649Y00302928D01*
X01441645Y00308016D01*
X01433931Y00311947D01*
X01425698Y00314622D01*
X01417148Y00315976D01*
X01414819Y00315976D01*
X01414819Y00262977D01*
X01410819Y00262977D01*
X01410819Y00315976D01*
X01408490Y00315976D01*
X01399940Y00314622D01*
X01391706Y00311947D01*
X01383992Y00308016D01*
X01376989Y00302928D01*
X01370867Y00296806D01*
X01365779Y00289803D01*
X01361848Y00282089D01*
X01359173Y00273856D01*
X01357819Y00265305D01*
X01357819Y00262976D01*
X01410818Y00262976D01*
X01410818Y00258976D01*
X01357819Y00258976D01*
X01357819Y00256648D01*
X01359173Y00248097D01*
X01361848Y00239864D01*
X01365779Y00232150D01*
X01370867Y00225146D01*
X01376989Y00219025D01*
X01383992Y00213936D01*
X01391706Y00210006D01*
X01399940Y00207331D01*
X01408490Y00205976D01*
X01410819Y00205976D01*
X01410819Y00258976D01*
X01414819Y00258976D01*
X01414819Y00205976D01*
X01417148Y00205976D01*
X01425698Y00207331D01*
X01414819Y00207981D02*
X01410819Y00207981D01*
X01397939Y00207981D02*
X01033998Y00207981D01*
X01031997Y00207331D02*
X01040231Y00210006D01*
X01047944Y00213936D01*
X01054948Y00219025D01*
X01061070Y00225146D01*
X01066158Y00232150D01*
X01070088Y00239864D01*
X01072764Y00248097D01*
X01074118Y00256648D01*
X01074118Y00258976D01*
X01021119Y00258976D01*
X01021119Y00262976D01*
X01074118Y00262976D01*
X01074118Y00265305D01*
X01072764Y00273856D01*
X01070088Y00282089D01*
X01066158Y00289803D01*
X01061070Y00296806D01*
X01054948Y00302928D01*
X01047944Y00308016D01*
X01040231Y00311947D01*
X01031997Y00314622D01*
X01023447Y00315976D01*
X01021118Y00315976D01*
X01021118Y00262977D01*
X01017118Y00262977D01*
X01017118Y00315976D01*
X01014789Y00315976D01*
X01006239Y00314622D01*
X00998005Y00311947D01*
X00990292Y00308016D01*
X00983288Y00302928D01*
X00977166Y00296806D01*
X00972078Y00289803D01*
X00968148Y00282089D01*
X00965472Y00273856D01*
X00964118Y00265305D01*
X00964118Y00262976D01*
X01017117Y00262976D01*
X01017117Y00258976D01*
X00964118Y00258976D01*
X00964118Y00256648D01*
X00965472Y00248097D01*
X00968148Y00239864D01*
X00972078Y00232150D01*
X00977166Y00225146D01*
X00983288Y00219025D01*
X00990292Y00213936D01*
X00998005Y00210006D01*
X01006239Y00207331D01*
X01014789Y00205976D01*
X01017118Y00205976D01*
X01017118Y00258976D01*
X01021118Y00258976D01*
X01021118Y00205976D01*
X01023447Y00205976D01*
X01031997Y00207331D01*
X01021118Y00207981D02*
X01017118Y00207981D01*
X01004238Y00207981D02*
X00194743Y00207981D01*
X00190324Y00218648D02*
X00168648Y00240324D01*
X00140327Y00252055D01*
X00109673Y00252055D01*
X00081352Y00240324D01*
X00059676Y00218648D01*
X00047945Y00190327D01*
X00047945Y00159673D01*
X00059676Y00131352D01*
X00081352Y00109676D01*
X00109673Y00097945D01*
X00140327Y00097945D01*
X00168648Y00109676D01*
X00190324Y00131352D01*
X00202055Y00159673D01*
X00202055Y00190327D01*
X00190324Y00218648D01*
X00184993Y00223979D02*
X00805990Y00223979D01*
X00812229Y00217741D02*
X00830973Y00209976D01*
X00851263Y00209976D01*
X00870007Y00217741D01*
X00884354Y00232087D01*
X00892118Y00250832D01*
X00892118Y00271121D01*
X00884354Y00289866D01*
X00870007Y00304212D01*
X00851263Y00311976D01*
X00830973Y00311976D01*
X00812229Y00304212D01*
X00797882Y00289866D01*
X00790118Y00271121D01*
X00790118Y00250832D01*
X00797882Y00232087D01*
X00812229Y00217741D01*
X00794614Y00239978D02*
X00168994Y00239978D01*
X00201369Y00191982D02*
X02642686Y00191982D01*
X02642000Y00175984D02*
X00202055Y00175984D01*
X00202055Y00159985D02*
X02642000Y00159985D01*
X02648497Y00143987D02*
X00195558Y00143987D01*
X00186961Y00127988D02*
X02657094Y00127988D01*
X02673093Y00111990D02*
X00170962Y00111990D01*
X00079038Y00111990D02*
X00018000Y00111990D01*
X00018000Y00127988D02*
X00063039Y00127988D01*
X00054442Y00143987D02*
X00018000Y00143987D01*
X00018000Y00159985D02*
X00047945Y00159985D01*
X00047945Y00175984D02*
X00018000Y00175984D01*
X00018000Y00191982D02*
X00048631Y00191982D01*
X00055257Y00207981D02*
X00018000Y00207981D01*
X00018000Y00223979D02*
X00065007Y00223979D01*
X00081006Y00239978D02*
X00018000Y00239978D01*
X00018000Y00255976D02*
X00790118Y00255976D01*
X00790472Y00271975D02*
X00018000Y00271975D01*
X00018000Y00287973D02*
X00797099Y00287973D01*
X00811989Y00303972D02*
X00018000Y00303972D01*
X00018000Y00319970D02*
X02826055Y00319970D01*
X02826055Y00303972D02*
X02637184Y00303972D01*
X02652075Y00287973D02*
X02826055Y00287973D01*
X02826055Y00271975D02*
X02658701Y00271975D01*
X02578926Y00303972D02*
X02464448Y00303972D01*
X02478027Y00287973D02*
X02564036Y00287973D01*
X02557409Y00271975D02*
X02483999Y00271975D01*
X02484949Y00255976D02*
X02557055Y00255976D01*
X02561551Y00239978D02*
X02481063Y00239978D01*
X02470840Y00223979D02*
X02572927Y00223979D01*
X02432055Y00223979D02*
X02428055Y00223979D01*
X02428055Y00239978D02*
X02432055Y00239978D01*
X02432055Y00255976D02*
X02428055Y00255976D01*
X02430055Y00260976D02*
X02430055Y00516976D01*
X02428054Y00514976D02*
X02375055Y00514976D01*
X02375055Y00512648D01*
X02376409Y00504097D01*
X02379085Y00495864D01*
X02383015Y00488150D01*
X02388103Y00481146D01*
X02394225Y00475025D01*
X02401229Y00469936D01*
X02408942Y00466006D01*
X02417176Y00463331D01*
X02425726Y00461976D01*
X02428055Y00461976D01*
X02428055Y00514976D01*
X02432055Y00514976D01*
X02432055Y00461976D01*
X02434384Y00461976D01*
X02442934Y00463331D01*
X02451168Y00466006D01*
X02458881Y00469936D01*
X02465885Y00475025D01*
X02472007Y00481146D01*
X02477095Y00488150D01*
X02481025Y00495864D01*
X02483701Y00504097D01*
X02485055Y00512648D01*
X02485055Y00514976D01*
X02432056Y00514976D01*
X02432056Y00518976D01*
X02485055Y00518976D01*
X02485055Y00521305D01*
X02483701Y00529856D01*
X02481025Y00538089D01*
X02477095Y00545803D01*
X02472007Y00552806D01*
X02465885Y00558928D01*
X02458881Y00564016D01*
X02451168Y00567947D01*
X02442934Y00570622D01*
X02434384Y00571976D01*
X02432055Y00571976D01*
X02432055Y00518977D01*
X02428055Y00518977D01*
X02428055Y00571976D01*
X02425726Y00571976D01*
X02417176Y00570622D01*
X02408942Y00567947D01*
X02401229Y00564016D01*
X02394225Y00558928D01*
X02388103Y00552806D01*
X02383015Y00545803D01*
X02379085Y00538089D01*
X02376409Y00529856D01*
X02375055Y00521305D01*
X02375055Y00518976D01*
X02428054Y00518976D01*
X02428054Y00514976D01*
X02428055Y00511953D02*
X02432055Y00511953D01*
X02432055Y00527951D02*
X02428055Y00527951D01*
X02428055Y00543950D02*
X02432055Y00543950D01*
X02432055Y00559948D02*
X02428055Y00559948D01*
X02395630Y00559948D02*
X01840945Y00559948D01*
X01842350Y00558928D02*
X01835346Y00564016D01*
X01827632Y00567947D01*
X01819399Y00570622D01*
X01810848Y00571976D01*
X01808520Y00571976D01*
X01808520Y00518977D01*
X01804519Y00518977D01*
X01804519Y00571976D01*
X01802191Y00571976D01*
X01793640Y00570622D01*
X01785407Y00567947D01*
X01777693Y00564016D01*
X01770690Y00558928D01*
X01764568Y00552806D01*
X01759479Y00545803D01*
X01755549Y00538089D01*
X01752874Y00529856D01*
X01751520Y00521305D01*
X01751520Y00518976D01*
X01804519Y00518976D01*
X01804519Y00514976D01*
X01751520Y00514976D01*
X01751520Y00512648D01*
X01752874Y00504097D01*
X01755549Y00495864D01*
X01759479Y00488150D01*
X01764568Y00481146D01*
X01770690Y00475025D01*
X01777693Y00469936D01*
X01785407Y00466006D01*
X01793640Y00463331D01*
X01802191Y00461976D01*
X01804519Y00461976D01*
X01804519Y00514976D01*
X01808520Y00514976D01*
X01808520Y00518976D01*
X01861520Y00518976D01*
X01861520Y00521305D01*
X01860165Y00529856D01*
X01857490Y00538089D01*
X01853560Y00545803D01*
X01848471Y00552806D01*
X01842350Y00558928D01*
X01854504Y00543950D02*
X02382071Y00543950D01*
X02376108Y00527951D02*
X01860467Y00527951D01*
X01861520Y00514976D02*
X01808520Y00514976D01*
X01808520Y00461976D01*
X01810848Y00461976D01*
X01819399Y00463331D01*
X01827632Y00466006D01*
X01835346Y00469936D01*
X01842350Y00475025D01*
X01848471Y00481146D01*
X01853560Y00488150D01*
X01857490Y00495864D01*
X01860165Y00504097D01*
X01861520Y00512648D01*
X01861520Y00514976D01*
X01861409Y00511953D02*
X02375165Y00511953D01*
X02379055Y00495954D02*
X01857519Y00495954D01*
X01847281Y00479956D02*
X02389294Y00479956D01*
X02415248Y00463957D02*
X01821327Y00463957D01*
X01808520Y00463957D02*
X01804519Y00463957D01*
X01791712Y00463957D02*
X01427626Y00463957D01*
X01425698Y00463331D02*
X01433931Y00466006D01*
X01441645Y00469936D01*
X01448649Y00475025D01*
X01454770Y00481146D01*
X01459859Y00488150D01*
X01463789Y00495864D01*
X01466464Y00504097D01*
X01467819Y00512648D01*
X01467819Y00514976D01*
X01414820Y00514976D01*
X01414820Y00518976D01*
X01467819Y00518976D01*
X01467819Y00521305D01*
X01466464Y00529856D01*
X01463789Y00538089D01*
X01459859Y00545803D01*
X01454770Y00552806D01*
X01448649Y00558928D01*
X01441645Y00564016D01*
X01433931Y00567947D01*
X01425698Y00570622D01*
X01417148Y00571976D01*
X01414819Y00571976D01*
X01414819Y00518977D01*
X01410819Y00518977D01*
X01410819Y00571976D01*
X01408490Y00571976D01*
X01399940Y00570622D01*
X01391706Y00567947D01*
X01383992Y00564016D01*
X01376989Y00558928D01*
X01370867Y00552806D01*
X01365779Y00545803D01*
X01361848Y00538089D01*
X01359173Y00529856D01*
X01357819Y00521305D01*
X01357819Y00518976D01*
X01410818Y00518976D01*
X01410818Y00514976D01*
X01357819Y00514976D01*
X01357819Y00512648D01*
X01359173Y00504097D01*
X01361848Y00495864D01*
X01365779Y00488150D01*
X01370867Y00481146D01*
X01376989Y00475025D01*
X01383992Y00469936D01*
X01391706Y00466006D01*
X01399940Y00463331D01*
X01408490Y00461976D01*
X01410819Y00461976D01*
X01410819Y00514976D01*
X01414819Y00514976D01*
X01414819Y00461976D01*
X01417148Y00461976D01*
X01425698Y00463331D01*
X01414819Y00463957D02*
X01410819Y00463957D01*
X01398011Y00463957D02*
X01033925Y00463957D01*
X01031997Y00463331D02*
X01040231Y00466006D01*
X01047944Y00469936D01*
X01054948Y00475025D01*
X01061070Y00481146D01*
X01066158Y00488150D01*
X01070088Y00495864D01*
X01072764Y00504097D01*
X01074118Y00512648D01*
X01074118Y00514976D01*
X01021119Y00514976D01*
X01021119Y00518976D01*
X01074118Y00518976D01*
X01074118Y00521305D01*
X01072764Y00529856D01*
X01070088Y00538089D01*
X01066158Y00545803D01*
X01061070Y00552806D01*
X01054948Y00558928D01*
X01047944Y00564016D01*
X01040231Y00567947D01*
X01031997Y00570622D01*
X01023447Y00571976D01*
X01021118Y00571976D01*
X01021118Y00518977D01*
X01017118Y00518977D01*
X01017118Y00571976D01*
X01014789Y00571976D01*
X01006239Y00570622D01*
X00998005Y00567947D01*
X00990292Y00564016D01*
X00983288Y00558928D01*
X00977166Y00552806D01*
X00972078Y00545803D01*
X00968148Y00538089D01*
X00965472Y00529856D01*
X00964118Y00521305D01*
X00964118Y00518976D01*
X01017117Y00518976D01*
X01017117Y00514976D01*
X00964118Y00514976D01*
X00964118Y00512648D01*
X00965472Y00504097D01*
X00968148Y00495864D01*
X00972078Y00488150D01*
X00977166Y00481146D01*
X00983288Y00475025D01*
X00990292Y00469936D01*
X00998005Y00466006D01*
X01006239Y00463331D01*
X01014789Y00461976D01*
X01017118Y00461976D01*
X01017118Y00514976D01*
X01021118Y00514976D01*
X01021118Y00461976D01*
X01023447Y00461976D01*
X01031997Y00463331D01*
X01021118Y00463957D02*
X01017118Y00463957D01*
X01004311Y00463957D02*
X00018000Y00463957D01*
X00018000Y00447959D02*
X02826055Y00447959D01*
X02826055Y00463957D02*
X02444862Y00463957D01*
X02432055Y00463957D02*
X02428055Y00463957D01*
X02428055Y00479956D02*
X02432055Y00479956D01*
X02432055Y00495954D02*
X02428055Y00495954D01*
X02470816Y00479956D02*
X02572951Y00479956D01*
X02579166Y00473741D02*
X02597910Y00465976D01*
X02618200Y00465976D01*
X02636944Y00473741D01*
X02651291Y00488087D01*
X02659055Y00506832D01*
X02659055Y00527121D01*
X02651291Y00545866D01*
X02636944Y00560212D01*
X02618200Y00567976D01*
X02597910Y00567976D01*
X02579166Y00560212D01*
X02564819Y00545866D01*
X02557055Y00527121D01*
X02557055Y00506832D01*
X02564819Y00488087D01*
X02579166Y00473741D01*
X02561561Y00495954D02*
X02481055Y00495954D01*
X02484945Y00511953D02*
X02557055Y00511953D01*
X02557399Y00527951D02*
X02484002Y00527951D01*
X02478039Y00543950D02*
X02564026Y00543950D01*
X02578902Y00559948D02*
X02464481Y00559948D01*
X02499001Y00635476D02*
X02472055Y00662422D01*
X02472055Y00681476D01*
X02518054Y00681476D01*
X02518054Y00681477D01*
X02472055Y00681477D01*
X02472055Y00700530D01*
X02499001Y00727476D01*
X02518054Y00727476D01*
X02518054Y00681478D01*
X02518056Y00681478D01*
X02518056Y00727476D01*
X02537109Y00727476D01*
X02564055Y00700530D01*
X02564055Y00681477D01*
X02518056Y00681477D01*
X02518056Y00681476D01*
X02564055Y00681476D01*
X02564055Y00662422D01*
X02537109Y00635476D01*
X02518056Y00635476D01*
X02518056Y00681475D01*
X02518054Y00681475D01*
X02518054Y00635476D01*
X02499001Y00635476D01*
X02494537Y00639941D02*
X00018000Y00639941D01*
X00018000Y00623942D02*
X02826055Y00623942D01*
X02826055Y00607944D02*
X00018000Y00607944D01*
X00018000Y00591945D02*
X02826055Y00591945D01*
X02826055Y00575947D02*
X00018000Y00575947D01*
X00018000Y00559948D02*
X00811965Y00559948D01*
X00812229Y00560212D02*
X00797882Y00545866D01*
X00790118Y00527121D01*
X00790118Y00506832D01*
X00797882Y00488087D01*
X00812229Y00473741D01*
X00830973Y00465976D01*
X00851263Y00465976D01*
X00870007Y00473741D01*
X00884354Y00488087D01*
X00892118Y00506832D01*
X00892118Y00527121D01*
X00884354Y00545866D01*
X00870007Y00560212D01*
X00851263Y00567976D01*
X00830973Y00567976D01*
X00812229Y00560212D01*
X00797089Y00543950D02*
X00018000Y00543950D01*
X00018000Y00527951D02*
X00790462Y00527951D01*
X00790118Y00511953D02*
X00018000Y00511953D01*
X00018000Y00495954D02*
X00794624Y00495954D01*
X00806014Y00479956D02*
X00018000Y00479956D01*
X00018000Y00431960D02*
X02826055Y00431960D01*
X02826055Y00415962D02*
X00018000Y00415962D01*
X00018000Y00399963D02*
X02826055Y00399963D01*
X02826055Y00383965D02*
X00018000Y00383965D01*
X00018000Y00367966D02*
X02826055Y00367966D01*
X02826055Y00351968D02*
X00018000Y00351968D01*
X00018000Y00335969D02*
X02826055Y00335969D01*
X02826055Y00479956D02*
X02643159Y00479956D01*
X02654549Y00495954D02*
X02826055Y00495954D01*
X02826055Y00511953D02*
X02659055Y00511953D01*
X02658711Y00527951D02*
X02826055Y00527951D01*
X02826055Y00543950D02*
X02652084Y00543950D01*
X02637208Y00559948D02*
X02826055Y00559948D01*
X02826055Y00639941D02*
X02541573Y00639941D01*
X02557572Y00655939D02*
X02826055Y00655939D01*
X02826055Y00671938D02*
X02564055Y00671938D01*
X02564055Y00687937D02*
X02826055Y00687937D01*
X02826055Y00703935D02*
X02560650Y00703935D01*
X02544652Y00719934D02*
X02826055Y00719934D01*
X02826055Y00735932D02*
X00370782Y00735932D01*
X00371480Y00734245D02*
X00364404Y00751329D01*
X00351329Y00764404D01*
X00334245Y00771480D01*
X00315754Y00771480D01*
X00298671Y00764404D01*
X00285596Y00751329D01*
X00278520Y00734245D01*
X00278520Y00715754D01*
X00285596Y00698671D01*
X00298671Y00685596D01*
X00315754Y00678520D01*
X00334245Y00678520D01*
X00351329Y00685596D01*
X00364404Y00698671D01*
X00371480Y00715754D01*
X00371480Y00734245D01*
X00371480Y00719934D02*
X02491459Y00719934D01*
X02500658Y00739476D02*
X02535452Y00739476D01*
X02560055Y00764079D01*
X02560055Y00798873D01*
X02535452Y00823476D01*
X02500658Y00823476D01*
X02476055Y00798873D01*
X02476055Y00764079D01*
X02500658Y00739476D01*
X02488204Y00751931D02*
X00363802Y00751931D01*
X00342819Y00767929D02*
X02476055Y00767929D01*
X02476055Y00783928D02*
X00347301Y00783928D01*
X00351329Y00785596D02*
X00334245Y00778520D01*
X00315754Y00778520D01*
X00298671Y00785596D01*
X00285596Y00798671D01*
X00278520Y00815754D01*
X00278520Y00834245D01*
X00285596Y00851329D01*
X00298671Y00864404D01*
X00315754Y00871480D01*
X00334245Y00871480D01*
X00351329Y00864404D01*
X00364404Y00851329D01*
X00371480Y00834245D01*
X00371480Y00815754D01*
X00364404Y00798671D01*
X00351329Y00785596D01*
X00364924Y00799926D02*
X02477108Y00799926D01*
X02493107Y00815925D02*
X00371480Y00815925D01*
X00371480Y00831923D02*
X02826055Y00831923D01*
X02826055Y00815925D02*
X02543004Y00815925D01*
X02559002Y00799926D02*
X02826055Y00799926D01*
X02826055Y00783928D02*
X02560055Y00783928D01*
X02560055Y00767929D02*
X02826055Y00767929D01*
X02826055Y00751931D02*
X02547906Y00751931D01*
X02518056Y00719934D02*
X02518054Y00719934D01*
X02518054Y00703935D02*
X02518056Y00703935D01*
X02518054Y00687937D02*
X02518056Y00687937D01*
X02518054Y00671938D02*
X02518056Y00671938D01*
X02518054Y00655939D02*
X02518056Y00655939D01*
X02518054Y00639941D02*
X02518056Y00639941D01*
X02478538Y00655939D02*
X00018000Y00655939D01*
X00018000Y00671938D02*
X02472055Y00671938D01*
X02472055Y00687937D02*
X00353670Y00687937D01*
X00366584Y00703935D02*
X02475460Y00703935D01*
X02442934Y00892331D02*
X02451168Y00895006D01*
X02458881Y00898936D01*
X02465885Y00904025D01*
X02472007Y00910146D01*
X02477095Y00917150D01*
X02481025Y00924864D01*
X02483701Y00933097D01*
X02485055Y00941648D01*
X02485055Y00943976D01*
X02432056Y00943976D01*
X02432056Y00947976D01*
X02485055Y00947976D01*
X02485055Y00950305D01*
X02483701Y00958856D01*
X02481025Y00967089D01*
X02477095Y00974803D01*
X02472007Y00981806D01*
X02465885Y00987928D01*
X02458881Y00993016D01*
X02451168Y00996947D01*
X02442934Y00999622D01*
X02434384Y01000976D01*
X02432055Y01000976D01*
X02432055Y00947977D01*
X02428055Y00947977D01*
X02428055Y01000976D01*
X02425726Y01000976D01*
X02417176Y00999622D01*
X02408942Y00996947D01*
X02401229Y00993016D01*
X02394225Y00987928D01*
X02388103Y00981806D01*
X02383015Y00974803D01*
X02379085Y00967089D01*
X02376409Y00958856D01*
X02375055Y00950305D01*
X02375055Y00947976D01*
X02428054Y00947976D01*
X02428054Y00943976D01*
X02375055Y00943976D01*
X02375055Y00941648D01*
X02376409Y00933097D01*
X02379085Y00924864D01*
X02383015Y00917150D01*
X02388103Y00910146D01*
X02394225Y00904025D01*
X02401229Y00898936D01*
X02408942Y00895006D01*
X02417176Y00892331D01*
X02425726Y00890976D01*
X02428055Y00890976D01*
X02428055Y00943976D01*
X02432055Y00943976D01*
X02432055Y00890976D01*
X02434384Y00890976D01*
X02442934Y00892331D01*
X02452956Y00895917D02*
X02595639Y00895917D01*
X02597910Y00894976D02*
X02618200Y00894976D01*
X02636944Y00902741D01*
X02651291Y00917087D01*
X02659055Y00935832D01*
X02659055Y00956121D01*
X02651291Y00974866D01*
X02636944Y00989212D01*
X02618200Y00996976D01*
X02597910Y00996976D01*
X02579166Y00989212D01*
X02564819Y00974866D01*
X02557055Y00956121D01*
X02557055Y00935832D01*
X02564819Y00917087D01*
X02579166Y00902741D01*
X02597910Y00894976D01*
X02620471Y00895917D02*
X02826055Y00895917D01*
X02826055Y00879919D02*
X02204841Y00879919D01*
X02205409Y00880487D02*
X02210081Y00886918D01*
X02213690Y00894000D01*
X02216146Y00901560D01*
X02217390Y00909411D01*
X02217390Y00913385D01*
X02166891Y00913385D01*
X02166891Y00913386D01*
X02217390Y00913386D01*
X02217390Y00917360D01*
X02216146Y00925211D01*
X02213690Y00932771D01*
X02210081Y00939854D01*
X02205409Y00946284D01*
X02199788Y00951905D01*
X02193358Y00956577D01*
X02186275Y00960186D01*
X02178715Y00962642D01*
X02170864Y00963886D01*
X02166890Y00963886D01*
X02166890Y00913387D01*
X02166889Y00913387D01*
X02166889Y00963886D01*
X02162915Y00963886D01*
X02155064Y00962642D01*
X02147504Y00960186D01*
X02140422Y00956577D01*
X02133991Y00951905D01*
X02128370Y00946284D01*
X02123698Y00939854D01*
X02120090Y00932771D01*
X02117633Y00925211D01*
X02116390Y00917360D01*
X02116390Y00913386D01*
X02166888Y00913386D01*
X02166888Y00913385D01*
X02116390Y00913385D01*
X02116390Y00909411D01*
X02117633Y00901560D01*
X02120090Y00894000D01*
X02123698Y00886918D01*
X02128370Y00880487D01*
X02133991Y00874867D01*
X02140422Y00870194D01*
X02147504Y00866586D01*
X02155064Y00864129D01*
X02162915Y00862886D01*
X02166889Y00862886D01*
X02166889Y00913384D01*
X02166890Y00913384D01*
X02166890Y00862886D01*
X02170864Y00862886D01*
X02178715Y00864129D01*
X02186275Y00866586D01*
X02193358Y00870194D01*
X02199788Y00874867D01*
X02205409Y00880487D01*
X02214313Y00895917D02*
X02407154Y00895917D01*
X02428055Y00895917D02*
X02432055Y00895917D01*
X02432055Y00911916D02*
X02428055Y00911916D01*
X02428055Y00927914D02*
X02432055Y00927914D01*
X02432055Y00943913D02*
X02428055Y00943913D01*
X02430055Y00945976D02*
X02430055Y01201976D01*
X02428054Y01199976D02*
X02375055Y01199976D01*
X02375055Y01197648D01*
X02376409Y01189097D01*
X02379085Y01180864D01*
X02383015Y01173150D01*
X02388103Y01166146D01*
X02394225Y01160025D01*
X02401229Y01154936D01*
X02408942Y01151006D01*
X02417176Y01148331D01*
X02425726Y01146976D01*
X02428055Y01146976D01*
X02428055Y01199976D01*
X02432055Y01199976D01*
X02432055Y01146976D01*
X02434384Y01146976D01*
X02442934Y01148331D01*
X02451168Y01151006D01*
X02458881Y01154936D01*
X02465885Y01160025D01*
X02472007Y01166146D01*
X02477095Y01173150D01*
X02481025Y01180864D01*
X02483701Y01189097D01*
X02485055Y01197648D01*
X02485055Y01199976D01*
X02432056Y01199976D01*
X02432056Y01203976D01*
X02485055Y01203976D01*
X02485055Y01206305D01*
X02483701Y01214856D01*
X02481025Y01223089D01*
X02477095Y01230803D01*
X02472007Y01237806D01*
X02465885Y01243928D01*
X02458881Y01249016D01*
X02451168Y01252947D01*
X02442934Y01255622D01*
X02434384Y01256976D01*
X02432055Y01256976D01*
X02432055Y01203977D01*
X02428055Y01203977D01*
X02428055Y01256976D01*
X02425726Y01256976D01*
X02417176Y01255622D01*
X02408942Y01252947D01*
X02401229Y01249016D01*
X02394225Y01243928D01*
X02388103Y01237806D01*
X02383015Y01230803D01*
X02379085Y01223089D01*
X02376409Y01214856D01*
X02375055Y01206305D01*
X02375055Y01203976D01*
X02428054Y01203976D01*
X02428054Y01199976D01*
X02428055Y01199889D02*
X02432055Y01199889D01*
X02432055Y01183891D02*
X02428055Y01183891D01*
X02428055Y01167892D02*
X02432055Y01167892D01*
X02432055Y01151894D02*
X02428055Y01151894D01*
X02407200Y01151894D02*
X02364850Y01151894D01*
X02366580Y01149513D02*
X02361801Y01156091D01*
X02356052Y01161840D01*
X02349474Y01166619D01*
X02342230Y01170310D01*
X02334497Y01172822D01*
X02326467Y01174094D01*
X02325228Y01174094D01*
X02325228Y01125268D01*
X02319575Y01125268D01*
X02319575Y01174094D01*
X02318336Y01174094D01*
X02310306Y01172822D01*
X02302573Y01170310D01*
X02295329Y01166619D01*
X02288751Y01161840D01*
X02283002Y01156091D01*
X02278223Y01149513D01*
X02274532Y01142269D01*
X02272020Y01134537D01*
X02270748Y01126506D01*
X02270748Y01125268D01*
X02319574Y01125268D01*
X02319574Y01119614D01*
X02270748Y01119614D01*
X02270748Y01118376D01*
X02272020Y01110345D01*
X02274532Y01102613D01*
X02278223Y01095368D01*
X02283002Y01088791D01*
X02288751Y01083042D01*
X02295329Y01078263D01*
X02302573Y01074572D01*
X02310306Y01072059D01*
X02318336Y01070787D01*
X02319575Y01070787D01*
X02319575Y01119613D01*
X02325228Y01119613D01*
X02325228Y01070787D01*
X02326467Y01070787D01*
X02334497Y01072059D01*
X02342230Y01074572D01*
X02349474Y01078263D01*
X02356052Y01083042D01*
X02361801Y01088791D01*
X02366580Y01095368D01*
X02370271Y01102613D01*
X02372783Y01110345D01*
X02374055Y01118376D01*
X02374055Y01119614D01*
X02325229Y01119614D01*
X02325229Y01125268D01*
X02374055Y01125268D01*
X02374055Y01126506D01*
X02372783Y01134537D01*
X02370271Y01142269D01*
X02366580Y01149513D01*
X02372342Y01135895D02*
X02826055Y01135895D01*
X02826055Y01119897D02*
X02325229Y01119897D01*
X02319574Y01119897D02*
X02234811Y01119897D01*
X02234811Y01114137D02*
X02234811Y01130745D01*
X02228455Y01146089D01*
X02216711Y01157833D01*
X02201367Y01164189D01*
X02129263Y01164189D01*
X02113919Y01157833D01*
X02102175Y01146089D01*
X02095819Y01130745D01*
X02095819Y01114137D01*
X02102175Y01098793D01*
X02113919Y01087049D01*
X02129263Y01080693D01*
X02201367Y01080693D01*
X02216711Y01087049D01*
X02228455Y01098793D01*
X02234811Y01114137D01*
X02230570Y01103898D02*
X02274115Y01103898D01*
X02283894Y01087900D02*
X02217562Y01087900D01*
X02193230Y01052806D02*
X02176139Y01059886D01*
X02157640Y01059886D01*
X02140550Y01052806D01*
X02127469Y01039726D01*
X02120390Y01022635D01*
X02120390Y01004136D01*
X02127469Y00987046D01*
X02140550Y00973965D01*
X02157640Y00966886D01*
X02176139Y00966886D01*
X02193230Y00973965D01*
X02206310Y00987046D01*
X02213390Y01004136D01*
X02213390Y01022635D01*
X02206310Y01039726D01*
X02193230Y01052806D01*
X02185755Y01055903D02*
X02826055Y01055903D01*
X02826055Y01071901D02*
X02333498Y01071901D01*
X02325228Y01071901D02*
X02319575Y01071901D01*
X02311305Y01071901D02*
X01123017Y01071901D01*
X01121432Y01071094D02*
X01128515Y01074702D01*
X01134946Y01079374D01*
X01140566Y01084995D01*
X01145239Y01091426D01*
X01148847Y01098508D01*
X01151304Y01106068D01*
X01152547Y01113919D01*
X01152547Y01117893D01*
X01102048Y01117893D01*
X01102048Y01117894D01*
X01152547Y01117894D01*
X01152547Y01121868D01*
X01151304Y01129719D01*
X01148847Y01137279D01*
X01145239Y01144361D01*
X01140566Y01150792D01*
X01134946Y01156413D01*
X01128515Y01161085D01*
X01121432Y01164694D01*
X01113873Y01167150D01*
X01106022Y01168394D01*
X01102048Y01168394D01*
X01102048Y01117895D01*
X01102047Y01117895D01*
X01102047Y01168394D01*
X01098073Y01168394D01*
X01090222Y01167150D01*
X01082662Y01164694D01*
X01075579Y01161085D01*
X01069149Y01156413D01*
X01063528Y01150792D01*
X01058856Y01144361D01*
X01055247Y01137279D01*
X01052791Y01129719D01*
X01051547Y01121868D01*
X01051547Y01117894D01*
X01102046Y01117894D01*
X01102046Y01117893D01*
X01051547Y01117893D01*
X01051547Y01113919D01*
X01052791Y01106068D01*
X01055247Y01098508D01*
X01058856Y01091426D01*
X01063528Y01084995D01*
X01069149Y01079374D01*
X01075579Y01074702D01*
X01082662Y01071094D01*
X01090222Y01068637D01*
X01098073Y01067394D01*
X01102047Y01067394D01*
X01102047Y01117892D01*
X01102048Y01117892D01*
X01102048Y01067394D01*
X01106022Y01067394D01*
X01113873Y01068637D01*
X01121432Y01071094D01*
X01102048Y01071901D02*
X01102047Y01071901D01*
X01102047Y01087900D02*
X01102048Y01087900D01*
X01102047Y01103898D02*
X01102048Y01103898D01*
X01102047Y01119897D02*
X01102048Y01119897D01*
X01102047Y01135895D02*
X01102048Y01135895D01*
X01102047Y01151894D02*
X01102048Y01151894D01*
X01102047Y01167892D02*
X01102048Y01167892D01*
X01109187Y01167892D02*
X02297828Y01167892D01*
X02295408Y01182042D02*
X02312923Y01174787D01*
X02331880Y01174787D01*
X02349395Y01182042D01*
X02362800Y01195447D01*
X02370055Y01212962D01*
X02370055Y01231920D01*
X02362800Y01249434D01*
X02349395Y01262840D01*
X02331880Y01270094D01*
X02312923Y01270094D01*
X02295408Y01262840D01*
X02282003Y01249434D01*
X02274748Y01231920D01*
X02274748Y01212962D01*
X02282003Y01195447D01*
X02295408Y01182042D01*
X02293559Y01183891D02*
X02209087Y01183891D01*
X02216711Y01187049D02*
X02201367Y01180693D01*
X02129263Y01180693D01*
X02113919Y01187049D01*
X02102175Y01198793D01*
X02095819Y01214137D01*
X02095819Y01230745D01*
X02102175Y01246089D01*
X02113919Y01257833D01*
X02129263Y01264189D01*
X02201367Y01264189D01*
X02216711Y01257833D01*
X02228455Y01246089D01*
X02234811Y01230745D01*
X02234811Y01214137D01*
X02228455Y01198793D01*
X02216711Y01187049D01*
X02228909Y01199889D02*
X02280163Y01199889D01*
X02274748Y01215888D02*
X02234811Y01215888D01*
X02234338Y01231886D02*
X02274748Y01231886D01*
X02281361Y01247885D02*
X02226660Y01247885D01*
X02202105Y01263883D02*
X02297928Y01263883D01*
X02300623Y01279882D02*
X02210124Y01279882D01*
X02210624Y01280045D02*
X02217040Y01283314D01*
X02222866Y01287546D01*
X02227958Y01292638D01*
X02232190Y01298464D01*
X02235459Y01304880D01*
X02237684Y01311728D01*
X02238811Y01318840D01*
X02238811Y01322440D01*
X02165316Y01322440D01*
X02165316Y01322441D01*
X02238811Y01322441D01*
X02238811Y01326041D01*
X02237684Y01333154D01*
X02235459Y01340002D01*
X02232190Y01346418D01*
X02227958Y01352244D01*
X02222866Y01357336D01*
X02217040Y01361568D01*
X02210624Y01364837D01*
X02203776Y01367062D01*
X02196663Y01368189D01*
X02165315Y01368189D01*
X02165315Y01322442D01*
X02165314Y01322442D01*
X02165314Y01368189D01*
X02133966Y01368189D01*
X02126854Y01367062D01*
X02120006Y01364837D01*
X02113590Y01361568D01*
X02107764Y01357336D01*
X02102672Y01352244D01*
X02098440Y01346418D01*
X02095171Y01340002D01*
X02092945Y01333154D01*
X02091819Y01326041D01*
X02091819Y01322441D01*
X02165314Y01322441D01*
X02165314Y01322440D01*
X02165315Y01322440D01*
X02165315Y01276693D01*
X02196663Y01276693D01*
X02203776Y01277819D01*
X02210624Y01280045D01*
X02230313Y01295880D02*
X02281823Y01295880D01*
X02282003Y01295447D02*
X02295408Y01282042D01*
X02312923Y01274787D01*
X02331880Y01274787D01*
X02349395Y01282042D01*
X02362800Y01295447D01*
X02370055Y01312962D01*
X02370055Y01331920D01*
X02362800Y01349434D01*
X02349395Y01362840D01*
X02331880Y01370094D01*
X02312923Y01370094D01*
X02295408Y01362840D01*
X02282003Y01349434D01*
X02274748Y01331920D01*
X02274748Y01312962D01*
X02282003Y01295447D01*
X02275197Y01311879D02*
X02237708Y01311879D01*
X02238520Y01327877D02*
X02274748Y01327877D01*
X02279701Y01343876D02*
X02233485Y01343876D01*
X02219371Y01359875D02*
X02292443Y01359875D01*
X02295408Y01382042D02*
X02312923Y01374787D01*
X02331880Y01374787D01*
X02349395Y01382042D01*
X02362800Y01395447D01*
X02370055Y01412962D01*
X02370055Y01431920D01*
X02362800Y01449434D01*
X02349395Y01462840D01*
X02331880Y01470094D01*
X02312923Y01470094D01*
X02295408Y01462840D01*
X02282003Y01449434D01*
X02274748Y01431920D01*
X02274748Y01412962D01*
X02282003Y01395447D01*
X02295408Y01382042D01*
X02285579Y01391872D02*
X02221534Y01391872D01*
X02216711Y01387049D02*
X02228455Y01398793D01*
X02234811Y01414137D01*
X02234811Y01430745D01*
X02228455Y01446089D01*
X02216711Y01457833D01*
X02201367Y01464189D01*
X02129263Y01464189D01*
X02113919Y01457833D01*
X02102175Y01446089D01*
X02095819Y01430745D01*
X02095819Y01414137D01*
X02102175Y01398793D01*
X02113919Y01387049D01*
X02129263Y01380693D01*
X02201367Y01380693D01*
X02216711Y01387049D01*
X02232215Y01407870D02*
X02276857Y01407870D01*
X02274748Y01423869D02*
X02234811Y01423869D01*
X02231032Y01439867D02*
X02278040Y01439867D01*
X02288434Y01455866D02*
X02218679Y01455866D01*
X02201367Y01480693D02*
X02216711Y01487049D01*
X02228455Y01498793D01*
X02234811Y01514137D01*
X02234811Y01530745D01*
X02228455Y01546089D01*
X02216711Y01557833D01*
X02201367Y01564189D01*
X02129263Y01564189D01*
X02113919Y01557833D01*
X02102175Y01546089D01*
X02095819Y01530745D01*
X02095819Y01514137D01*
X02102175Y01498793D01*
X02113919Y01487049D01*
X02129263Y01480693D01*
X02201367Y01480693D01*
X02217525Y01487863D02*
X02289587Y01487863D01*
X02295408Y01482042D02*
X02312923Y01474787D01*
X02331880Y01474787D01*
X02349395Y01482042D01*
X02362800Y01495447D01*
X02370055Y01512962D01*
X02370055Y01531920D01*
X02362800Y01549434D01*
X02349395Y01562840D01*
X02331880Y01570094D01*
X02312923Y01570094D01*
X02295408Y01562840D01*
X02282003Y01549434D01*
X02274748Y01531920D01*
X02274748Y01512962D01*
X02282003Y01495447D01*
X02295408Y01482042D01*
X02278518Y01503861D02*
X02230555Y01503861D01*
X02234811Y01519860D02*
X02274748Y01519860D01*
X02276379Y01535858D02*
X02232693Y01535858D01*
X02222688Y01551857D02*
X02284425Y01551857D01*
X02307517Y01567855D02*
X00599779Y01567855D01*
X00599779Y01574818D02*
X00613635Y01569079D01*
X00633924Y01569079D01*
X00652669Y01576843D01*
X00667015Y01591189D01*
X00674779Y01609934D01*
X00674779Y01630223D01*
X00667015Y01648968D01*
X00652669Y01663314D01*
X00633924Y01671079D01*
X00613635Y01671079D01*
X00603779Y01666996D01*
X00603779Y01670078D01*
X00548781Y01670078D01*
X00548781Y01670079D01*
X00603779Y01670079D01*
X00603779Y01674407D01*
X00602425Y01682958D01*
X00599750Y01691191D01*
X00595820Y01698905D01*
X00590731Y01705909D01*
X00584609Y01712030D01*
X00577606Y01717119D01*
X00569892Y01721049D01*
X00561659Y01723724D01*
X00553108Y01725079D01*
X00548780Y01725078D01*
X00548780Y01670080D01*
X00548779Y01670080D01*
X00548779Y01725079D01*
X00544451Y01725079D01*
X00535900Y01723724D01*
X00527667Y01721049D01*
X00519953Y01717119D01*
X00512949Y01712030D01*
X00506828Y01705909D01*
X00501739Y01698905D01*
X00497809Y01691191D01*
X00495134Y01682958D01*
X00493780Y01674407D01*
X00493779Y01670079D01*
X00548778Y01670079D01*
X00548778Y01670078D01*
X00493780Y01670078D01*
X00493780Y01665750D01*
X00495134Y01657199D01*
X00497809Y01648966D01*
X00501739Y01641252D01*
X00506828Y01634249D01*
X00512949Y01628127D01*
X00519953Y01623039D01*
X00527667Y01619108D01*
X00531148Y01617977D01*
X00519890Y01613314D01*
X00505544Y01598968D01*
X00497780Y01580223D01*
X00497780Y01559934D01*
X00505544Y01541189D01*
X00519890Y01526843D01*
X00538635Y01519079D01*
X00558924Y01519079D01*
X00577669Y01526843D01*
X00592015Y01541189D01*
X00599779Y01559934D01*
X00599779Y01574818D01*
X00596434Y01551857D02*
X01807942Y01551857D01*
X01802175Y01546089D02*
X01813919Y01557833D01*
X01829263Y01564189D01*
X01901367Y01564189D01*
X01916711Y01557833D01*
X01928455Y01546089D01*
X01934811Y01530745D01*
X01934811Y01514137D01*
X01928455Y01498793D01*
X01916711Y01487049D01*
X01901367Y01480693D01*
X01829263Y01480693D01*
X01813919Y01487049D01*
X01802175Y01498793D01*
X01795819Y01514137D01*
X01795819Y01530745D01*
X01802175Y01546089D01*
X01797937Y01535858D02*
X00586684Y01535858D01*
X00560810Y01519860D02*
X01795819Y01519860D01*
X01800075Y01503861D02*
X00271513Y01503861D01*
X00271351Y01503471D02*
X00278354Y01520377D01*
X00278354Y01538678D01*
X00271351Y01555584D01*
X00258411Y01568524D01*
X00241504Y01575527D01*
X00159204Y01575527D01*
X00142297Y01568524D01*
X00129357Y01555584D01*
X00122354Y01538678D01*
X00122354Y01520377D01*
X00129357Y01503471D01*
X00142297Y01490531D01*
X00159204Y01483528D01*
X00241504Y01483528D01*
X00258411Y01490531D01*
X00271351Y01503471D01*
X00278140Y01519860D02*
X00536749Y01519860D01*
X00510875Y01535858D02*
X00278354Y01535858D01*
X00272895Y01551857D02*
X00501125Y01551857D01*
X00497780Y01567855D02*
X00259080Y01567855D01*
X00258411Y01590531D02*
X00241504Y01583528D01*
X00159204Y01583528D01*
X00142297Y01590531D01*
X00129357Y01603471D01*
X00122354Y01620377D01*
X00122354Y01638678D01*
X00129357Y01655584D01*
X00142297Y01668524D01*
X00159204Y01675527D01*
X00241504Y01675527D01*
X00258411Y01668524D01*
X00271351Y01655584D01*
X00278354Y01638678D01*
X00278354Y01620377D01*
X00271351Y01603471D01*
X00258411Y01590531D01*
X00267733Y01599852D02*
X00506428Y01599852D01*
X00499283Y01583854D02*
X00242292Y01583854D01*
X00276479Y01615851D02*
X00526014Y01615851D01*
X00509227Y01631849D02*
X00278354Y01631849D01*
X00274556Y01647848D02*
X00498379Y01647848D01*
X00494081Y01663846D02*
X00263089Y01663846D01*
X00250203Y01722601D02*
X00225522Y01712378D01*
X00198808Y01712378D01*
X00174128Y01722601D01*
X00155239Y01741490D01*
X00145016Y01766171D01*
X00145016Y01792884D01*
X00155239Y01817565D01*
X00174128Y01836454D01*
X00198808Y01846677D01*
X00225522Y01846677D01*
X00250203Y01836454D01*
X00269092Y01817565D01*
X00279315Y01792884D01*
X00279315Y01766171D01*
X00269092Y01741490D01*
X00250203Y01722601D01*
X00255442Y01727841D02*
X00735641Y01727841D01*
X00732630Y01730851D02*
X00746977Y01716504D01*
X00765721Y01708740D01*
X00786011Y01708740D01*
X00804755Y01716504D01*
X00819102Y01730851D01*
X00826866Y01749595D01*
X00826866Y01769885D01*
X00819102Y01788629D01*
X00804755Y01802976D01*
X00786011Y01810740D01*
X00765721Y01810740D01*
X00746977Y01802976D01*
X00732630Y01788629D01*
X00724866Y01769885D01*
X00724866Y01749595D01*
X00732630Y01730851D01*
X00727250Y01743839D02*
X00550968Y01743839D01*
X00549415Y01742286D02*
X00568305Y01761175D01*
X00578527Y01785856D01*
X00578527Y01812570D01*
X00568305Y01837250D01*
X00549415Y01856139D01*
X00524735Y01866362D01*
X00498021Y01866362D01*
X00473341Y01856139D01*
X00454451Y01837250D01*
X00444228Y01812570D01*
X00444228Y01785856D01*
X00454451Y01761175D01*
X00473341Y01742286D01*
X00498021Y01732063D01*
X00524735Y01732063D01*
X00549415Y01742286D01*
X00566967Y01759838D02*
X00724866Y01759838D01*
X00727331Y01775836D02*
X00574377Y01775836D01*
X00578527Y01791835D02*
X00735836Y01791835D01*
X00758704Y01807833D02*
X00578527Y01807833D01*
X00573863Y01823832D02*
X00967050Y01823832D01*
X00964276Y01826605D02*
X00969897Y01820985D01*
X00976327Y01816313D01*
X00983410Y01812704D01*
X00990970Y01810247D01*
X00998821Y01809004D01*
X01002795Y01809004D01*
X01002795Y01859503D01*
X01002796Y01859503D01*
X01002796Y01809004D01*
X01006770Y01809004D01*
X01014621Y01810247D01*
X01022180Y01812704D01*
X01029263Y01816313D01*
X01035694Y01820985D01*
X01041314Y01826605D01*
X01045987Y01833036D01*
X01049595Y01840119D01*
X01052052Y01847678D01*
X01053295Y01855529D01*
X01053295Y01859503D01*
X01002797Y01859503D01*
X01002797Y01859504D01*
X01053295Y01859504D01*
X01053295Y01863478D01*
X01052052Y01871329D01*
X01049595Y01878889D01*
X01045987Y01885972D01*
X01041314Y01892402D01*
X01035694Y01898023D01*
X01029263Y01902695D01*
X01022180Y01906304D01*
X01014621Y01908760D01*
X01006770Y01910004D01*
X01002796Y01910004D01*
X01002796Y01859505D01*
X01002795Y01859505D01*
X01002795Y01910004D01*
X00998821Y01910004D01*
X00990970Y01908760D01*
X00983410Y01906304D01*
X00976327Y01902695D01*
X00969897Y01898023D01*
X00964276Y01892402D01*
X00959604Y01885972D01*
X00955995Y01878889D01*
X00953539Y01871329D01*
X00952295Y01863478D01*
X00952295Y01859504D01*
X01002794Y01859504D01*
X01002794Y01859503D01*
X00952295Y01859503D01*
X00952295Y01855529D01*
X00953539Y01847678D01*
X00955995Y01840119D01*
X00959604Y01833036D01*
X00964276Y01826605D01*
X00956142Y01839830D02*
X00565724Y01839830D01*
X00549726Y01855829D02*
X00952295Y01855829D01*
X00953701Y01871827D02*
X00018000Y01871827D01*
X00018000Y01855829D02*
X00473030Y01855829D01*
X00457032Y01839830D02*
X00242052Y01839830D01*
X00262825Y01823832D02*
X00448893Y01823832D01*
X00444228Y01807833D02*
X00273123Y01807833D01*
X00279315Y01791835D02*
X00444228Y01791835D01*
X00448378Y01775836D02*
X00279315Y01775836D01*
X00276692Y01759838D02*
X00455789Y01759838D01*
X00471788Y01743839D02*
X00270065Y01743839D01*
X00182279Y01839830D02*
X00018000Y01839830D01*
X00018000Y01823832D02*
X00161506Y01823832D01*
X00151208Y01807833D02*
X00018000Y01807833D01*
X00018000Y01791835D02*
X00145016Y01791835D01*
X00145016Y01775836D02*
X00018000Y01775836D01*
X00018000Y01759838D02*
X00147639Y01759838D01*
X00154266Y01743839D02*
X00018000Y01743839D01*
X00018000Y01727841D02*
X00168888Y01727841D01*
X00137619Y01663846D02*
X00018000Y01663846D01*
X00018000Y01647848D02*
X00126153Y01647848D01*
X00122354Y01631849D02*
X00018000Y01631849D01*
X00018000Y01615851D02*
X00124229Y01615851D01*
X00132976Y01599852D02*
X00018000Y01599852D01*
X00018000Y01583854D02*
X00158416Y01583854D01*
X00141628Y01567855D02*
X00018000Y01567855D01*
X00018000Y01551857D02*
X00127813Y01551857D01*
X00122354Y01535858D02*
X00018000Y01535858D01*
X00018000Y01519860D02*
X00122569Y01519860D01*
X00129195Y01503861D02*
X00018000Y01503861D01*
X00018000Y01487863D02*
X00148738Y01487863D01*
X00150360Y01471864D02*
X00018000Y01471864D01*
X00018000Y01455866D02*
X00129639Y01455866D01*
X00129357Y01455584D02*
X00122354Y01438678D01*
X00122354Y01420377D01*
X00129357Y01403471D01*
X00142297Y01390531D01*
X00159204Y01383528D01*
X00241504Y01383528D01*
X00258411Y01390531D01*
X00271351Y01403471D01*
X00278354Y01420377D01*
X00278354Y01438678D01*
X00271351Y01455584D01*
X00258411Y01468524D01*
X00241504Y01475527D01*
X00159204Y01475527D01*
X00142297Y01468524D01*
X00129357Y01455584D01*
X00122847Y01439867D02*
X00018000Y01439867D01*
X00018000Y01423869D02*
X00122354Y01423869D01*
X00127535Y01407870D02*
X00018000Y01407870D01*
X00018000Y01391872D02*
X00140956Y01391872D01*
X00132729Y01344307D02*
X00113985Y01336543D01*
X00099638Y01322196D01*
X00091874Y01303452D01*
X00091874Y01283162D01*
X00099638Y01264418D01*
X00111891Y01252166D01*
X00107044Y01248644D01*
X00100922Y01242523D01*
X00095834Y01235519D01*
X00091904Y01227805D01*
X00089228Y01219572D01*
X00087874Y01211022D01*
X00087874Y01207551D01*
X00142015Y01207551D01*
X00142015Y01205834D01*
X00087874Y01205834D01*
X00087874Y01202364D01*
X00089228Y01193814D01*
X00091904Y01185580D01*
X00095834Y01177867D01*
X00100922Y01170863D01*
X00107044Y01164741D01*
X00114048Y01159653D01*
X00121761Y01155722D01*
X00129995Y01153047D01*
X00138545Y01151693D01*
X00142016Y01151693D01*
X00142016Y01205834D01*
X00143732Y01205834D01*
X00143732Y01151693D01*
X00147203Y01151693D01*
X00155753Y01153047D01*
X00163987Y01155722D01*
X00171700Y01159653D01*
X00178704Y01164741D01*
X00184826Y01170863D01*
X00189914Y01177867D01*
X00193844Y01185580D01*
X00196520Y01193814D01*
X00197874Y01202364D01*
X00197874Y01205834D01*
X00143733Y01205834D01*
X00143733Y01207551D01*
X00197874Y01207551D01*
X00197874Y01211022D01*
X00196520Y01219572D01*
X00193844Y01227805D01*
X00189914Y01235519D01*
X00184826Y01242523D01*
X00178704Y01248644D01*
X00173857Y01252166D01*
X00186110Y01264418D01*
X00193874Y01283162D01*
X00193874Y01303452D01*
X00186110Y01322196D01*
X00171763Y01336543D01*
X00153019Y01344307D01*
X00132729Y01344307D01*
X00131689Y01343876D02*
X00018000Y01343876D01*
X00018000Y01359875D02*
X00857039Y01359875D01*
X00857039Y01361248D02*
X00857039Y01323555D01*
X00883693Y01296902D01*
X00921386Y01296902D01*
X00948039Y01323555D01*
X00948039Y01361248D01*
X00921386Y01387901D01*
X00883693Y01387901D01*
X00857039Y01361248D01*
X00857039Y01343876D02*
X00454059Y01343876D01*
X00453019Y01344307D02*
X00432729Y01344307D01*
X00413985Y01336543D01*
X00399638Y01322196D01*
X00391874Y01303452D01*
X00391874Y01283162D01*
X00399638Y01264418D01*
X00413985Y01250071D01*
X00414157Y01250000D01*
X00413985Y01249929D01*
X00399638Y01235582D01*
X00391874Y01216837D01*
X00391874Y01196548D01*
X00399638Y01177804D01*
X00413985Y01163457D01*
X00432729Y01155693D01*
X00453019Y01155693D01*
X00471763Y01163457D01*
X00486110Y01177804D01*
X00493874Y01196548D01*
X00493874Y01216837D01*
X00486110Y01235582D01*
X00471763Y01249929D01*
X00471591Y01250000D01*
X00471763Y01250071D01*
X00486110Y01264418D01*
X00493874Y01283162D01*
X00493874Y01303452D01*
X00486110Y01322196D01*
X00471763Y01336543D01*
X00453019Y01344307D01*
X00431689Y01343876D02*
X00154059Y01343876D01*
X00180428Y01327877D02*
X00405320Y01327877D01*
X00395365Y01311879D02*
X00190383Y01311879D01*
X00193874Y01295880D02*
X00391874Y01295880D01*
X00393233Y01279882D02*
X00192515Y01279882D01*
X00185575Y01263883D02*
X00400173Y01263883D01*
X00411941Y01247885D02*
X00179464Y01247885D01*
X00191765Y01231886D02*
X00398108Y01231886D01*
X00391874Y01215888D02*
X00197103Y01215888D01*
X00197482Y01199889D02*
X00391874Y01199889D01*
X00397117Y01183891D02*
X00192984Y01183891D01*
X00181855Y01167892D02*
X00307092Y01167892D01*
X00298671Y01164404D02*
X00285596Y01151329D01*
X00278520Y01134245D01*
X00278520Y01115754D01*
X00285596Y01098671D01*
X00298671Y01085596D01*
X00315754Y01078520D01*
X00334245Y01078520D01*
X00351329Y01085596D01*
X00364404Y01098671D01*
X00371480Y01115754D01*
X00371480Y01134245D01*
X00364404Y01151329D01*
X00351329Y01164404D01*
X00334245Y01171480D01*
X00315754Y01171480D01*
X00298671Y01164404D01*
X00286161Y01151894D02*
X00148470Y01151894D01*
X00143732Y01151894D02*
X00142016Y01151894D01*
X00137278Y01151894D02*
X00018000Y01151894D01*
X00018000Y01167892D02*
X00103893Y01167892D01*
X00092764Y01183891D02*
X00018000Y01183891D01*
X00018000Y01199889D02*
X00088266Y01199889D01*
X00088645Y01215888D02*
X00018000Y01215888D01*
X00018000Y01231886D02*
X00093983Y01231886D01*
X00106284Y01247885D02*
X00018000Y01247885D01*
X00018000Y01263883D02*
X00100173Y01263883D01*
X00093233Y01279882D02*
X00018000Y01279882D01*
X00018000Y01295880D02*
X00091874Y01295880D01*
X00095365Y01311879D02*
X00018000Y01311879D01*
X00018000Y01327877D02*
X00105320Y01327877D01*
X00018000Y01375873D02*
X00871664Y01375873D01*
X00857039Y01327877D02*
X00480428Y01327877D01*
X00490383Y01311879D02*
X00868715Y01311879D01*
X00936363Y01311879D02*
X00968715Y01311879D01*
X00957039Y01323555D02*
X00983693Y01296902D01*
X01021386Y01296902D01*
X01048039Y01323555D01*
X01048039Y01361248D01*
X01021386Y01387901D01*
X00983693Y01387901D01*
X00957039Y01361248D01*
X00957039Y01323555D01*
X00957039Y01327877D02*
X00948039Y01327877D01*
X00948039Y01343876D02*
X00957039Y01343876D01*
X00957039Y01359875D02*
X00948039Y01359875D01*
X00933414Y01375873D02*
X00971664Y01375873D01*
X01033414Y01375873D02*
X01071664Y01375873D01*
X01083693Y01387901D02*
X01057039Y01361248D01*
X01057039Y01323555D01*
X01083693Y01296902D01*
X01121386Y01296902D01*
X01148039Y01323555D01*
X01148039Y01361248D01*
X01121386Y01387901D01*
X01083693Y01387901D01*
X01057039Y01359875D02*
X01048039Y01359875D01*
X01048039Y01343876D02*
X01057039Y01343876D01*
X01057039Y01327877D02*
X01048039Y01327877D01*
X01036363Y01311879D02*
X01068715Y01311879D01*
X01091566Y01263883D02*
X00485575Y01263883D01*
X00492515Y01279882D02*
X02120506Y01279882D01*
X02120006Y01280045D02*
X02126854Y01277819D01*
X02133966Y01276693D01*
X02165314Y01276693D01*
X02165314Y01322440D01*
X02091819Y01322440D01*
X02091819Y01318840D01*
X02092945Y01311728D01*
X02095171Y01304880D01*
X02098440Y01298464D01*
X02102672Y01292638D01*
X02107764Y01287546D01*
X02113590Y01283314D01*
X02120006Y01280045D01*
X02128525Y01263883D02*
X01902105Y01263883D01*
X01901367Y01264189D02*
X01916711Y01257833D01*
X01928455Y01246089D01*
X01934811Y01230745D01*
X01934811Y01214137D01*
X01928455Y01198793D01*
X01916711Y01187049D01*
X01901367Y01180693D01*
X01829263Y01180693D01*
X01813919Y01187049D01*
X01802175Y01198793D01*
X01795819Y01214137D01*
X01795819Y01230745D01*
X01802175Y01246089D01*
X01813919Y01257833D01*
X01829263Y01264189D01*
X01901367Y01264189D01*
X01901367Y01280693D02*
X01916711Y01287049D01*
X01928455Y01298793D01*
X01934811Y01314137D01*
X01934811Y01330745D01*
X01928455Y01346089D01*
X01916711Y01357833D01*
X01901367Y01364189D01*
X01829263Y01364189D01*
X01813919Y01357833D01*
X01802175Y01346089D01*
X01795819Y01330745D01*
X01795819Y01314137D01*
X01802175Y01298793D01*
X01813919Y01287049D01*
X01829263Y01280693D01*
X01901367Y01280693D01*
X01925543Y01295880D02*
X02100316Y01295880D01*
X02092921Y01311879D02*
X01933876Y01311879D01*
X01934811Y01327877D02*
X02092110Y01327877D01*
X02097144Y01343876D02*
X01929372Y01343876D01*
X01911783Y01359875D02*
X02111259Y01359875D01*
X02109096Y01391872D02*
X01921534Y01391872D01*
X01916711Y01387049D02*
X01928455Y01398793D01*
X01934811Y01414137D01*
X01934811Y01430745D01*
X01928455Y01446089D01*
X01916711Y01457833D01*
X01901367Y01464189D01*
X01829263Y01464189D01*
X01813919Y01457833D01*
X01802175Y01446089D01*
X01795819Y01430745D01*
X01795819Y01414137D01*
X01802175Y01398793D01*
X01813919Y01387049D01*
X01829263Y01380693D01*
X01901367Y01380693D01*
X01916711Y01387049D01*
X01932215Y01407870D02*
X02098414Y01407870D01*
X02095819Y01423869D02*
X01934811Y01423869D01*
X01931032Y01439867D02*
X02099597Y01439867D01*
X02111951Y01455866D02*
X01918679Y01455866D01*
X01917525Y01487863D02*
X02113104Y01487863D01*
X02100075Y01503861D02*
X01930555Y01503861D01*
X01934811Y01519860D02*
X02095819Y01519860D01*
X02097937Y01535858D02*
X01932693Y01535858D01*
X01922688Y01551857D02*
X02107942Y01551857D01*
X02121631Y01583854D02*
X01908998Y01583854D01*
X01901367Y01580693D02*
X01916711Y01587049D01*
X01928455Y01598793D01*
X01934811Y01614137D01*
X01934811Y01630745D01*
X01928455Y01646089D01*
X01916711Y01657833D01*
X01901367Y01664189D01*
X01829263Y01664189D01*
X01813919Y01657833D01*
X01802175Y01646089D01*
X01795819Y01630745D01*
X01795819Y01614137D01*
X01802175Y01598793D01*
X01813919Y01587049D01*
X01829263Y01580693D01*
X01901367Y01580693D01*
X01928894Y01599852D02*
X02101735Y01599852D01*
X02102175Y01598793D02*
X02113919Y01587049D01*
X02129263Y01580693D01*
X02201367Y01580693D01*
X02216711Y01587049D01*
X02228455Y01598793D01*
X02234811Y01614137D01*
X02234811Y01630745D01*
X02228455Y01646089D01*
X02216711Y01657833D01*
X02201367Y01664189D01*
X02129263Y01664189D01*
X02113919Y01657833D01*
X02102175Y01646089D01*
X02095819Y01630745D01*
X02095819Y01614137D01*
X02102175Y01598793D01*
X02095819Y01615851D02*
X01934811Y01615851D01*
X01934354Y01631849D02*
X02096276Y01631849D01*
X02103933Y01647848D02*
X01926696Y01647848D01*
X01902194Y01663846D02*
X02128436Y01663846D01*
X02129263Y01680693D02*
X02201367Y01680693D01*
X02216711Y01687049D01*
X02228455Y01698793D01*
X02234811Y01714137D01*
X02234811Y01730745D01*
X02228455Y01746089D01*
X02216711Y01757833D01*
X02201367Y01764189D01*
X02129263Y01764189D01*
X02113919Y01757833D01*
X02102175Y01746089D01*
X02095819Y01730745D01*
X02095819Y01714137D01*
X02102175Y01698793D01*
X02113919Y01687049D01*
X02129263Y01680693D01*
X02105124Y01695844D02*
X01925506Y01695844D01*
X01928455Y01698793D02*
X01934811Y01714137D01*
X01934811Y01730745D01*
X01928455Y01746089D01*
X01916711Y01757833D01*
X01901367Y01764189D01*
X01829263Y01764189D01*
X01813919Y01757833D01*
X01802175Y01746089D01*
X01795819Y01730745D01*
X01795819Y01714137D01*
X01802175Y01698793D01*
X01813919Y01687049D01*
X01829263Y01680693D01*
X01901367Y01680693D01*
X01916711Y01687049D01*
X01928455Y01698793D01*
X01933860Y01711842D02*
X02096769Y01711842D01*
X02095819Y01727841D02*
X01934811Y01727841D01*
X01929387Y01743839D02*
X02101243Y01743839D01*
X02118758Y01759838D02*
X01911872Y01759838D01*
X01901367Y01780693D02*
X01916711Y01787049D01*
X01928455Y01798793D01*
X01934811Y01814137D01*
X01934811Y01830745D01*
X01928455Y01846089D01*
X01916711Y01857833D01*
X01901367Y01864189D01*
X01829263Y01864189D01*
X01813919Y01857833D01*
X01802175Y01846089D01*
X01795819Y01830745D01*
X01795819Y01814137D01*
X01802175Y01798793D01*
X01813919Y01787049D01*
X01829263Y01780693D01*
X01901367Y01780693D01*
X01921497Y01791835D02*
X02103476Y01791835D01*
X02102672Y01792638D02*
X02107764Y01787546D01*
X02113590Y01783314D01*
X02120006Y01780045D01*
X02126854Y01777819D01*
X02133966Y01776693D01*
X02165314Y01776693D01*
X02165314Y01822440D01*
X02165315Y01822440D01*
X02165315Y01776693D01*
X02196663Y01776693D01*
X02203776Y01777819D01*
X02210624Y01780045D01*
X02217040Y01783314D01*
X02222866Y01787546D01*
X02227958Y01792638D01*
X02232190Y01798464D01*
X02235459Y01804880D01*
X02237684Y01811728D01*
X02238811Y01818840D01*
X02238811Y01822440D01*
X02165316Y01822440D01*
X02165316Y01822441D01*
X02238811Y01822441D01*
X02238811Y01826041D01*
X02237684Y01833154D01*
X02235459Y01840002D01*
X02232190Y01846418D01*
X02227958Y01852244D01*
X02222866Y01857336D01*
X02217040Y01861568D01*
X02210624Y01864837D01*
X02203776Y01867062D01*
X02196663Y01868189D01*
X02165315Y01868189D01*
X02165315Y01822442D01*
X02165314Y01822442D01*
X02165314Y01868189D01*
X02133966Y01868189D01*
X02126854Y01867062D01*
X02120006Y01864837D01*
X02113590Y01861568D01*
X02107764Y01857336D01*
X02102672Y01852244D01*
X02098440Y01846418D01*
X02095171Y01840002D01*
X02092945Y01833154D01*
X02091819Y01826041D01*
X02091819Y01822441D01*
X02165314Y01822441D01*
X02165314Y01822440D01*
X02091819Y01822440D01*
X02091819Y01818840D01*
X02092945Y01811728D01*
X02095171Y01804880D01*
X02098440Y01798464D01*
X02102672Y01792638D01*
X02094211Y01807833D02*
X01932200Y01807833D01*
X01934811Y01823832D02*
X02091819Y01823832D01*
X02095115Y01839830D02*
X01931048Y01839830D01*
X01918716Y01855829D02*
X02106257Y01855829D01*
X02165314Y01855829D02*
X02165315Y01855829D01*
X02165314Y01839830D02*
X02165315Y01839830D01*
X02165314Y01823832D02*
X02165315Y01823832D01*
X02165314Y01807833D02*
X02165315Y01807833D01*
X02165314Y01791835D02*
X02165315Y01791835D01*
X02211872Y01759838D02*
X02292406Y01759838D01*
X02295408Y01762840D02*
X02282003Y01749434D01*
X02274748Y01731920D01*
X02274748Y01712962D01*
X02282003Y01695447D01*
X02295408Y01682042D01*
X02312923Y01674787D01*
X02331880Y01674787D01*
X02349395Y01682042D01*
X02362800Y01695447D01*
X02370055Y01712962D01*
X02370055Y01731920D01*
X02362800Y01749434D01*
X02349395Y01762840D01*
X02331880Y01770094D01*
X02312923Y01770094D01*
X02295408Y01762840D01*
X02282949Y01774787D02*
X02361854Y01774787D01*
X02370055Y01782988D01*
X02370055Y01861893D01*
X02361854Y01870094D01*
X02282949Y01870094D01*
X02274748Y01861893D01*
X02274748Y01782988D01*
X02282949Y01774787D01*
X02281900Y01775836D02*
X01529129Y01775836D01*
X01526088Y01778877D02*
X01508997Y01785957D01*
X01490499Y01785957D01*
X01473408Y01778877D01*
X01460327Y01765797D01*
X01453248Y01748706D01*
X01453248Y01730207D01*
X01460327Y01713117D01*
X01473408Y01700036D01*
X01490499Y01692957D01*
X01508997Y01692957D01*
X01526088Y01700036D01*
X01539169Y01713117D01*
X01546248Y01730207D01*
X01546248Y01748706D01*
X01539169Y01765797D01*
X01526088Y01778877D01*
X01541637Y01759838D02*
X01818758Y01759838D01*
X01801243Y01743839D02*
X01546248Y01743839D01*
X01545268Y01727841D02*
X01795819Y01727841D01*
X01796769Y01711842D02*
X01537894Y01711842D01*
X01515967Y01695844D02*
X01805124Y01695844D01*
X01828436Y01663846D02*
X01543998Y01663846D01*
X01542939Y01665924D02*
X01538267Y01672355D01*
X01532647Y01677976D01*
X01526216Y01682648D01*
X01519133Y01686257D01*
X01511573Y01688713D01*
X01503722Y01689957D01*
X01499749Y01689957D01*
X01499749Y01639458D01*
X01499747Y01639458D01*
X01499747Y01689957D01*
X01495773Y01689957D01*
X01487922Y01688713D01*
X01480363Y01686257D01*
X01473280Y01682648D01*
X01466849Y01677976D01*
X01461229Y01672355D01*
X01456557Y01665924D01*
X01452948Y01658842D01*
X01450492Y01651282D01*
X01449248Y01643431D01*
X01449248Y01639457D01*
X01499747Y01639457D01*
X01499747Y01639456D01*
X01449248Y01639456D01*
X01449248Y01635482D01*
X01450492Y01627631D01*
X01452948Y01620071D01*
X01456557Y01612989D01*
X01461229Y01606558D01*
X01466849Y01600937D01*
X01473280Y01596265D01*
X01480363Y01592656D01*
X01487922Y01590200D01*
X01495773Y01588957D01*
X01499747Y01588957D01*
X01499747Y01639455D01*
X01499749Y01639455D01*
X01499749Y01588957D01*
X01503722Y01588957D01*
X01511573Y01590200D01*
X01519133Y01592656D01*
X01526216Y01596265D01*
X01532647Y01600937D01*
X01538267Y01606558D01*
X01542939Y01612989D01*
X01546548Y01620071D01*
X01549004Y01627631D01*
X01550248Y01635482D01*
X01550248Y01639456D01*
X01499749Y01639456D01*
X01499749Y01639457D01*
X01550248Y01639457D01*
X01550248Y01643431D01*
X01549004Y01651282D01*
X01546548Y01658842D01*
X01542939Y01665924D01*
X01530074Y01679845D02*
X02300712Y01679845D01*
X02312923Y01670094D02*
X02295408Y01662840D01*
X02282003Y01649434D01*
X02274748Y01631920D01*
X02274748Y01612962D01*
X02282003Y01595447D01*
X02295408Y01582042D01*
X02312923Y01574787D01*
X02331880Y01574787D01*
X02349395Y01582042D01*
X02362800Y01595447D01*
X02370055Y01612962D01*
X02370055Y01631920D01*
X02362800Y01649434D01*
X02349395Y01662840D01*
X02331880Y01670094D01*
X02312923Y01670094D01*
X02297839Y01663846D02*
X02202194Y01663846D01*
X02226696Y01647848D02*
X02281346Y01647848D01*
X02274748Y01631849D02*
X02234354Y01631849D01*
X02234811Y01615851D02*
X02274748Y01615851D01*
X02280178Y01599852D02*
X02228894Y01599852D01*
X02208998Y01583854D02*
X02293596Y01583854D01*
X02337286Y01567855D02*
X02386862Y01567855D01*
X02388103Y01566146D02*
X02394225Y01560025D01*
X02401229Y01554936D01*
X02408942Y01551006D01*
X02417176Y01548331D01*
X02425726Y01546976D01*
X02428055Y01546976D01*
X02428055Y01599976D01*
X02432055Y01599976D01*
X02432055Y01546976D01*
X02434384Y01546976D01*
X02442934Y01548331D01*
X02451168Y01551006D01*
X02458881Y01554936D01*
X02465885Y01560025D01*
X02472007Y01566146D01*
X02477095Y01573150D01*
X02481025Y01580864D01*
X02483701Y01589097D01*
X02485055Y01597648D01*
X02485055Y01599976D01*
X02432056Y01599976D01*
X02432056Y01603976D01*
X02485055Y01603976D01*
X02485055Y01606305D01*
X02483701Y01614856D01*
X02481025Y01623089D01*
X02477095Y01630803D01*
X02472007Y01637806D01*
X02465885Y01643928D01*
X02458881Y01649016D01*
X02451168Y01652947D01*
X02442934Y01655622D01*
X02434384Y01656976D01*
X02432055Y01656976D01*
X02432055Y01603977D01*
X02428055Y01603977D01*
X02428055Y01656976D01*
X02425726Y01656976D01*
X02417176Y01655622D01*
X02408942Y01652947D01*
X02401229Y01649016D01*
X02394225Y01643928D01*
X02388103Y01637806D01*
X02383015Y01630803D01*
X02379085Y01623089D01*
X02376409Y01614856D01*
X02375055Y01606305D01*
X02375055Y01603976D01*
X02428054Y01603976D01*
X02428054Y01599976D01*
X02375055Y01599976D01*
X02375055Y01597648D01*
X02376409Y01589097D01*
X02379085Y01580864D01*
X02383015Y01573150D01*
X02388103Y01566146D01*
X02378113Y01583854D02*
X02351207Y01583854D01*
X02364625Y01599852D02*
X02375055Y01599852D01*
X02376733Y01615851D02*
X02370055Y01615851D01*
X02370055Y01631849D02*
X02383775Y01631849D01*
X02399620Y01647848D02*
X02363457Y01647848D01*
X02346964Y01663846D02*
X02826055Y01663846D01*
X02826055Y01647848D02*
X02630581Y01647848D01*
X02636944Y01645212D02*
X02618200Y01652976D01*
X02597910Y01652976D01*
X02579166Y01645212D01*
X02564819Y01630866D01*
X02557055Y01612121D01*
X02557055Y01591832D01*
X02564819Y01573087D01*
X02579166Y01558741D01*
X02597910Y01550976D01*
X02618200Y01550976D01*
X02636944Y01558741D01*
X02651291Y01573087D01*
X02659055Y01591832D01*
X02659055Y01612121D01*
X02651291Y01630866D01*
X02636944Y01645212D01*
X02650307Y01631849D02*
X02826055Y01631849D01*
X02826055Y01615851D02*
X02657510Y01615851D01*
X02659055Y01599852D02*
X02826055Y01599852D01*
X02826055Y01583854D02*
X02655750Y01583854D01*
X02646059Y01567855D02*
X02826055Y01567855D01*
X02826055Y01551857D02*
X02620325Y01551857D01*
X02595785Y01551857D02*
X02452838Y01551857D01*
X02432055Y01551857D02*
X02428055Y01551857D01*
X02428055Y01567855D02*
X02432055Y01567855D01*
X02432055Y01583854D02*
X02428055Y01583854D01*
X02428055Y01599852D02*
X02432055Y01599852D01*
X02432055Y01615851D02*
X02428055Y01615851D01*
X02428055Y01631849D02*
X02432055Y01631849D01*
X02432055Y01647848D02*
X02428055Y01647848D01*
X02460490Y01647848D02*
X02585530Y01647848D01*
X02565803Y01631849D02*
X02476335Y01631849D01*
X02483377Y01615851D02*
X02558600Y01615851D01*
X02557055Y01599852D02*
X02485055Y01599852D01*
X02481997Y01583854D02*
X02560360Y01583854D01*
X02570051Y01567855D02*
X02473248Y01567855D01*
X02407272Y01551857D02*
X02360378Y01551857D01*
X02368424Y01535858D02*
X02826055Y01535858D01*
X02826055Y01519860D02*
X02370055Y01519860D01*
X02366285Y01503861D02*
X02826055Y01503861D01*
X02826055Y01487863D02*
X02355216Y01487863D01*
X02356369Y01455866D02*
X02826055Y01455866D01*
X02826055Y01471864D02*
X01432914Y01471864D01*
X01435425Y01469354D02*
X01421078Y01483700D01*
X01402334Y01491464D01*
X01382044Y01491464D01*
X01363300Y01483700D01*
X01349687Y01470087D01*
X01335574Y01484200D01*
X01316830Y01491964D01*
X01296540Y01491964D01*
X01277796Y01484200D01*
X01263449Y01469854D01*
X01255685Y01451109D01*
X01255685Y01430820D01*
X01263449Y01412075D01*
X01277796Y01397729D01*
X01296540Y01389965D01*
X01316830Y01389965D01*
X01335574Y01397729D01*
X01349187Y01411342D01*
X01363300Y01397229D01*
X01382044Y01389465D01*
X01402334Y01389465D01*
X01421078Y01397229D01*
X01435425Y01411575D01*
X01443189Y01430320D01*
X01443189Y01450609D01*
X01435425Y01469354D01*
X01441012Y01455866D02*
X01811951Y01455866D01*
X01799597Y01439867D02*
X01443189Y01439867D01*
X01440517Y01423869D02*
X01795819Y01423869D01*
X01798414Y01407870D02*
X01431719Y01407870D01*
X01408144Y01391872D02*
X01809096Y01391872D01*
X01818847Y01359875D02*
X01248039Y01359875D01*
X01248039Y01361248D02*
X01221386Y01387901D01*
X01183693Y01387901D01*
X01157039Y01361248D01*
X01157039Y01323555D01*
X01183693Y01296902D01*
X01221386Y01296902D01*
X01248039Y01323555D01*
X01248039Y01361248D01*
X01248039Y01343876D02*
X01801258Y01343876D01*
X01795819Y01327877D02*
X01248039Y01327877D01*
X01236363Y01311879D02*
X01796754Y01311879D01*
X01805087Y01295880D02*
X00493874Y01295880D01*
X00473807Y01247885D02*
X01066278Y01247885D01*
X01062626Y01244234D02*
X01055547Y01227143D01*
X01055547Y01208644D01*
X01062626Y01191554D01*
X01075707Y01178473D01*
X01092798Y01171394D01*
X01111297Y01171394D01*
X01128387Y01178473D01*
X01141468Y01191554D01*
X01148547Y01208644D01*
X01148547Y01227143D01*
X01141468Y01244234D01*
X01128387Y01257314D01*
X01111297Y01264394D01*
X01092798Y01264394D01*
X01075707Y01257314D01*
X01062626Y01244234D01*
X01057512Y01231886D02*
X00487641Y01231886D01*
X00493874Y01215888D02*
X01055547Y01215888D01*
X01059174Y01199889D02*
X00493874Y01199889D01*
X00488631Y01183891D02*
X01070289Y01183891D01*
X01094907Y01167892D02*
X00476198Y01167892D01*
X00409550Y01167892D02*
X00342908Y01167892D01*
X00363839Y01151894D02*
X01064629Y01151894D01*
X01054797Y01135895D02*
X00370797Y01135895D01*
X00371480Y01119897D02*
X01051547Y01119897D01*
X01053496Y01103898D02*
X00366569Y01103898D01*
X00353633Y01087900D02*
X01061418Y01087900D01*
X01081077Y01071901D02*
X00018000Y01071901D01*
X00018000Y01055903D02*
X00290170Y01055903D01*
X00285596Y01051329D02*
X00298671Y01064404D01*
X00315754Y01071480D01*
X00334245Y01071480D01*
X00351329Y01064404D01*
X00364404Y01051329D01*
X00371480Y01034245D01*
X00371480Y01015754D01*
X00364404Y00998671D01*
X00351329Y00985596D01*
X00334245Y00978520D01*
X00315754Y00978520D01*
X00298671Y00985596D01*
X00285596Y00998671D01*
X00278520Y01015754D01*
X00278520Y01034245D01*
X00285596Y01051329D01*
X00280864Y01039904D02*
X00018000Y01039904D01*
X00018000Y01023906D02*
X00278520Y01023906D01*
X00281770Y01007907D02*
X00018000Y01007907D01*
X00018000Y00991908D02*
X00292358Y00991908D01*
X00298671Y00964404D02*
X00285596Y00951329D01*
X00278520Y00934245D01*
X00278520Y00915754D01*
X00285596Y00898671D01*
X00298671Y00885596D01*
X00315754Y00878520D01*
X00334245Y00878520D01*
X00351329Y00885596D01*
X00364404Y00898671D01*
X00371480Y00915754D01*
X00371480Y00934245D01*
X00364404Y00951329D01*
X00351329Y00964404D01*
X00334245Y00971480D01*
X00315754Y00971480D01*
X00298671Y00964404D01*
X00294178Y00959911D02*
X00018000Y00959911D01*
X00018000Y00943913D02*
X00282524Y00943913D01*
X00278520Y00927914D02*
X00018000Y00927914D01*
X00018000Y00911916D02*
X00280110Y00911916D01*
X00288350Y00895917D02*
X00018000Y00895917D01*
X00018000Y00879919D02*
X00312377Y00879919D01*
X00298187Y00863920D02*
X00018000Y00863920D01*
X00018000Y00847922D02*
X00284185Y00847922D01*
X00278520Y00831923D02*
X00018000Y00831923D01*
X00018000Y00815925D02*
X00278520Y00815925D01*
X00285076Y00799926D02*
X00018000Y00799926D01*
X00018000Y00783928D02*
X00302698Y00783928D01*
X00307181Y00767929D02*
X00018000Y00767929D01*
X00018000Y00751931D02*
X00286198Y00751931D01*
X00279218Y00735932D02*
X00018000Y00735932D01*
X00018000Y00719934D02*
X00278520Y00719934D01*
X00283415Y00703935D02*
X00018000Y00703935D01*
X00018000Y00687937D02*
X00296330Y00687937D01*
X00365815Y00847922D02*
X02826055Y00847922D01*
X02826055Y00863920D02*
X02177395Y00863920D01*
X02166890Y00863920D02*
X02166889Y00863920D01*
X02156384Y00863920D02*
X00351813Y00863920D01*
X00337623Y00879919D02*
X02128939Y00879919D01*
X02119467Y00895917D02*
X00361650Y00895917D01*
X00369890Y00911916D02*
X02116390Y00911916D01*
X02118512Y00927914D02*
X00371480Y00927914D01*
X00367476Y00943913D02*
X02126648Y00943913D01*
X02146966Y00959911D02*
X00355821Y00959911D01*
X00357641Y00991908D02*
X02125455Y00991908D01*
X02120390Y01007907D02*
X00368230Y01007907D01*
X00371480Y01023906D02*
X02120916Y01023906D01*
X02127647Y01039904D02*
X00369136Y01039904D01*
X00359830Y01055903D02*
X02148024Y01055903D01*
X02113068Y01087900D02*
X01917562Y01087900D01*
X01916711Y01087049D02*
X01928455Y01098793D01*
X01934811Y01114137D01*
X01934811Y01130745D01*
X01928455Y01146089D01*
X01916711Y01157833D01*
X01901367Y01164189D01*
X01829263Y01164189D01*
X01813919Y01157833D01*
X01802175Y01146089D01*
X01795819Y01130745D01*
X01795819Y01114137D01*
X01802175Y01098793D01*
X01813919Y01087049D01*
X01829263Y01080693D01*
X01901367Y01080693D01*
X01916711Y01087049D01*
X01930570Y01103898D02*
X02100060Y01103898D01*
X02095819Y01119897D02*
X01934811Y01119897D01*
X01932678Y01135895D02*
X02097952Y01135895D01*
X02107979Y01151894D02*
X01922651Y01151894D01*
X01909087Y01183891D02*
X02121542Y01183891D01*
X02101720Y01199889D02*
X01928909Y01199889D01*
X01934811Y01215888D02*
X02095819Y01215888D01*
X02096292Y01231886D02*
X01934338Y01231886D01*
X01926660Y01247885D02*
X02103970Y01247885D01*
X02165314Y01279882D02*
X02165315Y01279882D01*
X02165314Y01295880D02*
X02165315Y01295880D01*
X02165314Y01311879D02*
X02165315Y01311879D01*
X02165314Y01327877D02*
X02165315Y01327877D01*
X02165314Y01343876D02*
X02165315Y01343876D01*
X02165314Y01359875D02*
X02165315Y01359875D01*
X02310302Y01375873D02*
X01233414Y01375873D01*
X01267655Y01407870D02*
X00273173Y01407870D01*
X00278354Y01423869D02*
X01258564Y01423869D01*
X01255685Y01439867D02*
X00277861Y01439867D01*
X00271070Y01455866D02*
X01257655Y01455866D01*
X01265460Y01471864D02*
X00250348Y01471864D01*
X00251970Y01487863D02*
X01286638Y01487863D01*
X01326732Y01487863D02*
X01373349Y01487863D01*
X01351464Y01471864D02*
X01347910Y01471864D01*
X01345715Y01407870D02*
X01352658Y01407870D01*
X01376233Y01391872D02*
X01321433Y01391872D01*
X01291936Y01391872D02*
X00259752Y01391872D01*
X00143732Y01199889D02*
X00142016Y01199889D01*
X00142016Y01183891D02*
X00143732Y01183891D01*
X00143732Y01167892D02*
X00142016Y01167892D01*
X00018000Y01135895D02*
X00279203Y01135895D01*
X00278520Y01119897D02*
X00018000Y01119897D01*
X00018000Y01103898D02*
X00283431Y01103898D01*
X00296367Y01087900D02*
X00018000Y01087900D01*
X00018000Y00975910D02*
X02138605Y00975910D01*
X02166889Y00959911D02*
X02166890Y00959911D01*
X02166889Y00943913D02*
X02166890Y00943913D01*
X02166889Y00927914D02*
X02166890Y00927914D01*
X02166889Y00911916D02*
X02166890Y00911916D01*
X02166889Y00895917D02*
X02166890Y00895917D01*
X02166889Y00879919D02*
X02166890Y00879919D01*
X02217390Y00911916D02*
X02386818Y00911916D01*
X02378093Y00927914D02*
X02215268Y00927914D01*
X02207132Y00943913D02*
X02375055Y00943913D01*
X02376753Y00959911D02*
X02186814Y00959911D01*
X02195175Y00975910D02*
X02383820Y00975910D01*
X02399704Y00991908D02*
X02208325Y00991908D01*
X02213390Y01007907D02*
X02826055Y01007907D01*
X02826055Y00991908D02*
X02630434Y00991908D01*
X02650246Y00975910D02*
X02826055Y00975910D01*
X02826055Y00959911D02*
X02657485Y00959911D01*
X02659055Y00943913D02*
X02826055Y00943913D01*
X02826055Y00927914D02*
X02655775Y00927914D01*
X02646119Y00911916D02*
X02826055Y00911916D01*
X02826055Y01023906D02*
X02212864Y01023906D01*
X02206132Y01039904D02*
X02826055Y01039904D01*
X02826055Y01087900D02*
X02360909Y01087900D01*
X02370688Y01103898D02*
X02826055Y01103898D01*
X02826055Y01151894D02*
X02620414Y01151894D01*
X02618200Y01150976D02*
X02636944Y01158741D01*
X02651291Y01173087D01*
X02659055Y01191832D01*
X02659055Y01212121D01*
X02651291Y01230866D01*
X02636944Y01245212D01*
X02618200Y01252976D01*
X02597910Y01252976D01*
X02579166Y01245212D01*
X02564819Y01230866D01*
X02557055Y01212121D01*
X02557055Y01191832D01*
X02564819Y01173087D01*
X02579166Y01158741D01*
X02597910Y01150976D01*
X02618200Y01150976D01*
X02595696Y01151894D02*
X02452910Y01151894D01*
X02473275Y01167892D02*
X02570014Y01167892D01*
X02560344Y01183891D02*
X02482009Y01183891D01*
X02485055Y01199889D02*
X02557055Y01199889D01*
X02558615Y01215888D02*
X02483365Y01215888D01*
X02476308Y01231886D02*
X02565840Y01231886D01*
X02585619Y01247885D02*
X02460439Y01247885D01*
X02432055Y01247885D02*
X02428055Y01247885D01*
X02428055Y01231886D02*
X02432055Y01231886D01*
X02432055Y01215888D02*
X02428055Y01215888D01*
X02399671Y01247885D02*
X02363442Y01247885D01*
X02370055Y01231886D02*
X02383802Y01231886D01*
X02376745Y01215888D02*
X02370055Y01215888D01*
X02375055Y01199889D02*
X02364640Y01199889D01*
X02351244Y01183891D02*
X02378101Y01183891D01*
X02386835Y01167892D02*
X02346975Y01167892D01*
X02325228Y01167892D02*
X02319575Y01167892D01*
X02319575Y01151894D02*
X02325228Y01151894D01*
X02325228Y01135895D02*
X02319575Y01135895D01*
X02319575Y01103898D02*
X02325228Y01103898D01*
X02325228Y01087900D02*
X02319575Y01087900D01*
X02272461Y01135895D02*
X02232678Y01135895D01*
X02222651Y01151894D02*
X02279953Y01151894D01*
X02346875Y01263883D02*
X02826055Y01263883D01*
X02826055Y01247885D02*
X02630492Y01247885D01*
X02650270Y01231886D02*
X02826055Y01231886D01*
X02826055Y01215888D02*
X02657495Y01215888D01*
X02659055Y01199889D02*
X02826055Y01199889D01*
X02826055Y01183891D02*
X02655766Y01183891D01*
X02646096Y01167892D02*
X02826055Y01167892D01*
X02826055Y01279882D02*
X02344180Y01279882D01*
X02362980Y01295880D02*
X02407226Y01295880D01*
X02408942Y01295006D02*
X02417176Y01292331D01*
X02425726Y01290976D01*
X02428055Y01290976D01*
X02428055Y01343976D01*
X02432055Y01343976D01*
X02432055Y01290976D01*
X02434384Y01290976D01*
X02442934Y01292331D01*
X02451168Y01295006D01*
X02458881Y01298936D01*
X02465885Y01304025D01*
X02472007Y01310146D01*
X02477095Y01317150D01*
X02481025Y01324864D01*
X02483701Y01333097D01*
X02485055Y01341648D01*
X02485055Y01343976D01*
X02432056Y01343976D01*
X02432056Y01347976D01*
X02485055Y01347976D01*
X02485055Y01350305D01*
X02483701Y01358856D01*
X02481025Y01367089D01*
X02477095Y01374803D01*
X02472007Y01381806D01*
X02465885Y01387928D01*
X02458881Y01393016D01*
X02451168Y01396947D01*
X02442934Y01399622D01*
X02434384Y01400976D01*
X02432055Y01400976D01*
X02432055Y01347977D01*
X02428055Y01347977D01*
X02428055Y01400976D01*
X02425726Y01400976D01*
X02417176Y01399622D01*
X02408942Y01396947D01*
X02401229Y01393016D01*
X02394225Y01387928D01*
X02388103Y01381806D01*
X02383015Y01374803D01*
X02379085Y01367089D01*
X02376409Y01358856D01*
X02375055Y01350305D01*
X02375055Y01347976D01*
X02428054Y01347976D01*
X02428054Y01343976D01*
X02375055Y01343976D01*
X02375055Y01341648D01*
X02376409Y01333097D01*
X02379085Y01324864D01*
X02383015Y01317150D01*
X02388103Y01310146D01*
X02394225Y01304025D01*
X02401229Y01298936D01*
X02408942Y01295006D01*
X02428055Y01295880D02*
X02432055Y01295880D01*
X02432055Y01311879D02*
X02428055Y01311879D01*
X02428055Y01327877D02*
X02432055Y01327877D01*
X02432055Y01343876D02*
X02428055Y01343876D01*
X02428055Y01359875D02*
X02432055Y01359875D01*
X02432055Y01375873D02*
X02428055Y01375873D01*
X02428055Y01391872D02*
X02432055Y01391872D01*
X02460457Y01391872D02*
X02585587Y01391872D01*
X02579166Y01389212D02*
X02597910Y01396976D01*
X02618200Y01396976D01*
X02636944Y01389212D01*
X02651291Y01374866D01*
X02659055Y01356121D01*
X02659055Y01335832D01*
X02651291Y01317087D01*
X02636944Y01302741D01*
X02618200Y01294976D01*
X02597910Y01294976D01*
X02579166Y01302741D01*
X02564819Y01317087D01*
X02557055Y01335832D01*
X02557055Y01356121D01*
X02564819Y01374866D01*
X02579166Y01389212D01*
X02565827Y01375873D02*
X02476318Y01375873D01*
X02483370Y01359875D02*
X02558610Y01359875D01*
X02557055Y01343876D02*
X02485055Y01343876D01*
X02482005Y01327877D02*
X02560350Y01327877D01*
X02570028Y01311879D02*
X02473266Y01311879D01*
X02452884Y01295880D02*
X02595728Y01295880D01*
X02620382Y01295880D02*
X02826055Y01295880D01*
X02826055Y01311879D02*
X02646083Y01311879D01*
X02655760Y01327877D02*
X02826055Y01327877D01*
X02826055Y01343876D02*
X02659055Y01343876D01*
X02657500Y01359875D02*
X02826055Y01359875D01*
X02826055Y01375873D02*
X02650283Y01375873D01*
X02630524Y01391872D02*
X02826055Y01391872D01*
X02826055Y01407870D02*
X02367946Y01407870D01*
X02370055Y01423869D02*
X02826055Y01423869D01*
X02826055Y01439867D02*
X02366763Y01439867D01*
X02359224Y01391872D02*
X02399653Y01391872D01*
X02383793Y01375873D02*
X02334501Y01375873D01*
X02352360Y01359875D02*
X02376741Y01359875D01*
X02375055Y01343876D02*
X02365103Y01343876D01*
X02370055Y01327877D02*
X02378105Y01327877D01*
X02369606Y01311879D02*
X02386844Y01311879D01*
X02428055Y00991908D02*
X02432055Y00991908D01*
X02432055Y00975910D02*
X02428055Y00975910D01*
X02428055Y00959911D02*
X02432055Y00959911D01*
X02460406Y00991908D02*
X02585676Y00991908D01*
X02565864Y00975910D02*
X02476291Y00975910D01*
X02483358Y00959911D02*
X02558625Y00959911D01*
X02557055Y00943913D02*
X02485055Y00943913D01*
X02482017Y00927914D02*
X02560335Y00927914D01*
X02569991Y00911916D02*
X02473292Y00911916D01*
X02432055Y00303972D02*
X02428055Y00303972D01*
X02428055Y00287973D02*
X02432055Y00287973D01*
X02432055Y00271975D02*
X02428055Y00271975D01*
X02395662Y00303972D02*
X01840913Y00303972D01*
X01854492Y00287973D02*
X02382083Y00287973D01*
X02376112Y00271975D02*
X01860463Y00271975D01*
X01861413Y00255976D02*
X02375161Y00255976D01*
X02379047Y00239978D02*
X01857527Y00239978D01*
X01847304Y00223979D02*
X02389270Y00223979D01*
X01808520Y00223979D02*
X01804519Y00223979D01*
X01804519Y00239978D02*
X01808520Y00239978D01*
X01808520Y00255976D02*
X01804519Y00255976D01*
X01804519Y00271975D02*
X01808520Y00271975D01*
X01808520Y00287973D02*
X01804519Y00287973D01*
X01804519Y00303972D02*
X01808520Y00303972D01*
X01772127Y00303972D02*
X01657649Y00303972D01*
X01657409Y00304212D02*
X01638664Y00311976D01*
X01618375Y00311976D01*
X01599630Y00304212D01*
X01585284Y00289866D01*
X01577520Y00271121D01*
X01577520Y00250832D01*
X01585284Y00232087D01*
X01599630Y00217741D01*
X01618375Y00209976D01*
X01638664Y00209976D01*
X01657409Y00217741D01*
X01671755Y00232087D01*
X01679520Y00250832D01*
X01679520Y00271121D01*
X01671755Y00289866D01*
X01657409Y00304212D01*
X01672539Y00287973D02*
X01758547Y00287973D01*
X01752576Y00271975D02*
X01679166Y00271975D01*
X01679520Y00255976D02*
X01751626Y00255976D01*
X01755512Y00239978D02*
X01675024Y00239978D01*
X01663648Y00223979D02*
X01765735Y00223979D01*
X01593392Y00223979D02*
X01453603Y00223979D01*
X01463826Y00239978D02*
X01582015Y00239978D01*
X01577520Y00255976D02*
X01467712Y00255976D01*
X01466762Y00271975D02*
X01577874Y00271975D01*
X01584500Y00287973D02*
X01460791Y00287973D01*
X01447212Y00303972D02*
X01599390Y00303972D01*
X01618375Y00465976D02*
X01638664Y00465976D01*
X01657409Y00473741D01*
X01671755Y00488087D01*
X01679520Y00506832D01*
X01679520Y00527121D01*
X01671755Y00545866D01*
X01657409Y00560212D01*
X01638664Y00567976D01*
X01618375Y00567976D01*
X01599630Y00560212D01*
X01585284Y00545866D01*
X01577520Y00527121D01*
X01577520Y00506832D01*
X01585284Y00488087D01*
X01599630Y00473741D01*
X01618375Y00465976D01*
X01593415Y00479956D02*
X01453580Y00479956D01*
X01463819Y00495954D02*
X01582025Y00495954D01*
X01577520Y00511953D02*
X01467709Y00511953D01*
X01466766Y00527951D02*
X01577864Y00527951D01*
X01584491Y00543950D02*
X01460803Y00543950D01*
X01447244Y00559948D02*
X01599367Y00559948D01*
X01657672Y00559948D02*
X01772094Y00559948D01*
X01758535Y00543950D02*
X01672549Y00543950D01*
X01679176Y00527951D02*
X01752572Y00527951D01*
X01751630Y00511953D02*
X01679520Y00511953D01*
X01675014Y00495954D02*
X01755520Y00495954D01*
X01765759Y00479956D02*
X01663624Y00479956D01*
X01804519Y00479956D02*
X01808520Y00479956D01*
X01808520Y00495954D02*
X01804519Y00495954D01*
X01804519Y00511953D02*
X01808520Y00511953D01*
X01808520Y00527951D02*
X01804519Y00527951D01*
X01804519Y00543950D02*
X01808520Y00543950D01*
X01808520Y00559948D02*
X01804519Y00559948D01*
X01414819Y00559948D02*
X01410819Y00559948D01*
X01410819Y00543950D02*
X01414819Y00543950D01*
X01414819Y00527951D02*
X01410819Y00527951D01*
X01410819Y00511953D02*
X01414819Y00511953D01*
X01414819Y00495954D02*
X01410819Y00495954D01*
X01410819Y00479956D02*
X01414819Y00479956D01*
X01372058Y00479956D02*
X01269923Y00479956D01*
X01263708Y00473741D02*
X01278055Y00488087D01*
X01285819Y00506832D01*
X01285819Y00527121D01*
X01278055Y00545866D01*
X01263708Y00560212D01*
X01244963Y00567976D01*
X01224674Y00567976D01*
X01205930Y00560212D01*
X01191583Y00545866D01*
X01183819Y00527121D01*
X01183819Y00506832D01*
X01191583Y00488087D01*
X01205930Y00473741D01*
X01224674Y00465976D01*
X01244963Y00465976D01*
X01263708Y00473741D01*
X01281313Y00495954D02*
X01361819Y00495954D01*
X01357929Y00511953D02*
X01285819Y00511953D01*
X01285475Y00527951D02*
X01358872Y00527951D01*
X01364835Y00543950D02*
X01278848Y00543950D01*
X01263972Y00559948D02*
X01378393Y00559948D01*
X01205666Y00559948D02*
X01053544Y00559948D01*
X01067102Y00543950D02*
X01190790Y00543950D01*
X01184163Y00527951D02*
X01073065Y00527951D01*
X01074008Y00511953D02*
X01183819Y00511953D01*
X01188324Y00495954D02*
X01070118Y00495954D01*
X01059879Y00479956D02*
X01199715Y00479956D01*
X01224674Y00311976D02*
X01205930Y00304212D01*
X01191583Y00289866D01*
X01183819Y00271121D01*
X01183819Y00250832D01*
X01191583Y00232087D01*
X01205930Y00217741D01*
X01224674Y00209976D01*
X01244963Y00209976D01*
X01263708Y00217741D01*
X01278055Y00232087D01*
X01285819Y00250832D01*
X01285819Y00271121D01*
X01278055Y00289866D01*
X01263708Y00304212D01*
X01244963Y00311976D01*
X01224674Y00311976D01*
X01205690Y00303972D02*
X01053511Y00303972D01*
X01067090Y00287973D02*
X01190799Y00287973D01*
X01184173Y00271975D02*
X01073062Y00271975D01*
X01074012Y00255976D02*
X01183819Y00255976D01*
X01188315Y00239978D02*
X01070125Y00239978D01*
X01059903Y00223979D02*
X01199691Y00223979D01*
X01269947Y00223979D02*
X01372034Y00223979D01*
X01361811Y00239978D02*
X01281323Y00239978D01*
X01285819Y00255976D02*
X01357925Y00255976D01*
X01358875Y00271975D02*
X01285465Y00271975D01*
X01278838Y00287973D02*
X01364847Y00287973D01*
X01378426Y00303972D02*
X01263948Y00303972D01*
X01410819Y00303972D02*
X01414819Y00303972D01*
X01414819Y00287973D02*
X01410819Y00287973D01*
X01410819Y00271975D02*
X01414819Y00271975D01*
X01414819Y00255976D02*
X01410819Y00255976D01*
X01410819Y00239978D02*
X01414819Y00239978D01*
X01414819Y00223979D02*
X01410819Y00223979D01*
X01021118Y00223979D02*
X01017118Y00223979D01*
X01017118Y00239978D02*
X01021118Y00239978D01*
X01021118Y00255976D02*
X01017118Y00255976D01*
X01019118Y00260976D02*
X01019118Y00516976D01*
X01017118Y00511953D02*
X01021118Y00511953D01*
X01021118Y00527951D02*
X01017118Y00527951D01*
X01017118Y00543950D02*
X01021118Y00543950D01*
X01021118Y00559948D02*
X01017118Y00559948D01*
X00984693Y00559948D02*
X00870271Y00559948D01*
X00885147Y00543950D02*
X00971134Y00543950D01*
X00965171Y00527951D02*
X00891774Y00527951D01*
X00892118Y00511953D02*
X00964228Y00511953D01*
X00968118Y00495954D02*
X00887612Y00495954D01*
X00876222Y00479956D02*
X00978357Y00479956D01*
X01017118Y00479956D02*
X01021118Y00479956D01*
X01021118Y00495954D02*
X01017118Y00495954D01*
X01017118Y00303972D02*
X01021118Y00303972D01*
X01021118Y00287973D02*
X01017118Y00287973D01*
X01017118Y00271975D02*
X01021118Y00271975D01*
X00984725Y00303972D02*
X00870247Y00303972D01*
X00885138Y00287973D02*
X00971146Y00287973D01*
X00965175Y00271975D02*
X00891764Y00271975D01*
X00892118Y00255976D02*
X00964224Y00255976D01*
X00968110Y00239978D02*
X00887622Y00239978D01*
X00876246Y00223979D02*
X00978333Y00223979D01*
X01142677Y01087900D02*
X01813068Y01087900D01*
X01800060Y01103898D02*
X01150599Y01103898D01*
X01152547Y01119897D02*
X01795819Y01119897D01*
X01797952Y01135895D02*
X01149297Y01135895D01*
X01139465Y01151894D02*
X01807979Y01151894D01*
X01821542Y01183891D02*
X01133805Y01183891D01*
X01144921Y01199889D02*
X01801720Y01199889D01*
X01795819Y01215888D02*
X01148547Y01215888D01*
X01146582Y01231886D02*
X01796292Y01231886D01*
X01803970Y01247885D02*
X01137817Y01247885D01*
X01112528Y01263883D02*
X01828525Y01263883D01*
X01813104Y01487863D02*
X01411029Y01487863D01*
X01468343Y01599852D02*
X01224337Y01599852D01*
X01221386Y01596902D02*
X01248039Y01623555D01*
X01248039Y01661248D01*
X01221386Y01687901D01*
X01183693Y01687901D01*
X01157039Y01661248D01*
X01157039Y01623555D01*
X01183693Y01596902D01*
X01221386Y01596902D01*
X01240335Y01615851D02*
X01455098Y01615851D01*
X01449823Y01631849D02*
X01248039Y01631849D01*
X01248039Y01647848D02*
X01449948Y01647848D01*
X01455498Y01663846D02*
X01245441Y01663846D01*
X01229442Y01679845D02*
X01469422Y01679845D01*
X01483529Y01695844D02*
X01417734Y01695844D01*
X01421078Y01697229D02*
X01435425Y01711575D01*
X01443189Y01730320D01*
X01443189Y01750609D01*
X01435425Y01769354D01*
X01421078Y01783700D01*
X01402334Y01791464D01*
X01382044Y01791464D01*
X01363300Y01783700D01*
X01349687Y01770087D01*
X01335574Y01784200D01*
X01316830Y01791964D01*
X01296540Y01791964D01*
X01277796Y01784200D01*
X01263449Y01769854D01*
X01255685Y01751109D01*
X01255685Y01730820D01*
X01263449Y01712075D01*
X01277796Y01697729D01*
X01296540Y01689965D01*
X01316830Y01689965D01*
X01335574Y01697729D01*
X01349187Y01711342D01*
X01363300Y01697229D01*
X01382044Y01689465D01*
X01402334Y01689465D01*
X01421078Y01697229D01*
X01435535Y01711842D02*
X01461602Y01711842D01*
X01454228Y01727841D02*
X01442162Y01727841D01*
X01443189Y01743839D02*
X01453248Y01743839D01*
X01457859Y01759838D02*
X01439366Y01759838D01*
X01428942Y01775836D02*
X01470367Y01775836D01*
X01499747Y01679845D02*
X01499749Y01679845D01*
X01499747Y01663846D02*
X01499749Y01663846D01*
X01499747Y01647848D02*
X01499749Y01647848D01*
X01499747Y01631849D02*
X01499749Y01631849D01*
X01499747Y01615851D02*
X01499749Y01615851D01*
X01499747Y01599852D02*
X01499749Y01599852D01*
X01531153Y01599852D02*
X01801735Y01599852D01*
X01795819Y01615851D02*
X01544398Y01615851D01*
X01549672Y01631849D02*
X01796276Y01631849D01*
X01803933Y01647848D02*
X01549548Y01647848D01*
X01366644Y01695844D02*
X01331023Y01695844D01*
X01282347Y01695844D02*
X00597380Y01695844D01*
X00602918Y01679845D02*
X00869979Y01679845D01*
X00882036Y01691901D02*
X00853039Y01662905D01*
X00853039Y01642402D01*
X00902538Y01642402D01*
X00902538Y01642401D01*
X00853039Y01642401D01*
X00853039Y01621898D01*
X00882036Y01592902D01*
X00902539Y01592902D01*
X00902539Y01642400D01*
X00902540Y01642400D01*
X00902540Y01592902D01*
X00923043Y01592902D01*
X00952039Y01621898D01*
X00952039Y01642401D01*
X00902541Y01642401D01*
X00902541Y01642402D01*
X00952039Y01642402D01*
X00952039Y01662905D01*
X00923043Y01691901D01*
X00902540Y01691901D01*
X00902540Y01642403D01*
X00902539Y01642403D01*
X00902539Y01691901D01*
X00882036Y01691901D01*
X00902539Y01679845D02*
X00902540Y01679845D01*
X00902539Y01663846D02*
X00902540Y01663846D01*
X00902539Y01647848D02*
X00902540Y01647848D01*
X00902539Y01631849D02*
X00902540Y01631849D01*
X00902539Y01615851D02*
X00902540Y01615851D01*
X00902539Y01599852D02*
X00902540Y01599852D01*
X00929994Y01599852D02*
X00980742Y01599852D01*
X00983693Y01596902D02*
X01021386Y01596902D01*
X01048039Y01623555D01*
X01048039Y01661248D01*
X01021386Y01687901D01*
X00983693Y01687901D01*
X00957039Y01661248D01*
X00957039Y01623555D01*
X00983693Y01596902D01*
X00964743Y01615851D02*
X00945992Y01615851D01*
X00952039Y01631849D02*
X00957039Y01631849D01*
X00957039Y01647848D02*
X00952039Y01647848D01*
X00951098Y01663846D02*
X00959638Y01663846D01*
X00975636Y01679845D02*
X00935099Y01679845D01*
X00976455Y01720083D02*
X00993546Y01713004D01*
X01012045Y01713004D01*
X01029135Y01720083D01*
X01042216Y01733164D01*
X01049295Y01750254D01*
X01049295Y01768753D01*
X01042216Y01785844D01*
X01029135Y01798925D01*
X01012045Y01806004D01*
X00993546Y01806004D01*
X00976455Y01798925D01*
X00963375Y01785844D01*
X00956295Y01768753D01*
X00956295Y01750254D01*
X00963375Y01733164D01*
X00976455Y01720083D01*
X00968698Y01727841D02*
X00816091Y01727841D01*
X00824482Y01743839D02*
X00958953Y01743839D01*
X00956295Y01759838D02*
X00826866Y01759838D01*
X00824401Y01775836D02*
X00959229Y01775836D01*
X00969365Y01791835D02*
X00815896Y01791835D01*
X00793029Y01807833D02*
X01085251Y01807833D01*
X01090824Y01810142D02*
X01072079Y01802377D01*
X01057733Y01788031D01*
X01049969Y01769286D01*
X01049969Y01748997D01*
X01057733Y01730252D01*
X01072079Y01715906D01*
X01090824Y01708142D01*
X01111113Y01708142D01*
X01129858Y01715906D01*
X01144204Y01730252D01*
X01151968Y01748997D01*
X01151968Y01769286D01*
X01144204Y01788031D01*
X01129858Y01802377D01*
X01111113Y01810142D01*
X01090824Y01810142D01*
X01116686Y01807833D02*
X01798430Y01807833D01*
X01795819Y01823832D02*
X01283457Y01823832D01*
X01278889Y01819264D02*
X01293236Y01833611D01*
X01301000Y01852355D01*
X01301000Y01872645D01*
X01293236Y01891389D01*
X01278889Y01905736D01*
X01260145Y01913500D01*
X01239855Y01913500D01*
X01221111Y01905736D01*
X01206764Y01891389D01*
X01199000Y01872645D01*
X01199000Y01852355D01*
X01206764Y01833611D01*
X01221111Y01819264D01*
X01239855Y01811500D01*
X01260145Y01811500D01*
X01278889Y01819264D01*
X01295812Y01839830D02*
X01799582Y01839830D01*
X01811914Y01855829D02*
X01301000Y01855829D01*
X01301000Y01871827D02*
X02826055Y01871827D01*
X02826055Y01855829D02*
X02370055Y01855829D01*
X02370055Y01839830D02*
X02826055Y01839830D01*
X02826055Y01823832D02*
X02370055Y01823832D01*
X02370055Y01807833D02*
X02826055Y01807833D01*
X02826055Y01791835D02*
X02693566Y01791835D01*
X02690180Y01795220D02*
X02671436Y01802984D01*
X02651147Y01802984D01*
X02632402Y01795220D01*
X02618056Y01780873D01*
X02610291Y01762129D01*
X02610291Y01741840D01*
X02618056Y01723095D01*
X02632402Y01708749D01*
X02651147Y01700984D01*
X02671436Y01700984D01*
X02690180Y01708749D01*
X02704527Y01723095D01*
X02712291Y01741840D01*
X02712291Y01762129D01*
X02704527Y01780873D01*
X02690180Y01795220D01*
X02706614Y01775836D02*
X02826055Y01775836D01*
X02826055Y01759838D02*
X02712291Y01759838D01*
X02712291Y01743839D02*
X02826055Y01743839D01*
X02826055Y01727841D02*
X02706493Y01727841D01*
X02693274Y01711842D02*
X02826055Y01711842D01*
X02826055Y01695844D02*
X02362964Y01695844D01*
X02369591Y01711842D02*
X02629309Y01711842D01*
X02616090Y01727841D02*
X02370055Y01727841D01*
X02365118Y01743839D02*
X02610291Y01743839D01*
X02610291Y01759838D02*
X02352397Y01759838D01*
X02362903Y01775836D02*
X02615969Y01775836D01*
X02629017Y01791835D02*
X02370055Y01791835D01*
X02279685Y01743839D02*
X02229387Y01743839D01*
X02234811Y01727841D02*
X02274748Y01727841D01*
X02275212Y01711842D02*
X02233860Y01711842D01*
X02225506Y01695844D02*
X02281839Y01695844D01*
X02344090Y01679845D02*
X02826055Y01679845D01*
X02826055Y01887826D02*
X01294712Y01887826D01*
X01280800Y01903824D02*
X02826055Y01903824D01*
X02826055Y01919823D02*
X00141583Y01919823D01*
X00141583Y01935821D02*
X02826055Y01935821D01*
X02826055Y01951820D02*
X00141583Y01951820D01*
X00141583Y01983817D02*
X02826055Y01983817D01*
X02826055Y01999815D02*
X00370603Y01999815D01*
X00376187Y02002128D02*
X00395076Y02021018D01*
X00405299Y02045698D01*
X00405299Y02072412D01*
X00395076Y02097092D01*
X00393964Y02098205D01*
X00398751Y02098205D01*
X00423431Y02108428D01*
X00442320Y02127317D01*
X00452543Y02151997D01*
X00452543Y02178711D01*
X00442320Y02203391D01*
X00423431Y02222281D01*
X00398751Y02232504D01*
X00372037Y02232504D01*
X00347356Y02222281D01*
X00328467Y02203391D01*
X00318244Y02178711D01*
X00318244Y02151997D01*
X00328467Y02127317D01*
X00329580Y02126205D01*
X00324793Y02126205D01*
X00300112Y02115982D01*
X00281223Y02097092D01*
X00271000Y02072412D01*
X00271000Y02045698D01*
X00281223Y02021018D01*
X00300112Y02002128D01*
X00324793Y01991906D01*
X00351507Y01991906D01*
X00376187Y02002128D01*
X00389872Y02015814D02*
X00748644Y02015814D01*
X00746977Y02016504D02*
X00765721Y02008740D01*
X00786011Y02008740D01*
X00804755Y02016504D01*
X00819102Y02030851D01*
X00826866Y02049595D01*
X00826866Y02069885D01*
X00819102Y02088629D01*
X00804755Y02102976D01*
X00786011Y02110740D01*
X00783151Y02110740D01*
X00785149Y02111567D01*
X00799495Y02125914D01*
X00807260Y02144658D01*
X00807260Y02164948D01*
X00799495Y02183692D01*
X00785149Y02198039D01*
X00766404Y02205803D01*
X00746115Y02205803D01*
X00727371Y02198039D01*
X00713024Y02183692D01*
X00705260Y02164948D01*
X00705260Y02144658D01*
X00713024Y02125914D01*
X00727371Y02111567D01*
X00746115Y02103803D01*
X00748975Y02103803D01*
X00746977Y02102976D01*
X00732630Y02088629D01*
X00724866Y02069885D01*
X00724866Y02049595D01*
X00732630Y02030851D01*
X00746977Y02016504D01*
X00732232Y02031813D02*
X00687001Y02031813D01*
X00680971Y02029315D02*
X00699716Y02037079D01*
X00714062Y02051426D01*
X00721827Y02070170D01*
X00721827Y02090460D01*
X00714062Y02109204D01*
X00699716Y02123551D01*
X00680971Y02131315D01*
X00660682Y02131315D01*
X00641938Y02123551D01*
X00627591Y02109204D01*
X00619827Y02090460D01*
X00619827Y02070170D01*
X00627591Y02051426D01*
X00641938Y02037079D01*
X00660682Y02029315D01*
X00680971Y02029315D01*
X00654652Y02031813D02*
X00399547Y02031813D01*
X00405299Y02047811D02*
X00631206Y02047811D01*
X00622461Y02063810D02*
X00405299Y02063810D01*
X00402236Y02079808D02*
X00619827Y02079808D01*
X00622042Y02095807D02*
X00395609Y02095807D01*
X00426808Y02111805D02*
X00630192Y02111805D01*
X00652205Y02127804D02*
X00442522Y02127804D01*
X00449149Y02143802D02*
X00705614Y02143802D01*
X00705260Y02159801D02*
X00452543Y02159801D01*
X00452543Y02175799D02*
X00709755Y02175799D01*
X00721130Y02191798D02*
X00447123Y02191798D01*
X00437915Y02207796D02*
X01218773Y02207796D01*
X01221174Y02209540D02*
X01214170Y02204452D01*
X01208048Y02198330D01*
X01202960Y02191326D01*
X01199030Y02183613D01*
X01196354Y02175379D01*
X01195000Y02166829D01*
X01195000Y02163358D01*
X01249141Y02163358D01*
X01249141Y02161641D01*
X01195000Y02161641D01*
X01195000Y02158171D01*
X01196354Y02149621D01*
X01199030Y02141387D01*
X01202960Y02133674D01*
X01208048Y02126670D01*
X01214170Y02120548D01*
X01221174Y02115460D01*
X01228887Y02111530D01*
X01237121Y02108854D01*
X01245671Y02107500D01*
X01249141Y02107500D01*
X01249141Y02161641D01*
X01250858Y02161641D01*
X01250858Y02107500D01*
X01254329Y02107500D01*
X01262879Y02108854D01*
X01271113Y02111530D01*
X01278826Y02115460D01*
X01285830Y02120548D01*
X01291952Y02126670D01*
X01297040Y02133674D01*
X01300970Y02141387D01*
X01303646Y02149621D01*
X01305000Y02158171D01*
X01305000Y02161641D01*
X01250859Y02161641D01*
X01250859Y02163358D01*
X01305000Y02163358D01*
X01305000Y02166829D01*
X01303646Y02175379D01*
X01300970Y02183613D01*
X01297040Y02191326D01*
X01291952Y02198330D01*
X01285830Y02204452D01*
X01278826Y02209540D01*
X01271113Y02213470D01*
X01262879Y02216146D01*
X01254329Y02217500D01*
X01250858Y02217500D01*
X01250858Y02163359D01*
X01249141Y02163359D01*
X01249141Y02217500D01*
X01245671Y02217500D01*
X01237121Y02216146D01*
X01228887Y02213470D01*
X01221174Y02209540D01*
X01203302Y02191798D02*
X01091390Y02191798D01*
X01085149Y02198039D02*
X01066404Y02205803D01*
X01046115Y02205803D01*
X01027371Y02198039D01*
X01013024Y02183692D01*
X01005260Y02164948D01*
X01005260Y02144658D01*
X01013024Y02125914D01*
X01027371Y02111567D01*
X01046115Y02103803D01*
X01066404Y02103803D01*
X01072136Y02106177D01*
X01065138Y02101093D01*
X01059017Y02094972D01*
X01053928Y02087968D01*
X01049998Y02080254D01*
X01047323Y02072021D01*
X01045969Y02063470D01*
X01045968Y02060000D01*
X01100109Y02060000D01*
X01100109Y02058283D01*
X01045969Y02058283D01*
X01045969Y02054813D01*
X01047323Y02046262D01*
X01049998Y02038029D01*
X01053928Y02030315D01*
X01059017Y02023312D01*
X01065138Y02017190D01*
X01072142Y02012102D01*
X01079856Y02008171D01*
X01088089Y02005496D01*
X01096640Y02004142D01*
X01100110Y02004142D01*
X01100110Y02058283D01*
X01101827Y02058283D01*
X01101827Y02004142D01*
X01105297Y02004142D01*
X01113848Y02005496D01*
X01122081Y02008171D01*
X01129795Y02012102D01*
X01136798Y02017190D01*
X01142920Y02023312D01*
X01148009Y02030315D01*
X01151939Y02038029D01*
X01154614Y02046262D01*
X01155968Y02054813D01*
X01155968Y02058283D01*
X01101828Y02058283D01*
X01101828Y02060000D01*
X01155968Y02060000D01*
X01155968Y02063470D01*
X01154614Y02072021D01*
X01151939Y02080254D01*
X01148009Y02087968D01*
X01142920Y02094972D01*
X01136798Y02101093D01*
X01129795Y02106182D01*
X01122081Y02110112D01*
X01113848Y02112787D01*
X01105297Y02114142D01*
X01101827Y02114142D01*
X01101827Y02060001D01*
X01100110Y02060001D01*
X01100110Y02114142D01*
X01096640Y02114142D01*
X01088089Y02112787D01*
X01085541Y02111959D01*
X01099495Y02125914D01*
X01107260Y02144658D01*
X01107260Y02164948D01*
X01099495Y02183692D01*
X01085149Y02198039D01*
X01102765Y02175799D02*
X01196491Y02175799D01*
X01195000Y02159801D02*
X01107260Y02159801D01*
X01106905Y02143802D02*
X01198245Y02143802D01*
X01207225Y02127804D02*
X01100278Y02127804D01*
X01100110Y02111805D02*
X01101827Y02111805D01*
X01116871Y02111805D02*
X01228346Y02111805D01*
X01249141Y02111805D02*
X01250858Y02111805D01*
X01250858Y02127804D02*
X01249141Y02127804D01*
X01249141Y02143802D02*
X01250858Y02143802D01*
X01250858Y02159801D02*
X01249141Y02159801D01*
X01249141Y02175799D02*
X01250858Y02175799D01*
X01250858Y02191798D02*
X01249141Y02191798D01*
X01249141Y02207796D02*
X01250858Y02207796D01*
X01281227Y02207796D02*
X02826055Y02207796D01*
X02826055Y02191798D02*
X01296698Y02191798D01*
X01303509Y02175799D02*
X02826055Y02175799D01*
X02826055Y02159801D02*
X01305000Y02159801D01*
X01301755Y02143802D02*
X02826055Y02143802D01*
X02826055Y02127804D02*
X01292775Y02127804D01*
X01271653Y02111805D02*
X02826055Y02111805D01*
X02826055Y02095807D02*
X02688764Y02095807D01*
X02690180Y02095220D02*
X02671436Y02102984D01*
X02651147Y02102984D01*
X02632402Y02095220D01*
X02618056Y02080873D01*
X02610291Y02062129D01*
X02610291Y02041840D01*
X02618056Y02023095D01*
X02632402Y02008749D01*
X02651147Y02000984D01*
X02671436Y02000984D01*
X02690180Y02008749D01*
X02704527Y02023095D01*
X02712291Y02041840D01*
X02712291Y02062129D01*
X02704527Y02080873D01*
X02690180Y02095220D01*
X02704968Y02079808D02*
X02826055Y02079808D01*
X02826055Y02063810D02*
X02711595Y02063810D01*
X02712291Y02047811D02*
X02826055Y02047811D01*
X02826055Y02031813D02*
X02708138Y02031813D01*
X02697246Y02015814D02*
X02826055Y02015814D01*
X02826055Y01967818D02*
X00078434Y01967818D01*
X00078433Y01951820D02*
X00062433Y01951820D01*
X00062433Y01935821D02*
X00078433Y01935821D01*
X00078433Y01919823D02*
X00062433Y01919823D01*
X00062433Y01903824D02*
X00078433Y01903824D01*
X00018000Y01887826D02*
X00960951Y01887826D01*
X00978543Y01903824D02*
X00141238Y01903824D01*
X00141583Y01999815D02*
X00305696Y01999815D01*
X00286427Y02015814D02*
X00141583Y02015814D01*
X00078433Y02015814D02*
X00062433Y02015814D01*
X00062433Y01999815D02*
X00078433Y01999815D01*
X00078433Y01983817D02*
X00062433Y01983817D01*
X00018000Y02031813D02*
X00276752Y02031813D01*
X00271000Y02047811D02*
X00018000Y02047811D01*
X00018000Y02063810D02*
X00271000Y02063810D01*
X00274064Y02079808D02*
X00018000Y02079808D01*
X00018000Y02095807D02*
X00280690Y02095807D01*
X00295936Y02111805D02*
X00018000Y02111805D01*
X00018000Y02127804D02*
X00328265Y02127804D01*
X00321639Y02143802D02*
X00018000Y02143802D01*
X00018000Y02159801D02*
X00318244Y02159801D01*
X00318244Y02175799D02*
X00018000Y02175799D01*
X00018000Y02191798D02*
X00323665Y02191798D01*
X00332872Y02207796D02*
X00018000Y02207796D01*
X00018000Y02223795D02*
X00351011Y02223795D01*
X00419776Y02223795D02*
X02826055Y02223795D01*
X02826055Y02239793D02*
X00018000Y02239793D01*
X00018000Y02255792D02*
X02826055Y02255792D01*
X02826055Y02271790D02*
X00018000Y02271790D01*
X00018000Y02287789D02*
X02337054Y02287789D01*
X02333214Y02289379D02*
X02351959Y02281615D01*
X02372248Y02281615D01*
X02390992Y02289379D01*
X02405339Y02303726D01*
X02413103Y02322470D01*
X02413103Y02342760D01*
X02412596Y02343984D01*
X02562867Y02494254D01*
X02564091Y02493747D01*
X02584380Y02493747D01*
X02603124Y02501511D01*
X02617471Y02515858D01*
X02625235Y02534602D01*
X02625235Y02554892D01*
X02617471Y02573636D01*
X02603124Y02587983D01*
X02584380Y02595747D01*
X02564091Y02595747D01*
X02545346Y02587983D01*
X02531000Y02573636D01*
X02523235Y02554892D01*
X02523235Y02534602D01*
X02528435Y02522048D01*
X02384802Y02378415D01*
X02372248Y02383615D01*
X02351959Y02383615D01*
X02333214Y02375851D01*
X02318867Y02361504D01*
X02311103Y02342760D01*
X02311103Y02322470D01*
X02318867Y02303726D01*
X02333214Y02289379D01*
X02318842Y02303787D02*
X00018000Y02303787D01*
X00018000Y02319786D02*
X02312215Y02319786D01*
X02311103Y02335784D02*
X00696590Y02335784D01*
X00699716Y02337079D02*
X00714062Y02351426D01*
X00721827Y02370170D01*
X00721827Y02390460D01*
X00714062Y02409204D01*
X00699716Y02423551D01*
X00680971Y02431315D01*
X00660682Y02431315D01*
X00641938Y02423551D01*
X00627591Y02409204D01*
X00619827Y02390460D01*
X00619827Y02370170D01*
X00627591Y02351426D01*
X00641938Y02337079D01*
X00660682Y02329315D01*
X00680971Y02329315D01*
X00699716Y02337079D01*
X00714210Y02351783D02*
X02314841Y02351783D01*
X02325145Y02367781D02*
X00720837Y02367781D01*
X00721827Y02383780D02*
X00762188Y02383780D01*
X00764889Y02382661D02*
X00783064Y02382661D01*
X00799855Y02389617D01*
X00812706Y02402468D01*
X00819661Y02419259D01*
X00819661Y02437434D01*
X00812706Y02454225D01*
X00799855Y02467076D01*
X00783064Y02474031D01*
X00764889Y02474031D01*
X00748098Y02467076D01*
X00735246Y02454225D01*
X00728291Y02437434D01*
X00728291Y02419259D01*
X00735246Y02402468D01*
X00748098Y02389617D01*
X00764889Y02382661D01*
X00785764Y02383780D02*
X00862188Y02383780D01*
X00864889Y02382661D02*
X00883064Y02382661D01*
X00899855Y02389617D01*
X00912706Y02402468D01*
X00919661Y02419259D01*
X00919661Y02437434D01*
X00912706Y02454225D01*
X00899855Y02467076D01*
X00883064Y02474031D01*
X00864889Y02474031D01*
X00848098Y02467076D01*
X00835246Y02454225D01*
X00828291Y02437434D01*
X00828291Y02419259D01*
X00835246Y02402468D01*
X00848098Y02389617D01*
X00864889Y02382661D01*
X00885764Y02383780D02*
X00962188Y02383780D01*
X00964889Y02382661D02*
X00983064Y02382661D01*
X00999855Y02389617D01*
X01012706Y02402468D01*
X01019661Y02419259D01*
X01019661Y02437434D01*
X01012706Y02454225D01*
X00999855Y02467076D01*
X00983064Y02474031D01*
X00964889Y02474031D01*
X00948098Y02467076D01*
X00935246Y02454225D01*
X00928291Y02437434D01*
X00928291Y02419259D01*
X00935246Y02402468D01*
X00948098Y02389617D01*
X00964889Y02382661D01*
X00985764Y02383780D02*
X01052002Y02383780D01*
X01054904Y02382302D02*
X01062342Y02379885D01*
X01070066Y02378661D01*
X01072134Y02378661D01*
X01072134Y02426503D01*
X01075819Y02426503D01*
X01075819Y02378661D01*
X01077887Y02378661D01*
X01085611Y02379885D01*
X01093049Y02382302D01*
X01100017Y02385852D01*
X01106344Y02390449D01*
X01111874Y02395979D01*
X01116471Y02402306D01*
X01120021Y02409274D01*
X01122438Y02416712D01*
X01123661Y02424436D01*
X01123661Y02426504D01*
X01075820Y02426504D01*
X01075820Y02430189D01*
X01123661Y02430189D01*
X01123661Y02432257D01*
X01122438Y02439981D01*
X01120021Y02447419D01*
X01116471Y02454387D01*
X01111874Y02460714D01*
X01106344Y02466244D01*
X01100017Y02470841D01*
X01093049Y02474391D01*
X01085611Y02476808D01*
X01077887Y02478031D01*
X01075819Y02478031D01*
X01075819Y02430190D01*
X01072134Y02430190D01*
X01072134Y02478031D01*
X01070066Y02478031D01*
X01062342Y02476808D01*
X01054904Y02474391D01*
X01047936Y02470841D01*
X01041609Y02466244D01*
X01036079Y02460714D01*
X01031482Y02454387D01*
X01027931Y02447419D01*
X01025515Y02439981D01*
X01024291Y02432257D01*
X01024291Y02430189D01*
X01072133Y02430189D01*
X01072133Y02426504D01*
X01024291Y02426504D01*
X01024291Y02424436D01*
X01025515Y02416712D01*
X01027931Y02409274D01*
X01031482Y02402306D01*
X01036079Y02395979D01*
X01041609Y02390449D01*
X01047936Y02385852D01*
X01054904Y02382302D01*
X01072134Y02383780D02*
X01075819Y02383780D01*
X01075819Y02399779D02*
X01072134Y02399779D01*
X01072134Y02415777D02*
X01075819Y02415777D01*
X01075819Y02431776D02*
X01072134Y02431776D01*
X01072134Y02447774D02*
X01075819Y02447774D01*
X01075819Y02463773D02*
X01072134Y02463773D01*
X01039137Y02463773D02*
X01003158Y02463773D01*
X01015378Y02447774D02*
X01028113Y02447774D01*
X01024291Y02431776D02*
X01019661Y02431776D01*
X01018219Y02415777D02*
X01025818Y02415777D01*
X01033318Y02399779D02*
X01010017Y02399779D01*
X00937936Y02399779D02*
X00910017Y02399779D01*
X00918219Y02415777D02*
X00929734Y02415777D01*
X00928291Y02431776D02*
X00919661Y02431776D01*
X00915378Y02447774D02*
X00932574Y02447774D01*
X00944794Y02463773D02*
X00903158Y02463773D01*
X00844794Y02463773D02*
X00803158Y02463773D01*
X00815378Y02447774D02*
X00832574Y02447774D01*
X00828291Y02431776D02*
X00819661Y02431776D01*
X00818219Y02415777D02*
X00829734Y02415777D01*
X00837936Y02399779D02*
X00810017Y02399779D01*
X00737936Y02399779D02*
X00717967Y02399779D01*
X00707489Y02415777D02*
X00729734Y02415777D01*
X00728291Y02431776D02*
X00374251Y02431776D01*
X00371458Y02428983D02*
X00379639Y02437164D01*
X00386852Y02446208D01*
X00393007Y02456004D01*
X00398026Y02466427D01*
X00401847Y02477346D01*
X00404421Y02488625D01*
X00405467Y02497906D01*
X00310717Y02497906D01*
X00310717Y02513905D01*
X00405467Y02513905D01*
X00404421Y02523186D01*
X00401847Y02534464D01*
X00398026Y02545384D01*
X00393007Y02555807D01*
X00386852Y02565602D01*
X00379639Y02574647D01*
X00371458Y02582828D01*
X00362414Y02590041D01*
X00352618Y02596195D01*
X00342195Y02601215D01*
X00331275Y02605036D01*
X00319997Y02607610D01*
X00310716Y02608656D01*
X00310716Y02513906D01*
X00294717Y02513906D01*
X00294717Y02608656D01*
X00285436Y02607610D01*
X00274157Y02605036D01*
X00263238Y02601215D01*
X00252815Y02596195D01*
X00243019Y02590041D01*
X00233975Y02582828D01*
X00225794Y02574647D01*
X00218581Y02565602D01*
X00212426Y02555807D01*
X00207407Y02545384D01*
X00203586Y02534464D01*
X00201012Y02523186D01*
X00199966Y02513905D01*
X00294716Y02513905D01*
X00294716Y02497906D01*
X00199966Y02497906D01*
X00201012Y02488625D01*
X00203586Y02477346D01*
X00207407Y02466427D01*
X00212426Y02456004D01*
X00218581Y02446208D01*
X00225794Y02437164D01*
X00233975Y02428983D01*
X00243019Y02421770D01*
X00252815Y02415615D01*
X00263238Y02410596D01*
X00274157Y02406775D01*
X00285436Y02404201D01*
X00294717Y02403155D01*
X00294717Y02497905D01*
X00310716Y02497905D01*
X00310716Y02403155D01*
X00319997Y02404201D01*
X00331275Y02406775D01*
X00342195Y02410596D01*
X00352618Y02415615D01*
X00362414Y02421770D01*
X00371458Y02428983D01*
X00352875Y02415777D02*
X00634164Y02415777D01*
X00623687Y02399779D02*
X00018000Y02399779D01*
X00018000Y02415777D02*
X00252558Y02415777D01*
X00231182Y02431776D02*
X00018000Y02431776D01*
X00018000Y02447774D02*
X00217597Y02447774D01*
X00208685Y02463773D02*
X00018000Y02463773D01*
X00018000Y02479771D02*
X00203033Y02479771D01*
X00200207Y02495770D02*
X00018000Y02495770D01*
X00018000Y02511768D02*
X00294716Y02511768D01*
X00294717Y02495770D02*
X00310716Y02495770D01*
X00310717Y02511768D02*
X02518156Y02511768D01*
X02526067Y02527767D02*
X00403376Y02527767D01*
X00398592Y02543765D02*
X02523235Y02543765D01*
X02525253Y02559764D02*
X00390520Y02559764D01*
X00378524Y02575762D02*
X02533126Y02575762D01*
X02554467Y02591761D02*
X00359676Y02591761D01*
X00364748Y02607017D02*
X00401134Y02591945D01*
X00440519Y02591945D01*
X00476906Y02607017D01*
X00504755Y02634866D01*
X00519827Y02671252D01*
X00519827Y02710637D01*
X00504755Y02747024D01*
X00476906Y02774873D01*
X00440519Y02789945D01*
X00401134Y02789945D01*
X00364748Y02774873D01*
X00336899Y02747024D01*
X00321827Y02710637D01*
X00321827Y02671252D01*
X00336899Y02634866D01*
X00364748Y02607017D01*
X00364005Y02607759D02*
X00318672Y02607759D01*
X00310716Y02607759D02*
X00294717Y02607759D01*
X00286761Y02607759D02*
X00245494Y02607759D01*
X00244303Y02606810D02*
X00253348Y02614023D01*
X00261528Y02622203D01*
X00268741Y02631248D01*
X00274896Y02641043D01*
X00279916Y02651466D01*
X00283737Y02662386D01*
X00286311Y02673664D01*
X00287356Y02682945D01*
X00192607Y02682945D01*
X00192607Y02698945D01*
X00287356Y02698945D01*
X00286311Y02708225D01*
X00283737Y02719504D01*
X00279916Y02730423D01*
X00274896Y02740846D01*
X00268741Y02750642D01*
X00261528Y02759687D01*
X00253348Y02767867D01*
X00244303Y02775080D01*
X00234508Y02781235D01*
X00224085Y02786254D01*
X00213165Y02790075D01*
X00201887Y02792649D01*
X00192606Y02793695D01*
X00192606Y02698945D01*
X00176606Y02698945D01*
X00176606Y02793695D01*
X00167326Y02792649D01*
X00156047Y02790075D01*
X00145128Y02786254D01*
X00134705Y02781235D01*
X00124909Y02775080D01*
X00115864Y02767867D01*
X00107684Y02759687D01*
X00100471Y02750642D01*
X00094316Y02740846D01*
X00089297Y02730423D01*
X00085476Y02719504D01*
X00082902Y02708225D01*
X00081856Y02698945D01*
X00176606Y02698945D01*
X00176606Y02682945D01*
X00081856Y02682945D01*
X00082902Y02673664D01*
X00085476Y02662386D01*
X00089297Y02651466D01*
X00094316Y02641043D01*
X00100471Y02631248D01*
X00107684Y02622203D01*
X00115864Y02614023D01*
X00124909Y02606810D01*
X00134705Y02600655D01*
X00145128Y02595635D01*
X00156047Y02591814D01*
X00167326Y02589240D01*
X00176606Y02588195D01*
X00176606Y02682944D01*
X00192606Y02682944D01*
X00192606Y02588195D01*
X00201887Y02589240D01*
X00213165Y02591814D01*
X00224085Y02595635D01*
X00234508Y02600655D01*
X00244303Y02606810D01*
X00245757Y02591761D02*
X00212930Y02591761D01*
X00192606Y02591761D02*
X00176606Y02591761D01*
X00176606Y02607759D02*
X00192606Y02607759D01*
X00192606Y02623758D02*
X00176606Y02623758D01*
X00176606Y02639756D02*
X00192606Y02639756D01*
X00192606Y02655755D02*
X00176606Y02655755D01*
X00176606Y02671753D02*
X00192606Y02671753D01*
X00192607Y02687752D02*
X00321827Y02687752D01*
X00321827Y02671753D02*
X00285875Y02671753D01*
X00281416Y02655755D02*
X00328246Y02655755D01*
X00334873Y02639756D02*
X00274088Y02639756D01*
X00262768Y02623758D02*
X00348007Y02623758D01*
X00310716Y02591761D02*
X00294717Y02591761D01*
X00294717Y02575762D02*
X00310716Y02575762D01*
X00310716Y02559764D02*
X00294717Y02559764D01*
X00294717Y02543765D02*
X00310716Y02543765D01*
X00310716Y02527767D02*
X00294717Y02527767D01*
X00294717Y02479771D02*
X00310716Y02479771D01*
X00310716Y02463773D02*
X00294717Y02463773D01*
X00294717Y02447774D02*
X00310716Y02447774D01*
X00310716Y02431776D02*
X00294717Y02431776D01*
X00294717Y02415777D02*
X00310716Y02415777D01*
X00387835Y02447774D02*
X00732574Y02447774D01*
X00744794Y02463773D02*
X00396748Y02463773D01*
X00402400Y02479771D02*
X02486158Y02479771D01*
X02470160Y02463773D02*
X02203158Y02463773D01*
X02199855Y02467076D02*
X02183064Y02474031D01*
X02164889Y02474031D01*
X02148098Y02467076D01*
X02135246Y02454225D01*
X02128291Y02437434D01*
X02128291Y02419259D01*
X02135246Y02402468D01*
X02148098Y02389617D01*
X02164889Y02382661D01*
X02183064Y02382661D01*
X02199855Y02389617D01*
X02212706Y02402468D01*
X02219661Y02419259D01*
X02219661Y02437434D01*
X02212706Y02454225D01*
X02199855Y02467076D01*
X02215378Y02447774D02*
X02454161Y02447774D01*
X02438163Y02431776D02*
X02219661Y02431776D01*
X02218219Y02415777D02*
X02422164Y02415777D01*
X02406166Y02399779D02*
X02210017Y02399779D01*
X02185764Y02383780D02*
X02390167Y02383780D01*
X02420396Y02351783D02*
X02826055Y02351783D01*
X02826055Y02335784D02*
X02413103Y02335784D01*
X02411991Y02319786D02*
X02826055Y02319786D01*
X02826055Y02303787D02*
X02405364Y02303787D01*
X02387153Y02287789D02*
X02826055Y02287789D01*
X02826055Y02367781D02*
X02436394Y02367781D01*
X02452393Y02383780D02*
X02826055Y02383780D01*
X02826055Y02399779D02*
X02468391Y02399779D01*
X02484390Y02415777D02*
X02826055Y02415777D01*
X02826055Y02431776D02*
X02500388Y02431776D01*
X02516387Y02447774D02*
X02826055Y02447774D01*
X02826055Y02463773D02*
X02532385Y02463773D01*
X02548384Y02479771D02*
X02826055Y02479771D01*
X02826055Y02495770D02*
X02589263Y02495770D01*
X02613381Y02511768D02*
X02826055Y02511768D01*
X02826055Y02527767D02*
X02622404Y02527767D01*
X02625235Y02543765D02*
X02826055Y02543765D01*
X02826055Y02559764D02*
X02623217Y02559764D01*
X02615345Y02575762D02*
X02826055Y02575762D01*
X02826055Y02591761D02*
X02594003Y02591761D01*
X02575000Y02537500D02*
X02375000Y02337500D01*
X02362500Y02337500D01*
X02502157Y02495770D02*
X00405226Y02495770D01*
X00477648Y02607759D02*
X02826055Y02607759D01*
X02826055Y02623758D02*
X00493647Y02623758D01*
X00506781Y02639756D02*
X02826055Y02639756D01*
X02826055Y02655755D02*
X00513407Y02655755D01*
X00519827Y02671753D02*
X01458867Y02671753D01*
X01455055Y02672992D02*
X01463289Y02670317D01*
X01471839Y02668962D01*
X01480497Y02668962D01*
X01489047Y02670317D01*
X01497281Y02672992D01*
X01504994Y02676922D01*
X01511998Y02682011D01*
X01514452Y02684464D01*
X01476169Y02722748D01*
X01477383Y02723962D01*
X01477383Y02723963D02*
X01476169Y02725177D01*
X01514452Y02763460D01*
X01511998Y02765914D01*
X01504994Y02771002D01*
X01497281Y02774933D01*
X01489047Y02777608D01*
X01480497Y02778962D01*
X01471839Y02778962D01*
X01463289Y02777608D01*
X01455055Y02774933D01*
X01447342Y02771002D01*
X01440338Y02765914D01*
X01437884Y02763460D01*
X01476168Y02725177D01*
X01474954Y02723963D01*
X01436670Y02762246D01*
X01434217Y02759792D01*
X01429128Y02752789D01*
X01425198Y02745075D01*
X01422523Y02736841D01*
X01421168Y02728291D01*
X01421168Y02719633D01*
X01422523Y02711083D01*
X01425198Y02702850D01*
X01429128Y02695136D01*
X01434217Y02688132D01*
X01436670Y02685678D01*
X01474954Y02723962D01*
X01476168Y02722748D01*
X01437884Y02684464D01*
X01440338Y02682011D01*
X01447342Y02676922D01*
X01455055Y02672992D01*
X01441172Y02687752D02*
X01438744Y02687752D01*
X01434597Y02687752D02*
X01396051Y02687752D01*
X01397509Y02688811D02*
X01399963Y02691265D01*
X01361680Y02729548D01*
X01362893Y02730762D01*
X01401177Y02692479D01*
X01403631Y02694933D01*
X01408719Y02701937D01*
X01412649Y02709650D01*
X01415325Y02717884D01*
X01416679Y02726434D01*
X01416679Y02735092D01*
X01415325Y02743642D01*
X01412649Y02751876D01*
X01408719Y02759589D01*
X01403631Y02766593D01*
X01401177Y02769047D01*
X01362894Y02730763D01*
X01361680Y02731977D01*
X01399963Y02770261D01*
X01397509Y02772715D01*
X01390505Y02777803D01*
X01382792Y02781733D01*
X01374558Y02784409D01*
X01366008Y02785763D01*
X01357350Y02785763D01*
X01348800Y02784409D01*
X01340566Y02781733D01*
X01332853Y02777803D01*
X01325849Y02772715D01*
X01323395Y02770261D01*
X01361679Y02731977D01*
X01360465Y02730763D01*
X01361679Y02729548D01*
X01323395Y02691265D01*
X01325849Y02688811D01*
X01332853Y02683723D01*
X01340566Y02679793D01*
X01348800Y02677117D01*
X01357350Y02675763D01*
X01366008Y02675763D01*
X01374558Y02677117D01*
X01382792Y02679793D01*
X01390505Y02683723D01*
X01397509Y02688811D01*
X01389905Y02703750D02*
X01387478Y02703750D01*
X01373907Y02719749D02*
X01371479Y02719749D01*
X01360465Y02730763D02*
X01322181Y02692479D01*
X01319727Y02694933D01*
X01314639Y02701937D01*
X01310709Y02709650D01*
X01308033Y02717884D01*
X01306679Y02726434D01*
X01306679Y02735092D01*
X01308033Y02743642D01*
X01310709Y02751876D01*
X01314639Y02759589D01*
X01319727Y02766593D01*
X01322181Y02769047D01*
X01360465Y02730763D01*
X01357908Y02735748D02*
X01355481Y02735748D01*
X01365450Y02735748D02*
X01367878Y02735748D01*
X01381448Y02751746D02*
X01383876Y02751746D01*
X01397447Y02767745D02*
X01399875Y02767745D01*
X01402479Y02767745D02*
X01442858Y02767745D01*
X01447170Y02751746D02*
X01449598Y02751746D01*
X01463169Y02735748D02*
X01465597Y02735748D01*
X01477383Y02723963D02*
X01515666Y02762246D01*
X01518120Y02759792D01*
X01523208Y02752789D01*
X01527139Y02745075D01*
X01529814Y02736841D01*
X01531168Y02728291D01*
X01531168Y02719633D01*
X01529814Y02711083D01*
X01527139Y02702850D01*
X01523208Y02695136D01*
X01518120Y02688132D01*
X01515666Y02685678D01*
X01477383Y02723962D01*
X01479167Y02719749D02*
X01481595Y02719749D01*
X01473169Y02719749D02*
X01470741Y02719749D01*
X01457171Y02703750D02*
X01454742Y02703750D01*
X01424905Y02703750D02*
X01409643Y02703750D01*
X01415620Y02719749D02*
X01421168Y02719749D01*
X01422349Y02735748D02*
X01416575Y02735748D01*
X01412692Y02751746D02*
X01428597Y02751746D01*
X01376607Y02783743D02*
X02826055Y02783743D01*
X02826055Y02767745D02*
X01509478Y02767745D01*
X01505166Y02751746D02*
X01502738Y02751746D01*
X01489168Y02735748D02*
X01486739Y02735748D01*
X01495166Y02703750D02*
X01497594Y02703750D01*
X01511164Y02687752D02*
X01513592Y02687752D01*
X01517740Y02687752D02*
X02826055Y02687752D01*
X02826055Y02671753D02*
X01493470Y02671753D01*
X01527431Y02703750D02*
X02826055Y02703750D01*
X02826055Y02719749D02*
X01531168Y02719749D01*
X01529987Y02735748D02*
X02826055Y02735748D01*
X02826055Y02751746D02*
X01523740Y02751746D01*
X01563666Y02891895D02*
X01583956Y02891895D01*
X01602700Y02899659D01*
X01617047Y02914006D01*
X01624811Y02932750D01*
X01624811Y02953040D01*
X01617047Y02971784D01*
X01602700Y02986131D01*
X01597070Y02988463D01*
X01599855Y02989617D01*
X01612706Y03002468D01*
X01619661Y03019259D01*
X01619661Y03037434D01*
X01612706Y03054225D01*
X01599855Y03067076D01*
X01583064Y03074031D01*
X01564889Y03074031D01*
X01548098Y03067076D01*
X01535246Y03054225D01*
X01528291Y03037434D01*
X01528291Y03019259D01*
X01535246Y03002468D01*
X01548098Y02989617D01*
X01550718Y02988531D01*
X01544922Y02986131D01*
X01530575Y02971784D01*
X01522811Y02953040D01*
X01522811Y02932750D01*
X01530575Y02914006D01*
X01544922Y02899659D01*
X01563666Y02891895D01*
X01554401Y02895733D02*
X01469683Y02895733D01*
X01461867Y02892495D02*
X01480612Y02900260D01*
X01494959Y02914606D01*
X01502723Y02933351D01*
X01502723Y02953640D01*
X01494959Y02972385D01*
X01484208Y02983135D01*
X01499855Y02989617D01*
X01512706Y03002468D01*
X01519661Y03019259D01*
X01519661Y03037434D01*
X01512706Y03054225D01*
X01499855Y03067076D01*
X01483064Y03074031D01*
X01464889Y03074031D01*
X01448098Y03067076D01*
X01435246Y03054225D01*
X01428291Y03037434D01*
X01428291Y03019259D01*
X01435246Y03002468D01*
X01443219Y02994495D01*
X01441578Y02994495D01*
X01422834Y02986731D01*
X01408487Y02972385D01*
X01400723Y02953640D01*
X01400723Y02933351D01*
X01408487Y02914606D01*
X01422834Y02900260D01*
X01441578Y02892495D01*
X01461867Y02892495D01*
X01433763Y02895733D02*
X00018000Y02895733D01*
X00018000Y02911731D02*
X01411362Y02911731D01*
X01403051Y02927730D02*
X00522983Y02927730D01*
X00526057Y02929003D02*
X00538997Y02941943D01*
X00546000Y02958850D01*
X00546000Y03041150D01*
X00538997Y03058057D01*
X00526057Y03070997D01*
X00509150Y03078000D01*
X00490850Y03078000D01*
X00473943Y03070997D01*
X00461003Y03058057D01*
X00454000Y03041150D01*
X00454000Y02958850D01*
X00461003Y02941943D01*
X00473943Y02929003D01*
X00490850Y02922000D01*
X00509150Y02922000D01*
X00526057Y02929003D01*
X00539736Y02943728D02*
X01400723Y02943728D01*
X01403244Y02959727D02*
X00546000Y02959727D01*
X00546000Y02975725D02*
X01411828Y02975725D01*
X01399855Y02989617D02*
X01383064Y02982661D01*
X01364889Y02982661D01*
X01348098Y02989617D01*
X01335246Y03002468D01*
X01328291Y03019259D01*
X01328291Y03037434D01*
X01335246Y03054225D01*
X01348098Y03067076D01*
X01364889Y03074031D01*
X01383064Y03074031D01*
X01399855Y03067076D01*
X01412706Y03054225D01*
X01419661Y03037434D01*
X01419661Y03019259D01*
X01412706Y03002468D01*
X01399855Y02989617D01*
X01401962Y02991724D02*
X01434888Y02991724D01*
X01433070Y03007722D02*
X01414883Y03007722D01*
X01419661Y03023721D02*
X01428291Y03023721D01*
X01429238Y03039719D02*
X01418715Y03039719D01*
X01411213Y03055718D02*
X01436740Y03055718D01*
X01459300Y03071717D02*
X01388652Y03071717D01*
X01359300Y03071717D02*
X01288652Y03071717D01*
X01283064Y03074031D02*
X01264889Y03074031D01*
X01248098Y03067076D01*
X01235246Y03054225D01*
X01228291Y03037434D01*
X01228291Y03019259D01*
X01235246Y03002468D01*
X01248098Y02989617D01*
X01264889Y02982661D01*
X01283064Y02982661D01*
X01299855Y02989617D01*
X01312706Y03002468D01*
X01319661Y03019259D01*
X01319661Y03037434D01*
X01312706Y03054225D01*
X01299855Y03067076D01*
X01283064Y03074031D01*
X01259300Y03071717D02*
X01188652Y03071717D01*
X01183064Y03074031D02*
X01164889Y03074031D01*
X01148098Y03067076D01*
X01135246Y03054225D01*
X01128291Y03037434D01*
X01128291Y03019259D01*
X01135246Y03002468D01*
X01148098Y02989617D01*
X01164889Y02982661D01*
X01183064Y02982661D01*
X01199855Y02989617D01*
X01212706Y03002468D01*
X01219661Y03019259D01*
X01219661Y03037434D01*
X01212706Y03054225D01*
X01199855Y03067076D01*
X01183064Y03074031D01*
X01159300Y03071717D02*
X01088652Y03071717D01*
X01083064Y03074031D02*
X01064889Y03074031D01*
X01048098Y03067076D01*
X01035246Y03054225D01*
X01028291Y03037434D01*
X01028291Y03019259D01*
X01035246Y03002468D01*
X01048098Y02989617D01*
X01064889Y02982661D01*
X01083064Y02982661D01*
X01099855Y02989617D01*
X01112706Y03002468D01*
X01119661Y03019259D01*
X01119661Y03037434D01*
X01112706Y03054225D01*
X01099855Y03067076D01*
X01083064Y03074031D01*
X01059300Y03071717D02*
X00988652Y03071717D01*
X00983064Y03074031D02*
X00964889Y03074031D01*
X00948098Y03067076D01*
X00935246Y03054225D01*
X00928291Y03037434D01*
X00928291Y03019259D01*
X00935246Y03002468D01*
X00948098Y02989617D01*
X00964889Y02982661D01*
X00983064Y02982661D01*
X00999855Y02989617D01*
X01012706Y03002468D01*
X01019661Y03019259D01*
X01019661Y03037434D01*
X01012706Y03054225D01*
X00999855Y03067076D01*
X00983064Y03074031D01*
X00959300Y03071717D02*
X00898298Y03071717D01*
X00900017Y03070841D02*
X00893049Y03074391D01*
X00885611Y03076808D01*
X00877887Y03078031D01*
X00875819Y03078031D01*
X00875819Y03030190D01*
X00872134Y03030190D01*
X00872134Y03078031D01*
X00870066Y03078031D01*
X00862342Y03076808D01*
X00854904Y03074391D01*
X00847936Y03070841D01*
X00841609Y03066244D01*
X00836079Y03060714D01*
X00831482Y03054387D01*
X00827931Y03047419D01*
X00825515Y03039981D01*
X00824291Y03032257D01*
X00824291Y03030189D01*
X00872133Y03030189D01*
X00872133Y03026504D01*
X00824291Y03026504D01*
X00824291Y03024436D01*
X00825515Y03016712D01*
X00827931Y03009274D01*
X00831482Y03002306D01*
X00836079Y02995979D01*
X00841609Y02990449D01*
X00847936Y02985852D01*
X00854904Y02982302D01*
X00862342Y02979885D01*
X00870066Y02978661D01*
X00872134Y02978661D01*
X00872134Y03026503D01*
X00875819Y03026503D01*
X00875819Y02978661D01*
X00877887Y02978661D01*
X00885611Y02979885D01*
X00893049Y02982302D01*
X00900017Y02985852D01*
X00906344Y02990449D01*
X00911874Y02995979D01*
X00916471Y03002306D01*
X00920021Y03009274D01*
X00922438Y03016712D01*
X00923661Y03024436D01*
X00923661Y03026504D01*
X00875820Y03026504D01*
X00875820Y03030189D01*
X00923661Y03030189D01*
X00923661Y03032257D01*
X00922438Y03039981D01*
X00920021Y03047419D01*
X00916471Y03054387D01*
X00911874Y03060714D01*
X00906344Y03066244D01*
X00900017Y03070841D01*
X00915504Y03055718D02*
X00936740Y03055718D01*
X00929238Y03039719D02*
X00922479Y03039719D01*
X00923548Y03023721D02*
X00928291Y03023721D01*
X00933070Y03007722D02*
X00919231Y03007722D01*
X00907619Y02991724D02*
X00945990Y02991724D01*
X01001962Y02991724D02*
X01045990Y02991724D01*
X01033070Y03007722D02*
X01014883Y03007722D01*
X01019661Y03023721D02*
X01028291Y03023721D01*
X01029238Y03039719D02*
X01018715Y03039719D01*
X01011213Y03055718D02*
X01036740Y03055718D01*
X01111213Y03055718D02*
X01136740Y03055718D01*
X01129238Y03039719D02*
X01118715Y03039719D01*
X01119661Y03023721D02*
X01128291Y03023721D01*
X01133070Y03007722D02*
X01114883Y03007722D01*
X01101962Y02991724D02*
X01145990Y02991724D01*
X01201962Y02991724D02*
X01245990Y02991724D01*
X01233070Y03007722D02*
X01214883Y03007722D01*
X01219661Y03023721D02*
X01228291Y03023721D01*
X01229238Y03039719D02*
X01218715Y03039719D01*
X01211213Y03055718D02*
X01236740Y03055718D01*
X01311213Y03055718D02*
X01336740Y03055718D01*
X01329238Y03039719D02*
X01318715Y03039719D01*
X01319661Y03023721D02*
X01328291Y03023721D01*
X01333070Y03007722D02*
X01314883Y03007722D01*
X01301962Y02991724D02*
X01345990Y02991724D01*
X01491618Y02975725D02*
X01534517Y02975725D01*
X01525581Y02959727D02*
X01500202Y02959727D01*
X01502723Y02943728D02*
X01522811Y02943728D01*
X01524891Y02927730D02*
X01500394Y02927730D01*
X01492084Y02911731D02*
X01532850Y02911731D01*
X01593221Y02895733D02*
X01656537Y02895733D01*
X01659411Y02892859D02*
X01678156Y02885094D01*
X01698445Y02885094D01*
X01717189Y02892859D01*
X01731536Y02907205D01*
X01739300Y02925950D01*
X01739300Y02946239D01*
X01731536Y02964983D01*
X01717189Y02979330D01*
X01698445Y02987094D01*
X01693765Y02987094D01*
X01699855Y02989617D01*
X01712706Y03002468D01*
X01719661Y03019259D01*
X01719661Y03037434D01*
X01712706Y03054225D01*
X01699855Y03067076D01*
X01683064Y03074031D01*
X01664889Y03074031D01*
X01648098Y03067076D01*
X01635246Y03054225D01*
X01628291Y03037434D01*
X01628291Y03019259D01*
X01635246Y03002468D01*
X01648098Y02989617D01*
X01664889Y02982661D01*
X01667454Y02982661D01*
X01659411Y02979330D01*
X01645064Y02964983D01*
X01637300Y02946239D01*
X01637300Y02925950D01*
X01645064Y02907205D01*
X01659411Y02892859D01*
X01643190Y02911731D02*
X01614772Y02911731D01*
X01622731Y02927730D02*
X01637300Y02927730D01*
X01637300Y02943728D02*
X01624811Y02943728D01*
X01622041Y02959727D02*
X01642887Y02959727D01*
X01655806Y02975725D02*
X01613106Y02975725D01*
X01601962Y02991724D02*
X01645990Y02991724D01*
X01633070Y03007722D02*
X01614883Y03007722D01*
X01619661Y03023721D02*
X01628291Y03023721D01*
X01629238Y03039719D02*
X01618715Y03039719D01*
X01611213Y03055718D02*
X01636740Y03055718D01*
X01659300Y03071717D02*
X01588652Y03071717D01*
X01559300Y03071717D02*
X01488652Y03071717D01*
X01511213Y03055718D02*
X01536740Y03055718D01*
X01529238Y03039719D02*
X01518715Y03039719D01*
X01519661Y03023721D02*
X01528291Y03023721D01*
X01533070Y03007722D02*
X01514883Y03007722D01*
X01501962Y02991724D02*
X01545990Y02991724D01*
X01701962Y02991724D02*
X01745990Y02991724D01*
X01748098Y02989617D02*
X01764889Y02982661D01*
X01783064Y02982661D01*
X01799855Y02989617D01*
X01812706Y03002468D01*
X01819661Y03019259D01*
X01819661Y03037434D01*
X01812706Y03054225D01*
X01799855Y03067076D01*
X01783064Y03074031D01*
X01764889Y03074031D01*
X01748098Y03067076D01*
X01735246Y03054225D01*
X01728291Y03037434D01*
X01728291Y03019259D01*
X01735246Y03002468D01*
X01748098Y02989617D01*
X01733070Y03007722D02*
X01714883Y03007722D01*
X01719661Y03023721D02*
X01728291Y03023721D01*
X01729238Y03039719D02*
X01718715Y03039719D01*
X01711213Y03055718D02*
X01736740Y03055718D01*
X01759300Y03071717D02*
X01688652Y03071717D01*
X01788652Y03071717D02*
X01859300Y03071717D01*
X01864889Y03074031D02*
X01848098Y03067076D01*
X01835246Y03054225D01*
X01828291Y03037434D01*
X01828291Y03019259D01*
X01835246Y03002468D01*
X01848098Y02989617D01*
X01864889Y02982661D01*
X01883064Y02982661D01*
X01899855Y02989617D01*
X01912706Y03002468D01*
X01919661Y03019259D01*
X01919661Y03037434D01*
X01912706Y03054225D01*
X01899855Y03067076D01*
X01883064Y03074031D01*
X01864889Y03074031D01*
X01888652Y03071717D02*
X01959300Y03071717D01*
X01964889Y03074031D02*
X01948098Y03067076D01*
X01935246Y03054225D01*
X01928291Y03037434D01*
X01928291Y03019259D01*
X01935246Y03002468D01*
X01948098Y02989617D01*
X01964889Y02982661D01*
X01983064Y02982661D01*
X01999855Y02989617D01*
X02012706Y03002468D01*
X02019661Y03019259D01*
X02019661Y03037434D01*
X02012706Y03054225D01*
X01999855Y03067076D01*
X01983064Y03074031D01*
X01964889Y03074031D01*
X01988652Y03071717D02*
X02059300Y03071717D01*
X02064889Y03074031D02*
X02048098Y03067076D01*
X02035246Y03054225D01*
X02028291Y03037434D01*
X02028291Y03019259D01*
X02035246Y03002468D01*
X02048098Y02989617D01*
X02064889Y02982661D01*
X02083064Y02982661D01*
X02099855Y02989617D01*
X02112706Y03002468D01*
X02119661Y03019259D01*
X02119661Y03037434D01*
X02112706Y03054225D01*
X02099855Y03067076D01*
X02083064Y03074031D01*
X02064889Y03074031D01*
X02088652Y03071717D02*
X02159300Y03071717D01*
X02164889Y03074031D02*
X02148098Y03067076D01*
X02135246Y03054225D01*
X02128291Y03037434D01*
X02128291Y03019259D01*
X02135246Y03002468D01*
X02148098Y02989617D01*
X02164889Y02982661D01*
X02183064Y02982661D01*
X02199855Y02989617D01*
X02212706Y03002468D01*
X02219661Y03019259D01*
X02219661Y03037434D01*
X02212706Y03054225D01*
X02199855Y03067076D01*
X02183064Y03074031D01*
X02164889Y03074031D01*
X02188652Y03071717D02*
X02678959Y03071717D01*
X02675407Y03070245D02*
X02653731Y03048569D01*
X02642000Y03020248D01*
X02642000Y02989594D01*
X02653731Y02961273D01*
X02675407Y02939597D01*
X02703728Y02927866D01*
X02734382Y02927866D01*
X02762703Y02939597D01*
X02784379Y02961273D01*
X02796110Y02989594D01*
X02796110Y03020248D01*
X02784379Y03048569D01*
X02762703Y03070245D01*
X02734382Y03081976D01*
X02703728Y03081976D01*
X02675407Y03070245D01*
X02660880Y03055718D02*
X02211213Y03055718D01*
X02218715Y03039719D02*
X02650065Y03039719D01*
X02643438Y03023721D02*
X02219661Y03023721D01*
X02214883Y03007722D02*
X02642000Y03007722D01*
X02642000Y02991724D02*
X02201962Y02991724D01*
X02145990Y02991724D02*
X02101962Y02991724D01*
X02114883Y03007722D02*
X02133070Y03007722D01*
X02128291Y03023721D02*
X02119661Y03023721D01*
X02118715Y03039719D02*
X02129238Y03039719D01*
X02136740Y03055718D02*
X02111213Y03055718D01*
X02045990Y02991724D02*
X02001962Y02991724D01*
X02014883Y03007722D02*
X02033070Y03007722D01*
X02028291Y03023721D02*
X02019661Y03023721D01*
X02018715Y03039719D02*
X02029238Y03039719D01*
X02036740Y03055718D02*
X02011213Y03055718D01*
X01945990Y02991724D02*
X01901962Y02991724D01*
X01914883Y03007722D02*
X01933070Y03007722D01*
X01928291Y03023721D02*
X01919661Y03023721D01*
X01918715Y03039719D02*
X01929238Y03039719D01*
X01936740Y03055718D02*
X01911213Y03055718D01*
X01845990Y02991724D02*
X01801962Y02991724D01*
X01814883Y03007722D02*
X01833070Y03007722D01*
X01828291Y03023721D02*
X01819661Y03023721D01*
X01818715Y03039719D02*
X01829238Y03039719D01*
X01836740Y03055718D02*
X01811213Y03055718D01*
X01720794Y02975725D02*
X02647744Y02975725D01*
X02655277Y02959727D02*
X01733713Y02959727D01*
X01739300Y02943728D02*
X02671276Y02943728D01*
X02766835Y02943728D02*
X02826055Y02943728D01*
X02826055Y02927730D02*
X01739300Y02927730D01*
X01733411Y02911731D02*
X02826055Y02911731D01*
X02826055Y02895733D02*
X01720064Y02895733D01*
X01346752Y02783743D02*
X01256366Y02783743D01*
X01252470Y02785009D02*
X01243920Y02786363D01*
X01235262Y02786363D01*
X01226712Y02785009D01*
X01218478Y02782334D01*
X01210765Y02778404D01*
X01203761Y02773315D01*
X01201307Y02770861D01*
X01239590Y02732578D01*
X01238376Y02731364D01*
X01200093Y02769647D01*
X01197639Y02767193D01*
X01192551Y02760190D01*
X01188620Y02752476D01*
X01185945Y02744243D01*
X01184591Y02735692D01*
X01184591Y02727035D01*
X01185945Y02718484D01*
X01188620Y02710251D01*
X01192551Y02702537D01*
X01197639Y02695533D01*
X01200093Y02693079D01*
X01238376Y02731363D01*
X01239590Y02730149D01*
X01201307Y02691866D01*
X01203761Y02689412D01*
X01210765Y02684323D01*
X01218478Y02680393D01*
X01226712Y02677718D01*
X01235262Y02676363D01*
X01243920Y02676363D01*
X01252470Y02677718D01*
X01260703Y02680393D01*
X01268417Y02684323D01*
X01275421Y02689412D01*
X01277875Y02691866D01*
X01239591Y02730149D01*
X01240805Y02731363D01*
X01279089Y02693079D01*
X01281542Y02695533D01*
X01286631Y02702537D01*
X01290561Y02710251D01*
X01293236Y02718484D01*
X01294591Y02727035D01*
X01294591Y02735692D01*
X01293236Y02744243D01*
X01290561Y02752476D01*
X01286631Y02760190D01*
X01281542Y02767193D01*
X01279088Y02769647D01*
X01240805Y02731364D01*
X01239591Y02732578D01*
X01277875Y02770861D01*
X01275421Y02773315D01*
X01268417Y02778404D01*
X01260703Y02782334D01*
X01252470Y02785009D01*
X01274758Y02767745D02*
X01277186Y02767745D01*
X01280991Y02767745D02*
X01320879Y02767745D01*
X01323484Y02767745D02*
X01325911Y02767745D01*
X01339482Y02751746D02*
X01341910Y02751746D01*
X01310667Y02751746D02*
X01290798Y02751746D01*
X01294582Y02735748D02*
X01306783Y02735748D01*
X01307738Y02719749D02*
X01293437Y02719749D01*
X01287249Y02703750D02*
X01313715Y02703750D01*
X01333453Y02703750D02*
X01335881Y02703750D01*
X01327307Y02687752D02*
X01273136Y02687752D01*
X01268418Y02703750D02*
X01265990Y02703750D01*
X01252419Y02719749D02*
X01249991Y02719749D01*
X01245189Y02735748D02*
X01242761Y02735748D01*
X01236421Y02735748D02*
X01233993Y02735748D01*
X01229191Y02719749D02*
X01226762Y02719749D01*
X01213192Y02703750D02*
X01210764Y02703750D01*
X01206045Y02687752D02*
X00519827Y02687752D01*
X00519827Y02703750D02*
X01191932Y02703750D01*
X01185745Y02719749D02*
X00516052Y02719749D01*
X00509426Y02735748D02*
X01184600Y02735748D01*
X01188383Y02751746D02*
X00500033Y02751746D01*
X00484034Y02767745D02*
X01198191Y02767745D01*
X01201996Y02767745D02*
X01204423Y02767745D01*
X01217994Y02751746D02*
X01220422Y02751746D01*
X01222816Y02783743D02*
X00455491Y02783743D01*
X00386162Y02783743D02*
X00229299Y02783743D01*
X00253470Y02767745D02*
X00357619Y02767745D01*
X00341621Y02751746D02*
X00267861Y02751746D01*
X00277352Y02735748D02*
X00332228Y02735748D01*
X00325601Y02719749D02*
X00283651Y02719749D01*
X00286815Y02703750D02*
X00321827Y02703750D01*
X00192606Y02703750D02*
X00176606Y02703750D01*
X00176606Y02687752D02*
X00018000Y02687752D01*
X00018000Y02671753D02*
X00083338Y02671753D01*
X00087796Y02655755D02*
X00018000Y02655755D01*
X00018000Y02639756D02*
X00095125Y02639756D01*
X00106444Y02623758D02*
X00018000Y02623758D01*
X00018000Y02607759D02*
X00123718Y02607759D01*
X00156282Y02591761D02*
X00018000Y02591761D01*
X00018000Y02575762D02*
X00226909Y02575762D01*
X00214913Y02559764D02*
X00018000Y02559764D01*
X00018000Y02543765D02*
X00206841Y02543765D01*
X00202057Y02527767D02*
X00018000Y02527767D01*
X00018000Y02383780D02*
X00619827Y02383780D01*
X00620816Y02367781D02*
X00018000Y02367781D01*
X00018000Y02351783D02*
X00627443Y02351783D01*
X00645063Y02335784D02*
X00018000Y02335784D01*
X00018000Y02703750D02*
X00082398Y02703750D01*
X00085562Y02719749D02*
X00018000Y02719749D01*
X00018000Y02735748D02*
X00091861Y02735748D01*
X00101352Y02751746D02*
X00018000Y02751746D01*
X00018000Y02767745D02*
X00115742Y02767745D01*
X00139913Y02783743D02*
X00018000Y02783743D01*
X00018000Y02799742D02*
X02826055Y02799742D01*
X02826055Y02815740D02*
X00018000Y02815740D01*
X00018000Y02831739D02*
X02826055Y02831739D01*
X02826055Y02847737D02*
X00018000Y02847737D01*
X00018000Y02863736D02*
X02826055Y02863736D01*
X02826055Y02879734D02*
X00018000Y02879734D01*
X00018000Y02927730D02*
X00277017Y02927730D01*
X00273943Y02929003D02*
X00290850Y02922000D01*
X00309150Y02922000D01*
X00326057Y02929003D01*
X00338997Y02941943D01*
X00346000Y02958850D01*
X00346000Y03041150D01*
X00338997Y03058057D01*
X00326057Y03070997D01*
X00309150Y03078000D01*
X00290850Y03078000D01*
X00273943Y03070997D01*
X00261003Y03058057D01*
X00254000Y03041150D01*
X00254000Y02958850D01*
X00261003Y02941943D01*
X00273943Y02929003D01*
X00260264Y02943728D02*
X00172779Y02943728D01*
X00168648Y02939597D02*
X00140327Y02927866D01*
X00109673Y02927866D01*
X00081352Y02939597D01*
X00059676Y02961273D01*
X00047945Y02989594D01*
X00047945Y03020248D01*
X00059676Y03048569D01*
X00081352Y03070245D01*
X00109673Y03081976D01*
X00140327Y03081976D01*
X00168648Y03070245D01*
X00190324Y03048569D01*
X00202055Y03020248D01*
X00202055Y02989594D01*
X00190324Y02961273D01*
X00168648Y02939597D01*
X00188778Y02959727D02*
X00254000Y02959727D01*
X00254000Y02975725D02*
X00196310Y02975725D01*
X00202055Y02991724D02*
X00254000Y02991724D01*
X00254000Y03007722D02*
X00202055Y03007722D01*
X00200617Y03023721D02*
X00254000Y03023721D01*
X00254000Y03039719D02*
X00193990Y03039719D01*
X00183175Y03055718D02*
X00260034Y03055718D01*
X00275681Y03071717D02*
X00165096Y03071717D01*
X00084904Y03071717D02*
X00018000Y03071717D01*
X00018000Y03087715D02*
X02826055Y03087715D01*
X02826055Y03103714D02*
X00018000Y03103714D01*
X00019382Y03119712D02*
X02826055Y03119712D01*
X02823547Y03135711D02*
X00025612Y03135711D01*
X00040632Y03151709D02*
X02813035Y03151709D01*
X02826055Y03071717D02*
X02759151Y03071717D01*
X02777231Y03055718D02*
X02826055Y03055718D01*
X02826055Y03039719D02*
X02788045Y03039719D01*
X02794672Y03023721D02*
X02826055Y03023721D01*
X02826055Y03007722D02*
X02796110Y03007722D01*
X02796110Y02991724D02*
X02826055Y02991724D01*
X02826055Y02975725D02*
X02790366Y02975725D01*
X02782833Y02959727D02*
X02826055Y02959727D01*
X02144794Y02463773D02*
X02103158Y02463773D01*
X02099855Y02467076D02*
X02083064Y02474031D01*
X02064889Y02474031D01*
X02048098Y02467076D01*
X02035246Y02454225D01*
X02028291Y02437434D01*
X02028291Y02419259D01*
X02035246Y02402468D01*
X02048098Y02389617D01*
X02064889Y02382661D01*
X02083064Y02382661D01*
X02099855Y02389617D01*
X02112706Y02402468D01*
X02119661Y02419259D01*
X02119661Y02437434D01*
X02112706Y02454225D01*
X02099855Y02467076D01*
X02115378Y02447774D02*
X02132574Y02447774D01*
X02128291Y02431776D02*
X02119661Y02431776D01*
X02118219Y02415777D02*
X02129734Y02415777D01*
X02137936Y02399779D02*
X02110017Y02399779D01*
X02085764Y02383780D02*
X02162188Y02383780D01*
X02062188Y02383780D02*
X01985764Y02383780D01*
X01983064Y02382661D02*
X01999855Y02389617D01*
X02012706Y02402468D01*
X02019661Y02419259D01*
X02019661Y02437434D01*
X02012706Y02454225D01*
X01999855Y02467076D01*
X01983064Y02474031D01*
X01964889Y02474031D01*
X01948098Y02467076D01*
X01935246Y02454225D01*
X01928291Y02437434D01*
X01928291Y02419259D01*
X01935246Y02402468D01*
X01948098Y02389617D01*
X01964889Y02382661D01*
X01983064Y02382661D01*
X01962188Y02383780D02*
X01885764Y02383780D01*
X01883064Y02382661D02*
X01899855Y02389617D01*
X01912706Y02402468D01*
X01919661Y02419259D01*
X01919661Y02437434D01*
X01912706Y02454225D01*
X01899855Y02467076D01*
X01883064Y02474031D01*
X01864889Y02474031D01*
X01848098Y02467076D01*
X01835246Y02454225D01*
X01828291Y02437434D01*
X01828291Y02419259D01*
X01835246Y02402468D01*
X01848098Y02389617D01*
X01864889Y02382661D01*
X01883064Y02382661D01*
X01862188Y02383780D02*
X01785764Y02383780D01*
X01783064Y02382661D02*
X01799855Y02389617D01*
X01812706Y02402468D01*
X01819661Y02419259D01*
X01819661Y02437434D01*
X01812706Y02454225D01*
X01799855Y02467076D01*
X01783064Y02474031D01*
X01764889Y02474031D01*
X01748098Y02467076D01*
X01735246Y02454225D01*
X01728291Y02437434D01*
X01728291Y02419259D01*
X01735246Y02402468D01*
X01748098Y02389617D01*
X01764889Y02382661D01*
X01783064Y02382661D01*
X01762188Y02383780D02*
X01685764Y02383780D01*
X01683064Y02382661D02*
X01699855Y02389617D01*
X01712706Y02402468D01*
X01719661Y02419259D01*
X01719661Y02437434D01*
X01712706Y02454225D01*
X01699855Y02467076D01*
X01683064Y02474031D01*
X01664889Y02474031D01*
X01648098Y02467076D01*
X01635246Y02454225D01*
X01628291Y02437434D01*
X01628291Y02419259D01*
X01635246Y02402468D01*
X01648098Y02389617D01*
X01664889Y02382661D01*
X01683064Y02382661D01*
X01662188Y02383780D02*
X01585764Y02383780D01*
X01583064Y02382661D02*
X01599855Y02389617D01*
X01612706Y02402468D01*
X01619661Y02419259D01*
X01619661Y02437434D01*
X01612706Y02454225D01*
X01599855Y02467076D01*
X01583064Y02474031D01*
X01564889Y02474031D01*
X01548098Y02467076D01*
X01535246Y02454225D01*
X01528291Y02437434D01*
X01528291Y02419259D01*
X01535246Y02402468D01*
X01548098Y02389617D01*
X01564889Y02382661D01*
X01583064Y02382661D01*
X01562188Y02383780D02*
X01485764Y02383780D01*
X01483064Y02382661D02*
X01499855Y02389617D01*
X01512706Y02402468D01*
X01519661Y02419259D01*
X01519661Y02437434D01*
X01512706Y02454225D01*
X01499855Y02467076D01*
X01483064Y02474031D01*
X01464889Y02474031D01*
X01448098Y02467076D01*
X01435246Y02454225D01*
X01428291Y02437434D01*
X01428291Y02419259D01*
X01435246Y02402468D01*
X01448098Y02389617D01*
X01464889Y02382661D01*
X01483064Y02382661D01*
X01462188Y02383780D02*
X01385764Y02383780D01*
X01383064Y02382661D02*
X01399855Y02389617D01*
X01412706Y02402468D01*
X01419661Y02419259D01*
X01419661Y02437434D01*
X01412706Y02454225D01*
X01399855Y02467076D01*
X01383064Y02474031D01*
X01364889Y02474031D01*
X01348098Y02467076D01*
X01335246Y02454225D01*
X01328291Y02437434D01*
X01328291Y02419259D01*
X01335246Y02402468D01*
X01348098Y02389617D01*
X01364889Y02382661D01*
X01383064Y02382661D01*
X01362188Y02383780D02*
X01285764Y02383780D01*
X01283064Y02382661D02*
X01299855Y02389617D01*
X01312706Y02402468D01*
X01319661Y02419259D01*
X01319661Y02437434D01*
X01312706Y02454225D01*
X01299855Y02467076D01*
X01283064Y02474031D01*
X01264889Y02474031D01*
X01248098Y02467076D01*
X01235246Y02454225D01*
X01228291Y02437434D01*
X01228291Y02419259D01*
X01235246Y02402468D01*
X01248098Y02389617D01*
X01264889Y02382661D01*
X01283064Y02382661D01*
X01262188Y02383780D02*
X01185764Y02383780D01*
X01183064Y02382661D02*
X01199855Y02389617D01*
X01212706Y02402468D01*
X01219661Y02419259D01*
X01219661Y02437434D01*
X01212706Y02454225D01*
X01199855Y02467076D01*
X01183064Y02474031D01*
X01164889Y02474031D01*
X01148098Y02467076D01*
X01135246Y02454225D01*
X01128291Y02437434D01*
X01128291Y02419259D01*
X01135246Y02402468D01*
X01148098Y02389617D01*
X01164889Y02382661D01*
X01183064Y02382661D01*
X01162188Y02383780D02*
X01095950Y02383780D01*
X01114634Y02399779D02*
X01137936Y02399779D01*
X01129734Y02415777D02*
X01122134Y02415777D01*
X01123661Y02431776D02*
X01128291Y02431776D01*
X01132574Y02447774D02*
X01119840Y02447774D01*
X01108815Y02463773D02*
X01144794Y02463773D01*
X01203158Y02463773D02*
X01244794Y02463773D01*
X01232574Y02447774D02*
X01215378Y02447774D01*
X01219661Y02431776D02*
X01228291Y02431776D01*
X01229734Y02415777D02*
X01218219Y02415777D01*
X01210017Y02399779D02*
X01237936Y02399779D01*
X01310017Y02399779D02*
X01337936Y02399779D01*
X01329734Y02415777D02*
X01318219Y02415777D01*
X01319661Y02431776D02*
X01328291Y02431776D01*
X01332574Y02447774D02*
X01315378Y02447774D01*
X01303158Y02463773D02*
X01344794Y02463773D01*
X01403158Y02463773D02*
X01444794Y02463773D01*
X01432574Y02447774D02*
X01415378Y02447774D01*
X01419661Y02431776D02*
X01428291Y02431776D01*
X01429734Y02415777D02*
X01418219Y02415777D01*
X01410017Y02399779D02*
X01437936Y02399779D01*
X01510017Y02399779D02*
X01537936Y02399779D01*
X01529734Y02415777D02*
X01518219Y02415777D01*
X01519661Y02431776D02*
X01528291Y02431776D01*
X01532574Y02447774D02*
X01515378Y02447774D01*
X01503158Y02463773D02*
X01544794Y02463773D01*
X01603158Y02463773D02*
X01644794Y02463773D01*
X01632574Y02447774D02*
X01615378Y02447774D01*
X01619661Y02431776D02*
X01628291Y02431776D01*
X01629734Y02415777D02*
X01618219Y02415777D01*
X01610017Y02399779D02*
X01637936Y02399779D01*
X01710017Y02399779D02*
X01737936Y02399779D01*
X01729734Y02415777D02*
X01718219Y02415777D01*
X01719661Y02431776D02*
X01728291Y02431776D01*
X01732574Y02447774D02*
X01715378Y02447774D01*
X01703158Y02463773D02*
X01744794Y02463773D01*
X01803158Y02463773D02*
X01844794Y02463773D01*
X01832574Y02447774D02*
X01815378Y02447774D01*
X01819661Y02431776D02*
X01828291Y02431776D01*
X01829734Y02415777D02*
X01818219Y02415777D01*
X01810017Y02399779D02*
X01837936Y02399779D01*
X01903158Y02463773D02*
X01944794Y02463773D01*
X01932574Y02447774D02*
X01915378Y02447774D01*
X01919661Y02431776D02*
X01928291Y02431776D01*
X01929734Y02415777D02*
X01918219Y02415777D01*
X01910017Y02399779D02*
X01937936Y02399779D01*
X02003158Y02463773D02*
X02044794Y02463773D01*
X02032574Y02447774D02*
X02015378Y02447774D01*
X02019661Y02431776D02*
X02028291Y02431776D01*
X02029734Y02415777D02*
X02018219Y02415777D01*
X02010017Y02399779D02*
X02037936Y02399779D01*
X02224373Y01855829D02*
X02274748Y01855829D01*
X02274748Y01839830D02*
X02235515Y01839830D01*
X02238811Y01823832D02*
X02274748Y01823832D01*
X02274748Y01807833D02*
X02236419Y01807833D01*
X02227154Y01791835D02*
X02274748Y01791835D01*
X02614445Y02031813D02*
X01148771Y02031813D01*
X01154859Y02047811D02*
X02610291Y02047811D01*
X02610988Y02063810D02*
X01155915Y02063810D01*
X01152084Y02079808D02*
X02617614Y02079808D01*
X02633819Y02095807D02*
X01142085Y02095807D01*
X01101827Y02095807D02*
X01100110Y02095807D01*
X01100110Y02079808D02*
X01101827Y02079808D01*
X01101827Y02063810D02*
X01100110Y02063810D01*
X01100110Y02047811D02*
X01101827Y02047811D01*
X01101827Y02031813D02*
X01100110Y02031813D01*
X01100110Y02015814D02*
X01101827Y02015814D01*
X01134904Y02015814D02*
X02625337Y02015814D01*
X01809133Y01791835D02*
X01317143Y01791835D01*
X01296227Y01791835D02*
X01140400Y01791835D01*
X01149255Y01775836D02*
X01269432Y01775836D01*
X01259301Y01759838D02*
X01151968Y01759838D01*
X01149832Y01743839D02*
X01255685Y01743839D01*
X01256919Y01727841D02*
X01141792Y01727841D01*
X01120046Y01711842D02*
X01263683Y01711842D01*
X01343938Y01775836D02*
X01355436Y01775836D01*
X01216543Y01823832D02*
X01038541Y01823832D01*
X01049448Y01839830D02*
X01204188Y01839830D01*
X01199000Y01855829D02*
X01053295Y01855829D01*
X01051890Y01871827D02*
X01199000Y01871827D01*
X01205288Y01887826D02*
X01044640Y01887826D01*
X01027047Y01903824D02*
X01219199Y01903824D01*
X01067032Y02015814D02*
X00803088Y02015814D01*
X00819500Y02031813D02*
X01053165Y02031813D01*
X01047078Y02047811D02*
X00826127Y02047811D01*
X00826866Y02063810D02*
X01046022Y02063810D01*
X01049853Y02079808D02*
X00822756Y02079808D01*
X00811924Y02095807D02*
X01059852Y02095807D01*
X01027133Y02111805D02*
X00785387Y02111805D01*
X00800278Y02127804D02*
X01012241Y02127804D01*
X01005614Y02143802D02*
X00806905Y02143802D01*
X00807260Y02159801D02*
X01005260Y02159801D01*
X01009755Y02175799D02*
X00802765Y02175799D01*
X00791390Y02191798D02*
X01021130Y02191798D01*
X00739808Y02095807D02*
X00719612Y02095807D01*
X00721827Y02079808D02*
X00728977Y02079808D01*
X00724866Y02063810D02*
X00719192Y02063810D01*
X00725605Y02047811D02*
X00710448Y02047811D01*
X00711461Y02111805D02*
X00727133Y02111805D01*
X00712241Y02127804D02*
X00689448Y02127804D01*
X01002795Y01903824D02*
X01002796Y01903824D01*
X01002795Y01887826D02*
X01002796Y01887826D01*
X01002795Y01871827D02*
X01002796Y01871827D01*
X01002795Y01855829D02*
X01002796Y01855829D01*
X01002795Y01839830D02*
X01002796Y01839830D01*
X01002795Y01823832D02*
X01002796Y01823832D01*
X01036225Y01791835D02*
X01061537Y01791835D01*
X01052682Y01775836D02*
X01046361Y01775836D01*
X01049295Y01759838D02*
X01049969Y01759838D01*
X01052105Y01743839D02*
X01046638Y01743839D01*
X01036893Y01727841D02*
X01060145Y01727841D01*
X01081891Y01711842D02*
X00793499Y01711842D01*
X00758233Y01711842D02*
X00584798Y01711842D01*
X00548780Y01711842D02*
X00548779Y01711842D01*
X00548779Y01695844D02*
X00548780Y01695844D01*
X00548779Y01679845D02*
X00548780Y01679845D01*
X00512761Y01711842D02*
X00018000Y01711842D01*
X00018000Y01695844D02*
X00500180Y01695844D01*
X00494641Y01679845D02*
X00018000Y01679845D01*
X00651384Y01663846D02*
X00853981Y01663846D01*
X00853039Y01647848D02*
X00667479Y01647848D01*
X00674106Y01631849D02*
X00853039Y01631849D01*
X00859086Y01615851D02*
X00674779Y01615851D01*
X00670603Y01599852D02*
X00875085Y01599852D01*
X01024337Y01599852D02*
X01080742Y01599852D01*
X01083693Y01596902D02*
X01121386Y01596902D01*
X01148039Y01623555D01*
X01148039Y01661248D01*
X01121386Y01687901D01*
X01083693Y01687901D01*
X01057039Y01661248D01*
X01057039Y01623555D01*
X01083693Y01596902D01*
X01064743Y01615851D02*
X01040335Y01615851D01*
X01048039Y01631849D02*
X01057039Y01631849D01*
X01057039Y01647848D02*
X01048039Y01647848D01*
X01045441Y01663846D02*
X01059638Y01663846D01*
X01075636Y01679845D02*
X01029442Y01679845D01*
X01129442Y01679845D02*
X01175636Y01679845D01*
X01159638Y01663846D02*
X01145441Y01663846D01*
X01148039Y01647848D02*
X01157039Y01647848D01*
X01157039Y01631849D02*
X01148039Y01631849D01*
X01140335Y01615851D02*
X01164743Y01615851D01*
X01180742Y01599852D02*
X01124337Y01599852D01*
X01133414Y01375873D02*
X01171664Y01375873D01*
X01157039Y01359875D02*
X01148039Y01359875D01*
X01148039Y01343876D02*
X01157039Y01343876D01*
X01157039Y01327877D02*
X01148039Y01327877D01*
X01136363Y01311879D02*
X01168715Y01311879D01*
X00659680Y01583854D02*
X01821631Y01583854D01*
X01351879Y02719749D02*
X01349451Y02719749D01*
X01261188Y02751746D02*
X01258760Y02751746D01*
X00875819Y02991724D02*
X00872134Y02991724D01*
X00872134Y03007722D02*
X00875819Y03007722D01*
X00875819Y03023721D02*
X00872134Y03023721D01*
X00872134Y03039719D02*
X00875819Y03039719D01*
X00875819Y03055718D02*
X00872134Y03055718D01*
X00872134Y03071717D02*
X00875819Y03071717D01*
X00849655Y03071717D02*
X00788652Y03071717D01*
X00783064Y03074031D02*
X00764889Y03074031D01*
X00748098Y03067076D01*
X00735246Y03054225D01*
X00728291Y03037434D01*
X00728291Y03019259D01*
X00735246Y03002468D01*
X00748098Y02989617D01*
X00764889Y02982661D01*
X00783064Y02982661D01*
X00799855Y02989617D01*
X00812706Y03002468D01*
X00819661Y03019259D01*
X00819661Y03037434D01*
X00812706Y03054225D01*
X00799855Y03067076D01*
X00783064Y03074031D01*
X00759300Y03071717D02*
X00524319Y03071717D01*
X00539966Y03055718D02*
X00736740Y03055718D01*
X00729238Y03039719D02*
X00546000Y03039719D01*
X00546000Y03023721D02*
X00728291Y03023721D01*
X00733070Y03007722D02*
X00546000Y03007722D01*
X00546000Y02991724D02*
X00745990Y02991724D01*
X00801962Y02991724D02*
X00840334Y02991724D01*
X00828722Y03007722D02*
X00814883Y03007722D01*
X00819661Y03023721D02*
X00824405Y03023721D01*
X00825473Y03039719D02*
X00818715Y03039719D01*
X00811213Y03055718D02*
X00832449Y03055718D01*
X00475681Y03071717D02*
X00430400Y03071717D01*
X00432573Y03070138D02*
X00426206Y03074764D01*
X00419193Y03078337D01*
X00411708Y03080769D01*
X00403935Y03082000D01*
X00402000Y03082000D01*
X00402000Y03002001D01*
X00398000Y03002001D01*
X00398000Y03082000D01*
X00396065Y03082000D01*
X00388292Y03080769D01*
X00380807Y03078337D01*
X00373794Y03074764D01*
X00367427Y03070138D01*
X00361862Y03064573D01*
X00357236Y03058206D01*
X00353663Y03051193D01*
X00351231Y03043708D01*
X00350000Y03035935D01*
X00350000Y03002000D01*
X00397999Y03002000D01*
X00397999Y02998000D01*
X00350000Y02998000D01*
X00350000Y02964065D01*
X00351231Y02956292D01*
X00353663Y02948807D01*
X00357236Y02941794D01*
X00361862Y02935427D01*
X00367427Y02929862D01*
X00373794Y02925236D01*
X00380807Y02921663D01*
X00388292Y02919231D01*
X00396065Y02918000D01*
X00398000Y02918000D01*
X00398000Y02997999D01*
X00402000Y02997999D01*
X00402000Y02918000D01*
X00403935Y02918000D01*
X00411708Y02919231D01*
X00419193Y02921663D01*
X00426206Y02925236D01*
X00432573Y02929862D01*
X00438138Y02935427D01*
X00442764Y02941794D01*
X00446337Y02948807D01*
X00448769Y02956292D01*
X00450000Y02964065D01*
X00450000Y02998000D01*
X00402001Y02998000D01*
X00402001Y03002000D01*
X00450000Y03002000D01*
X00450000Y03035935D01*
X00448769Y03043708D01*
X00446337Y03051193D01*
X00442764Y03058206D01*
X00438138Y03064573D01*
X00432573Y03070138D01*
X00444031Y03055718D02*
X00460034Y03055718D01*
X00454000Y03039719D02*
X00449401Y03039719D01*
X00450000Y03023721D02*
X00454000Y03023721D01*
X00454000Y03007722D02*
X00450000Y03007722D01*
X00450000Y02991724D02*
X00454000Y02991724D01*
X00454000Y02975725D02*
X00450000Y02975725D01*
X00449313Y02959727D02*
X00454000Y02959727D01*
X00460264Y02943728D02*
X00443749Y02943728D01*
X00429638Y02927730D02*
X00477017Y02927730D01*
X00402000Y02927730D02*
X00398000Y02927730D01*
X00398000Y02943728D02*
X00402000Y02943728D01*
X00402000Y02959727D02*
X00398000Y02959727D01*
X00398000Y02975725D02*
X00402000Y02975725D01*
X00402000Y02991724D02*
X00398000Y02991724D01*
X00398000Y03007722D02*
X00402000Y03007722D01*
X00402000Y03023721D02*
X00398000Y03023721D01*
X00398000Y03039719D02*
X00402000Y03039719D01*
X00402000Y03055718D02*
X00398000Y03055718D01*
X00398000Y03071717D02*
X00402000Y03071717D01*
X00369600Y03071717D02*
X00324319Y03071717D01*
X00339966Y03055718D02*
X00355969Y03055718D01*
X00350599Y03039719D02*
X00346000Y03039719D01*
X00346000Y03023721D02*
X00350000Y03023721D01*
X00350000Y03007722D02*
X00346000Y03007722D01*
X00346000Y02991724D02*
X00350000Y02991724D01*
X00350000Y02975725D02*
X00346000Y02975725D01*
X00346000Y02959727D02*
X00350687Y02959727D01*
X00356250Y02943728D02*
X00339736Y02943728D01*
X00322983Y02927730D02*
X00370362Y02927730D01*
X00192606Y02783743D02*
X00176606Y02783743D01*
X00176606Y02767745D02*
X00192606Y02767745D01*
X00192606Y02751746D02*
X00176606Y02751746D01*
X00176606Y02735748D02*
X00192606Y02735748D01*
X00192606Y02719749D02*
X00176606Y02719749D01*
X00077220Y02943728D02*
X00018000Y02943728D01*
X00018000Y02959727D02*
X00061222Y02959727D01*
X00053689Y02975725D02*
X00018000Y02975725D01*
X00018000Y02991724D02*
X00047945Y02991724D01*
X00047945Y03007722D02*
X00018000Y03007722D01*
X00018000Y03023721D02*
X00049383Y03023721D01*
X00056010Y03039719D02*
X00018000Y03039719D01*
X00018000Y03055718D02*
X00066824Y03055718D01*
D23*
X00325000Y01125000D03*
X00325000Y01025000D03*
X00325000Y00925000D03*
X00325000Y00825000D03*
X00325000Y00725000D03*
M02*
