G75*
%MOIN*%
%OFA0B0*%
%FSLAX26Y26*%
%IPPOS*%
%LPD*%
%AMOC8*
5,1,8,0,0,1.08239X$1,22.5*
%
%ADD10C,0.122110*%
%ADD11OC8,0.067000*%
%ADD12C,0.078000*%
%ADD13C,0.070711*%
%ADD14C,0.072111*%
%ADD15OC8,0.060000*%
%ADD16C,0.067370*%
%ADD17C,0.059496*%
%ADD18R,0.071307X0.071307*%
%ADD19C,0.071307*%
%ADD20C,0.068000*%
%ADD21C,0.174000*%
%ADD22R,0.110299X0.110299*%
%ADD23C,0.110299*%
%ADD24R,0.029000X0.054000*%
%ADD25C,0.068961*%
D10*
X00125000Y00175000D03*
X02719055Y00175000D03*
X02719055Y03004921D03*
X00125000Y03004921D03*
D11*
X00902539Y01642402D03*
X01002539Y01642402D03*
X01102539Y01642402D03*
X01202539Y01642402D03*
X01202539Y01342402D03*
X01102539Y01342402D03*
X01002539Y01342402D03*
X00902539Y01342402D03*
D12*
X00623780Y01620079D03*
X00548780Y01670079D03*
X00548780Y01570079D03*
X00775866Y01759740D03*
X00775866Y02059740D03*
X00756260Y02154803D03*
X00670827Y02080315D03*
X00670827Y02380315D03*
X01056260Y02154803D03*
X01100969Y02059142D03*
X01250000Y02162500D03*
X01250000Y01862500D03*
X01306685Y01740965D03*
X01392189Y01740465D03*
X01100969Y01759142D03*
X01306685Y01440965D03*
X01392189Y01440465D03*
X01412819Y00516976D03*
X01234819Y00516976D03*
X01019118Y00516976D03*
X00841118Y00516976D03*
X00841118Y00260976D03*
X01019118Y00260976D03*
X01234819Y00260976D03*
X01412819Y00260976D03*
X01628520Y00260976D03*
X01806520Y00260976D03*
X01806520Y00516976D03*
X01628520Y00516976D03*
X02430055Y00516976D03*
X02608055Y00516976D03*
X02608055Y00260976D03*
X02430055Y00260976D03*
X02430055Y00945976D03*
X02608055Y00945976D03*
X02608055Y01201976D03*
X02608055Y01345976D03*
X02430055Y01345976D03*
X02430055Y01201976D03*
X02430055Y01601976D03*
X02608055Y01601976D03*
X02661291Y01751984D03*
X02661291Y02051984D03*
X02362103Y02332615D03*
X02574235Y02544747D03*
X01688300Y02936094D03*
X01573811Y02942895D03*
X01451723Y02943495D03*
X01476168Y02723962D03*
X01361679Y02730763D03*
X01239591Y02731363D03*
X00442874Y01293307D03*
X00442874Y01206693D03*
X00142874Y01206693D03*
X00142874Y01293307D03*
D13*
X01002795Y01759504D03*
X01499748Y01739457D03*
X01102047Y01217894D03*
X02166890Y00913386D03*
D14*
X02166890Y01013386D03*
X01499748Y01639457D03*
X01002795Y01859504D03*
X01102047Y01117894D03*
D15*
X02518055Y00781476D03*
X02518055Y00681476D03*
D16*
X02173976Y02428346D03*
X02073976Y02428346D03*
X01973976Y02428346D03*
X01873976Y02428346D03*
X01773976Y02428346D03*
X01673976Y02428346D03*
X01573976Y02428346D03*
X01473976Y02428346D03*
X01373976Y02428346D03*
X01273976Y02428346D03*
X01173976Y02428346D03*
X01073976Y02428346D03*
X00973976Y02428346D03*
X00873976Y02428346D03*
X00773976Y02428346D03*
X00773976Y03028346D03*
X00873976Y03028346D03*
X00973976Y03028346D03*
X01073976Y03028346D03*
X01173976Y03028346D03*
X01273976Y03028346D03*
X01373976Y03028346D03*
X01473976Y03028346D03*
X01573976Y03028346D03*
X01673976Y03028346D03*
X01773976Y03028346D03*
X01873976Y03028346D03*
X01973976Y03028346D03*
X02073976Y03028346D03*
X02173976Y03028346D03*
D17*
X02193063Y01822441D02*
X02137567Y01822441D01*
X02137567Y01722441D02*
X02193063Y01722441D01*
X02193063Y01622441D02*
X02137567Y01622441D01*
X02137567Y01522441D02*
X02193063Y01522441D01*
X02193063Y01422441D02*
X02137567Y01422441D01*
X02137567Y01322441D02*
X02193063Y01322441D01*
X02193063Y01222441D02*
X02137567Y01222441D01*
X02137567Y01122441D02*
X02193063Y01122441D01*
X01893063Y01122441D02*
X01837567Y01122441D01*
X01837567Y01222441D02*
X01893063Y01222441D01*
X01893063Y01322441D02*
X01837567Y01322441D01*
X01837567Y01422441D02*
X01893063Y01422441D01*
X01893063Y01522441D02*
X01837567Y01522441D01*
X01837567Y01622441D02*
X01893063Y01622441D01*
X01893063Y01722441D02*
X01837567Y01722441D01*
X01837567Y01822441D02*
X01893063Y01822441D01*
D18*
X02322402Y01822441D03*
D19*
X02322402Y01722441D03*
X02322402Y01622441D03*
X02322402Y01522441D03*
X02322402Y01422441D03*
X02322402Y01322441D03*
X02322402Y01222441D03*
X02322402Y01122441D03*
D20*
X00500000Y02968000D02*
X00500000Y03032000D01*
X00400000Y03032000D02*
X00400000Y02968000D01*
X00300000Y02968000D02*
X00300000Y03032000D01*
X00232354Y01629528D02*
X00168354Y01629528D01*
X00168354Y01529528D02*
X00232354Y01529528D01*
X00232354Y01429528D02*
X00168354Y01429528D01*
D21*
X00302717Y02505906D03*
X00420827Y02690945D03*
X00184606Y02690945D03*
D22*
X00070433Y01960630D03*
D23*
X00212165Y01779528D03*
X00338150Y02059055D03*
X00385394Y02165354D03*
X00511378Y01799213D03*
D24*
X00569783Y02700000D03*
X00605217Y02700000D03*
D25*
X00325000Y01125000D03*
X00325000Y01025000D03*
X00325000Y00925000D03*
X00325000Y00825000D03*
X00325000Y00725000D03*
M02*
