  0
SECTION
  2
HEADER
  9
$ACADVER
  1
AC1018
  9
$ACADMAINTVER
 70
     0
  9
$DWGCODEPAGE
  3
UNDEFINED
  9
$INSBASE
 10
0.0
 20
0.0
 30
0.0
  9
$EXTMIN
 10
1.000000000000000E+20
 20
1.000000000000000E+20
 30
1.000000000000000E+20
  9
$EXTMAX
 10
-1.000000000000000E+20
 20
-1.000000000000000E+20
 30
-1.000000000000000E+20
  9
$LIMMIN
 10
0.0
 20
0.0
  9
$LIMMAX
 10
12.0
 20
9.0
  9
$ORTHOMODE
 70
     0
  9
$REGENMODE
 70
     1
  9
$FILLMODE
 70
     1
  9
$QTEXTMODE
 70
     0
  9
$MIRRTEXT
 70
     1
  9
$LTSCALE
 40
1.0
  9
$ATTMODE
 70
     1
  9
$TEXTSIZE
 40
0.2
  9
$TRACEWID
 40
0.05
  9
$TEXTSTYLE
  7
Standard
  9
$CLAYER
  8
0
  9
$CELTYPE
  6
ByLayer
  9
$CECOLOR
 62
   256
  9
$CELTSCALE
 40
1.0
  9
$DISPSILH
 70
     0
  9
$DIMSCALE
 40
1.0
  9
$DIMASZ
 40
0.18
  9
$DIMEXO
 40
0.0625
  9
$DIMDLI
 40
0.38
  9
$DIMRND
 40
0.0
  9
$DIMDLE
 40
0.0
  9
$DIMEXE
 40
0.18
  9
$DIMTP
 40
0.0
  9
$DIMTM
 40
0.0
  9
$DIMTXT
 40
0.18
  9
$DIMCEN
 40
0.09
  9
$DIMTSZ
 40
0.0
  9
$DIMTOL
 70
     0
  9
$DIMLIM
 70
     0
  9
$DIMTIH
 70
     1
  9
$DIMTOH
 70
     1
  9
$DIMSE1
 70
     0
  9
$DIMSE2
 70
     0
  9
$DIMTAD
 70
     0
  9
$DIMZIN
 70
     0
  9
$DIMBLK
  1

  9
$DIMASO
 70
     1
  9
$DIMSHO
 70
     1
  9
$DIMPOST
  1

  9
$DIMAPOST
  1

  9
$DIMALT
 70
     0
  9
$DIMALTD
 70
     2
  9
$DIMALTF
 40
25.4
  9
$DIMLFAC
 40
1.0
  9
$DIMTOFL
 70
     0
  9
$DIMTVP
 40
0.0
  9
$DIMTIX
 70
     0
  9
$DIMSOXD
 70
     0
  9
$DIMSAH
 70
     0
  9
$DIMBLK1
  1

  9
$DIMBLK2
  1

  9
$DIMSTYLE
  2
Standard
  9
$DIMCLRD
 70
     0
  9
$DIMCLRE
 70
     0
  9
$DIMCLRT
 70
     0
  9
$DIMTFAC
 40
1.0
  9
$DIMGAP
 40
0.09
  9
$DIMJUST
 70
     0
  9
$DIMSD1
 70
     0
  9
$DIMSD2
 70
     0
  9
$DIMTOLJ
 70
     1
  9
$DIMTZIN
 70
     0
  9
$DIMALTZ
 70
     0
  9
$DIMALTTZ
 70
     0
  9
$DIMUPT
 70
     0
  9
$DIMDEC
 70
     4
  9
$DIMTDEC
 70
     4
  9
$DIMALTU
 70
     2
  9
$DIMALTTD
 70
     2
  9
$DIMTXSTY
  7
Standard
  9
$DIMAUNIT
 70
     0
  9
$DIMADEC
 70
     0
  9
$DIMALTRND
 40
0.0
  9
$DIMAZIN
 70
     0
  9
$DIMDSEP
 70
    46
  9
$DIMATFIT
 70
     3
  9
$DIMFRAC
 70
     0
  9
$DIMLDRBLK
  1

  9
$DIMLUNIT
 70
     2
  9
$DIMLWD
 70
    -2
  9
$DIMLWE
 70
    -2
  9
$DIMTMOVE
 70
     0
  9
$LUNITS
 70
     2
  9
$LUPREC
 70
     4
  9
$SKETCHINC
 40
0.1
  9
$FILLETRAD
 40
0.5
  9
$AUNITS
 70
     0
  9
$AUPREC
 70
     0
  9
$MENU
  1
.
  9
$ELEVATION
 40
0.0
  9
$PELEVATION
 40
0.0
  9
$THICKNESS
 40
0.0
  9
$LIMCHECK
 70
     0
  9
$CHAMFERA
 40
0.5
  9
$CHAMFERB
 40
0.5
  9
$CHAMFERC
 40
1.0
  9
$CHAMFERD
 40
0.0
  9
$SKPOLY
 70
     0
  9
$TDCREATE
 40
2457818.938067118
  9
$TDUCREATE
 40
2457818.896400463
  9
$TDUPDATE
 40
2457818.938067118
  9
$TDUUPDATE
 40
2457818.896400463
  9
$TDINDWG
 40
0.0000000116
  9
$TDUSRTIMER
 40
0.0000000116
  9
$USRTIMER
 70
     1
  9
$ANGBASE
 50
0.0
  9
$ANGDIR
 70
     0
  9
$PDMODE
 70
     0
  9
$PDSIZE
 40
0.0
  9
$PLINEWID
 40
0.0
  9
$SPLFRAME
 70
     0
  9
$SPLINETYPE
 70
     6
  9
$SPLINESEGS
 70
     8
  9
$HANDSEED
  5
1ED
  9
$SURFTAB1
 70
     6
  9
$SURFTAB2
 70
     6
  9
$SURFTYPE
 70
     6
  9
$SURFU
 70
     6
  9
$SURFV
 70
     6
  9
$UCSBASE
  2

  9
$UCSNAME
  2

  9
$UCSORG
 10
0.0
 20
0.0
 30
0.0
  9
$UCSXDIR
 10
1.0
 20
0.0
 30
0.0
  9
$UCSYDIR
 10
0.0
 20
1.0
 30
0.0
  9
$UCSORTHOREF
  2

  9
$UCSORTHOVIEW
 70
     0
  9
$UCSORGTOP
 10
0.0
 20
0.0
 30
0.0
  9
$UCSORGBOTTOM
 10
0.0
 20
0.0
 30
0.0
  9
$UCSORGLEFT
 10
0.0
 20
0.0
 30
0.0
  9
$UCSORGRIGHT
 10
0.0
 20
0.0
 30
0.0
  9
$UCSORGFRONT
 10
0.0
 20
0.0
 30
0.0
  9
$UCSORGBACK
 10
0.0
 20
0.0
 30
0.0
  9
$PUCSBASE
  2

  9
$PUCSNAME
  2

  9
$PUCSORG
 10
0.0
 20
0.0
 30
0.0
  9
$PUCSXDIR
 10
1.0
 20
0.0
 30
0.0
  9
$PUCSYDIR
 10
0.0
 20
1.0
 30
0.0
  9
$PUCSORTHOREF
  2

  9
$PUCSORTHOVIEW
 70
     0
  9
$PUCSORGTOP
 10
0.0
 20
0.0
 30
0.0
  9
$PUCSORGBOTTOM
 10
0.0
 20
0.0
 30
0.0
  9
$PUCSORGLEFT
 10
0.0
 20
0.0
 30
0.0
  9
$PUCSORGRIGHT
 10
0.0
 20
0.0
 30
0.0
  9
$PUCSORGFRONT
 10
0.0
 20
0.0
 30
0.0
  9
$PUCSORGBACK
 10
0.0
 20
0.0
 30
0.0
  9
$USERI1
 70
     0
  9
$USERI2
 70
     0
  9
$USERI3
 70
     0
  9
$USERI4
 70
     0
  9
$USERI5
 70
     0
  9
$USERR1
 40
0.0
  9
$USERR2
 40
0.0
  9
$USERR3
 40
0.0
  9
$USERR4
 40
0.0
  9
$USERR5
 40
0.0
  9
$WORLDVIEW
 70
     1
  9
$SHADEDGE
 70
     3
  9
$SHADEDIF
 70
    70
  9
$TILEMODE
 70
     1
  9
$MAXACTVP
 70
    64
  9
$PINSBASE
 10
0.0
 20
0.0
 30
0.0
  9
$PLIMCHECK
 70
     0
  9
$PEXTMIN
 10
1.000000000000000E+20
 20
1.000000000000000E+20
 30
1.000000000000000E+20
  9
$PEXTMAX
 10
-1.000000000000000E+20
 20
-1.000000000000000E+20
 30
-1.000000000000000E+20
  9
$PLIMMIN
 10
0.0
 20
0.0
  9
$PLIMMAX
 10
12.0
 20
9.0
  9
$UNITMODE
 70
     0
  9
$VISRETAIN
 70
     1
  9
$PLINEGEN
 70
     0
  9
$PSLTSCALE
 70
     1
  9
$TREEDEPTH
 70
  3020
  9
$CMLSTYLE
  2
Standard
  9
$CMLJUST
 70
     0
  9
$CMLSCALE
 40
1.0
  9
$PROXYGRAPHICS
 70
     1
  9
$MEASUREMENT
 70
     0
  9
$CELWEIGHT
370
    -1
  9
$ENDCAPS
280
     0
  9
$JOINSTYLE
280
     0
  9
$LWDISPLAY
290
     1
  9
$INSUNITS
 70
     1
  9
$HYPERLINKBASE
  1

  9
$STYLESHEET
  1

  9
$XEDIT
290
     1
  9
$CEPSNTYPE
380
     0
  9
$PSTYLEMODE
290
     1
  9
$FINGERPRINTGUID
  2
{4A9A2C67-9BB2-03B9-4C66-0B3A15A5F793}
  9
$VERSIONGUID
  2
{FAEB1C32-E019-11D5-929B-00C0DF256EC4}
  9
$EXTNAMES
290
     1
  9
$PSVPSCALE
 40
0.0
  9
$OLESTARTUP
290
     0
  9
$SORTENTS
280
   127
  9
$INDEXCTL
280
     0
  9
$HIDETEXT
280
     1
  9
$XCLIPFRAME
290
     0
  9
$HALOGAP
280
     0
  9
$OBSCOLOR
 70
   257
  9
$OBSLTYPE
280
     0
  9
$INTERSECTIONDISPLAY
280
     0
  9
$INTERSECTIONCOLOR
 70
   257
  9
$DIMASSOC
280
     2
  9
$PROJECTNAME
  1

  0
ENDSEC
  0
SECTION
  2
CLASSES
  0
CLASS
  1
ACDBDICTIONARYWDFLT
  2
AcDbDictionaryWithDefault
  3
ObjectDBX Classes
 90
        0
 91
        4
280
     0
281
     0
  0
CLASS
  1
VISUALSTYLE
  2
AcDbVisualStyle
  3
ObjectDBX Classes
 90
     4095
 91
        4
280
     0
281
     0
  0
CLASS
  1
MATERIAL
  2
AcDbMaterial
  3
ObjectDBX Classes
 90
     1153
 91
        4
280
     0
281
     0
  0
CLASS
  1
SUN
  2
AcDbSun
  3
SCENEOE
 90
     1024
 91
        4
280
     0
281
     0
  0
ENDSEC
  0
SECTION
  2
TABLES
  0
TABLE
  2
VPORT
  5
8
330
0
100
AcDbSymbolTable
 70
     1
  0
VPORT
  5
29
330
8
100
AcDbSymbolTableRecord
100
AcDbViewportTableRecord
  2
*Active
 70
     0
 10
0.0
 20
0.0
 11
1.0
 21
1.0
 12
0.0
 22
0.0
 13
0.0
 23
0.0
 14
0.5
 24
0.5
 15
0.5
 25
0.5
 16
0.0
 26
0.0
 36
1.0
 17
114.6478867921522
 27
-91.35589889179933
 37
0.0
 40
182.7117977835987
 41
1.254958773137788
 42
50.0
 43
0.0
 44
0.0
 50
0.0
 51
0.0
 71
     0
 72
   100
 73
     1
 74
     3
 75
     0
 76
     0
 77
     0
 78
     0
281
     0
 65
     1
110
0.0
120
0.0
130
0.0
111
1.0
121
0.0
131
0.0
112
0.0
122
1.0
132
0.0
 79
     0
146
0.0
  0
ENDTAB
  0
TABLE
  2
LTYPE
  5
5
330
0
100
AcDbSymbolTable
 70
     1
  0
LTYPE
  5
14
330
5
100
AcDbSymbolTableRecord
100
AcDbLinetypeTableRecord
  2
ByBlock
 70
     0
  3

 72
    65
 73
     0
 40
0.0
  0
LTYPE
  5
15
330
5
100
AcDbSymbolTableRecord
100
AcDbLinetypeTableRecord
  2
ByLayer
 70
     0
  3

 72
    65
 73
     0
 40
0.0
  0
LTYPE
  5
16
330
5
100
AcDbSymbolTableRecord
100
AcDbLinetypeTableRecord
  2
Continuous
 70
     0
  3
Solid line
 72
    65
 73
     0
 40
0.0
  0
ENDTAB
  0
TABLE
  2
LAYER
  5
2
330
0
100
AcDbSymbolTable
 70
     2
  0
LAYER
  5
10
330
2
100
AcDbSymbolTableRecord
100
AcDbLayerTableRecord
  2
0
 70
     0
 62
     7
  6
Continuous
370
    -3
390
F
  0
LAYER
  5
40
330
2
100
AcDbSymbolTableRecord
100
AcDbLayerTableRecord
  2
Ebene 1
 70
     0
 62
     7
  6
Continuous
370
    -3
390
F
  0
ENDTAB
  0
TABLE
  2
STYLE
  5
3
330
0
100
AcDbSymbolTable
 70
     1
  0
STYLE
  5
11
330
3
100
AcDbSymbolTableRecord
100
AcDbTextStyleTableRecord
  2
Standard
 70
     0
 40
0.0
 41
1.0
 50
0.0
 71
     0
 42
0.2
  3
txt
  4

  0
ENDTAB
  0
TABLE
  2
VIEW
  5
6
330
0
100
AcDbSymbolTable
 70
     0
  0
ENDTAB
  0
TABLE
  2
UCS
  5
7
330
0
100
AcDbSymbolTable
 70
     0
  0
ENDTAB
  0
TABLE
  2
APPID
  5
9
330
0
100
AcDbSymbolTable
 70
     1
  0
APPID
  5
12
330
9
100
AcDbSymbolTableRecord
100
AcDbRegAppTableRecord
  2
ACAD
 70
     0
  0
ENDTAB
  0
TABLE
  2
DIMSTYLE
  5
A
330
0
100
AcDbSymbolTable
 70
     1
100
AcDbDimStyleTable
  0
DIMSTYLE
105
27
330
A
100
AcDbSymbolTableRecord
100
AcDbDimStyleTableRecord
  2
Standard
 70
     0
178
     0
340
11
  0
ENDTAB
  0
TABLE
  2
BLOCK_RECORD
  5
1
330
0
100
AcDbSymbolTable
 70
    14
  0
BLOCK_RECORD
  5
1F
330
1
100
AcDbSymbolTableRecord
100
AcDbBlockTableRecord
  2
*Model_Space
340
22
  0
BLOCK_RECORD
  5
1B
330
1
100
AcDbSymbolTableRecord
100
AcDbBlockTableRecord
  2
*Paper_Space
340
1E
  0
BLOCK_RECORD
  5
23
330
1
100
AcDbSymbolTableRecord
100
AcDbBlockTableRecord
  2
*Paper_Space0
340
26
  0
BLOCK_RECORD
  5
49
330
1
100
AcDbSymbolTableRecord
100
AcDbBlockTableRecord
  2
block 2
340
0
102
{BLKREFS
331
4A
102
}
  0
BLOCK_RECORD
  5
5C
330
1
100
AcDbSymbolTableRecord
100
AcDbBlockTableRecord
  2
block 3
340
0
102
{BLKREFS
331
5D
102
}
  0
BLOCK_RECORD
  5
A6
330
1
100
AcDbSymbolTableRecord
100
AcDbBlockTableRecord
  2
block 4
340
0
102
{BLKREFS
331
A7
102
}
  0
BLOCK_RECORD
  5
AB
330
1
100
AcDbSymbolTableRecord
100
AcDbBlockTableRecord
  2
block 5
340
0
102
{BLKREFS
331
AC
102
}
  0
BLOCK_RECORD
  5
B0
330
1
100
AcDbSymbolTableRecord
100
AcDbBlockTableRecord
  2
block 6
340
0
102
{BLKREFS
331
B1
102
}
  0
BLOCK_RECORD
  5
B5
330
1
100
AcDbSymbolTableRecord
100
AcDbBlockTableRecord
  2
block 7
340
0
102
{BLKREFS
331
B6
102
}
  0
BLOCK_RECORD
  5
C0
330
1
100
AcDbSymbolTableRecord
100
AcDbBlockTableRecord
  2
block 8
340
0
102
{BLKREFS
331
C1
102
}
  0
BLOCK_RECORD
  5
C5
330
1
100
AcDbSymbolTableRecord
100
AcDbBlockTableRecord
  2
block 9
340
0
102
{BLKREFS
331
C6
102
}
  0
BLOCK_RECORD
  5
CA
330
1
100
AcDbSymbolTableRecord
100
AcDbBlockTableRecord
  2
block 10
340
0
102
{BLKREFS
331
CB
102
}
  0
BLOCK_RECORD
  5
CF
330
1
100
AcDbSymbolTableRecord
100
AcDbBlockTableRecord
  2
block 11
340
0
102
{BLKREFS
331
D0
102
}
  0
BLOCK_RECORD
  5
DA
330
1
100
AcDbSymbolTableRecord
100
AcDbBlockTableRecord
  2
block 12
340
0
102
{BLKREFS
331
DB
102
}
  0
BLOCK_RECORD
  5
DF
330
1
100
AcDbSymbolTableRecord
100
AcDbBlockTableRecord
  2
block 13
340
0
102
{BLKREFS
331
E0
102
}
  0
BLOCK_RECORD
  5
E4
330
1
100
AcDbSymbolTableRecord
100
AcDbBlockTableRecord
  2
block 14
340
0
102
{BLKREFS
331
E5
102
}
  0
ENDTAB
  0
ENDSEC
  0
SECTION
  2
BLOCKS
  0
BLOCK
  5
20
330
1F
100
AcDbEntity
  8
0
100
AcDbBlockBegin
  2
*Model_Space
 70
     0
 10
0.0
 20
0.0
 30
0.0
  3
*Model_Space
  1

  0
ENDBLK
  5
21
330
1F
100
AcDbEntity
  8
0
100
AcDbBlockEnd
  0
BLOCK
  5
1C
330
1B
100
AcDbEntity
 67
     1
  8
0
100
AcDbBlockBegin
  2
*Paper_Space
 70
     0
 10
0.0
 20
0.0
 30
0.0
  3
*Paper_Space
  1

  0
ENDBLK
  5
1D
330
1B
100
AcDbEntity
 67
     1
  8
0
100
AcDbBlockEnd
  0
BLOCK
  5
24
330
23
100
AcDbEntity
  8
0
100
AcDbBlockBegin
  2
*Paper_Space0
 70
     0
 10
0.0
 20
0.0
 30
0.0
  3
*Paper_Space0
  1

  0
ENDBLK
  5
25
330
23
100
AcDbEntity
  8
0
100
AcDbBlockEnd
  0
BLOCK
  5
4B
330
49
100
AcDbEntity
  8
0
100
AcDbBlockBegin
  2
block 2
 70
     0
 10
0.0
 20
0.0
 30
0.0
  3
block 2
  1

  0
POLYLINE
  5
4D
330
49
100
AcDbEntity
  8
Ebene 1
 62
     1
370
    35
100
AcDb2dPolyline
 66
     1
 10
0.0
 20
0.0
 30
0.0
  0
VERTEX
  5
4E
330
4D
100
AcDbEntity
  8
Ebene 1
 62
     1
370
    35
100
AcDbVertex
100
AcDb2dVertex
 10
141.664331624723
 20
-3.701426823579314
 30
0.0
  0
VERTEX
  5
4F
330
4D
100
AcDbEntity
  8
Ebene 1
 62
     1
370
    35
100
AcDbVertex
100
AcDb2dVertex
 10
141.664331624723
 20
-11.70948668350221
 30
0.0
  0
VERTEX
  5
50
330
4D
100
AcDbEntity
  8
Ebene 1
 62
     1
370
    35
100
AcDbVertex
100
AcDb2dVertex
 10
146.6737749913228
 20
-11.70948668350221
 30
0.0
  0
VERTEX
  5
51
330
4D
100
AcDbEntity
  8
Ebene 1
 62
     1
370
    35
100
AcDbVertex
100
AcDb2dVertex
 10
146.6737749913228
 20
-14.70809779386367
 30
0.0
  0
VERTEX
  5
52
330
4D
100
AcDbEntity
  8
Ebene 1
 62
     1
370
    35
100
AcDbVertex
100
AcDb2dVertex
 10
151.6832183579225
 20
-14.70809779386367
 30
0.0
  0
VERTEX
  5
53
330
4D
100
AcDbEntity
  8
Ebene 1
 62
     1
370
    35
100
AcDbVertex
100
AcDb2dVertex
 10
151.6832183579225
 20
-11.70948668350221
 30
0.0
  0
VERTEX
  5
54
330
4D
100
AcDbEntity
  8
Ebene 1
 62
     1
370
    35
100
AcDbVertex
100
AcDb2dVertex
 10
156.6926644160031
 20
-11.70948668350221
 30
0.0
  0
VERTEX
  5
55
330
4D
100
AcDbEntity
  8
Ebene 1
 62
     1
370
    35
100
AcDbVertex
100
AcDb2dVertex
 10
156.6926644160031
 20
-14.70809779386367
 30
0.0
  0
VERTEX
  5
56
330
4D
100
AcDbEntity
  8
Ebene 1
 62
     1
370
    35
100
AcDbVertex
100
AcDb2dVertex
 10
161.7021077826029
 20
-14.70809779386367
 30
0.0
  0
VERTEX
  5
57
330
4D
100
AcDbEntity
  8
Ebene 1
 62
     1
370
    35
100
AcDbVertex
100
AcDb2dVertex
 10
161.7021077826029
 20
-11.70948668350221
 30
0.0
  0
VERTEX
  5
58
330
4D
100
AcDbEntity
  8
Ebene 1
 62
     1
370
    35
100
AcDbVertex
100
AcDb2dVertex
 10
166.7115538406835
 20
-11.70948668350221
 30
0.0
  0
VERTEX
  5
59
330
4D
100
AcDbEntity
  8
Ebene 1
 62
     1
370
    35
100
AcDbVertex
100
AcDb2dVertex
 10
166.7115538406835
 20
-3.701426823579314
 30
0.0
  0
VERTEX
  5
5A
330
4D
100
AcDbEntity
  8
Ebene 1
 62
     1
370
    35
100
AcDbVertex
100
AcDb2dVertex
 10
141.664331624723
 20
-3.701426823579314
 30
0.0
  0
SEQEND
  5
5B
330
4D
100
AcDbEntity
  8
Ebene 1
 62
     1
370
    35
  0
ENDBLK
  5
4C
330
49
100
AcDbEntity
  8
0
100
AcDbBlockEnd
  0
BLOCK
  5
5E
330
5C
100
AcDbEntity
  8
0
100
AcDbBlockBegin
  2
block 3
 70
     0
 10
0.0
 20
0.0
 30
0.0
  3
block 3
  1

  0
POLYLINE
  5
60
330
5C
100
AcDbEntity
  8
Ebene 1
 62
     1
370
    35
100
AcDb2dPolyline
 66
     1
 10
0.0
 20
0.0
 30
0.0
  0
VERTEX
  5
61
330
60
100
AcDbEntity
  8
Ebene 1
 62
     1
370
    35
100
AcDbVertex
100
AcDb2dVertex
 10
70.41868302353433
 20
-3.701426823579314
 30
0.0
  0
VERTEX
  5
62
330
60
100
AcDbEntity
  8
Ebene 1
 62
     1
370
    35
100
AcDbVertex
100
AcDb2dVertex
 10
70.41868302353433
 20
-11.70948668350221
 30
0.0
  0
VERTEX
  5
63
330
60
100
AcDbEntity
  8
Ebene 1
 62
     1
370
    35
100
AcDbVertex
100
AcDb2dVertex
 10
75.42812639013407
 20
-11.70948668350221
 30
0.0
  0
VERTEX
  5
64
330
60
100
AcDbEntity
  8
Ebene 1
 62
     1
370
    35
100
AcDbVertex
100
AcDb2dVertex
 10
75.42812639013407
 20
-14.70809779386367
 30
0.0
  0
VERTEX
  5
65
330
60
100
AcDbEntity
  8
Ebene 1
 62
     1
370
    35
100
AcDbVertex
100
AcDb2dVertex
 10
80.43756975673382
 20
-14.70809779386367
 30
0.0
  0
VERTEX
  5
66
330
60
100
AcDbEntity
  8
Ebene 1
 62
     1
370
    35
100
AcDbVertex
100
AcDb2dVertex
 10
80.43756975673382
 20
-11.70948668350221
 30
0.0
  0
VERTEX
  5
67
330
60
100
AcDbEntity
  8
Ebene 1
 62
     1
370
    35
100
AcDbVertex
100
AcDb2dVertex
 10
85.4470158148144
 20
-11.70948668350221
 30
0.0
  0
VERTEX
  5
68
330
60
100
AcDbEntity
  8
Ebene 1
 62
     1
370
    35
100
AcDbVertex
100
AcDb2dVertex
 10
85.4470158148144
 20
-14.70809779386367
 30
0.0
  0
VERTEX
  5
69
330
60
100
AcDbEntity
  8
Ebene 1
 62
     1
370
    35
100
AcDbVertex
100
AcDb2dVertex
 10
90.45645918141415
 20
-14.70809779386367
 30
0.0
  0
VERTEX
  5
6A
330
60
100
AcDbEntity
  8
Ebene 1
 62
     1
370
    35
100
AcDbVertex
100
AcDb2dVertex
 10
90.45645918141415
 20
-11.70948668350221
 30
0.0
  0
VERTEX
  5
6B
330
60
100
AcDbEntity
  8
Ebene 1
 62
     1
370
    35
100
AcDbVertex
100
AcDb2dVertex
 10
95.46590523949475
 20
-11.70948668350221
 30
0.0
  0
VERTEX
  5
6C
330
60
100
AcDbEntity
  8
Ebene 1
 62
     1
370
    35
100
AcDbVertex
100
AcDb2dVertex
 10
95.46590523949475
 20
-3.701426823579314
 30
0.0
  0
VERTEX
  5
6D
330
60
100
AcDbEntity
  8
Ebene 1
 62
     1
370
    35
100
AcDbVertex
100
AcDb2dVertex
 10
70.41868302353433
 20
-3.701426823579314
 30
0.0
  0
SEQEND
  5
6E
330
60
100
AcDbEntity
  8
Ebene 1
 62
     1
370
    35
  0
ENDBLK
  5
5F
330
5C
100
AcDbEntity
  8
0
100
AcDbBlockEnd
  0
BLOCK
  5
A8
330
A6
100
AcDbEntity
  8
0
100
AcDbBlockBegin
  2
block 4
 70
     0
 10
0.0
 20
0.0
 30
0.0
  3
block 4
  1

  0
SPLINE
  5
AA
330
A6
100
AcDbEntity
  8
Ebene 1
 62
   250
370
    35
100
AcDbSpline
210
0.0
220
0.0
230
1.0
 70
    11
 71
     3
 72
    20
 73
    16
 74
     0
 42
0.0000000001
 43
0.0000000001
 12
1.0
 22
0.0
 32
0.0
 13
1.0
 23
0.0
 33
0.0
 40
0.0
 40
0.0
 40
0.0
 40
0.0
 40
1.0
 40
1.0
 40
1.0
 40
2.0
 40
2.0
 40
2.0
 40
3.0
 40
3.0
 40
3.0
 40
4.0
 40
4.0
 40
4.0
 40
5.0
 40
5.0
 40
5.0
 40
5.0
 10
102.9673603037619
 20
-173.9981911360436
 30
0.0
 10
102.544022664165
 20
-173.9981911360436
 30
0.0
 10
102.3676337753202
 20
-173.9981911360436
 30
0.0
 10
102.0854158595379
 20
-174.0687509979509
 30
0.0
 10
102.0854158595379
 20
-174.0687509979509
 30
0.0
 10
102.0854158595379
 20
-177.4201398860019
 30
0.0
 10
102.0854158595379
 20
-177.4201398860019
 30
0.0
 10
102.0854158595379
 20
-177.4201398860019
 30
0.0
 10
104.0256936368306
 20
-177.4201398860019
 30
0.0
 10
104.0256936368306
 20
-177.4201398860019
 30
0.0
 10
104.0256936368306
 20
-177.4201398860019
 30
0.0
 10
104.0256936368306
 20
-174.9859753731285
 30
0.0
 10
104.0256936368306
 20
-174.9859753731285
 30
0.0
 10
104.0256936368306
 20
-174.1745800248884
 30
0.0
 10
103.6023559972338
 20
-173.9981911360436
 30
0.0
 10
102.9673603037619
 20
-173.9981911360436
 30
0.0
  0
ENDBLK
  5
A9
330
A6
100
AcDbEntity
  8
0
100
AcDbBlockEnd
  0
BLOCK
  5
AD
330
AB
100
AcDbEntity
  8
0
100
AcDbBlockBegin
  2
block 5
 70
     0
 10
0.0
 20
0.0
 30
0.0
  3
block 5
  1

  0
SPLINE
  5
AF
330
AB
100
AcDbEntity
  8
Ebene 1
 62
   250
370
    35
100
AcDbSpline
210
0.0
220
0.0
230
1.0
 70
    11
 71
     3
 72
    20
 73
    16
 74
     0
 42
0.0000000001
 43
0.0000000001
 12
1.0
 22
0.0
 32
0.0
 13
1.0
 23
0.0
 33
0.0
 40
0.0
 40
0.0
 40
0.0
 40
0.0
 40
1.0
 40
1.0
 40
1.0
 40
2.0
 40
2.0
 40
2.0
 40
3.0
 40
3.0
 40
3.0
 40
4.0
 40
4.0
 40
4.0
 40
5.0
 40
5.0
 40
5.0
 40
5.0
 10
98.4870782207348
 20
-173.9981911360436
 30
0.0
 10
98.06374058113795
 20
-173.9981911360436
 30
0.0
 10
97.88735169229315
 20
-173.9981911360436
 30
0.0
 10
97.60513377651084
 20
-174.0687509979509
 30
0.0
 10
97.60513377651084
 20
-174.0687509979509
 30
0.0
 10
97.60513377651084
 20
-177.4201398860019
 30
0.0
 10
97.60513377651084
 20
-177.4201398860019
 30
0.0
 10
97.60513377651084
 20
-177.4201398860019
 30
0.0
 10
99.54541155380355
 20
-177.4201398860019
 30
0.0
 10
99.54541155380355
 20
-177.4201398860019
 30
0.0
 10
99.54541155380355
 20
-177.4201398860019
 30
0.0
 10
99.54541155380355
 20
-174.9859753731285
 30
0.0
 10
99.54541155380355
 20
-174.9859753731285
 30
0.0
 10
99.54541155380355
 20
-174.1745800248884
 30
0.0
 10
99.12208468013009
 20
-173.9981911360436
 30
0.0
 10
98.4870782207348
 20
-173.9981911360436
 30
0.0
  0
ENDBLK
  5
AE
330
AB
100
AcDbEntity
  8
0
100
AcDbBlockEnd
  0
BLOCK
  5
B2
330
B0
100
AcDbEntity
  8
0
100
AcDbBlockBegin
  2
block 6
 70
     0
 10
0.0
 20
0.0
 30
0.0
  3
block 6
  1

  0
SPLINE
  5
B4
330
B0
100
AcDbEntity
  8
Ebene 1
 62
   250
370
    35
100
AcDbSpline
210
0.0
220
0.0
230
1.0
 70
    11
 71
     3
 72
    20
 73
    16
 74
     0
 42
0.0000000001
 43
0.0000000001
 12
1.0
 22
0.0
 32
0.0
 13
1.0
 23
0.0
 33
0.0
 40
0.0
 40
0.0
 40
0.0
 40
0.0
 40
1.0
 40
1.0
 40
1.0
 40
2.0
 40
2.0
 40
2.0
 40
3.0
 40
3.0
 40
3.0
 40
4.0
 40
4.0
 40
4.0
 40
5.0
 40
5.0
 40
5.0
 40
5.0
 10
89.84402266734001
 20
-173.9981911360436
 30
0.0
 10
89.42068502774315
 20
-173.9981911360436
 30
0.0
 10
89.17374704291448
 20
-174.0334710669972
 30
0.0
 10
88.96207822311605
 20
-174.1040201629811
 30
0.0
 10
88.96207822311605
 20
-174.1040201629811
 30
0.0
 10
88.96207822311605
 20
-177.4201291200785
 30
0.0
 10
88.96207822311605
 20
-177.4201291200785
 30
0.0
 10
88.96207822311605
 20
-177.4201291200785
 30
0.0
 10
90.90235600040876
 20
-177.4201291200785
 30
0.0
 10
90.90235600040876
 20
-177.4201291200785
 30
0.0
 10
90.90235600040876
 20
-177.4201291200785
 30
0.0
 10
90.90235600040876
 20
-174.9859646072051
 30
0.0
 10
90.90235600040876
 20
-174.9859646072051
 30
0.0
 10
90.86707606945512
 20
-174.1745800248884
 30
0.0
 10
90.4790291267353
 20
-173.9981911360436
 30
0.0
 10
89.84402266734001
 20
-173.9981911360436
 30
0.0
  0
ENDBLK
  5
B3
330
B0
100
AcDbEntity
  8
0
100
AcDbBlockEnd
  0
BLOCK
  5
B7
330
B5
100
AcDbEntity
  8
0
100
AcDbBlockBegin
  2
block 7
 70
     0
 10
0.0
 20
0.0
 30
0.0
  3
block 7
  1

  0
POLYLINE
  5
B9
330
B5
100
AcDbEntity
  8
Ebene 1
 62
   250
370
    35
100
AcDb2dPolyline
 66
     1
 10
0.0
 20
0.0
 30
0.0
  0
VERTEX
  5
BA
330
B9
100
AcDbEntity
  8
Ebene 1
 62
   250
370
    35
100
AcDbVertex
100
AcDb2dVertex
 10
106.6362470385489
 20
-177.4201291200785
 30
0.0
  0
VERTEX
  5
BB
330
B9
100
AcDbEntity
  8
Ebene 1
 62
   250
370
    35
100
AcDbVertex
100
AcDb2dVertex
 10
105.6131936364337
 20
-177.4201291200785
 30
0.0
  0
VERTEX
  5
BC
330
B9
100
AcDbEntity
  8
Ebene 1
 62
   250
370
    35
100
AcDbVertex
100
AcDb2dVertex
 10
105.6131936364337
 20
-171.2465180105108
 30
0.0
  0
VERTEX
  5
BD
330
B9
100
AcDbEntity
  8
Ebene 1
 62
   250
370
    35
100
AcDbVertex
100
AcDb2dVertex
 10
106.6362470385489
 20
-171.2465180105108
 30
0.0
  0
VERTEX
  5
BE
330
B9
100
AcDbEntity
  8
Ebene 1
 62
   250
370
    35
100
AcDbVertex
100
AcDb2dVertex
 10
106.6362470385489
 20
-177.4201291200785
 30
0.0
  0
SEQEND
  5
BF
330
B9
100
AcDbEntity
  8
Ebene 1
 62
   250
370
    35
  0
ENDBLK
  5
B8
330
B5
100
AcDbEntity
  8
0
100
AcDbBlockEnd
  0
BLOCK
  5
C2
330
C0
100
AcDbEntity
  8
0
100
AcDbBlockBegin
  2
block 8
 70
     0
 10
0.0
 20
0.0
 30
0.0
  3
block 8
  1

  0
SPLINE
  5
C4
330
C0
100
AcDbEntity
  8
Ebene 1
 62
   250
370
    35
100
AcDbSpline
210
0.0
220
0.0
230
1.0
 70
    11
 71
     3
 72
    17
 73
    13
 74
     0
 42
0.0000000001
 43
0.0000000001
 12
1.0
 22
0.0
 32
0.0
 13
1.0
 23
0.0
 33
0.0
 40
0.0
 40
0.0
 40
0.0
 40
0.0
 40
1.0
 40
1.0
 40
1.0
 40
2.0
 40
2.0
 40
2.0
 40
3.0
 40
3.0
 40
3.0
 40
4.0
 40
4.0
 40
4.0
 40
4.0
 10
110.446242731227
 20
-171.0348599566358
 30
0.0
 10
112.1997425036022
 20
-171.0348599566358
 30
0.0
 10
113.6212427304333
 20
-172.4563601834668
 30
0.0
 10
113.6212427304333
 20
-174.209859955842
 30
0.0
 10
113.6212427304333
 20
-175.9633597282173
 30
0.0
 10
112.1997425036022
 20
-177.3848599550483
 30
0.0
 10
110.446242731227
 20
-177.3848599550483
 30
0.0
 10
108.6927429588518
 20
-177.3848599550483
 30
0.0
 10
107.2712427320208
 20
-175.9633597282173
 30
0.0
 10
107.2712427320208
 20
-174.209859955842
 30
0.0
 10
107.2712427320208
 20
-172.4563601834668
 30
0.0
 10
108.6927429588518
 20
-171.0348599566358
 30
0.0
 10
110.446242731227
 20
-171.0348599566358
 30
0.0
  0
ENDBLK
  5
C3
330
C0
100
AcDbEntity
  8
0
100
AcDbBlockEnd
  0
BLOCK
  5
C7
330
C5
100
AcDbEntity
  8
0
100
AcDbBlockBegin
  2
block 9
 70
     0
 10
0.0
 20
0.0
 30
0.0
  3
block 9
  1

  0
SPLINE
  5
C9
330
C5
100
AcDbEntity
  8
Ebene 1
 62
   250
370
    35
100
AcDbSpline
210
0.0
220
0.0
230
1.0
 70
    11
 71
     3
 72
    17
 73
    13
 74
     0
 42
0.0000000001
 43
0.0000000001
 12
1.0
 22
0.0
 32
0.0
 13
1.0
 23
0.0
 33
0.0
 40
0.0
 40
0.0
 40
0.0
 40
0.0
 40
1.0
 40
1.0
 40
1.0
 40
2.0
 40
2.0
 40
2.0
 40
3.0
 40
3.0
 40
3.0
 40
4.0
 40
4.0
 40
4.0
 40
4.0
 10
110.446242731227
 20
-172.0931932897045
 30
0.0
 10
111.6152497567594
 20
-172.0931932897045
 30
0.0
 10
112.5629093973645
 20
-173.0408529303096
 30
0.0
 10
112.5629093973645
 20
-174.209859955842
 30
0.0
 10
112.5629093973645
 20
-175.3788669813744
 30
0.0
 10
111.6152497567594
 20
-176.3265266219795
 30
0.0
 10
110.446242731227
 20
-176.3265266219795
 30
0.0
 10
109.2772357056946
 20
-176.3265266219795
 30
0.0
 10
108.3295760650895
 20
-175.3788669813744
 30
0.0
 10
108.3295760650895
 20
-174.209859955842
 30
0.0
 10
108.3295760650895
 20
-173.0408529303096
 30
0.0
 10
109.2772357056946
 20
-172.0931932897045
 30
0.0
 10
110.446242731227
 20
-172.0931932897045
 30
0.0
  0
ENDBLK
  5
C8
330
C5
100
AcDbEntity
  8
0
100
AcDbBlockEnd
  0
BLOCK
  5
CC
330
CA
100
AcDbEntity
  8
0
100
AcDbBlockBegin
  2
block 10
 70
     0
 10
0.0
 20
0.0
 30
0.0
  3
block 10
  1

  0
SPLINE
  5
CE
330
CA
100
AcDbEntity
  8
Ebene 1
 62
   250
370
    35
100
AcDbSpline
210
0.0
220
0.0
230
1.0
 70
    11
 71
     3
 72
    95
 73
    91
 74
     0
 42
0.0000000001
 43
0.0000000001
 12
1.0
 22
0.0
 32
0.0
 13
1.0
 23
0.0
 33
0.0
 40
0.0
 40
0.0
 40
0.0
 40
0.0
 40
1.0
 40
1.0
 40
1.0
 40
2.0
 40
2.0
 40
2.0
 40
3.0
 40
3.0
 40
3.0
 40
4.0
 40
4.0
 40
4.0
 40
5.0
 40
5.0
 40
5.0
 40
6.0
 40
6.0
 40
6.0
 40
7.0
 40
7.0
 40
7.0
 40
8.0
 40
8.0
 40
8.0
 40
9.0
 40
9.0
 40
9.0
 40
10.0
 40
10.0
 40
10.0
 40
11.0
 40
11.0
 40
11.0
 40
12.0
 40
12.0
 40
12.0
 40
13.0
 40
13.0
 40
13.0
 40
14.0
 40
14.0
 40
14.0
 40
15.0
 40
15.0
 40
15.0
 40
16.0
 40
16.0
 40
16.0
 40
17.0
 40
17.0
 40
17.0
 40
18.0
 40
18.0
 40
18.0
 40
19.0
 40
19.0
 40
19.0
 40
20.0
 40
20.0
 40
20.0
 40
21.0
 40
21.0
 40
21.0
 40
22.0
 40
22.0
 40
22.0
 40
23.0
 40
23.0
 40
23.0
 40
24.0
 40
24.0
 40
24.0
 40
25.0
 40
25.0
 40
25.0
 40
26.0
 40
26.0
 40
26.0
 40
27.0
 40
27.0
 40
27.0
 40
28.0
 40
28.0
 40
28.0
 40
29.0
 40
29.0
 40
29.0
 40
30.0
 40
30.0
 40
30.0
 40
30.0
 10
88.96207822311605
 20
-173.2573556497108
 30
0.0
 10
89.20902697386812
 20
-173.2220757187572
 30
0.0
 10
89.52652482060407
 20
-173.1867957878035
 30
0.0
 10
89.91458252924728
 20
-173.1867957878035
 30
0.0
 10
90.97291586231603
 20
-173.1867957878035
 30
0.0
 10
91.78430044463272
 20
-173.7159624543379
 30
0.0
 10
91.78430044463272
 20
-175.056513703189
 30
0.0
 10
91.78430044463272
 20
-175.056513703189
 30
0.0
 10
91.78430044463272
 20
-177.4201291200785
 30
0.0
 10
91.78430044463272
 20
-177.4201291200785
 30
0.0
 10
91.78430044463272
 20
-177.4201291200785
 30
0.0
 10
93.01902266654626
 20
-177.4201291200785
 30
0.0
 10
93.01902266654626
 20
-177.4201291200785
 30
0.0
 10
92.59568502694941
 20
-177.2084603002801
 30
0.0
 10
92.34874704212073
 20
-176.8204025916369
 30
0.0
 10
92.34874704212073
 20
-176.2559667600723
 30
0.0
 10
92.34874704212073
 20
-176.2559667600723
 30
0.0
 10
92.34874704212073
 20
-176.185406898165
 30
0.0
 10
92.34874704212073
 20
-176.185406898165
 30
0.0
 10
92.34874704212073
 20
-175.3740223158483
 30
0.0
 10
93.12486245940717
 20
-174.9154047452978
 30
0.0
 10
94.39485384635095
 20
-174.8801248143442
 30
0.0
 10
94.64180259710302
 20
-174.8801248143442
 30
0.0
 10
94.8887405819317
 20
-174.8801248143442
 30
0.0
 10
95.13568933268377
 20
-174.8448448833906
 30
0.0
 10
95.13568933268377
 20
-174.8448448833906
 30
0.0
 10
95.13568933268377
 20
-174.6331760635921
 30
0.0
 10
95.13568933268377
 20
-174.6331760635921
 30
0.0
 10
95.13568933268377
 20
-174.1392893280114
 30
0.0
 10
94.74763162404054
 20
-173.9629004391666
 30
0.0
 10
94.11263593056864
 20
-173.9629004391666
 30
0.0
 10
93.54818933308064
 20
-173.9629004391666
 30
0.0
 10
93.08958252845353
 20
-174.1040093970577
 30
0.0
 10
92.80735384674783
 20
-174.2451183549489
 30
0.0
 10
92.73679398484056
 20
-173.9981696041968
 30
0.0
 10
92.63096495790305
 20
-173.7159516884145
 30
0.0
 10
92.56040509599576
 20
-173.4690029376625
 30
0.0
 10
93.01901190062287
 20
-173.2926140488177
 30
0.0
 10
93.54817856715725
 20
-173.1515050909265
 30
0.0
 10
94.18318502655254
 20
-173.1515050909265
 30
0.0
 10
95.20623842866765
 20
-173.1515050909265
 30
0.0
 10
96.01763377690772
 20
-173.5748427305234
 30
0.0
 10
96.01763377690772
 20
-174.7390050905296
 30
0.0
 10
96.01763377690772
 20
-174.7390050905296
 30
0.0
 10
96.01763377690772
 20
-177.3848384232015
 30
0.0
 10
96.01763377690772
 20
-177.3848384232015
 30
0.0
 10
96.01763377690772
 20
-177.3848384232015
 30
0.0
 10
96.79374919419416
 20
-177.3848384232015
 30
0.0
 10
96.79374919419416
 20
-177.3848384232015
 30
0.0
 10
96.79374919419416
 20
-177.3848384232015
 30
0.0
 10
96.79374919419416
 20
-173.3631739107249
 30
0.0
 10
96.79374919419416
 20
-173.3631739107249
 30
0.0
 10
97.21708683379102
 20
-173.2220649528338
 30
0.0
 10
97.85208252726291
 20
-173.1515050909265
 30
0.0
 10
98.5929180135957
 20
-173.1515050909265
 30
0.0
 10
99.65125134666447
 20
-173.1515050909265
 30
0.0
 10
100.4626359289811
 20
-173.6806717574609
 30
0.0
 10
100.4626359289811
 20
-175.0212230063119
 30
0.0
 10
100.4626359289811
 20
-175.0212230063119
 30
0.0
 10
100.4626359289811
 20
-177.3848384232015
 30
0.0
 10
100.4626359289811
 20
-177.3848384232015
 30
0.0
 10
100.4626359289811
 20
-177.3848384232015
 30
0.0
 10
101.3093004422515
 20
-177.3848384232015
 30
0.0
 10
101.3093004422515
 20
-177.3848384232015
 30
0.0
 10
101.3093004422515
 20
-177.3848384232015
 30
0.0
 10
101.3093004422515
 20
-173.3631739107249
 30
0.0
 10
101.3093004422515
 20
-173.3631739107249
 30
0.0
 10
101.7326380818483
 20
-173.2220649528338
 30
0.0
 10
102.3676337753202
 20
-173.1515050909265
 30
0.0
 10
103.108469261653
 20
-173.1515050909265
 30
0.0
 10
103.8493047479858
 20
-173.1515050909265
 30
0.0
 10
104.4137513454738
 20
-173.3984538416786
 30
0.0
 10
104.7312491922098
 20
-173.9628896732432
 30
0.0
 10
104.7665291231634
 20
-173.9981696041968
 30
0.0
 10
104.7665291231634
 20
-174.0334495351505
 30
0.0
 10
104.8018090541171
 20
-174.1039986311343
 30
0.0
 10
104.8018090541171
 20
-174.1039986311343
 30
0.0
 10
104.8370889850707
 20
-174.2098276580719
 30
0.0
 10
104.8370889850707
 20
-174.2098276580719
 30
0.0
 10
104.8370889850707
 20
-174.2098276580719
 30
0.0
 10
104.8370889850707
 20
-171.246496478664
 30
0.0
 10
104.8370889850707
 20
-171.246496478664
 30
0.0
 10
104.8370889850707
 20
-171.246496478664
 30
0.0
 10
89.03264885094671
 20
-171.246496478664
 30
0.0
 10
89.03264885094671
 20
-171.246496478664
 30
0.0
 10
89.03264885094671
 20
-171.246496478664
 30
0.0
 10
89.03264885094671
 20
-173.2573556497108
 30
0.0
 10
89.03264885094671
 20
-173.2573556497108
 30
0.0
 10
89.03264885094671
 20
-173.2573556497108
 30
0.0
 10
88.96207822311605
 20
-173.2573556497108
 30
0.0
 10
88.96207822311605
 20
-173.2573556497108
 30
0.0
  0
ENDBLK
  5
CD
330
CA
100
AcDbEntity
  8
0
100
AcDbBlockEnd
  0
BLOCK
  5
D1
330
CF
100
AcDbEntity
  8
0
100
AcDbBlockBegin
  2
block 11
 70
     0
 10
0.0
 20
0.0
 30
0.0
  3
block 11
  1

  0
POLYLINE
  5
D3
330
CF
100
AcDbEntity
  8
Ebene 1
 62
   250
370
    35
100
AcDb2dPolyline
 66
     1
 10
0.0
 20
0.0
 30
0.0
  0
VERTEX
  5
D4
330
D3
100
AcDbEntity
  8
Ebene 1
 62
   250
370
    35
100
AcDbVertex
100
AcDb2dVertex
 10
88.08013377889209
 20
-171.2465180105108
 30
0.0
  0
VERTEX
  5
D5
330
D3
100
AcDbEntity
  8
Ebene 1
 62
   250
370
    35
100
AcDbVertex
100
AcDb2dVertex
 10
87.02180044582335
 20
-171.2465180105108
 30
0.0
  0
VERTEX
  5
D6
330
D3
100
AcDbEntity
  8
Ebene 1
 62
   250
370
    35
100
AcDbVertex
100
AcDb2dVertex
 10
87.02180044582335
 20
-177.4201291200785
 30
0.0
  0
VERTEX
  5
D7
330
D3
100
AcDbEntity
  8
Ebene 1
 62
   250
370
    35
100
AcDbVertex
100
AcDb2dVertex
 10
88.08013377889209
 20
-177.4201291200785
 30
0.0
  0
VERTEX
  5
D8
330
D3
100
AcDbEntity
  8
Ebene 1
 62
   250
370
    35
100
AcDbVertex
100
AcDb2dVertex
 10
88.08013377889209
 20
-171.2465180105108
 30
0.0
  0
SEQEND
  5
D9
330
D3
100
AcDbEntity
  8
Ebene 1
 62
   250
370
    35
  0
ENDBLK
  5
D2
330
CF
100
AcDbEntity
  8
0
100
AcDbBlockEnd
  0
BLOCK
  5
DC
330
DA
100
AcDbEntity
  8
0
100
AcDbBlockBegin
  2
block 12
 70
     0
 10
0.0
 20
0.0
 30
0.0
  3
block 12
  1

  0
SPLINE
  5
DE
330
DA
100
AcDbEntity
  8
Ebene 1
 62
   250
370
    35
100
AcDbSpline
210
0.0
220
0.0
230
1.0
 70
    11
 71
     3
 72
    20
 73
    16
 74
     0
 42
0.0000000001
 43
0.0000000001
 12
1.0
 22
0.0
 32
0.0
 13
1.0
 23
0.0
 33
0.0
 40
0.0
 40
0.0
 40
0.0
 40
0.0
 40
1.0
 40
1.0
 40
1.0
 40
2.0
 40
2.0
 40
2.0
 40
3.0
 40
3.0
 40
3.0
 40
4.0
 40
4.0
 40
4.0
 40
5.0
 40
5.0
 40
5.0
 40
5.0
 10
95.10040940173012
 20
-176.7851334266066
 30
0.0
 10
95.10040940173012
 20
-176.7851334266066
 30
0.0
 10
95.10040940173012
 20
-175.5504112046931
 30
0.0
 10
95.10040940173012
 20
-175.5504112046931
 30
0.0
 10
93.93624704172386
 20
-175.5504112046931
 30
0.0
 10
93.16013162443741
 20
-175.5856911356467
 30
0.0
 10
93.16013162443741
 20
-176.185406898165
 30
0.0
 10
93.16013162443741
 20
-176.185406898165
 30
0.0
 10
93.16013162443741
 20
-176.2559667600723
 30
0.0
 10
93.16013162443741
 20
-176.2559667600723
 30
0.0
 10
93.16013162443741
 20
-176.7145735646994
 30
0.0
 10
93.58346926403428
 20
-176.8556932885139
 30
0.0
 10
94.14790509559889
 20
-176.8556932885139
 30
0.0
 10
94.57124273519575
 20
-176.8556932885139
 30
0.0
 10
94.81819148594782
 20
-176.8204133575603
 30
0.0
 10
95.10040940173012
 20
-176.7851334266066
 30
0.0
  0
ENDBLK
  5
DD
330
DA
100
AcDbEntity
  8
0
100
AcDbBlockEnd
  0
BLOCK
  5
E1
330
DF
100
AcDbEntity
  8
0
100
AcDbBlockBegin
  2
block 13
 70
     0
 10
0.0
 20
0.0
 30
0.0
  3
block 13
  1

  0
SPLINE
  5
E3
330
DF
100
AcDbEntity
  8
Ebene 1
 62
   250
370
    35
100
AcDbSpline
210
0.0
220
0.0
230
1.0
 70
    11
 71
     3
 72
    17
 73
    13
 74
     0
 42
0.0000000001
 43
0.0000000001
 12
1.0
 22
0.0
 32
0.0
 13
1.0
 23
0.0
 33
0.0
 40
0.0
 40
0.0
 40
0.0
 40
0.0
 40
1.0
 40
1.0
 40
1.0
 40
2.0
 40
2.0
 40
2.0
 40
3.0
 40
3.0
 40
3.0
 40
4.0
 40
4.0
 40
4.0
 40
4.0
 10
112.3512513434895
 20
-173.9981911360436
 30
0.0
 10
112.3159714125358
 20
-173.645413358354
 30
0.0
 10
112.1748624546447
 20
-173.2926355806644
 30
0.0
 10
111.9279137038926
 20
-173.0104176648821
 30
0.0
 10
111.9279137038926
 20
-173.0104176648821
 30
0.0
 10
108.9998624554384
 20
-173.0104176648821
 30
0.0
 10
108.9998624554384
 20
-173.0104176648821
 30
0.0
 10
108.78819363564
 20
-173.2926355806644
 30
0.0
 10
108.6118047467952
 20
-173.6101441933238
 30
0.0
 10
108.5765248158416
 20
-173.9981911360436
 30
0.0
 10
108.5765248158416
 20
-173.9981911360436
 30
0.0
 10
112.3512513434895
 20
-173.9981911360436
 30
0.0
 10
112.3512513434895
 20
-173.9981911360436
 30
0.0
  0
ENDBLK
  5
E2
330
DF
100
AcDbEntity
  8
0
100
AcDbBlockEnd
  0
BLOCK
  5
E6
330
E4
100
AcDbEntity
  8
0
100
AcDbBlockBegin
  2
block 14
 70
     0
 10
0.0
 20
0.0
 30
0.0
  3
block 14
  1

  0
SPLINE
  5
E8
330
E4
100
AcDbEntity
  8
Ebene 1
 62
   250
370
    35
100
AcDbSpline
210
0.0
220
0.0
230
1.0
 70
    11
 71
     3
 72
    17
 73
    13
 74
     0
 42
0.0000000001
 43
0.0000000001
 12
1.0
 22
0.0
 32
0.0
 13
1.0
 23
0.0
 33
0.0
 40
0.0
 40
0.0
 40
0.0
 40
0.0
 40
1.0
 40
1.0
 40
1.0
 40
2.0
 40
2.0
 40
2.0
 40
3.0
 40
3.0
 40
3.0
 40
4.0
 40
4.0
 40
4.0
 40
4.0
 10
108.5765248158416
 20
-174.4215180097171
 30
0.0
 10
108.6118047467952
 20
-174.7742957874067
 30
0.0
 10
108.7529137046863
 20
-175.1270735650963
 30
0.0
 10
108.9998624554384
 20
-175.4092914808786
 30
0.0
 10
108.9998624554384
 20
-175.4092914808786
 30
0.0
 10
111.9631936348462
 20
-175.4092914808786
 30
0.0
 10
111.9631936348462
 20
-175.4092914808786
 30
0.0
 10
112.1748624546447
 20
-175.1270735650963
 30
0.0
 10
112.3159714125358
 20
-174.8095649524369
 30
0.0
 10
112.3865312744431
 20
-174.4215180097171
 30
0.0
 10
112.3865312744431
 20
-174.4215180097171
 30
0.0
 10
108.5765248158416
 20
-174.4215180097171
 30
0.0
 10
108.5765248158416
 20
-174.4215180097171
 30
0.0
  0
ENDBLK
  5
E7
330
E4
100
AcDbEntity
  8
0
100
AcDbBlockEnd
  0
ENDSEC
  0
SECTION
  2
ENTITIES
  0
SPLINE
  5
41
330
1F
100
AcDbEntity
  8
Ebene 1
 62
     1
370
    35
100
AcDbSpline
210
0.0
220
0.0
230
1.0
 70
    11
 71
     3
 72
    38
 73
    34
 74
     0
 42
0.0000000001
 43
0.0000000001
 12
1.0
 22
0.0
 32
0.0
 13
1.0
 23
0.0
 33
0.0
 40
0.0
 40
0.0
 40
0.0
 40
0.0
 40
1.0
 40
1.0
 40
1.0
 40
2.0
 40
2.0
 40
2.0
 40
3.0
 40
3.0
 40
3.0
 40
4.0
 40
4.0
 40
4.0
 40
5.0
 40
5.0
 40
5.0
 40
6.0
 40
6.0
 40
6.0
 40
7.0
 40
7.0
 40
7.0
 40
8.0
 40
8.0
 40
8.0
 40
9.0
 40
9.0
 40
9.0
 40
10.0
 40
10.0
 40
10.0
 40
11.0
 40
11.0
 40
11.0
 40
11.0
 10
23.26849788507914
 20
-14.70809779386367
 30
0.0
 10
23.26849788507914
 20
-14.70809779386367
 30
0.0
 10
21.92794663622808
 20
-16.96586265196893
 30
0.0
 10
21.92794663622808
 20
-16.96586265196893
 30
0.0
 10
23.40961760889369
 20
-18.30641390081999
 30
0.0
 10
24.36210038317814
 20
-20.21142251308246
 30
0.0
 10
24.36210038317814
 20
-22.39864904112723
 30
0.0
 10
24.36210038317814
 20
-26.42030278768041
 30
0.0
 10
21.1165620539114
 20
-29.66586264879394
 30
0.0
 10
17.09488677551144
 20
-29.66586264879394
 30
0.0
 10
13.07321149711147
 20
-29.66586264879394
 30
0.0
 10
9.82767316784473
 20
-26.42030278768041
 30
0.0
 10
9.82767316784473
 20
-22.39864904112723
 30
0.0
 10
9.82767316784473
 20
-20.2466916781127
 30
0.0
 10
10.78017747397596
 20
-18.30641390081999
 30
0.0
 10
12.26184844664157
 20
-16.96586265196893
 30
0.0
 10
12.26184844664157
 20
-16.96586265196893
 30
0.0
 10
10.92127566594373
 20
-14.70809779386367
 30
0.0
 10
10.92127566594373
 20
-14.70809779386367
 30
0.0
 10
10.92127566594373
 20
-14.70809779386367
 30
0.0
 10
5.523779973662458
 20
-14.70809779386367
 30
0.0
 10
5.523779973662458
 20
-14.70809779386367
 30
0.0
 10
5.523779973662458
 20
-14.70809779386367
 30
0.0
 10
5.523779973662458
 20
-36.08642250911371
 30
0.0
 10
5.523779973662458
 20
-36.08642250911371
 30
0.0
 10
5.523779973662458
 20
-36.08642250911371
 30
0.0
 10
28.66599357736041
 20
-36.08642250911371
 30
0.0
 10
28.66599357736041
 20
-36.08642250911371
 30
0.0
 10
28.66599357736041
 20
-36.08642250911371
 30
0.0
 10
28.66599357736041
 20
-14.70809779386367
 30
0.0
 10
28.66599357736041
 20
-14.70809779386367
 30
0.0
 10
28.66599357736041
 20
-14.70809779386367
 30
0.0
 10
23.26849788507914
 20
-14.70809779386367
 30
0.0
 10
23.26849788507914
 20
-14.70809779386367
 30
0.0
  0
POLYLINE
  5
42
330
1F
100
AcDbEntity
  8
Ebene 1
 62
     1
370
    35
100
AcDb2dPolyline
 66
     1
 10
0.0
 20
0.0
 30
0.0
  0
VERTEX
  5
43
330
42
100
AcDbEntity
  8
Ebene 1
 62
     1
370
    35
100
AcDbVertex
100
AcDb2dVertex
 10
22.1396262219499
 20
-34.35780278569604
 30
0.0
  0
VERTEX
  5
44
330
42
100
AcDbEntity
  8
Ebene 1
 62
     1
370
    35
100
AcDbVertex
100
AcDb2dVertex
 10
12.05016886091975
 20
-34.35780278569604
 30
0.0
  0
VERTEX
  5
45
330
42
100
AcDbEntity
  8
Ebene 1
 62
     1
370
    35
100
AcDbVertex
100
AcDb2dVertex
 10
12.05016886091975
 20
-31.25336264839706
 30
0.0
  0
VERTEX
  5
46
330
42
100
AcDbEntity
  8
Ebene 1
 62
     1
370
    35
100
AcDbVertex
100
AcDb2dVertex
 10
22.1396262219499
 20
-31.25336264839706
 30
0.0
  0
VERTEX
  5
47
330
42
100
AcDbEntity
  8
Ebene 1
 62
     1
370
    35
100
AcDbVertex
100
AcDb2dVertex
 10
22.1396262219499
 20
-34.35780278569604
 30
0.0
  0
SEQEND
  5
48
330
42
100
AcDbEntity
  8
Ebene 1
 62
     1
370
    35
  0
INSERT
  5
4A
330
1F
100
AcDbEntity
  8
Ebene 1
100
AcDbBlockReference
  2
block 2
 10
0.0
 20
0.0
 30
0.0
  0
INSERT
  5
5D
330
1F
100
AcDbEntity
  8
Ebene 1
100
AcDbBlockReference
  2
block 3
 10
0.0
 20
0.0
 30
0.0
  0
POLYLINE
  5
6F
330
1F
100
AcDbEntity
  8
Ebene 1
 62
     1
370
    40
100
AcDb2dPolyline
 66
     1
 10
0.0
 20
0.0
 30
0.0
  0
VERTEX
  5
70
330
6F
100
AcDbEntity
  8
Ebene 1
 62
     1
370
    40
100
AcDbVertex
100
AcDb2dVertex
 10
154.3735875061657
 20
-67.30058625975906
 30
0.0
  0
VERTEX
  5
71
330
6F
100
AcDbEntity
  8
Ebene 1
 62
     1
370
    40
100
AcDbVertex
100
AcDb2dVertex
 10
154.373458315085
 20
-46.92185599955426
 30
0.0
  0
VERTEX
  5
72
330
6F
100
AcDbEntity
  8
Ebene 1
 62
     1
370
    40
100
AcDbVertex
100
AcDb2dVertex
 10
157.3714880655833
 20
-46.92185599955426
 30
0.0
  0
VERTEX
  5
73
330
6F
100
AcDbEntity
  8
Ebene 1
 62
     1
370
    40
100
AcDbVertex
100
AcDb2dVertex
 10
157.3712081515752
 20
-43.58812322586513
 30
0.0
  0
VERTEX
  5
74
330
6F
100
AcDbEntity
  8
Ebene 1
 62
     1
370
    40
100
AcDbVertex
100
AcDb2dVertex
 10
152.1148106512617
 20
-43.58812322586513
 30
0.0
  0
VERTEX
  5
75
330
6F
100
AcDbEntity
  8
Ebene 1
 62
     1
370
    40
100
AcDbVertex
100
AcDb2dVertex
 10
152.1148106512617
 20
-44.5758966970266
 30
0.0
  0
VERTEX
  5
76
330
6F
100
AcDbEntity
  8
Ebene 1
 62
     1
370
    40
100
AcDbVertex
100
AcDb2dVertex
 10
149.6100970424043
 20
-44.5758966970266
 30
0.0
  0
VERTEX
  5
77
330
6F
100
AcDbEntity
  8
Ebene 1
 62
     1
370
    40
100
AcDbVertex
100
AcDb2dVertex
 10
149.6100970424043
 20
-43.58812322586513
 30
0.0
  0
VERTEX
  5
78
330
6F
100
AcDbEntity
  8
Ebene 1
 62
     1
370
    40
100
AcDbVertex
100
AcDb2dVertex
 10
146.858434682795
 20
-43.58812322586513
 30
0.0
  0
VERTEX
  5
79
330
6F
100
AcDbEntity
  8
Ebene 1
 62
     1
370
    40
100
AcDbVertex
100
AcDb2dVertex
 10
146.858434682795
 20
-40.09561461399954
 30
0.0
  0
VERTEX
  5
7A
330
6F
100
AcDbEntity
  8
Ebene 1
 62
     1
370
    40
100
AcDbVertex
100
AcDb2dVertex
 10
149.6100970424043
 20
-40.09561461399954
 30
0.0
  0
VERTEX
  5
7B
330
6F
100
AcDbEntity
  8
Ebene 1
 62
     1
370
    40
100
AcDbVertex
100
AcDb2dVertex
 10
149.6100970424043
 20
-39.07255044596103
 30
0.0
  0
VERTEX
  5
7C
330
6F
100
AcDbEntity
  8
Ebene 1
 62
     1
370
    40
100
AcDbVertex
100
AcDb2dVertex
 10
152.1148106512617
 20
-39.07255044596103
 30
0.0
  0
VERTEX
  5
7D
330
6F
100
AcDbEntity
  8
Ebene 1
 62
     1
370
    40
100
AcDbVertex
100
AcDb2dVertex
 10
152.1148106512617
 20
-40.09561461399954
 30
0.0
  0
VERTEX
  5
7E
330
6F
100
AcDbEntity
  8
Ebene 1
 62
     1
370
    40
100
AcDbVertex
100
AcDb2dVertex
 10
157.3712081515752
 20
-40.09561461399954
 30
0.0
  0
VERTEX
  5
7F
330
6F
100
AcDbEntity
  8
Ebene 1
 62
     1
370
    40
100
AcDbVertex
100
AcDb2dVertex
 10
157.3714880655833
 20
-36.72656961158659
 30
0.0
  0
VERTEX
  5
80
330
6F
100
AcDbEntity
  8
Ebene 1
 62
     1
370
    40
100
AcDbVertex
100
AcDb2dVertex
 10
154.373458315085
 20
-36.72656961158659
 30
0.0
  0
VERTEX
  5
81
330
6F
100
AcDbEntity
  8
Ebene 1
 62
     1
370
    40
100
AcDbVertex
100
AcDb2dVertex
 10
154.373458315085
 20
-16.72613236750901
 30
0.0
  0
VERTEX
  5
82
330
6F
100
AcDbEntity
  8
Ebene 1
 62
     1
370
    40
100
AcDbVertex
100
AcDb2dVertex
 10
82.05515507659993
 20
-16.72613236750901
 30
0.0
  0
VERTEX
  5
83
330
6F
100
AcDbEntity
  8
Ebene 1
 62
     1
370
    40
100
AcDbVertex
100
AcDb2dVertex
 10
82.05502588551923
 20
-36.72656961158659
 30
0.0
  0
VERTEX
  5
84
330
6F
100
AcDbEntity
  8
Ebene 1
 62
     1
370
    40
100
AcDbVertex
100
AcDb2dVertex
 10
79.05641477515778
 20
-36.72656961158659
 30
0.0
  0
VERTEX
  5
85
330
6F
100
AcDbEntity
  8
Ebene 1
 62
     1
370
    40
100
AcDbVertex
100
AcDb2dVertex
 10
79.05641477515778
 20
-46.92185599955426
 30
0.0
  0
VERTEX
  5
86
330
6F
100
AcDbEntity
  8
Ebene 1
 62
     1
370
    40
100
AcDbVertex
100
AcDb2dVertex
 10
82.05502588551923
 20
-46.92185599955426
 30
0.0
  0
VERTEX
  5
87
330
6F
100
AcDbEntity
  8
Ebene 1
 62
     1
370
    40
100
AcDbVertex
100
AcDb2dVertex
 10
82.05502588551923
 20
-67.30058625975906
 30
0.0
  0
VERTEX
  5
88
330
6F
100
AcDbEntity
  8
Ebene 1
 62
     1
370
    40
100
AcDbVertex
100
AcDb2dVertex
 10
79.05641477515778
 20
-67.30058625975906
 30
0.0
  0
VERTEX
  5
89
330
6F
100
AcDbEntity
  8
Ebene 1
 62
     1
370
    40
100
AcDbVertex
100
AcDb2dVertex
 10
79.05667315731917
 20
-70.6343190334482
 30
0.0
  0
VERTEX
  5
8A
330
6F
100
AcDbEntity
  8
Ebene 1
 62
     1
370
    40
100
AcDbVertex
100
AcDb2dVertex
 10
84.31307065763268
 20
-70.6343190334482
 30
0.0
  0
VERTEX
  5
8B
330
6F
100
AcDbEntity
  8
Ebene 1
 62
     1
370
    40
100
AcDbVertex
100
AcDb2dVertex
 10
84.31307065763268
 20
-69.64654556228672
 30
0.0
  0
VERTEX
  5
8C
330
6F
100
AcDbEntity
  8
Ebene 1
 62
     1
370
    40
100
AcDbVertex
100
AcDb2dVertex
 10
86.81778426649001
 20
-69.64654556228672
 30
0.0
  0
VERTEX
  5
8D
330
6F
100
AcDbEntity
  8
Ebene 1
 62
     1
370
    40
100
AcDbVertex
100
AcDb2dVertex
 10
86.81778426649001
 20
-70.6343190334482
 30
0.0
  0
VERTEX
  5
8E
330
6F
100
AcDbEntity
  8
Ebene 1
 62
     1
370
    40
100
AcDbVertex
100
AcDb2dVertex
 10
89.56944662609939
 20
-70.6343190334482
 30
0.0
  0
VERTEX
  5
8F
330
6F
100
AcDbEntity
  8
Ebene 1
 62
     1
370
    40
100
AcDbVertex
100
AcDb2dVertex
 10
89.56944662609939
 20
-74.12682764531378
 30
0.0
  0
VERTEX
  5
90
330
6F
100
AcDbEntity
  8
Ebene 1
 62
     1
370
    40
100
AcDbVertex
100
AcDb2dVertex
 10
86.81778426649001
 20
-74.12682764531378
 30
0.0
  0
VERTEX
  5
91
330
6F
100
AcDbEntity
  8
Ebene 1
 62
     1
370
    40
100
AcDbVertex
100
AcDb2dVertex
 10
86.81778426649001
 20
-75.14989181335228
 30
0.0
  0
VERTEX
  5
92
330
6F
100
AcDbEntity
  8
Ebene 1
 62
     1
370
    40
100
AcDbVertex
100
AcDb2dVertex
 10
84.31307065763268
 20
-75.14989181335228
 30
0.0
  0
VERTEX
  5
93
330
6F
100
AcDbEntity
  8
Ebene 1
 62
     1
370
    40
100
AcDbVertex
100
AcDb2dVertex
 10
84.31307065763268
 20
-74.12682764531378
 30
0.0
  0
VERTEX
  5
94
330
6F
100
AcDbEntity
  8
Ebene 1
 62
     1
370
    40
100
AcDbVertex
100
AcDb2dVertex
 10
79.05667315731917
 20
-74.12682764531378
 30
0.0
  0
VERTEX
  5
95
330
6F
100
AcDbEntity
  8
Ebene 1
 62
     1
370
    40
100
AcDbVertex
100
AcDb2dVertex
 10
79.05641477515778
 20
-77.49585111587994
 30
0.0
  0
VERTEX
  5
96
330
6F
100
AcDbEntity
  8
Ebene 1
 62
     1
370
    40
100
AcDbVertex
100
AcDb2dVertex
 10
82.05502588551923
 20
-77.49585111587994
 30
0.0
  0
VERTEX
  5
97
330
6F
100
AcDbEntity
  8
Ebene 1
 62
     1
370
    40
100
AcDbVertex
100
AcDb2dVertex
 10
82.05515507659993
 20
-97.49624529626396
 30
0.0
  0
VERTEX
  5
98
330
6F
100
AcDbEntity
  8
Ebene 1
 62
     1
370
    40
100
AcDbVertex
100
AcDb2dVertex
 10
154.373458315085
 20
-97.49624529626396
 30
0.0
  0
VERTEX
  5
99
330
6F
100
AcDbEntity
  8
Ebene 1
 62
     1
370
    40
100
AcDbVertex
100
AcDb2dVertex
 10
154.3735875061657
 20
-77.49585111587994
 30
0.0
  0
VERTEX
  5
9A
330
6F
100
AcDbEntity
  8
Ebene 1
 62
     1
370
    40
100
AcDbVertex
100
AcDb2dVertex
 10
157.3721986165272
 20
-77.49585111587994
 30
0.0
  0
VERTEX
  5
9B
330
6F
100
AcDbEntity
  8
Ebene 1
 62
     1
370
    40
100
AcDbVertex
100
AcDb2dVertex
 10
157.3721986165272
 20
-67.30058625975906
 30
0.0
  0
VERTEX
  5
9C
330
6F
100
AcDbEntity
  8
Ebene 1
 62
     1
370
    40
100
AcDbVertex
100
AcDb2dVertex
 10
154.3735875061657
 20
-67.30058625975906
 30
0.0
  0
SEQEND
  5
9D
330
6F
100
AcDbEntity
  8
Ebene 1
 62
     1
370
    40
  0
SPLINE
  5
9E
330
1F
100
AcDbEntity
  8
Ebene 1
 62
     1
370
    40
100
AcDbSpline
210
0.0
220
0.0
230
1.0
 70
    11
 71
     3
 72
    17
 73
    13
 74
     0
 42
0.0000000001
 43
0.0000000001
 12
1.0
 22
0.0
 32
0.0
 13
1.0
 23
0.0
 33
0.0
 40
0.0
 40
0.0
 40
0.0
 40
0.0
 40
1.0
 40
1.0
 40
1.0
 40
2.0
 40
2.0
 40
2.0
 40
3.0
 40
3.0
 40
3.0
 40
4.0
 40
4.0
 40
4.0
 40
4.0
 10
151.1984583158788
 20
-19.67123683861518
 30
0.0
 10
152.0268745890007
 20
-19.67123683861518
 30
0.0
 10
152.6984528901565
 20
-20.34281513977107
 30
0.0
 10
152.6984528901565
 20
-21.17123141289296
 30
0.0
 10
152.6984528901565
 20
-21.99966921786163
 30
0.0
 10
152.0268745890007
 20
-22.67124751901752
 30
0.0
 10
151.1984583158788
 20
-22.67124751901752
 30
0.0
 10
150.3700205109101
 20
-22.67124751901752
 30
0.0
 10
149.6984422097542
 20
-21.99966921786163
 30
0.0
 10
149.6984422097542
 20
-21.17123141289296
 30
0.0
 10
149.6984422097542
 20
-20.34281513977107
 30
0.0
 10
150.3700205109101
 20
-19.67123683861518
 30
0.0
 10
151.1984583158788
 20
-19.67123683861518
 30
0.0
  0
SPLINE
  5
9F
330
1F
100
AcDbEntity
  8
Ebene 1
 62
     1
370
    40
100
AcDbSpline
210
0.0
220
0.0
230
1.0
 70
    11
 71
     3
 72
    17
 73
    13
 74
     0
 42
0.0000000001
 43
0.0000000001
 12
1.0
 22
0.0
 32
0.0
 13
1.0
 23
0.0
 33
0.0
 40
0.0
 40
0.0
 40
0.0
 40
0.0
 40
1.0
 40
1.0
 40
1.0
 40
2.0
 40
2.0
 40
2.0
 40
3.0
 40
3.0
 40
3.0
 40
4.0
 40
4.0
 40
4.0
 40
4.0
 10
85.30945686750728
 20
-22.67124751901752
 30
0.0
 10
84.4810190625386
 20
-22.67124751901752
 30
0.0
 10
83.8094622932295
 20
-21.99966921786163
 30
0.0
 10
83.8094622932295
 20
-21.17123141289296
 30
0.0
 10
83.8094622932295
 20
-20.34281513977107
 30
0.0
 10
84.4810190625386
 20
-19.67123683861518
 30
0.0
 10
85.30945686750728
 20
-19.67123683861518
 30
0.0
 10
86.13787314062917
 20
-19.67123683861518
 30
0.0
 10
86.80945144178506
 20
-20.34281513977107
 30
0.0
 10
86.80945144178506
 20
-21.17123141289296
 30
0.0
 10
86.80945144178506
 20
-21.99966921786163
 30
0.0
 10
86.13787314062917
 20
-22.67124751901752
 30
0.0
 10
85.30945686750728
 20
-22.67124751901752
 30
0.0
  0
SPLINE
  5
A0
330
1F
100
AcDbEntity
  8
Ebene 1
 62
     1
370
    40
100
AcDbSpline
210
0.0
220
0.0
230
1.0
 70
    11
 71
     3
 72
    17
 73
    13
 74
     0
 42
0.0000000001
 43
0.0000000001
 12
1.0
 22
0.0
 32
0.0
 13
1.0
 23
0.0
 33
0.0
 40
0.0
 40
0.0
 40
0.0
 40
0.0
 40
1.0
 40
1.0
 40
1.0
 40
2.0
 40
2.0
 40
2.0
 40
3.0
 40
3.0
 40
3.0
 40
4.0
 40
4.0
 40
4.0
 40
4.0
 10
85.30945686750728
 20
-94.5512484843917
 30
0.0
 10
84.4810190625386
 20
-94.5512484843917
 30
0.0
 10
83.8094622932295
 20
-93.87967018323582
 30
0.0
 10
83.8094622932295
 20
-93.05123237826714
 30
0.0
 10
83.8094622932295
 20
-92.22281610514526
 30
0.0
 10
84.4810190625386
 20
-91.55123780398937
 30
0.0
 10
85.30945686750728
 20
-91.55123780398937
 30
0.0
 10
86.13787314062917
 20
-91.55123780398937
 30
0.0
 10
86.80945144178506
 20
-92.22281610514526
 30
0.0
 10
86.80945144178506
 20
-93.05123237826714
 30
0.0
 10
86.80945144178506
 20
-93.87967018323582
 30
0.0
 10
86.13787314062917
 20
-94.5512484843917
 30
0.0
 10
85.30945686750728
 20
-94.5512484843917
 30
0.0
  0
SPLINE
  5
A1
330
1F
100
AcDbEntity
  8
Ebene 1
 62
     1
370
    40
100
AcDbSpline
210
0.0
220
0.0
230
1.0
 70
    11
 71
     3
 72
    17
 73
    13
 74
     0
 42
0.0000000001
 43
0.0000000001
 12
1.0
 22
0.0
 32
0.0
 13
1.0
 23
0.0
 33
0.0
 40
0.0
 40
0.0
 40
0.0
 40
0.0
 40
1.0
 40
1.0
 40
1.0
 40
2.0
 40
2.0
 40
2.0
 40
3.0
 40
3.0
 40
3.0
 40
4.0
 40
4.0
 40
4.0
 40
4.0
 10
151.1984583158788
 20
-94.5512484843917
 30
0.0
 10
150.3700205109101
 20
-94.5512484843917
 30
0.0
 10
149.6984422097542
 20
-93.87967018323582
 30
0.0
 10
149.6984422097542
 20
-93.05123237826714
 30
0.0
 10
149.6984422097542
 20
-92.22281610514526
 30
0.0
 10
150.3700205109101
 20
-91.55123780398937
 30
0.0
 10
151.1984583158788
 20
-91.55123780398937
 30
0.0
 10
152.0268745890007
 20
-91.55123780398937
 30
0.0
 10
152.6984528901565
 20
-92.22281610514526
 30
0.0
 10
152.6984528901565
 20
-93.05123237826714
 30
0.0
 10
152.6984528901565
 20
-93.87967018323582
 30
0.0
 10
152.0268745890007
 20
-94.5512484843917
 30
0.0
 10
151.1984583158788
 20
-94.5512484843917
 30
0.0
  0
MTEXT
  5
A2
330
1F
100
AcDbEntity
  8
Ebene 1
 62
   112
100
AcDbMText
 10
88.50054115626028
 20
-21.69703911132921
 30
0.0
 40
2.9971999992507
 41
0.0
 71
     7
 72
     1
  1
\fDIN Alternate|b1|i0|c0|p34;\W1;Bottom plate^C
 73
     1
 44
1.0
  0
MTEXT
  5
A3
330
1F
100
AcDbEntity
  8
Ebene 1
 62
   112
100
AcDbMText
 10
88.50054115626028
 20
-26.77700465910436
 30
0.0
 40
2.9971999992507
 41
0.0
 71
     7
 72
     1
  1
\fDIN Alternate|b1|i0|c0|p34;\W1;M3x10mm + 3mm Spacer + PCB
 73
     1
 44
1.0
  0
MTEXT
  5
A4
330
1F
100
AcDbEntity
  8
Ebene 1
 62
   112
100
AcDbMText
 10
10.03485798055064
 20
-152.9202739757131
 30
0.0
 40
2.9971999992507
 41
0.0
 71
     7
 72
     1
  1
\fDIN Alternate|b1|i0|c0|p34;\W1;Top Plate^C
 73
     1
 44
1.0
  0
MTEXT
  5
A5
330
1F
100
AcDbEntity
  8
Ebene 1
 62
   112
100
AcDbMText
 10
10.03485798055064
 20
-158.0002395234882
 30
0.0
 40
2.9971999992507
 41
0.0
 71
     7
 72
     1
  1
\fDIN Alternate|b1|i0|c0|p34;\W1;M3x8mm/10mm
 73
     1
 44
1.0
  0
INSERT
  5
A7
330
1F
100
AcDbEntity
  8
Ebene 1
100
AcDbBlockReference
  2
block 4
 10
0.0
 20
0.0
 30
0.0
  0
INSERT
  5
AC
330
1F
100
AcDbEntity
  8
Ebene 1
100
AcDbBlockReference
  2
block 5
 10
0.0
 20
0.0
 30
0.0
  0
INSERT
  5
B1
330
1F
100
AcDbEntity
  8
Ebene 1
100
AcDbBlockReference
  2
block 6
 10
0.0
 20
0.0
 30
0.0
  0
INSERT
  5
B6
330
1F
100
AcDbEntity
  8
Ebene 1
100
AcDbBlockReference
  2
block 7
 10
0.0
 20
0.0
 30
0.0
  0
INSERT
  5
C1
330
1F
100
AcDbEntity
  8
Ebene 1
100
AcDbBlockReference
  2
block 8
 10
0.0
 20
0.0
 30
0.0
  0
INSERT
  5
C6
330
1F
100
AcDbEntity
  8
Ebene 1
100
AcDbBlockReference
  2
block 9
 10
0.0
 20
0.0
 30
0.0
  0
INSERT
  5
CB
330
1F
100
AcDbEntity
  8
Ebene 1
100
AcDbBlockReference
  2
block 10
 10
0.0
 20
0.0
 30
0.0
  0
INSERT
  5
D0
330
1F
100
AcDbEntity
  8
Ebene 1
100
AcDbBlockReference
  2
block 11
 10
0.0
 20
0.0
 30
0.0
  0
INSERT
  5
DB
330
1F
100
AcDbEntity
  8
Ebene 1
100
AcDbBlockReference
  2
block 12
 10
0.0
 20
0.0
 30
0.0
  0
INSERT
  5
E0
330
1F
100
AcDbEntity
  8
Ebene 1
100
AcDbBlockReference
  2
block 13
 10
0.0
 20
0.0
 30
0.0
  0
INSERT
  5
E5
330
1F
100
AcDbEntity
  8
Ebene 1
100
AcDbBlockReference
  2
block 14
 10
0.0
 20
0.0
 30
0.0
  0
SPLINE
  5
E9
330
1F
100
AcDbEntity
  8
Ebene 1
 62
     1
370
    35
100
AcDbSpline
210
0.0
220
0.0
230
1.0
 70
    11
 71
     3
 72
    74
 73
    70
 74
     0
 42
0.0000000001
 43
0.0000000001
 12
1.0
 22
0.0
 32
0.0
 13
1.0
 23
0.0
 33
0.0
 40
0.0
 40
0.0
 40
0.0
 40
0.0
 40
1.0
 40
1.0
 40
1.0
 40
2.0
 40
2.0
 40
2.0
 40
3.0
 40
3.0
 40
3.0
 40
4.0
 40
4.0
 40
4.0
 40
5.0
 40
5.0
 40
5.0
 40
6.0
 40
6.0
 40
6.0
 40
7.0
 40
7.0
 40
7.0
 40
8.0
 40
8.0
 40
8.0
 40
9.0
 40
9.0
 40
9.0
 40
10.0
 40
10.0
 40
10.0
 40
11.0
 40
11.0
 40
11.0
 40
12.0
 40
12.0
 40
12.0
 40
13.0
 40
13.0
 40
13.0
 40
14.0
 40
14.0
 40
14.0
 40
15.0
 40
15.0
 40
15.0
 40
16.0
 40
16.0
 40
16.0
 40
17.0
 40
17.0
 40
17.0
 40
18.0
 40
18.0
 40
18.0
 40
19.0
 40
19.0
 40
19.0
 40
20.0
 40
20.0
 40
20.0
 40
21.0
 40
21.0
 40
21.0
 40
22.0
 40
22.0
 40
22.0
 40
23.0
 40
23.0
 40
23.0
 40
23.0
 10
109.4584617086346
 20
-125.2795798821035
 30
0.0
 10
109.4584617086346
 20
-125.2795798821035
 30
0.0
 10
107.2006968505294
 20
-129.0895755747817
 30
0.0
 10
107.2006968505294
 20
-129.0895755747817
 30
0.0
 10
108.1884703216909
 20
-130.0773490459432
 30
0.0
 10
108.8234660151628
 20
-131.4531909916712
 30
0.0
 10
108.8234660151628
 20
-132.9701311293671
 30
0.0
 10
108.8234660151628
 20
-136.0040114047588
 30
0.0
 10
106.3540215713357
 20
-138.4734558485859
 30
0.0
 10
103.320141295944
 20
-138.4734558485859
 30
0.0
 10
100.2862394887055
 20
-138.4734558485859
 30
0.0
 10
97.8167950448784
 20
-136.0040114047588
 30
0.0
 10
97.8167950448784
 20
-132.9701311293671
 30
0.0
 10
97.8167950448784
 20
-131.4531909916712
 30
0.0
 10
98.41652157332004
 20
-130.0773490459432
 30
0.0
 10
99.43958574135856
 20
-129.0895755747817
 30
0.0
 10
99.43958574135856
 20
-129.0895755747817
 30
0.0
 10
97.1588894664296
 20
-125.2795798821035
 30
0.0
 10
97.1588894664296
 20
-125.2795798821035
 30
0.0
 10
97.1588894664296
 20
-125.2795798821035
 30
0.0
 10
84.11332486058726
 20
-125.2795798821035
 30
0.0
 10
84.11332486058726
 20
-125.2795798821035
 30
0.0
 10
84.11332486058726
 20
-125.2795798821035
 30
0.0
 10
84.11332486058726
 20
-117.3290315849375
 30
0.0
 10
84.11332486058726
 20
-117.3290315849375
 30
0.0
 10
84.11332486058726
 20
-117.3290315849375
 30
0.0
 10
67.11332893384767
 20
-117.3290315849375
 30
0.0
 10
67.11332893384767
 20
-117.3290315849375
 30
0.0
 10
67.11332893384767
 20
-117.3290315849375
 30
0.0
 10
67.10168020473816
 20
-114.3290209045352
 30
0.0
 10
67.10168020473816
 20
-114.3290209045352
 30
0.0
 10
67.10168020473816
 20
-114.3290209045352
 30
0.0
 10
57.10166613524381
 20
-114.3290209045352
 30
0.0
 10
57.10166613524381
 20
-114.3290209045352
 30
0.0
 10
57.10166613524381
 20
-114.3290209045352
 30
0.0
 10
57.10166613524381
 20
-105.3290319270217
 30
0.0
 10
57.10166613524381
 20
-105.3290319270217
 30
0.0
 10
57.10166613524381
 20
-105.3290319270217
 30
0.0
 10
67.10168020473816
 20
-105.3290319270217
 30
0.0
 10
67.10168020473816
 20
-105.3290319270217
 30
0.0
 10
67.10168020473816
 20
-105.3290319270217
 30
0.0
 10
67.11332893384767
 20
-102.3290212466194
 30
0.0
 10
67.11332893384767
 20
-102.3290212466194
 30
0.0
 10
67.11332893384767
 20
-102.3290212466194
 30
0.0
 10
84.11332486058726
 20
-102.3290212466194
 30
0.0
 10
84.11332486058726
 20
-102.3290212466194
 30
0.0
 10
84.11332486058726
 20
-102.3290212466194
 30
0.0
 10
84.11332486058726
 20
-98.35891474126424
 30
0.0
 10
84.11332486058726
 20
-98.35891474126424
 30
0.0
 10
84.11332486058726
 20
-98.35891474126424
 30
0.0
 10
1.795330530309541
 20
-98.35891474126424
 30
0.0
 10
1.795330530309541
 20
-98.35891474126424
 30
0.0
 10
1.795330530309541
 20
-98.35891474126424
 30
0.0
 10
1.795330530309541
 20
-179.1290276700195
 30
0.0
 10
1.795330530309541
 20
-179.1290276700195
 30
0.0
 10
1.795330530309541
 20
-179.1290276700195
 30
0.0
 10
80.61347388896873
 20
-179.1290276700195
 30
0.0
 10
80.61347388896873
 20
-179.1290276700195
 30
0.0
 10
80.61347388896873
 20
-179.1290276700195
 30
0.0
 10
80.61347388896873
 20
-179.1840200067028
 30
0.0
 10
80.61347388896873
 20
-179.1840200067028
 30
0.0
 10
80.61347388896873
 20
-179.1840200067028
 30
0.0
 10
114.8559789327627
 20
-179.1840200067028
 30
0.0
 10
114.8559789327627
 20
-179.1840200067028
 30
0.0
 10
114.8559789327627
 20
-179.1840200067028
 30
0.0
 10
114.8559789327627
 20
-125.2795798821035
 30
0.0
 10
114.8559789327627
 20
-125.2795798821035
 30
0.0
 10
114.8559789327627
 20
-125.2795798821035
 30
0.0
 10
109.4584617086346
 20
-125.2795798821035
 30
0.0
 10
109.4584617086346
 20
-125.2795798821035
 30
0.0
  0
POLYLINE
  5
EA
330
1F
100
AcDbEntity
  8
Ebene 1
 62
     1
370
    35
100
AcDb2dPolyline
 66
     1
 10
0.0
 20
0.0
 30
0.0
  0
VERTEX
  5
EB
330
EA
100
AcDbEntity
  8
Ebene 1
 62
     1
370
    35
100
AcDbVertex
100
AcDb2dVertex
 10
6.77935016882048
 20
-159.1285473622484
 30
0.0
  0
VERTEX
  5
EC
330
EA
100
AcDbEntity
  8
Ebene 1
 62
     1
370
    35
100
AcDbVertex
100
AcDb2dVertex
 10
3.779339488418139
 20
-159.1285473622484
 30
0.0
  0
VERTEX
  5
ED
330
EA
100
AcDbEntity
  8
Ebene 1
 62
     1
370
    35
100
AcDbVertex
100
AcDb2dVertex
 10
3.779339488418139
 20
-148.9285454998353
 30
0.0
  0
VERTEX
  5
EE
330
EA
100
AcDbEntity
  8
Ebene 1
 62
     1
370
    35
100
AcDbVertex
100
AcDb2dVertex
 10
6.77935016882048
 20
-148.9285454998353
 30
0.0
  0
VERTEX
  5
EF
330
EA
100
AcDbEntity
  8
Ebene 1
 62
     1
370
    35
100
AcDbVertex
100
AcDb2dVertex
 10
6.77935016882048
 20
-159.1285473622484
 30
0.0
  0
SEQEND
  5
F0
330
EA
100
AcDbEntity
  8
Ebene 1
 62
     1
370
    35
  0
POLYLINE
  5
F1
330
1F
100
AcDbEntity
  8
Ebene 1
 62
     1
370
    35
100
AcDb2dPolyline
 66
     1
 10
0.0
 20
0.0
 30
0.0
  0
VERTEX
  5
F2
330
F1
100
AcDbEntity
  8
Ebene 1
 62
     1
370
    35
100
AcDbVertex
100
AcDb2dVertex
 10
22.29526355605478
 20
-105.3290319270217
 30
0.0
  0
VERTEX
  5
F3
330
F1
100
AcDbEntity
  8
Ebene 1
 62
     1
370
    35
100
AcDbVertex
100
AcDb2dVertex
 10
28.29526338501269
 20
-105.3290319270217
 30
0.0
  0
VERTEX
  5
F4
330
F1
100
AcDbEntity
  8
Ebene 1
 62
     1
370
    35
100
AcDbVertex
100
AcDb2dVertex
 10
28.29526338501269
 20
-114.3290209045352
 30
0.0
  0
VERTEX
  5
F5
330
F1
100
AcDbEntity
  8
Ebene 1
 62
     1
370
    35
100
AcDbVertex
100
AcDb2dVertex
 10
22.29526355605478
 20
-114.3290209045352
 30
0.0
  0
VERTEX
  5
F6
330
F1
100
AcDbEntity
  8
Ebene 1
 62
     1
370
    35
100
AcDbVertex
100
AcDb2dVertex
 10
22.29526355605478
 20
-105.3290319270217
 30
0.0
  0
SEQEND
  5
F7
330
F1
100
AcDbEntity
  8
Ebene 1
 62
     1
370
    35
  0
POLYLINE
  5
F8
330
1F
100
AcDbEntity
  8
Ebene 1
 62
     1
370
    35
100
AcDb2dPolyline
 66
     1
 10
0.0
 20
0.0
 30
0.0
  0
VERTEX
  5
F9
330
F8
100
AcDbEntity
  8
Ebene 1
 62
     1
370
    35
100
AcDbVertex
100
AcDb2dVertex
 10
32.75547778683817
 20
-171.4990239759092
 30
0.0
  0
VERTEX
  5
FA
330
F8
100
AcDbEntity
  8
Ebene 1
 62
     1
370
    35
100
AcDbVertex
100
AcDb2dVertex
 10
28.25547253215805
 20
-171.4990239759092
 30
0.0
  0
VERTEX
  5
FB
330
F8
100
AcDbEntity
  8
Ebene 1
 62
     1
370
    35
100
AcDbVertex
100
AcDb2dVertex
 10
28.25547253215805
 20
-166.9990187212291
 30
0.0
  0
VERTEX
  5
FC
330
F8
100
AcDbEntity
  8
Ebene 1
 62
     1
370
    35
100
AcDbVertex
100
AcDb2dVertex
 10
32.75547778683817
 20
-166.9990187212291
 30
0.0
  0
VERTEX
  5
FD
330
F8
100
AcDbEntity
  8
Ebene 1
 62
     1
370
    35
100
AcDbVertex
100
AcDb2dVertex
 10
32.75547778683817
 20
-171.4990239759092
 30
0.0
  0
SEQEND
  5
FE
330
F8
100
AcDbEntity
  8
Ebene 1
 62
     1
370
    35
  0
POLYLINE
  5
FF
330
1F
100
AcDbEntity
  8
Ebene 1
 62
     1
370
    35
100
AcDb2dPolyline
 66
     1
 10
0.0
 20
0.0
 30
0.0
  0
VERTEX
  5
100
330
FF
100
AcDbEntity
  8
Ebene 1
 62
     1
370
    35
100
AcDbVertex
100
AcDb2dVertex
 10
42.75547032448574
 20
-171.4990239759092
 30
0.0
  0
VERTEX
  5
101
330
FF
100
AcDbEntity
  8
Ebene 1
 62
     1
370
    35
100
AcDbVertex
100
AcDb2dVertex
 10
38.25546506980562
 20
-171.4990239759092
 30
0.0
  0
VERTEX
  5
102
330
FF
100
AcDbEntity
  8
Ebene 1
 62
     1
370
    35
100
AcDbVertex
100
AcDb2dVertex
 10
38.25546506980562
 20
-166.9990187212291
 30
0.0
  0
VERTEX
  5
103
330
FF
100
AcDbEntity
  8
Ebene 1
 62
     1
370
    35
100
AcDbVertex
100
AcDb2dVertex
 10
42.75547032448574
 20
-166.9990187212291
 30
0.0
  0
VERTEX
  5
104
330
FF
100
AcDbEntity
  8
Ebene 1
 62
     1
370
    35
100
AcDbVertex
100
AcDb2dVertex
 10
42.75547032448574
 20
-171.4990239759092
 30
0.0
  0
SEQEND
  5
105
330
FF
100
AcDbEntity
  8
Ebene 1
 62
     1
370
    35
  0
POLYLINE
  5
106
330
1F
100
AcDbEntity
  8
Ebene 1
 62
     1
370
    35
100
AcDb2dPolyline
 66
     1
 10
0.0
 20
0.0
 30
0.0
  0
VERTEX
  5
107
330
106
100
AcDbEntity
  8
Ebene 1
 62
     1
370
    35
100
AcDbVertex
100
AcDb2dVertex
 10
43.28498150056864
 20
-114.3290209045352
 30
0.0
  0
VERTEX
  5
108
330
106
100
AcDbEntity
  8
Ebene 1
 62
     1
370
    35
100
AcDbVertex
100
AcDb2dVertex
 10
38.28498523174486
 20
-114.3290209045352
 30
0.0
  0
VERTEX
  5
109
330
106
100
AcDbEntity
  8
Ebene 1
 62
     1
370
    35
100
AcDbVertex
100
AcDb2dVertex
 10
38.28498523174486
 20
-105.3290319270217
 30
0.0
  0
VERTEX
  5
10A
330
106
100
AcDbEntity
  8
Ebene 1
 62
     1
370
    35
100
AcDbVertex
100
AcDb2dVertex
 10
43.28498150056864
 20
-105.3290319270217
 30
0.0
  0
VERTEX
  5
10B
330
106
100
AcDbEntity
  8
Ebene 1
 62
     1
370
    35
100
AcDbVertex
100
AcDb2dVertex
 10
43.28498150056864
 20
-114.3290209045352
 30
0.0
  0
SEQEND
  5
10C
330
106
100
AcDbEntity
  8
Ebene 1
 62
     1
370
    35
  0
POLYLINE
  5
10D
330
1F
100
AcDbEntity
  8
Ebene 1
 62
     1
370
    35
100
AcDb2dPolyline
 66
     1
 10
0.0
 20
0.0
 30
0.0
  0
VERTEX
  5
10E
330
10D
100
AcDbEntity
  8
Ebene 1
 62
     1
370
    35
100
AcDbVertex
100
AcDb2dVertex
 10
52.75546286213331
 20
-171.4990239759092
 30
0.0
  0
VERTEX
  5
10F
330
10D
100
AcDbEntity
  8
Ebene 1
 62
     1
370
    35
100
AcDbVertex
100
AcDb2dVertex
 10
48.25547913929997
 20
-171.4990239759092
 30
0.0
  0
VERTEX
  5
110
330
10D
100
AcDbEntity
  8
Ebene 1
 62
     1
370
    35
100
AcDbVertex
100
AcDb2dVertex
 10
48.25547913929997
 20
-166.9990187212291
 30
0.0
  0
VERTEX
  5
111
330
10D
100
AcDbEntity
  8
Ebene 1
 62
     1
370
    35
100
AcDbVertex
100
AcDb2dVertex
 10
52.75546286213331
 20
-166.9990187212291
 30
0.0
  0
VERTEX
  5
112
330
10D
100
AcDbEntity
  8
Ebene 1
 62
     1
370
    35
100
AcDbVertex
100
AcDb2dVertex
 10
52.75546286213331
 20
-171.4990239759092
 30
0.0
  0
SEQEND
  5
113
330
10D
100
AcDbEntity
  8
Ebene 1
 62
     1
370
    35
  0
POLYLINE
  5
114
330
1F
100
AcDbEntity
  8
Ebene 1
 62
     1
370
    35
100
AcDb2dPolyline
 66
     1
 10
0.0
 20
0.0
 30
0.0
  0
VERTEX
  5
115
330
114
100
AcDbEntity
  8
Ebene 1
 62
     1
370
    35
100
AcDbVertex
100
AcDb2dVertex
 10
73.08307651807571
 20
-171.4990239759092
 30
0.0
  0
VERTEX
  5
116
330
114
100
AcDbEntity
  8
Ebene 1
 62
     1
370
    35
100
AcDbVertex
100
AcDb2dVertex
 10
68.5830712633956
 20
-171.4990239759092
 30
0.0
  0
VERTEX
  5
117
330
114
100
AcDbEntity
  8
Ebene 1
 62
     1
370
    35
100
AcDbVertex
100
AcDb2dVertex
 10
68.5830712633956
 20
-166.9990187212291
 30
0.0
  0
VERTEX
  5
118
330
114
100
AcDbEntity
  8
Ebene 1
 62
     1
370
    35
100
AcDbVertex
100
AcDb2dVertex
 10
73.08307651807571
 20
-166.9990187212291
 30
0.0
  0
VERTEX
  5
119
330
114
100
AcDbEntity
  8
Ebene 1
 62
     1
370
    35
100
AcDbVertex
100
AcDb2dVertex
 10
73.08307651807571
 20
-171.4990239759092
 30
0.0
  0
SEQEND
  5
11A
330
114
100
AcDbEntity
  8
Ebene 1
 62
     1
370
    35
  0
POLYLINE
  5
11B
330
1F
100
AcDbEntity
  8
Ebene 1
 62
     1
370
    35
100
AcDb2dPolyline
 66
     1
 10
0.0
 20
0.0
 30
0.0
  0
VERTEX
  5
11C
330
11B
100
AcDbEntity
  8
Ebene 1
 62
     1
370
    35
100
AcDbVertex
100
AcDb2dVertex
 10
73.08307651807571
 20
-154.1000213964374
 30
0.0
  0
VERTEX
  5
11D
330
11B
100
AcDbEntity
  8
Ebene 1
 62
     1
370
    35
100
AcDbVertex
100
AcDb2dVertex
 10
68.5830712633956
 20
-154.1000213964374
 30
0.0
  0
VERTEX
  5
11E
330
11B
100
AcDbEntity
  8
Ebene 1
 62
     1
370
    35
100
AcDbVertex
100
AcDb2dVertex
 10
68.5830712633956
 20
-149.6000161417572
 30
0.0
  0
VERTEX
  5
11F
330
11B
100
AcDbEntity
  8
Ebene 1
 62
     1
370
    35
100
AcDbVertex
100
AcDb2dVertex
 10
73.08307651807571
 20
-149.6000161417572
 30
0.0
  0
VERTEX
  5
120
330
11B
100
AcDbEntity
  8
Ebene 1
 62
     1
370
    35
100
AcDbVertex
100
AcDb2dVertex
 10
73.08307651807571
 20
-154.1000213964374
 30
0.0
  0
SEQEND
  5
121
330
11B
100
AcDbEntity
  8
Ebene 1
 62
     1
370
    35
  0
POLYLINE
  5
122
330
1F
100
AcDbEntity
  8
Ebene 1
 62
     1
370
    35
100
AcDb2dPolyline
 66
     1
 10
0.0
 20
0.0
 30
0.0
  0
VERTEX
  5
123
330
122
100
AcDbEntity
  8
Ebene 1
 62
     1
370
    35
100
AcDbVertex
100
AcDb2dVertex
 10
73.08307651807571
 20
-143.9790198798704
 30
0.0
  0
VERTEX
  5
124
330
122
100
AcDbEntity
  8
Ebene 1
 62
     1
370
    35
100
AcDbVertex
100
AcDb2dVertex
 10
68.5830712633956
 20
-143.9790198798704
 30
0.0
  0
VERTEX
  5
125
330
122
100
AcDbEntity
  8
Ebene 1
 62
     1
370
    35
100
AcDbVertex
100
AcDb2dVertex
 10
68.5830712633956
 20
-139.47901462519
 30
0.0
  0
VERTEX
  5
126
330
122
100
AcDbEntity
  8
Ebene 1
 62
     1
370
    35
100
AcDbVertex
100
AcDb2dVertex
 10
73.08307651807571
 20
-139.47901462519
 30
0.0
  0
VERTEX
  5
127
330
122
100
AcDbEntity
  8
Ebene 1
 62
     1
370
    35
100
AcDbVertex
100
AcDb2dVertex
 10
73.08307651807571
 20
-143.9790198798704
 30
0.0
  0
SEQEND
  5
128
330
122
100
AcDbEntity
  8
Ebene 1
 62
     1
370
    35
  0
POLYLINE
  5
129
330
1F
100
AcDbEntity
  8
Ebene 1
 62
     1
370
    35
100
AcDb2dPolyline
 66
     1
 10
0.0
 20
0.0
 30
0.0
  0
VERTEX
  5
12A
330
129
100
AcDbEntity
  8
Ebene 1
 62
     1
370
    35
100
AcDbVertex
100
AcDb2dVertex
 10
82.1134684632465
 20
-159.1285473622484
 30
0.0
  0
VERTEX
  5
12B
330
129
100
AcDbEntity
  8
Ebene 1
 62
     1
370
    35
100
AcDbVertex
100
AcDb2dVertex
 10
79.11347931469095
 20
-159.1285473622484
 30
0.0
  0
VERTEX
  5
12C
330
129
100
AcDbEntity
  8
Ebene 1
 62
     1
370
    35
100
AcDbVertex
100
AcDb2dVertex
 10
79.11347931469095
 20
-148.9285454998353
 30
0.0
  0
VERTEX
  5
12D
330
129
100
AcDbEntity
  8
Ebene 1
 62
     1
370
    35
100
AcDbVertex
100
AcDb2dVertex
 10
82.1134684632465
 20
-148.9285454998353
 30
0.0
  0
VERTEX
  5
12E
330
129
100
AcDbEntity
  8
Ebene 1
 62
     1
370
    35
100
AcDbVertex
100
AcDb2dVertex
 10
82.1134684632465
 20
-159.1285473622484
 30
0.0
  0
SEQEND
  5
12F
330
129
100
AcDbEntity
  8
Ebene 1
 62
     1
370
    35
  0
POLYLINE
  5
130
330
1F
100
AcDbEntity
  8
Ebene 1
 62
     1
370
    35
100
AcDb2dPolyline
 66
     1
 10
0.0
 20
0.0
 30
0.0
  0
VERTEX
  5
131
330
130
100
AcDbEntity
  8
Ebene 1
 62
     1
370
    35
100
AcDbVertex
100
AcDb2dVertex
 10
108.4001499074127
 20
-144.929306405783
 30
0.0
  0
VERTEX
  5
132
330
130
100
AcDbEntity
  8
Ebene 1
 62
     1
370
    35
100
AcDbVertex
100
AcDb2dVertex
 10
98.20486351944501
 20
-144.929306405783
 30
0.0
  0
VERTEX
  5
133
330
130
100
AcDbEntity
  8
Ebene 1
 62
     1
370
    35
100
AcDbVertex
100
AcDb2dVertex
 10
98.20486351944501
 20
-141.8248447366372
 30
0.0
  0
VERTEX
  5
134
330
130
100
AcDbEntity
  8
Ebene 1
 62
     1
370
    35
100
AcDbVertex
100
AcDb2dVertex
 10
108.4001499074127
 20
-141.8248447366372
 30
0.0
  0
VERTEX
  5
135
330
130
100
AcDbEntity
  8
Ebene 1
 62
     1
370
    35
100
AcDbVertex
100
AcDb2dVertex
 10
108.4001499074127
 20
-144.929306405783
 30
0.0
  0
SEQEND
  5
136
330
130
100
AcDbEntity
  8
Ebene 1
 62
     1
370
    35
  0
POLYLINE
  5
137
330
1F
100
AcDbEntity
  8
Ebene 1
 62
     1
370
    40
100
AcDb2dPolyline
 66
     1
 10
0.0
 20
0.0
 30
0.0
  0
VERTEX
  5
138
330
137
100
AcDbEntity
  8
Ebene 1
 62
     1
370
    40
100
AcDbVertex
100
AcDb2dVertex
 10
161.3423369866237
 20
-16.72613236692506
 30
0.0
  0
VERTEX
  5
139
330
137
100
AcDbEntity
  8
Ebene 1
 62
     1
370
    40
100
AcDbVertex
100
AcDb2dVertex
 10
161.3421647295791
 20
-67.3005862591751
 30
0.0
  0
VERTEX
  5
13A
330
137
100
AcDbEntity
  8
Ebene 1
 62
     1
370
    40
100
AcDbVertex
100
AcDb2dVertex
 10
158.3435536192177
 20
-67.30058625904067
 30
0.0
  0
VERTEX
  5
13B
330
137
100
AcDbEntity
  8
Ebene 1
 62
     1
370
    40
100
AcDbVertex
100
AcDb2dVertex
 10
158.3438120012276
 20
-70.66960972960685
 30
0.0
  0
VERTEX
  5
13C
330
137
100
AcDbEntity
  8
Ebene 1
 62
     1
370
    40
100
AcDbVertex
100
AcDb2dVertex
 10
163.6002095015411
 20
-70.66960972984266
 30
0.0
  0
VERTEX
  5
13D
330
137
100
AcDbEntity
  8
Ebene 1
 62
     1
370
    40
100
AcDbVertex
100
AcDb2dVertex
 10
163.6002095015873
 20
-69.64654556180416
 30
0.0
  0
VERTEX
  5
13E
330
137
100
AcDbEntity
  8
Ebene 1
 62
     1
370
    40
100
AcDbVertex
100
AcDb2dVertex
 10
166.1049231104446
 20
-69.64654556191678
 30
0.0
  0
VERTEX
  5
13F
330
137
100
AcDbEntity
  8
Ebene 1
 62
     1
370
    40
100
AcDbVertex
100
AcDb2dVertex
 10
166.1049231103984
 20
-70.66960972995528
 30
0.0
  0
VERTEX
  5
140
330
137
100
AcDbEntity
  8
Ebene 1
 62
     1
370
    40
100
AcDbVertex
100
AcDb2dVertex
 10
168.8565854700078
 20
-70.6696097300788
 30
0.0
  0
VERTEX
  5
141
330
137
100
AcDbEntity
  8
Ebene 1
 62
     1
370
    40
100
AcDbVertex
100
AcDb2dVertex
 10
168.8565854698513
 20
-74.16211834194439
 30
0.0
  0
VERTEX
  5
142
330
137
100
AcDbEntity
  8
Ebene 1
 62
     1
370
    40
100
AcDbVertex
100
AcDb2dVertex
 10
166.1049231102419
 20
-74.16211834182087
 30
0.0
  0
VERTEX
  5
143
330
137
100
AcDbEntity
  8
Ebene 1
 62
     1
370
    40
100
AcDbVertex
100
AcDb2dVertex
 10
166.1049231101976
 20
-75.14989181298235
 30
0.0
  0
VERTEX
  5
144
330
137
100
AcDbEntity
  8
Ebene 1
 62
     1
370
    40
100
AcDbVertex
100
AcDb2dVertex
 10
163.6002095013403
 20
-75.14989181286973
 30
0.0
  0
VERTEX
  5
145
330
137
100
AcDbEntity
  8
Ebene 1
 62
     1
370
    40
100
AcDbVertex
100
AcDb2dVertex
 10
163.6002095013845
 20
-74.16211834170825
 30
0.0
  0
VERTEX
  5
146
330
137
100
AcDbEntity
  8
Ebene 1
 62
     1
370
    40
100
AcDbVertex
100
AcDb2dVertex
 10
158.343812001071
 20
-74.16211834147242
 30
0.0
  0
VERTEX
  5
147
330
137
100
AcDbEntity
  8
Ebene 1
 62
     1
370
    40
100
AcDbVertex
100
AcDb2dVertex
 10
158.3435536187601
 20
-77.49585111516157
 30
0.0
  0
VERTEX
  5
148
330
137
100
AcDbEntity
  8
Ebene 1
 62
     1
370
    40
100
AcDbVertex
100
AcDb2dVertex
 10
161.3421647291216
 20
-77.495851115296
 30
0.0
  0
VERTEX
  5
149
330
137
100
AcDbEntity
  8
Ebene 1
 62
     1
370
    40
100
AcDbVertex
100
AcDb2dVertex
 10
161.3423369829975
 20
-97.49624529568001
 30
0.0
  0
VERTEX
  5
14A
330
137
100
AcDbEntity
  8
Ebene 1
 62
     1
370
    40
100
AcDbVertex
100
AcDb2dVertex
 10
186.2539658131178
 20
-97.49568903724034
 30
0.0
  0
VERTEX
  5
14B
330
137
100
AcDbEntity
  8
Ebene 1
 62
     1
370
    40
100
AcDbVertex
100
AcDb2dVertex
 10
228.5902180289253
 20
-73.14522214141195
 30
0.0
  0
VERTEX
  5
14C
330
137
100
AcDbEntity
  8
Ebene 1
 62
     1
370
    40
100
AcDbVertex
100
AcDb2dVertex
 10
187.3563873294617
 20
-1.726132371842833
 30
0.0
  0
VERTEX
  5
14D
330
137
100
AcDbEntity
  8
Ebene 1
 62
     1
370
    40
100
AcDbVertex
100
AcDb2dVertex
 10
161.3423369866237
 20
-16.72613236692506
 30
0.0
  0
SEQEND
  5
14E
330
137
100
AcDbEntity
  8
Ebene 1
 62
     1
370
    40
  0
POLYLINE
  5
14F
330
1F
100
AcDbEntity
  8
Ebene 1
 62
     1
370
    40
100
AcDb2dPolyline
 66
     1
 10
0.0
 20
0.0
 30
0.0
  0
VERTEX
  5
150
330
14F
100
AcDbEntity
  8
Ebene 1
 62
     1
370
    40
100
AcDbVertex
100
AcDb2dVertex
 10
179.8419829758222
 20
-67.29821775685969
 30
0.0
  0
VERTEX
  5
151
330
14F
100
AcDbEntity
  8
Ebene 1
 62
     1
370
    40
100
AcDbVertex
100
AcDb2dVertex
 10
182.8419936562246
 20
-67.29821775699443
 30
0.0
  0
VERTEX
  5
152
330
14F
100
AcDbEntity
  8
Ebene 1
 62
     1
370
    40
100
AcDbVertex
100
AcDb2dVertex
 10
182.8419936557664
 20
-77.49821961940755
 30
0.0
  0
VERTEX
  5
153
330
14F
100
AcDbEntity
  8
Ebene 1
 62
     1
370
    40
100
AcDbVertex
100
AcDb2dVertex
 10
179.841982975364
 20
-77.49821961927279
 30
0.0
  0
VERTEX
  5
154
330
14F
100
AcDbEntity
  8
Ebene 1
 62
     1
370
    40
100
AcDbVertex
100
AcDb2dVertex
 10
179.8419829758222
 20
-67.29821775685969
 30
0.0
  0
SEQEND
  5
155
330
14F
100
AcDbEntity
  8
Ebene 1
 62
     1
370
    40
  0
POLYLINE
  5
156
330
1F
100
AcDbEntity
  8
Ebene 1
 62
     1
370
    40
100
AcDb2dPolyline
 66
     1
 10
0.0
 20
0.0
 30
0.0
  0
VERTEX
  5
157
330
156
100
AcDbEntity
  8
Ebene 1
 62
     1
370
    40
100
AcDbVertex
100
AcDb2dVertex
 10
179.8419829771948
 20
-36.72422264053399
 30
0.0
  0
VERTEX
  5
158
330
156
100
AcDbEntity
  8
Ebene 1
 62
     1
370
    40
100
AcDbVertex
100
AcDb2dVertex
 10
182.8419936575972
 20
-36.72422264066875
 30
0.0
  0
VERTEX
  5
159
330
156
100
AcDbEntity
  8
Ebene 1
 62
     1
370
    40
100
AcDbVertex
100
AcDb2dVertex
 10
182.8419936571396
 20
-46.92422450308186
 30
0.0
  0
VERTEX
  5
15A
330
156
100
AcDbEntity
  8
Ebene 1
 62
     1
370
    40
100
AcDbVertex
100
AcDb2dVertex
 10
179.8419829767373
 20
-46.92422450294711
 30
0.0
  0
VERTEX
  5
15B
330
156
100
AcDbEntity
  8
Ebene 1
 62
     1
370
    40
100
AcDbVertex
100
AcDb2dVertex
 10
179.8419829771948
 20
-36.72422264053399
 30
0.0
  0
SEQEND
  5
15C
330
156
100
AcDbEntity
  8
Ebene 1
 62
     1
370
    40
  0
POLYLINE
  5
15D
330
1F
100
AcDbEntity
  8
Ebene 1
 62
     1
370
    40
100
AcDb2dPolyline
 66
     1
 10
0.0
 20
0.0
 30
0.0
  0
VERTEX
  5
15E
330
15D
100
AcDbEntity
  8
Ebene 1
 62
     1
370
    40
100
AcDbVertex
100
AcDb2dVertex
 10
73.25890677239154
 20
-74.16211834219081
 30
0.0
  0
VERTEX
  5
15F
330
15D
100
AcDbEntity
  8
Ebene 1
 62
     1
370
    40
100
AcDbVertex
100
AcDb2dVertex
 10
73.25890677239154
 20
-75.14989181335228
 30
0.0
  0
VERTEX
  5
160
330
15D
100
AcDbEntity
  8
Ebene 1
 62
     1
370
    40
100
AcDbVertex
100
AcDb2dVertex
 10
70.75419316353421
 20
-75.14989181335228
 30
0.0
  0
VERTEX
  5
161
330
15D
100
AcDbEntity
  8
Ebene 1
 62
     1
370
    40
100
AcDbVertex
100
AcDb2dVertex
 10
70.75419316353421
 20
-74.16211834219081
 30
0.0
  0
VERTEX
  5
162
330
15D
100
AcDbEntity
  8
Ebene 1
 62
     1
370
    40
100
AcDbVertex
100
AcDb2dVertex
 10
68.00253080392481
 20
-74.16211834219081
 30
0.0
  0
VERTEX
  5
163
330
15D
100
AcDbEntity
  8
Ebene 1
 62
     1
370
    40
100
AcDbVertex
100
AcDb2dVertex
 10
68.00253080392481
 20
-70.66960973032522
 30
0.0
  0
VERTEX
  5
164
330
15D
100
AcDbEntity
  8
Ebene 1
 62
     1
370
    40
100
AcDbVertex
100
AcDb2dVertex
 10
70.75419316353421
 20
-70.66960973032522
 30
0.0
  0
VERTEX
  5
165
330
15D
100
AcDbEntity
  8
Ebene 1
 62
     1
370
    40
100
AcDbVertex
100
AcDb2dVertex
 10
70.75419316353421
 20
-69.64654556228672
 30
0.0
  0
VERTEX
  5
166
330
15D
100
AcDbEntity
  8
Ebene 1
 62
     1
370
    40
100
AcDbVertex
100
AcDb2dVertex
 10
73.25890677239154
 20
-69.64654556228672
 30
0.0
  0
VERTEX
  5
167
330
15D
100
AcDbEntity
  8
Ebene 1
 62
     1
370
    40
100
AcDbVertex
100
AcDb2dVertex
 10
73.25890677239154
 20
-70.66960973032522
 30
0.0
  0
VERTEX
  5
168
330
15D
100
AcDbEntity
  8
Ebene 1
 62
     1
370
    40
100
AcDbVertex
100
AcDb2dVertex
 10
78.51530427270504
 20
-70.66960973032522
 30
0.0
  0
VERTEX
  5
169
330
15D
100
AcDbEntity
  8
Ebene 1
 62
     1
370
    40
100
AcDbVertex
100
AcDb2dVertex
 10
78.51556265486643
 20
-67.30058625975906
 30
0.0
  0
VERTEX
  5
16A
330
15D
100
AcDbEntity
  8
Ebene 1
 62
     1
370
    40
100
AcDbVertex
100
AcDb2dVertex
 10
75.51695154450498
 20
-67.30058625975906
 30
0.0
  0
VERTEX
  5
16B
330
15D
100
AcDbEntity
  8
Ebene 1
 62
     1
370
    40
100
AcDbVertex
100
AcDb2dVertex
 10
75.5167792897307
 20
-16.72613236750901
 30
0.0
  0
VERTEX
  5
16C
330
15D
100
AcDbEntity
  8
Ebene 1
 62
     1
370
    40
100
AcDbVertex
100
AcDb2dVertex
 10
49.5027340895285
 20
-1.726122029190865
 30
0.0
  0
VERTEX
  5
16D
330
15D
100
AcDbEntity
  8
Ebene 1
 62
     1
370
    40
100
AcDbVertex
100
AcDb2dVertex
 10
8.268902990895976
 20
-73.1452122823322
 30
0.0
  0
VERTEX
  5
16E
330
15D
100
AcDbEntity
  8
Ebene 1
 62
     1
370
    40
100
AcDbVertex
100
AcDb2dVertex
 10
50.60514311296166
 20
-97.49568546824761
 30
0.0
  0
VERTEX
  5
16F
330
15D
100
AcDbEntity
  8
Ebene 1
 62
     1
370
    40
100
AcDbVertex
100
AcDb2dVertex
 10
75.5167792897307
 20
-97.49624529626396
 30
0.0
  0
VERTEX
  5
170
330
15D
100
AcDbEntity
  8
Ebene 1
 62
     1
370
    40
100
AcDbVertex
100
AcDb2dVertex
 10
75.51695154450498
 20
-77.49585111587994
 30
0.0
  0
VERTEX
  5
171
330
15D
100
AcDbEntity
  8
Ebene 1
 62
     1
370
    40
100
AcDbVertex
100
AcDb2dVertex
 10
78.51556265486643
 20
-77.49585111587994
 30
0.0
  0
VERTEX
  5
172
330
15D
100
AcDbEntity
  8
Ebene 1
 62
     1
370
    40
100
AcDbVertex
100
AcDb2dVertex
 10
78.51530427270504
 20
-74.16211834219081
 30
0.0
  0
VERTEX
  5
173
330
15D
100
AcDbEntity
  8
Ebene 1
 62
     1
370
    40
100
AcDbVertex
100
AcDb2dVertex
 10
73.25890677239154
 20
-74.16211834219081
 30
0.0
  0
SEQEND
  5
174
330
15D
100
AcDbEntity
  8
Ebene 1
 62
     1
370
    40
  0
POLYLINE
  5
175
330
1F
100
AcDbEntity
  8
Ebene 1
 62
     1
370
    40
100
AcDb2dPolyline
 66
     1
 10
0.0
 20
0.0
 30
0.0
  0
VERTEX
  5
176
330
175
100
AcDbEntity
  8
Ebene 1
 62
     1
370
    40
100
AcDbVertex
100
AcDb2dVertex
 10
57.159781783198
 20
-24.47124531452021
 30
0.0
  0
VERTEX
  5
177
330
175
100
AcDbEntity
  8
Ebene 1
 62
     1
370
    40
100
AcDbVertex
100
AcDb2dVertex
 10
68.15977788097969
 20
-24.47124531452021
 30
0.0
  0
VERTEX
  5
178
330
175
100
AcDbEntity
  8
Ebene 1
 62
     1
370
    40
100
AcDbVertex
100
AcDb2dVertex
 10
68.15977788097969
 20
-33.97124683802411
 30
0.0
  0
VERTEX
  5
179
330
175
100
AcDbEntity
  8
Ebene 1
 62
     1
370
    40
100
AcDbVertex
100
AcDb2dVertex
 10
57.159781783198
 20
-33.97124683802411
 30
0.0
  0
VERTEX
  5
17A
330
175
100
AcDbEntity
  8
Ebene 1
 62
     1
370
    40
100
AcDbVertex
100
AcDb2dVertex
 10
57.159781783198
 20
-24.47124531452021
 30
0.0
  0
SEQEND
  5
17B
330
175
100
AcDbEntity
  8
Ebene 1
 62
     1
370
    40
  0
POLYLINE
  5
17C
330
1F
100
AcDbEntity
  8
Ebene 1
 62
     1
370
    40
100
AcDb2dPolyline
 66
     1
 10
0.0
 20
0.0
 30
0.0
  0
VERTEX
  5
17D
330
17C
100
AcDbEntity
  8
Ebene 1
 62
     1
370
    40
100
AcDbVertex
100
AcDb2dVertex
 10
57.01713329826188
 20
-77.49821961902606
 30
0.0
  0
VERTEX
  5
17E
330
17C
100
AcDbEntity
  8
Ebene 1
 62
     1
370
    40
100
AcDbVertex
100
AcDb2dVertex
 10
54.01712261785953
 20
-77.49821961902606
 30
0.0
  0
VERTEX
  5
17F
330
17C
100
AcDbEntity
  8
Ebene 1
 62
     1
370
    40
100
AcDbVertex
100
AcDb2dVertex
 10
54.01712261785953
 20
-67.29821775661294
 30
0.0
  0
VERTEX
  5
180
330
17C
100
AcDbEntity
  8
Ebene 1
 62
     1
370
    40
100
AcDbVertex
100
AcDb2dVertex
 10
57.01713329826188
 20
-67.29821775661294
 30
0.0
  0
VERTEX
  5
181
330
17C
100
AcDbEntity
  8
Ebene 1
 62
     1
370
    40
100
AcDbVertex
100
AcDb2dVertex
 10
57.01713329826188
 20
-77.49821961902606
 30
0.0
  0
SEQEND
  5
182
330
17C
100
AcDbEntity
  8
Ebene 1
 62
     1
370
    40
  0
POLYLINE
  5
183
330
1F
100
AcDbEntity
  8
Ebene 1
 62
     1
370
    40
100
AcDb2dPolyline
 66
     1
 10
0.0
 20
0.0
 30
0.0
  0
VERTEX
  5
184
330
183
100
AcDbEntity
  8
Ebene 1
 62
     1
370
    40
100
AcDbVertex
100
AcDb2dVertex
 10
57.01713329826188
 20
-46.92422450270037
 30
0.0
  0
VERTEX
  5
185
330
183
100
AcDbEntity
  8
Ebene 1
 62
     1
370
    40
100
AcDbVertex
100
AcDb2dVertex
 10
54.01712261785953
 20
-46.92422450270037
 30
0.0
  0
VERTEX
  5
186
330
183
100
AcDbEntity
  8
Ebene 1
 62
     1
370
    40
100
AcDbVertex
100
AcDb2dVertex
 10
54.01712261785953
 20
-36.72422264028726
 30
0.0
  0
VERTEX
  5
187
330
183
100
AcDbEntity
  8
Ebene 1
 62
     1
370
    40
100
AcDbVertex
100
AcDb2dVertex
 10
57.01713329826188
 20
-36.72422264028726
 30
0.0
  0
VERTEX
  5
188
330
183
100
AcDbEntity
  8
Ebene 1
 62
     1
370
    40
100
AcDbVertex
100
AcDb2dVertex
 10
57.01713329826188
 20
-46.92422450270037
 30
0.0
  0
SEQEND
  5
189
330
183
100
AcDbEntity
  8
Ebene 1
 62
     1
370
    40
  0
SPLINE
  5
18A
330
1F
100
AcDbEntity
  8
Ebene 1
 62
     1
370
    40
100
AcDbSpline
210
0.0
220
0.0
230
1.0
 70
    11
 71
     3
 72
    17
 73
    13
 74
     0
 42
0.0000000001
 43
0.0000000001
 12
1.0
 22
0.0
 32
0.0
 13
1.0
 23
0.0
 33
0.0
 40
0.0
 40
0.0
 40
0.0
 40
0.0
 40
1.0
 40
1.0
 40
1.0
 40
2.0
 40
2.0
 40
2.0
 40
3.0
 40
3.0
 40
3.0
 40
4.0
 40
4.0
 40
4.0
 40
4.0
 10
60.15977093175356
 20
-50.66447854364899
 30
0.0
 10
58.502916853663
 20
-50.66447854364899
 30
0.0
 10
57.159781783198
 20
-49.32134347318399
 30
0.0
 10
57.159781783198
 20
-47.66448939509343
 30
0.0
 10
57.159781783198
 20
-46.00763531700287
 30
0.0
 10
58.502916853663
 20
-44.66447871469109
 30
0.0
 10
60.15977093175356
 20
-44.66447871469109
 30
0.0
 10
61.81662500984412
 20
-44.66447871469109
 30
0.0
 10
63.1597816121559
 20
-46.00763531700287
 30
0.0
 10
63.1597816121559
 20
-47.66448939509343
 30
0.0
 10
63.1597816121559
 20
-49.32134347318399
 30
0.0
 10
61.81662500984412
 20
-50.66447854364899
 30
0.0
 10
60.15977093175356
 20
-50.66447854364899
 30
0.0
  0
SPLINE
  5
18B
330
1F
100
AcDbEntity
  8
Ebene 1
 62
     1
370
    35
100
AcDbSpline
210
0.0
220
0.0
230
1.0
 70
    11
 71
     3
 72
    17
 73
    13
 74
     0
 42
0.0000000001
 43
0.0000000001
 12
1.0
 22
0.0
 32
0.0
 13
1.0
 23
0.0
 33
0.0
 40
0.0
 40
0.0
 40
0.0
 40
0.0
 40
1.0
 40
1.0
 40
1.0
 40
2.0
 40
2.0
 40
2.0
 40
3.0
 40
3.0
 40
3.0
 40
4.0
 40
4.0
 40
4.0
 40
4.0
 10
171.7009536313912
 20
-2.713664118341228
 30
0.0
 10
169.9084919822625
 20
-2.713664118341228
 30
0.0
 10
168.4553937702777
 20
-4.166740798479261
 30
0.0
 10
168.4553937702777
 20
-5.959202447607969
 30
0.0
 10
168.4553937702777
 20
-7.751685628583459
 30
0.0
 10
169.9084919822625
 20
-9.204762308721492
 30
0.0
 10
171.7009536313912
 20
-9.204762308721492
 30
0.0
 10
173.4934368123667
 20
-9.204762308721492
 30
0.0
 10
174.9465134925047
 20
-7.751685628583459
 30
0.0
 10
174.9465134925047
 20
-5.959202447607969
 30
0.0
 10
174.9465134925047
 20
-4.166740798479261
 30
0.0
 10
173.4934368123667
 20
-2.713664118341228
 30
0.0
 10
171.7009536313912
 20
-2.713664118341228
 30
0.0
  0
SPLINE
  5
18C
330
1F
100
AcDbEntity
  8
Ebene 1
 62
     1
370
    35
100
AcDbSpline
210
0.0
220
0.0
230
1.0
 70
    11
 71
     3
 72
    17
 73
    13
 74
     0
 42
0.0000000001
 43
0.0000000001
 12
1.0
 22
0.0
 32
0.0
 13
1.0
 23
0.0
 33
0.0
 40
0.0
 40
0.0
 40
0.0
 40
0.0
 40
1.0
 40
1.0
 40
1.0
 40
2.0
 40
2.0
 40
2.0
 40
3.0
 40
3.0
 40
3.0
 40
4.0
 40
4.0
 40
4.0
 40
4.0
 10
171.7009536313912
 20
-7.476164117150604
 30
0.0
 10
170.8631710049188
 20
-7.476164117150604
 30
0.0
 10
170.1840134936953
 20
-6.796985074080381
 30
0.0
 10
170.1840134936953
 20
-5.959202447607969
 30
0.0
 10
170.1840134936953
 20
-5.121419821135556
 30
0.0
 10
170.8631710049188
 20
-4.442262309912117
 30
0.0
 10
171.7009536313912
 20
-4.442262309912117
 30
0.0
 10
172.5387362578636
 20
-4.442262309912117
 30
0.0
 10
173.217893769087
 20
-5.121419821135556
 30
0.0
 10
173.217893769087
 20
-5.959202447607969
 30
0.0
 10
173.217893769087
 20
-6.796985074080381
 30
0.0
 10
172.5387362578636
 20
-7.476164117150604
 30
0.0
 10
171.7009536313912
 20
-7.476164117150604
 30
0.0
  0
SPLINE
  5
18D
330
1F
100
AcDbEntity
  8
Ebene 1
 62
     1
370
    35
100
AcDbSpline
210
0.0
220
0.0
230
1.0
 70
    11
 71
     3
 72
    17
 73
    13
 74
     0
 42
0.0000000001
 43
0.0000000001
 12
1.0
 22
0.0
 32
0.0
 13
1.0
 23
0.0
 33
0.0
 40
0.0
 40
0.0
 40
0.0
 40
0.0
 40
1.0
 40
1.0
 40
1.0
 40
2.0
 40
2.0
 40
2.0
 40
3.0
 40
3.0
 40
3.0
 40
4.0
 40
4.0
 40
4.0
 40
4.0
 10
107.2712427320208
 20
-8.216999603483407
 30
0.0
 10
105.478781082892
 20
-8.216999603483407
 30
0.0
 10
104.0256828709072
 20
-9.67007628362144
 30
0.0
 10
104.0256828709072
 20
-11.46253793275015
 30
0.0
 10
104.0256828709072
 20
-13.25502111372564
 30
0.0
 10
105.478781082892
 20
-14.70809779386367
 30
0.0
 10
107.2712427320208
 20
-14.70809779386367
 30
0.0
 10
109.0637259129962
 20
-14.70809779386367
 30
0.0
 10
110.5168025931343
 20
-13.25502111372564
 30
0.0
 10
110.5168025931343
 20
-11.46253793275015
 30
0.0
 10
110.5168025931343
 20
-9.67007628362144
 30
0.0
 10
109.0637259129962
 20
-8.216999603483407
 30
0.0
 10
107.2712427320208
 20
-8.216999603483407
 30
0.0
  0
SPLINE
  5
18E
330
1F
100
AcDbEntity
  8
Ebene 1
 62
     1
370
    35
100
AcDbSpline
210
0.0
220
0.0
230
1.0
 70
    11
 71
     3
 72
    17
 73
    13
 74
     0
 42
0.0000000001
 43
0.0000000001
 12
1.0
 22
0.0
 32
0.0
 13
1.0
 23
0.0
 33
0.0
 40
0.0
 40
0.0
 40
0.0
 40
0.0
 40
1.0
 40
1.0
 40
1.0
 40
2.0
 40
2.0
 40
2.0
 40
3.0
 40
3.0
 40
3.0
 40
4.0
 40
4.0
 40
4.0
 40
4.0
 10
107.2712427320208
 20
-12.97949960229278
 30
0.0
 10
106.4334601055483
 20
-12.97949960229278
 30
0.0
 10
105.7543025943249
 20
-12.30032055922256
 30
0.0
 10
105.7543025943249
 20
-11.46253793275015
 30
0.0
 10
105.7543025943249
 20
-10.62475530627774
 30
0.0
 10
106.4334601055483
 20
-9.945597795054296
 30
0.0
 10
107.2712427320208
 20
-9.945597795054296
 30
0.0
 10
108.1090253584932
 20
-9.945597795054296
 30
0.0
 10
108.7881828697166
 20
-10.62475530627774
 30
0.0
 10
108.7881828697166
 20
-11.46253793275015
 30
0.0
 10
108.7881828697166
 20
-12.30032055922256
 30
0.0
 10
108.1090253584932
 20
-12.97949960229278
 30
0.0
 10
107.2712427320208
 20
-12.97949960229278
 30
0.0
  0
SPLINE
  5
18F
330
1F
100
AcDbEntity
  8
Ebene 1
 62
     1
370
    35
100
AcDbSpline
210
0.0
220
0.0
230
1.0
 70
    11
 71
     3
 72
    17
 73
    13
 74
     0
 42
0.0000000001
 43
0.0000000001
 12
1.0
 22
0.0
 32
0.0
 13
1.0
 23
0.0
 33
0.0
 40
0.0
 40
0.0
 40
0.0
 40
0.0
 40
1.0
 40
1.0
 40
1.0
 40
2.0
 40
2.0
 40
2.0
 40
3.0
 40
3.0
 40
3.0
 40
4.0
 40
4.0
 40
4.0
 40
4.0
 10
66.15956265486639
 20
-2.713664118341228
 30
0.0
 10
64.36710100573768
 20
-2.713664118341228
 30
0.0
 10
62.91400279375287
 20
-4.166740798479261
 30
0.0
 10
62.91400279375287
 20
-5.959202447607969
 30
0.0
 10
62.91400279375287
 20
-7.751685628583459
 30
0.0
 10
64.36710100573768
 20
-9.204762308721492
 30
0.0
 10
66.15956265486639
 20
-9.204762308721492
 30
0.0
 10
67.95204583584189
 20
-9.204762308721492
 30
0.0
 10
69.40512251597991
 20
-7.751685628583459
 30
0.0
 10
69.40512251597991
 20
-5.959202447607969
 30
0.0
 10
69.40512251597991
 20
-4.166740798479261
 30
0.0
 10
67.95204583584189
 20
-2.713664118341228
 30
0.0
 10
66.15956265486639
 20
-2.713664118341228
 30
0.0
  0
SPLINE
  5
190
330
1F
100
AcDbEntity
  8
Ebene 1
 62
     1
370
    35
100
AcDbSpline
210
0.0
220
0.0
230
1.0
 70
    11
 71
     3
 72
    17
 73
    13
 74
     0
 42
0.0000000001
 43
0.0000000001
 12
1.0
 22
0.0
 32
0.0
 13
1.0
 23
0.0
 33
0.0
 40
0.0
 40
0.0
 40
0.0
 40
0.0
 40
1.0
 40
1.0
 40
1.0
 40
2.0
 40
2.0
 40
2.0
 40
3.0
 40
3.0
 40
3.0
 40
4.0
 40
4.0
 40
4.0
 40
4.0
 10
66.15956265486639
 20
-7.476164117150604
 30
0.0
 10
65.32178002839399
 20
-7.476164117150604
 30
0.0
 10
64.64262251717054
 20
-6.796985074080381
 30
0.0
 10
64.64262251717054
 20
-5.959202447607969
 30
0.0
 10
64.64262251717054
 20
-5.121419821135556
 30
0.0
 10
65.32178002839399
 20
-4.442262309912117
 30
0.0
 10
66.15956265486639
 20
-4.442262309912117
 30
0.0
 10
66.99734528133881
 20
-4.442262309912117
 30
0.0
 10
67.67650279256225
 20
-5.121419821135556
 30
0.0
 10
67.67650279256225
 20
-5.959202447607969
 30
0.0
 10
67.67650279256225
 20
-6.796985074080381
 30
0.0
 10
66.99734528133881
 20
-7.476164117150604
 30
0.0
 10
66.15956265486639
 20
-7.476164117150604
 30
0.0
  0
SPLINE
  5
191
330
1F
100
AcDbEntity
  8
Ebene 1
 62
     1
370
    35
100
AcDbSpline
210
0.0
220
0.0
230
1.0
 70
    11
 71
     3
 72
    17
 73
    13
 74
     0
 42
0.0000000001
 43
0.0000000001
 12
1.0
 22
0.0
 32
0.0
 13
1.0
 23
0.0
 33
0.0
 40
0.0
 40
0.0
 40
0.0
 40
0.0
 40
1.0
 40
1.0
 40
1.0
 40
2.0
 40
2.0
 40
2.0
 40
3.0
 40
3.0
 40
3.0
 40
4.0
 40
4.0
 40
4.0
 40
4.0
 10
99.54541155380355
 20
-8.216999603483407
 30
0.0
 10
97.75294990467485
 20
-8.216999603483407
 30
0.0
 10
96.29985169269003
 20
-9.67007628362144
 30
0.0
 10
96.29985169269003
 20
-11.46253793275015
 30
0.0
 10
96.29985169269003
 20
-13.25502111372564
 30
0.0
 10
97.75294990467485
 20
-14.70809779386367
 30
0.0
 10
99.54541155380355
 20
-14.70809779386367
 30
0.0
 10
101.337894734779
 20
-14.70809779386367
 30
0.0
 10
102.7909714149171
 20
-13.25502111372564
 30
0.0
 10
102.7909714149171
 20
-11.46253793275015
 30
0.0
 10
102.7909714149171
 20
-9.67007628362144
 30
0.0
 10
101.337894734779
 20
-8.216999603483407
 30
0.0
 10
99.54541155380355
 20
-8.216999603483407
 30
0.0
  0
SPLINE
  5
192
330
1F
100
AcDbEntity
  8
Ebene 1
 62
     1
370
    35
100
AcDbSpline
210
0.0
220
0.0
230
1.0
 70
    11
 71
     3
 72
    17
 73
    13
 74
     0
 42
0.0000000001
 43
0.0000000001
 12
1.0
 22
0.0
 32
0.0
 13
1.0
 23
0.0
 33
0.0
 40
0.0
 40
0.0
 40
0.0
 40
0.0
 40
1.0
 40
1.0
 40
1.0
 40
2.0
 40
2.0
 40
2.0
 40
3.0
 40
3.0
 40
3.0
 40
4.0
 40
4.0
 40
4.0
 40
4.0
 10
99.54541155380355
 20
-12.97949960229278
 30
0.0
 10
98.70762892733114
 20
-12.97949960229278
 30
0.0
 10
98.0284714161077
 20
-12.30032055922256
 30
0.0
 10
98.0284714161077
 20
-11.46253793275015
 30
0.0
 10
98.0284714161077
 20
-10.62475530627774
 30
0.0
 10
98.70762892733114
 20
-9.945597795054296
 30
0.0
 10
99.54541155380355
 20
-9.945597795054296
 30
0.0
 10
100.383194180276
 20
-9.945597795054296
 30
0.0
 10
101.0623516914994
 20
-10.62475530627774
 30
0.0
 10
101.0623516914994
 20
-11.46253793275015
 30
0.0
 10
101.0623516914994
 20
-12.30032055922256
 30
0.0
 10
100.383194180276
 20
-12.97949960229278
 30
0.0
 10
99.54541155380355
 20
-12.97949960229278
 30
0.0
  0
SPLINE
  5
193
330
1F
100
AcDbEntity
  8
Ebene 1
 62
     1
370
    35
100
AcDbSpline
210
0.0
220
0.0
230
1.0
 70
    11
 71
     3
 72
    53
 73
    49
 74
     0
 42
0.0000000001
 43
0.0000000001
 12
1.0
 22
0.0
 32
0.0
 13
1.0
 23
0.0
 33
0.0
 40
0.0
 40
0.0
 40
0.0
 40
0.0
 40
1.0
 40
1.0
 40
1.0
 40
2.0
 40
2.0
 40
2.0
 40
3.0
 40
3.0
 40
3.0
 40
4.0
 40
4.0
 40
4.0
 40
5.0
 40
5.0
 40
5.0
 40
6.0
 40
6.0
 40
6.0
 40
7.0
 40
7.0
 40
7.0
 40
8.0
 40
8.0
 40
8.0
 40
9.0
 40
9.0
 40
9.0
 40
10.0
 40
10.0
 40
10.0
 40
11.0
 40
11.0
 40
11.0
 40
12.0
 40
12.0
 40
12.0
 40
13.0
 40
13.0
 40
13.0
 40
14.0
 40
14.0
 40
14.0
 40
15.0
 40
15.0
 40
15.0
 40
16.0
 40
16.0
 40
16.0
 40
16.0
 10
79.64266073812658
 20
-115.8458194391216
 30
0.0
 10
79.64266073812658
 20
-115.9869391629362
 30
0.0
 10
80.10126754275369
 20
-115.9869391629362
 30
0.0
 10
80.63043420928805
 20
-115.9869391629362
 30
0.0
 10
81.15960087582243
 20
-115.9869391629362
 30
0.0
 10
81.61820768044954
 20
-115.9869391629362
 30
0.0
 10
81.61820768044954
 20
-115.8458194391216
 30
0.0
 10
81.61820768044954
 20
-115.8458194391216
 30
0.0
 10
86.23960948729115
 20
-115.8458194391216
 30
0.0
 10
86.23960948729115
 20
-115.8458194391216
 30
0.0
 10
86.23960948729115
 20
-115.8458194391216
 30
0.0
 10
86.23960948729115
 20
-118.3505545798257
 30
0.0
 10
86.23960948729115
 20
-118.3505545798257
 30
0.0
 10
86.23960948729115
 20
-118.3505545798257
 30
0.0
 10
86.23960948729115
 20
-123.3600033293872
 30
0.0
 10
86.23960948729115
 20
-123.3600033293872
 30
0.0
 10
86.23960948729115
 20
-123.3600033293872
 30
0.0
 10
111.2868101714048
 20
-123.3600033293872
 30
0.0
 10
111.2868101714048
 20
-123.3600033293872
 30
0.0
 10
111.2868101714048
 20
-123.3600033293872
 30
0.0
 10
111.2868101714048
 20
-98.34805027845701
 30
0.0
 10
111.2868101714048
 20
-98.34805027845701
 30
0.0
 10
111.2868101714048
 20
-98.34805027845701
 30
0.0
 10
86.27487865232139
 20
-98.34805027845701
 30
0.0
 10
86.27487865232139
 20
-98.34805027845701
 30
0.0
 10
86.27487865232139
 20
-98.34805027845701
 30
0.0
 10
86.27487865232139
 20
-103.3574990280185
 30
0.0
 10
86.27487865232139
 20
-103.3574990280185
 30
0.0
 10
86.27487865232139
 20
-103.3574990280185
 30
0.0
 10
86.27487865232139
 20
-105.8622126368758
 30
0.0
 10
86.27487865232139
 20
-105.8622126368758
 30
0.0
 10
86.27487865232139
 20
-105.8622126368758
 30
0.0
 10
81.65347684547979
 20
-105.8622126368758
 30
0.0
 10
81.65347684547979
 20
-105.8622126368758
 30
0.0
 10
81.65347684547979
 20
-105.7210929130612
 30
0.0
 10
81.19487004085268
 20
-105.7210929130612
 30
0.0
 10
80.66570337431831
 20
-105.7210929130612
 30
0.0
 10
80.13653670778393
 20
-105.7210929130612
 30
0.0
 10
79.67792990315682
 20
-105.7210929130612
 30
0.0
 10
79.67792990315682
 20
-105.8622126368758
 30
0.0
 10
79.67792990315682
 20
-105.8622126368758
 30
0.0
 10
79.11347253974543
 20
-105.8622126368758
 30
0.0
 10
79.11347253974543
 20
-105.8622126368758
 30
0.0
 10
79.11347253974543
 20
-105.8622126368758
 30
0.0
 10
79.11347253974543
 20
-115.8458194391216
 30
0.0
 10
79.11347253974543
 20
-115.8458194391216
 30
0.0
 10
79.11347253974543
 20
-115.8458194391216
 30
0.0
 10
79.64266073812658
 20
-115.8458194391216
 30
0.0
 10
79.64266073812658
 20
-115.8458194391216
 30
0.0
  0
POLYLINE
  5
194
330
1F
100
AcDbEntity
  8
Ebene 1
 62
     1
370
    35
100
AcDb2dPolyline
 66
     1
 10
0.0
 20
0.0
 30
0.0
  0
VERTEX
  5
195
330
194
100
AcDbEntity
  8
Ebene 1
 62
     1
370
    35
100
AcDbVertex
100
AcDb2dVertex
 10
101.3032033691589
 20
-100.32359722078
 30
0.0
  0
VERTEX
  5
196
330
194
100
AcDbEntity
  8
Ebene 1
 62
     1
370
    35
100
AcDbVertex
100
AcDb2dVertex
 10
106.2773829536901
 20
-100.32359722078
 30
0.0
  0
VERTEX
  5
197
330
194
100
AcDbEntity
  8
Ebene 1
 62
     1
370
    35
100
AcDbVertex
100
AcDb2dVertex
 10
106.2773829536901
 20
-103.3222083311414
 30
0.0
  0
VERTEX
  5
198
330
194
100
AcDbEntity
  8
Ebene 1
 62
     1
370
    35
100
AcDbVertex
100
AcDb2dVertex
 10
101.3032033691589
 20
-103.3222083311414
 30
0.0
  0
VERTEX
  5
199
330
194
100
AcDbEntity
  8
Ebene 1
 62
     1
370
    35
100
AcDbVertex
100
AcDb2dVertex
 10
101.3032033691589
 20
-100.32359722078
 30
0.0
  0
SEQEND
  5
19A
330
194
100
AcDbEntity
  8
Ebene 1
 62
     1
370
    35
  0
POLYLINE
  5
19B
330
1F
100
AcDbEntity
  8
Ebene 1
 62
     1
370
    35
100
AcDb2dPolyline
 66
     1
 10
0.0
 20
0.0
 30
0.0
  0
VERTEX
  5
19C
330
19B
100
AcDbEntity
  8
Ebene 1
 62
     1
370
    35
100
AcDbVertex
100
AcDb2dVertex
 10
101.3032033691589
 20
-118.3152638829487
 30
0.0
  0
VERTEX
  5
19D
330
19B
100
AcDbEntity
  8
Ebene 1
 62
     1
370
    35
100
AcDbVertex
100
AcDb2dVertex
 10
106.2773829536901
 20
-118.3152638829487
 30
0.0
  0
VERTEX
  5
19E
330
19B
100
AcDbEntity
  8
Ebene 1
 62
     1
370
    35
100
AcDbVertex
100
AcDb2dVertex
 10
106.2773829536901
 20
-121.3491441583404
 30
0.0
  0
VERTEX
  5
19F
330
19B
100
AcDbEntity
  8
Ebene 1
 62
     1
370
    35
100
AcDbVertex
100
AcDb2dVertex
 10
101.3032033691589
 20
-121.3491441583404
 30
0.0
  0
VERTEX
  5
1A0
330
19B
100
AcDbEntity
  8
Ebene 1
 62
     1
370
    35
100
AcDbVertex
100
AcDb2dVertex
 10
101.3032033691589
 20
-118.3152638829487
 30
0.0
  0
SEQEND
  5
1A1
330
19B
100
AcDbEntity
  8
Ebene 1
 62
     1
370
    35
  0
POLYLINE
  5
1A2
330
1F
100
AcDbEntity
  8
Ebene 1
 62
     1
370
    35
100
AcDb2dPolyline
 66
     1
 10
0.0
 20
0.0
 30
0.0
  0
VERTEX
  5
1A3
330
1A2
100
AcDbEntity
  8
Ebene 1
 62
     1
370
    35
100
AcDbVertex
100
AcDb2dVertex
 10
91.28432740188283
 20
-100.32359722078
 30
0.0
  0
VERTEX
  5
1A4
330
1A2
100
AcDbEntity
  8
Ebene 1
 62
     1
370
    35
100
AcDbVertex
100
AcDb2dVertex
 10
96.2937546195975
 20
-100.32359722078
 30
0.0
  0
VERTEX
  5
1A5
330
1A2
100
AcDbEntity
  8
Ebene 1
 62
     1
370
    35
100
AcDbVertex
100
AcDb2dVertex
 10
96.2937546195975
 20
-103.3222083311414
 30
0.0
  0
VERTEX
  5
1A6
330
1A2
100
AcDbEntity
  8
Ebene 1
 62
     1
370
    35
100
AcDbVertex
100
AcDb2dVertex
 10
91.28432740188283
 20
-103.3222083311414
 30
0.0
  0
VERTEX
  5
1A7
330
1A2
100
AcDbEntity
  8
Ebene 1
 62
     1
370
    35
100
AcDbVertex
100
AcDb2dVertex
 10
91.28432740188283
 20
-100.32359722078
 30
0.0
  0
SEQEND
  5
1A8
330
1A2
100
AcDbEntity
  8
Ebene 1
 62
     1
370
    35
  0
POLYLINE
  5
1A9
330
1F
100
AcDbEntity
  8
Ebene 1
 62
     1
370
    35
100
AcDb2dPolyline
 66
     1
 10
0.0
 20
0.0
 30
0.0
  0
VERTEX
  5
1AA
330
1A9
100
AcDbEntity
  8
Ebene 1
 62
     1
370
    35
100
AcDbVertex
100
AcDb2dVertex
 10
91.28432740188283
 20
-118.3152638829487
 30
0.0
  0
VERTEX
  5
1AB
330
1A9
100
AcDbEntity
  8
Ebene 1
 62
     1
370
    35
100
AcDbVertex
100
AcDb2dVertex
 10
96.2937546195975
 20
-118.3152638829487
 30
0.0
  0
VERTEX
  5
1AC
330
1A9
100
AcDbEntity
  8
Ebene 1
 62
     1
370
    35
100
AcDbVertex
100
AcDb2dVertex
 10
96.2937546195975
 20
-121.3491441583404
 30
0.0
  0
VERTEX
  5
1AD
330
1A9
100
AcDbEntity
  8
Ebene 1
 62
     1
370
    35
100
AcDbVertex
100
AcDb2dVertex
 10
91.28432740188283
 20
-121.3491441583404
 30
0.0
  0
VERTEX
  5
1AE
330
1A9
100
AcDbEntity
  8
Ebene 1
 62
     1
370
    35
100
AcDbVertex
100
AcDb2dVertex
 10
91.28432740188283
 20
-118.3152638829487
 30
0.0
  0
SEQEND
  5
1AF
330
1A9
100
AcDbEntity
  8
Ebene 1
 62
     1
370
    35
  0
POLYLINE
  5
1B0
330
1F
100
AcDbEntity
  8
Ebene 1
 62
   112
370
    35
100
AcDb2dPolyline
 66
     1
 10
0.0
 20
0.0
 30
0.0
  0
VERTEX
  5
1B1
330
1B0
100
AcDbEntity
  8
Ebene 1
 62
   112
370
    35
100
AcDbVertex
100
AcDb2dVertex
 10
78.51556265486643
 20
-41.88722672001365
 30
0.0
  0
VERTEX
  5
1B2
330
1B0
100
AcDbEntity
  8
Ebene 1
 62
   112
370
    35
100
AcDbVertex
100
AcDb2dVertex
 10
58.32565473153612
 20
-41.88722672001365
 30
0.0
  0
SEQEND
  5
1B3
330
1B0
100
AcDbEntity
  8
Ebene 1
 62
   112
370
    35
  0
POLYLINE
  5
1B4
330
1F
100
AcDbEntity
  8
Ebene 1
 62
   112
370
    35
100
AcDb2dPolyline
 66
     1
 10
0.0
 20
0.0
 30
0.0
  0
VERTEX
  5
1B5
330
1B4
100
AcDbEntity
  8
Ebene 1
 62
   112
370
    35
100
AcDbVertex
100
AcDb2dVertex
 10
78.51556265486643
 20
-72.50004868377525
 30
0.0
  0
VERTEX
  5
1B6
330
1B4
100
AcDbEntity
  8
Ebene 1
 62
   112
370
    35
100
AcDbVertex
100
AcDb2dVertex
 10
58.32565473153612
 20
-72.50004868377525
 30
0.0
  0
SEQEND
  5
1B7
330
1B4
100
AcDbEntity
  8
Ebene 1
 62
   112
370
    35
  0
POLYLINE
  5
1B8
330
1F
100
AcDbEntity
  8
Ebene 1
 62
   112
370
    35
100
AcDb2dPolyline
 66
     1
 10
0.0
 20
0.0
 30
0.0
  0
VERTEX
  5
1B9
330
1B8
100
AcDbEntity
  8
Ebene 1
 62
   112
370
    35
100
AcDbVertex
100
AcDb2dVertex
 10
178.5503477319433
 20
-41.88722672001365
 30
0.0
  0
VERTEX
  5
1BA
330
1B8
100
AcDbEntity
  8
Ebene 1
 62
   112
370
    35
100
AcDbVertex
100
AcDb2dVertex
 10
158.3604398086127
 20
-41.88722672001365
 30
0.0
  0
SEQEND
  5
1BB
330
1B8
100
AcDbEntity
  8
Ebene 1
 62
   112
370
    35
  0
POLYLINE
  5
1BC
330
1F
100
AcDbEntity
  8
Ebene 1
 62
   112
370
    35
100
AcDb2dPolyline
 66
     1
 10
0.0
 20
0.0
 30
0.0
  0
VERTEX
  5
1BD
330
1BC
100
AcDbEntity
  8
Ebene 1
 62
   112
370
    35
100
AcDbVertex
100
AcDb2dVertex
 10
178.5503477319433
 20
-72.50004868377525
 30
0.0
  0
VERTEX
  5
1BE
330
1BC
100
AcDbEntity
  8
Ebene 1
 62
   112
370
    35
100
AcDbVertex
100
AcDb2dVertex
 10
158.3604398086127
 20
-72.50004868377525
 30
0.0
  0
SEQEND
  5
1BF
330
1BC
100
AcDbEntity
  8
Ebene 1
 62
   112
370
    35
  0
POLYLINE
  5
1C0
330
1F
100
AcDbEntity
  8
Ebene 1
 62
   112
370
    35
100
AcDb2dPolyline
 66
     1
 10
0.0
 20
0.0
 30
0.0
  0
VERTEX
  5
1C1
330
1C0
100
AcDbEntity
  8
Ebene 1
 62
   112
370
    35
100
AcDbVertex
100
AcDb2dVertex
 10
67.14074284601239
 20
-141.5751341404686
 30
0.0
  0
VERTEX
  5
1C2
330
1C0
100
AcDbEntity
  8
Ebene 1
 62
   112
370
    35
100
AcDbVertex
100
AcDb2dVertex
 10
61.10135513507713
 20
-141.5751341404686
 30
0.0
  0
SEQEND
  5
1C3
330
1C0
100
AcDbEntity
  8
Ebene 1
 62
   112
370
    35
  0
MTEXT
  5
1C4
330
1F
100
AcDbEntity
  8
Ebene 1
 62
   112
100
AcDbMText
 10
35.43356606339367
 20
-142.7526243859614
 30
0.0
 40
2.9971999992507
 41
0.0
 71
     7
 72
     1
  1
\fDIN Alternate|b1|i0|c0|p34;\W1;6x Button Cap
 73
     1
 44
1.0
  0
ENDSEC
  0
SECTION
  2
OBJECTS
  0
DICTIONARY
  5
C
330
0
100
AcDbDictionary
281
     1
  3
ACAD_GROUP
350
D
  3
ACAD_LAYOUT
350
1A
  3
ACAD_MATERIAL
350
3B
  3
ACAD_MLEADERSTYLE
350
1EC
  3
ACAD_MLINESTYLE
350
17
  3
ACAD_PLOTSETTINGS
350
19
  3
ACAD_PLOTSTYLENAME
350
E
  3
ACAD_TABLESTYLE
350
1EB
  3
ACAD_VISUALSTYLE
350
2A
  0
DICTIONARY
  5
D
102
{ACAD_REACTORS
330
C
102
}
330
C
100
AcDbDictionary
281
     1
  0
DICTIONARY
  5
1A
102
{ACAD_REACTORS
330
C
102
}
330
C
100
AcDbDictionary
281
     1
  3
Layout1
350
1E
  3
Layout2
350
26
  3
Model
350
22
  0
DICTIONARY
  5
3B
102
{ACAD_REACTORS
330
C
102
}
330
C
100
AcDbDictionary
281
     1
  3
ByBlock
350
3D
  3
ByLayer
350
3C
  3
Global
350
3E
  0
DICTIONARY
  5
1EC
102
{ACAD_REACTORS
330
C
102
}
330
C
100
AcDbDictionary
281
     1
  0
DICTIONARY
  5
17
102
{ACAD_REACTORS
330
C
102
}
330
C
100
AcDbDictionary
281
     1
  3
Standard
350
18
  0
DICTIONARY
  5
19
102
{ACAD_REACTORS
330
C
102
}
330
C
100
AcDbDictionary
281
     1
  0
ACDBDICTIONARYWDFLT
  5
E
102
{ACAD_REACTORS
330
C
102
}
330
C
100
AcDbDictionary
281
     1
  3
Normal
350
F
100
AcDbDictionaryWithDefault
340
F
  0
DICTIONARY
  5
1EB
102
{ACAD_REACTORS
330
C
102
}
330
C
100
AcDbDictionary
281
     1
  0
DICTIONARY
  5
2A
102
{ACAD_REACTORS
330
C
102
}
330
C
100
AcDbDictionary
281
     1
  3
2dWireframe
350
2F
  3
3D Hidden
350
31
  3
3dWireframe
350
30
  3
Basic
350
32
  3
Brighten
350
36
  3
ColorChange
350
3A
  3
Conceptual
350
34
  3
Dim
350
35
  3
Facepattern
350
39
  3
Flat
350
2B
  3
FlatWithEdges
350
2C
  3
Gouraud
350
2D
  3
GouraudWithEdges
350
2E
  3
Linepattern
350
38
  3
Realistic
350
33
  3
Thicken
350
37
  0
LAYOUT
  5
1E
102
{ACAD_REACTORS
330
1A
102
}
330
1A
100
AcDbPlotSettings
  1

  2
none_device
  4

  6

 40
0.0
 41
0.0
 42
0.0
 43
0.0
 44
0.0
 45
0.0
 46
0.0
 47
0.0
 48
0.0
 49
0.0
140
0.0
141
0.0
142
1.0
143
1.0
 70
   688
 72
     0
 73
     0
 74
     5
  7

 75
    16
 76
     0
 77
     2
 78
   300
147
1.0
148
0.0
149
0.0
100
AcDbLayout
  1
Layout1
 70
     1
 71
     1
 10
0.0
 20
0.0
 11
12.0
 21
9.0
 12
0.0
 22
0.0
 32
0.0
 14
1.000000000000000E+20
 24
1.000000000000000E+20
 34
1.000000000000000E+20
 15
-1.000000000000000E+20
 25
-1.000000000000000E+20
 35
-1.000000000000000E+20
146
0.0
 13
0.0
 23
0.0
 33
0.0
 16
1.0
 26
0.0
 36
0.0
 17
0.0
 27
1.0
 37
0.0
 76
     0
330
1B
  0
LAYOUT
  5
26
102
{ACAD_REACTORS
330
1A
102
}
330
1A
100
AcDbPlotSettings
  1

  2
none_device
  4

  6

 40
0.0
 41
0.0
 42
0.0
 43
0.0
 44
0.0
 45
0.0
 46
0.0
 47
0.0
 48
0.0
 49
0.0
140
0.0
141
0.0
142
1.0
143
1.0
 70
   688
 72
     0
 73
     0
 74
     5
  7

 75
    16
 76
     0
 77
     2
 78
   300
147
1.0
148
0.0
149
0.0
100
AcDbLayout
  1
Layout2
 70
     1
 71
     2
 10
0.0
 20
0.0
 11
0.0
 21
0.0
 12
0.0
 22
0.0
 32
0.0
 14
0.0
 24
0.0
 34
0.0
 15
0.0
 25
0.0
 35
0.0
146
0.0
 13
0.0
 23
0.0
 33
0.0
 16
1.0
 26
0.0
 36
0.0
 17
0.0
 27
1.0
 37
0.0
 76
     0
330
23
  0
LAYOUT
  5
22
102
{ACAD_REACTORS
330
1A
102
}
330
1A
100
AcDbPlotSettings
  1

  2
none_device
  4

  6

 40
0.0
 41
0.0
 42
0.0
 43
0.0
 44
0.0
 45
0.0
 46
0.0
 47
0.0
 48
0.0
 49
0.0
140
0.0
141
0.0
142
1.0
143
1.0
 70
  1712
 72
     0
 73
     0
 74
     0
  7

 75
     0
 76
     0
 77
     2
 78
   300
147
1.0
148
0.0
149
0.0
100
AcDbLayout
  1
Model
 70
     1
 71
     0
 10
0.0
 20
0.0
 11
12.0
 21
9.0
 12
0.0
 22
0.0
 32
0.0
 14
1.000000000000000E+20
 24
1.000000000000000E+20
 34
1.000000000000000E+20
 15
-1.000000000000000E+20
 25
-1.000000000000000E+20
 35
-1.000000000000000E+20
146
0.0
 13
0.0
 23
0.0
 33
0.0
 16
1.0
 26
0.0
 36
0.0
 17
0.0
 27
1.0
 37
0.0
 76
     0
330
1F
331
29
  0
MATERIAL
  5
3D
102
{ACAD_REACTORS
330
3B
102
}
102
{ACAD_XDICTIONARY
360
1E7
102
}
330
3B
100
AcDbMaterial
  1
ByBlock
  0
MATERIAL
  5
3C
102
{ACAD_REACTORS
330
3B
102
}
102
{ACAD_XDICTIONARY
360
1E5
102
}
330
3B
100
AcDbMaterial
  1
ByLayer
  0
MATERIAL
  5
3E
102
{ACAD_REACTORS
330
3B
102
}
102
{ACAD_XDICTIONARY
360
1E9
102
}
330
3B
100
AcDbMaterial
  1
Global
  0
MLINESTYLE
  5
18
102
{ACAD_REACTORS
330
17
102
}
330
17
100
AcDbMlineStyle
  2
Standard
 70
     0
  3

 62
   256
 51
90.0
 52
90.0
 71
     2
 49
0.5
 62
   256
  6
BYLAYER
 49
-0.5
 62
   256
  6
BYLAYER
  0
ACDBPLACEHOLDER
  5
F
102
{ACAD_REACTORS
330
E
102
}
330
E
  0
VISUALSTYLE
  5
2F
102
{ACAD_REACTORS
330
2A
102
}
102
{ACAD_XDICTIONARY
360
1CD
102
}
330
2A
100
AcDbVisualStyle
  2
2dWireframe
 70
     4
 71
     0
 72
     2
 73
     0
 90
        0
 40
-0.6
 41
-30.0
 62
     5
 63
     7
421
 16777215
 74
     1
 91
        4
 64
     7
 65
   257
 75
     1
175
     1
 42
1.0
 92
        0
 66
   257
 43
1.0
 76
     1
 77
     6
 78
     2
 67
     7
 79
     5
170
     0
171
     0
290
     0
174
     0
 93
        1
 44
0.0
173
     0
291
     0
 45
0.0
1001
ACAD
1000
AcDbSavedByObjectVersion
1070
     0
  0
VISUALSTYLE
  5
31
102
{ACAD_REACTORS
330
2A
102
}
102
{ACAD_XDICTIONARY
360
1D1
102
}
330
2A
100
AcDbVisualStyle
  2
3D Hidden
 70
     6
 71
     1
 72
     2
 73
     2
 90
        0
 40
-0.6
 41
-30.0
 62
     5
 63
     7
421
 16777215
 74
     2
 91
        2
 64
     7
 65
   257
 75
     2
175
     1
 42
40.0
 92
        0
 66
   257
 43
1.0
 76
     1
 77
     6
 78
     2
 67
     7
 79
     3
170
     0
171
     0
290
     0
174
     0
 93
        1
 44
0.0
173
     0
291
     0
 45
0.0
1001
ACAD
1000
AcDbSavedByObjectVersion
1070
     0
  0
VISUALSTYLE
  5
30
102
{ACAD_REACTORS
330
2A
102
}
102
{ACAD_XDICTIONARY
360
1CF
102
}
330
2A
100
AcDbVisualStyle
  2
3dWireframe
 70
     5
 71
     0
 72
     2
 73
     0
 90
        0
 40
-0.6
 41
-30.0
 62
     5
 63
     7
421
 16777215
 74
     1
 91
        4
 64
     7
 65
   257
 75
     1
175
     1
 42
1.0
 92
        0
 66
   257
 43
1.0
 76
     1
 77
     6
 78
     2
 67
     7
 79
     5
170
     0
171
     0
290
     0
174
     0
 93
        1
 44
0.0
173
     0
291
     0
 45
0.0
1001
ACAD
1000
AcDbSavedByObjectVersion
1070
     0
  0
VISUALSTYLE
  5
32
102
{ACAD_REACTORS
330
2A
102
}
102
{ACAD_XDICTIONARY
360
1D3
102
}
330
2A
100
AcDbVisualStyle
  2
Basic
 70
     7
 71
     1
 72
     0
 73
     1
 90
        0
 40
-0.6
 41
-30.0
 62
     5
 63
     7
421
 16777215
 74
     0
 91
        4
 64
     7
 65
   257
 75
     1
175
     1
 42
1.0
 92
        8
 66
     7
 43
1.0
 76
     1
 77
     6
 78
     2
 67
     7
 79
     5
170
     0
171
     0
290
     0
174
     0
 93
        1
 44
0.0
173
     0
291
     1
 45
0.0
1001
ACAD
1000
AcDbSavedByObjectVersion
1070
     0
  0
VISUALSTYLE
  5
36
102
{ACAD_REACTORS
330
2A
102
}
102
{ACAD_XDICTIONARY
360
1DB
102
}
330
2A
100
AcDbVisualStyle
  2
Brighten
 70
    12
 71
     2
 72
     2
 73
     0
 90
        0
 40
-0.6
 41
-30.0
 62
     5
 63
     7
421
 16777215
 74
     1
 91
        4
 64
     7
 65
   257
 75
     1
175
     1
 42
1.0
 92
        8
 66
     7
 43
1.0
 76
     1
 77
     6
 78
     2
 67
     7
 79
     5
170
     0
171
     0
290
     0
174
     0
 93
        1
 44
50.0
173
     0
291
     1
 45
0.0
1001
ACAD
1000
AcDbSavedByObjectVersion
1070
     0
  0
VISUALSTYLE
  5
3A
102
{ACAD_REACTORS
330
2A
102
}
102
{ACAD_XDICTIONARY
360
1E3
102
}
330
2A
100
AcDbVisualStyle
  2
ColorChange
 70
    16
 71
     2
 72
     2
 73
     3
 90
        0
 40
-0.6
 41
-30.0
 62
     5
 63
     8
421
  8421504
 74
     1
 91
        4
 64
     7
 65
   257
 75
     1
175
     1
 42
1.0
 92
        8
 66
     8
424
  8421504
 43
1.0
 76
     1
 77
     6
 78
     2
 67
     7
 79
     5
170
     0
171
     0
290
     0
174
     0
 93
        1
 44
0.0
173
     0
291
     1
 45
0.0
1001
ACAD
1000
AcDbSavedByObjectVersion
1070
     0
  0
VISUALSTYLE
  5
34
102
{ACAD_REACTORS
330
2A
102
}
102
{ACAD_XDICTIONARY
360
1D7
102
}
330
2A
100
AcDbVisualStyle
  2
Conceptual
 70
     9
 71
     3
 72
     2
 73
     0
 90
        0
 40
-0.6
 41
-30.0
 62
     5
 63
     7
421
 16777215
 74
     2
 91
        2
 64
     7
 65
   257
 75
     1
175
     1
 42
40.0
 92
        8
 66
     7
 43
1.0
 76
     1
 77
     6
 78
     2
 67
     7
 79
     3
170
     0
171
     0
290
     0
174
     0
 93
        1
 44
0.0
173
     0
291
     0
 45
0.0
1001
ACAD
1000
AcDbSavedByObjectVersion
1070
     0
  0
VISUALSTYLE
  5
35
102
{ACAD_REACTORS
330
2A
102
}
102
{ACAD_XDICTIONARY
360
1D9
102
}
330
2A
100
AcDbVisualStyle
  2
Dim
 70
    11
 71
     2
 72
     2
 73
     0
 90
        0
 40
-0.6
 41
-30.0
 62
     5
 63
     7
421
 16777215
 74
     1
 91
        4
 64
     7
 65
   257
 75
     1
175
     1
 42
1.0
 92
        8
 66
     7
 43
1.0
 76
     1
 77
     6
 78
     2
 67
     7
 79
     5
170
     0
171
     0
290
     0
174
     0
 93
        1
 44
-50.0
173
     0
291
     1
 45
0.0
1001
ACAD
1000
AcDbSavedByObjectVersion
1070
     0
  0
VISUALSTYLE
  5
39
102
{ACAD_REACTORS
330
2A
102
}
102
{ACAD_XDICTIONARY
360
1E1
102
}
330
2A
100
AcDbVisualStyle
  2
Facepattern
 70
    15
 71
     2
 72
     2
 73
     0
 90
        0
 40
-0.6
 41
-30.0
 62
     5
 63
     7
421
 16777215
 74
     1
 91
        4
 64
     7
 65
   257
 75
     1
175
     1
 42
1.0
 92
        8
 66
     7
 43
1.0
 76
     1
 77
     6
 78
     2
 67
     7
 79
     5
170
     0
171
     0
290
     0
174
     0
 93
        1
 44
0.0
173
     0
291
     1
 45
0.0
1001
ACAD
1000
AcDbSavedByObjectVersion
1070
     0
  0
VISUALSTYLE
  5
2B
102
{ACAD_REACTORS
330
2A
102
}
102
{ACAD_XDICTIONARY
360
1C5
102
}
330
2A
100
AcDbVisualStyle
  2
Flat
 70
     0
 71
     2
 72
     1
 73
     1
 90
        2
 40
-0.6
 41
30.0
 62
     5
 63
     7
421
 16777215
 74
     0
 91
        4
 64
     7
 65
   257
 75
     1
175
     1
 42
1.0
 92
        8
 66
     7
 43
1.0
 76
     1
 77
     6
 78
     2
 67
     7
 79
     5
170
     0
171
     0
290
     0
174
     0
 93
       13
 44
0.0
173
     0
291
     1
 45
0.0
1001
ACAD
1000
AcDbSavedByObjectVersion
1070
     0
  0
VISUALSTYLE
  5
2C
102
{ACAD_REACTORS
330
2A
102
}
102
{ACAD_XDICTIONARY
360
1C7
102
}
330
2A
100
AcDbVisualStyle
  2
FlatWithEdges
 70
     1
 71
     2
 72
     1
 73
     1
 90
        2
 40
-0.6
 41
30.0
 62
     5
 63
     7
421
 16777215
 74
     1
 91
        4
 64
     7
 65
   257
 75
     1
175
     1
 42
1.0
 92
        0
 66
   257
 43
1.0
 76
     1
 77
     6
 78
     2
 67
     7
 79
     5
170
     0
171
     0
290
     0
174
     0
 93
       13
 44
0.0
173
     0
291
     1
 45
0.0
1001
ACAD
1000
AcDbSavedByObjectVersion
1070
     0
  0
VISUALSTYLE
  5
2D
102
{ACAD_REACTORS
330
2A
102
}
102
{ACAD_XDICTIONARY
360
1C9
102
}
330
2A
100
AcDbVisualStyle
  2
Gouraud
 70
     2
 71
     2
 72
     2
 73
     1
 90
        2
 40
-0.6
 41
30.0
 62
     5
 63
     7
421
 16777215
 74
     0
 91
        4
 64
     7
 65
   257
 75
     1
175
     1
 42
1.0
 92
        0
 66
     7
 43
1.0
 76
     1
 77
     6
 78
     2
 67
     7
 79
     5
170
     0
171
     0
290
     0
174
     0
 93
       13
 44
0.0
173
     0
291
     1
 45
0.0
1001
ACAD
1000
AcDbSavedByObjectVersion
1070
     0
  0
VISUALSTYLE
  5
2E
102
{ACAD_REACTORS
330
2A
102
}
102
{ACAD_XDICTIONARY
360
1CB
102
}
330
2A
100
AcDbVisualStyle
  2
GouraudWithEdges
 70
     3
 71
     2
 72
     2
 73
     1
 90
        2
 40
-0.6
 41
30.0
 62
     5
 63
     7
421
 16777215
 74
     1
 91
        4
 64
     7
 65
   257
 75
     1
175
     1
 42
1.0
 92
        0
 66
   257
 43
1.0
 76
     1
 77
     6
 78
     2
 67
     7
 79
     5
170
     0
171
     0
290
     0
174
     0
 93
       13
 44
0.0
173
     0
291
     1
 45
0.0
1001
ACAD
1000
AcDbSavedByObjectVersion
1070
     0
  0
VISUALSTYLE
  5
38
102
{ACAD_REACTORS
330
2A
102
}
102
{ACAD_XDICTIONARY
360
1DF
102
}
330
2A
100
AcDbVisualStyle
  2
Linepattern
 70
    14
 71
     2
 72
     2
 73
     0
 90
        0
 40
-0.6
 41
-30.0
 62
     5
 63
     7
421
 16777215
 74
     1
 91
        4
 64
     7
 65
   257
 75
     7
175
     7
 42
1.0
 92
        8
 66
     7
 43
1.0
 76
     1
 77
     6
 78
     2
 67
     7
 79
     5
170
     0
171
     0
290
     0
174
     0
 93
        1
 44
0.0
173
     0
291
     1
 45
0.0
1001
ACAD
1000
AcDbSavedByObjectVersion
1070
     0
  0
VISUALSTYLE
  5
33
102
{ACAD_REACTORS
330
2A
102
}
102
{ACAD_XDICTIONARY
360
1D5
102
}
330
2A
100
AcDbVisualStyle
  2
Realistic
 70
     8
 71
     2
 72
     2
 73
     0
 90
        0
 40
-0.6
 41
-30.0
 62
     5
 63
     7
421
 16777215
 74
     1
 91
        0
 64
     7
 65
   257
 75
     1
175
     1
 42
1.0
 92
        8
 66
     8
424
  7895160
 43
1.0
 76
     1
 77
     6
 78
     2
 67
     7
 79
     5
170
     0
171
     0
290
     0
174
     0
 93
       13
 44
0.0
173
     0
291
     0
 45
0.0
1001
ACAD
1000
AcDbSavedByObjectVersion
1070
     0
  0
VISUALSTYLE
  5
37
102
{ACAD_REACTORS
330
2A
102
}
102
{ACAD_XDICTIONARY
360
1DD
102
}
330
2A
100
AcDbVisualStyle
  2
Thicken
 70
    13
 71
     2
 72
     2
 73
     0
 90
        0
 40
-0.6
 41
-30.0
 62
     5
 63
     7
421
 16777215
 74
     1
 91
        4
 64
     7
 65
   257
 75
     1
175
     1
 42
1.0
 92
       12
 66
     7
 43
1.0
 76
     1
 77
     6
 78
     2
 67
     7
 79
     5
170
     0
171
     0
290
     0
174
     0
 93
        1
 44
0.0
173
     0
291
     1
 45
0.0
1001
ACAD
1000
AcDbSavedByObjectVersion
1070
     0
  0
DICTIONARY
  5
1E7
330
3D
100
AcDbDictionary
280
     1
281
     1
  3
ACAD_XREC_ROUNDTRIP
360
1E8
  0
DICTIONARY
  5
1E5
330
3C
100
AcDbDictionary
280
     1
281
     1
  3
ACAD_XREC_ROUNDTRIP
360
1E6
  0
DICTIONARY
  5
1E9
330
3E
100
AcDbDictionary
280
     1
281
     1
  3
ACAD_XREC_ROUNDTRIP
360
1EA
  0
DICTIONARY
  5
1CD
330
2F
100
AcDbDictionary
280
     1
281
     1
  3
ACAD_XREC_ROUNDTRIP
360
1CE
  0
DICTIONARY
  5
1D1
330
31
100
AcDbDictionary
280
     1
281
     1
  3
ACAD_XREC_ROUNDTRIP
360
1D2
  0
DICTIONARY
  5
1CF
330
30
100
AcDbDictionary
280
     1
281
     1
  3
ACAD_XREC_ROUNDTRIP
360
1D0
  0
DICTIONARY
  5
1D3
330
32
100
AcDbDictionary
280
     1
281
     1
  3
ACAD_XREC_ROUNDTRIP
360
1D4
  0
DICTIONARY
  5
1DB
330
36
100
AcDbDictionary
280
     1
281
     1
  3
ACAD_XREC_ROUNDTRIP
360
1DC
  0
DICTIONARY
  5
1E3
330
3A
100
AcDbDictionary
280
     1
281
     1
  3
ACAD_XREC_ROUNDTRIP
360
1E4
  0
DICTIONARY
  5
1D7
330
34
100
AcDbDictionary
280
     1
281
     1
  3
ACAD_XREC_ROUNDTRIP
360
1D8
  0
DICTIONARY
  5
1D9
330
35
100
AcDbDictionary
280
     1
281
     1
  3
ACAD_XREC_ROUNDTRIP
360
1DA
  0
DICTIONARY
  5
1E1
330
39
100
AcDbDictionary
280
     1
281
     1
  3
ACAD_XREC_ROUNDTRIP
360
1E2
  0
DICTIONARY
  5
1C5
330
2B
100
AcDbDictionary
280
     1
281
     1
  3
ACAD_XREC_ROUNDTRIP
360
1C6
  0
DICTIONARY
  5
1C7
330
2C
100
AcDbDictionary
280
     1
281
     1
  3
ACAD_XREC_ROUNDTRIP
360
1C8
  0
DICTIONARY
  5
1C9
330
2D
100
AcDbDictionary
280
     1
281
     1
  3
ACAD_XREC_ROUNDTRIP
360
1CA
  0
DICTIONARY
  5
1CB
330
2E
100
AcDbDictionary
280
     1
281
     1
  3
ACAD_XREC_ROUNDTRIP
360
1CC
  0
DICTIONARY
  5
1DF
330
38
100
AcDbDictionary
280
     1
281
     1
  3
ACAD_XREC_ROUNDTRIP
360
1E0
  0
DICTIONARY
  5
1D5
330
33
100
AcDbDictionary
280
     1
281
     1
  3
ACAD_XREC_ROUNDTRIP
360
1D6
  0
DICTIONARY
  5
1DD
330
37
100
AcDbDictionary
280
     1
281
     1
  3
ACAD_XREC_ROUNDTRIP
360
1DE
  0
XRECORD
  5
1E8
102
{ACAD_REACTORS
330
1E7
102
}
330
1E7
100
AcDbXrecord
280
     1
102
MATERIAL
148
0.0
149
0.0
149
0.0
 93
        0
 94
      127
282
     0
 72
     1
 77
     1
171
     1
175
     1
179
     1
273
     0
  0
XRECORD
  5
1E6
102
{ACAD_REACTORS
330
1E5
102
}
330
1E5
100
AcDbXrecord
280
     1
102
MATERIAL
148
0.0
149
0.0
149
0.0
 93
        0
 94
      127
282
     0
 72
     1
 77
     1
171
     1
175
     1
179
     1
273
     0
  0
XRECORD
  5
1EA
102
{ACAD_REACTORS
330
1E9
102
}
330
1E9
100
AcDbXrecord
280
     1
102
MATERIAL
148
0.0
149
0.0
149
0.0
 93
        0
 94
      127
282
     0
 72
     1
 77
     1
171
     1
175
     1
179
     1
273
     0
  0
XRECORD
  5
1CE
102
{ACAD_REACTORS
330
1CD
102
}
330
1CD
100
AcDbXrecord
280
     1
102
RTVSPropertyOp0
 70
     1
102
RTVSPropertyOp1
 70
     1
102
RTVSPropertyOp2
 70
     1
102
RTVSPropertyOp3
 70
     1
102
RTVSPropertyOp4
 70
     1
102
RTVSPropertyOp5
 70
     1
102
RTVSPropertyOp6
 70
     1
102
RTVSPropertyOp7
 70
     1
102
RTVSPropertyOp8
 70
     1
102
RTVSPropertyOp9
 70
     1
102
RTVSPropertyOp10
 70
     1
102
RTVSPropertyOp11
 70
     1
102
RTVSPropertyOp12
 70
     1
102
RTVSPropertyOp13
 70
     1
102
RTVSPropertyOp14
 70
     1
102
RTVSPropertyOp15
 70
     1
102
RTVSPropertyOp16
 70
     1
102
RTVSPropertyOp17
 70
     1
102
RTVSPropertyOp18
 70
     1
102
RTVSPropertyOp19
 70
     1
102
RTVSPropertyOp20
 70
     1
102
RTVSPropertyOp21
 70
     1
102
RTVSPropertyOp22
 70
     1
102
RTVSPropertyOp23
 70
     1
102
RTVSPropertyOp24
 70
     1
102
RTVSPropertyOp25
 70
     1
102
RTVSPropertyOp26
 70
     1
102
RTVSPropertyOp27
 70
     1
102
RTVSPropertyOp28
 70
     1
102
RTVSPropertyOp29
 70
     1
102
RTVSPropertyOp30
 70
     1
102
RTVSPropertyOp31
 70
     1
102
RTVSPropertyOp32
 70
     1
  0
XRECORD
  5
1D2
102
{ACAD_REACTORS
330
1D1
102
}
330
1D1
100
AcDbXrecord
280
     1
102
RTVSPropertyOp0
 70
     1
102
RTVSPropertyOp1
 70
     1
102
RTVSPropertyOp2
 70
     1
102
RTVSPropertyOp3
 70
     1
102
RTVSPropertyOp4
 70
     1
102
RTVSPropertyOp5
 70
     1
102
RTVSPropertyOp6
 70
     1
102
RTVSPropertyOp7
 70
     1
102
RTVSPropertyOp8
 70
     1
102
RTVSPropertyOp9
 70
     1
102
RTVSPropertyOp10
 70
     1
102
RTVSPropertyOp11
 70
     1
102
RTVSPropertyOp12
 70
     1
102
RTVSPropertyOp13
 70
     1
102
RTVSPropertyOp14
 70
     1
102
RTVSPropertyOp15
 70
     1
102
RTVSPropertyOp16
 70
     1
102
RTVSPropertyOp17
 70
     1
102
RTVSPropertyOp18
 70
     1
102
RTVSPropertyOp19
 70
     1
102
RTVSPropertyOp20
 70
     1
102
RTVSPropertyOp21
 70
     1
102
RTVSPropertyOp22
 70
     1
102
RTVSPropertyOp23
 70
     1
102
RTVSPropertyOp24
 70
     1
102
RTVSPropertyOp25
 70
     1
102
RTVSPropertyOp26
 70
     1
102
RTVSPropertyOp27
 70
     1
102
RTVSPropertyOp28
 70
     1
102
RTVSPropertyOp29
 70
     1
102
RTVSPropertyOp30
 70
     1
102
RTVSPropertyOp31
 70
     1
102
RTVSPropertyOp32
 70
     1
  0
XRECORD
  5
1D0
102
{ACAD_REACTORS
330
1CF
102
}
330
1CF
100
AcDbXrecord
280
     1
102
RTVSPropertyOp0
 70
     1
102
RTVSPropertyOp1
 70
     1
102
RTVSPropertyOp2
 70
     1
102
RTVSPropertyOp3
 70
     1
102
RTVSPropertyOp4
 70
     1
102
RTVSPropertyOp5
 70
     1
102
RTVSPropertyOp6
 70
     1
102
RTVSPropertyOp7
 70
     1
102
RTVSPropertyOp8
 70
     1
102
RTVSPropertyOp9
 70
     1
102
RTVSPropertyOp10
 70
     1
102
RTVSPropertyOp11
 70
     1
102
RTVSPropertyOp12
 70
     1
102
RTVSPropertyOp13
 70
     1
102
RTVSPropertyOp14
 70
     1
102
RTVSPropertyOp15
 70
     1
102
RTVSPropertyOp16
 70
     1
102
RTVSPropertyOp17
 70
     1
102
RTVSPropertyOp18
 70
     1
102
RTVSPropertyOp19
 70
     1
102
RTVSPropertyOp20
 70
     1
102
RTVSPropertyOp21
 70
     1
102
RTVSPropertyOp22
 70
     1
102
RTVSPropertyOp23
 70
     1
102
RTVSPropertyOp24
 70
     1
102
RTVSPropertyOp25
 70
     1
102
RTVSPropertyOp26
 70
     1
102
RTVSPropertyOp27
 70
     1
102
RTVSPropertyOp28
 70
     1
102
RTVSPropertyOp29
 70
     1
102
RTVSPropertyOp30
 70
     1
102
RTVSPropertyOp31
 70
     1
102
RTVSPropertyOp32
 70
     1
  0
XRECORD
  5
1D4
102
{ACAD_REACTORS
330
1D3
102
}
330
1D3
100
AcDbXrecord
280
     1
102
RTVSPropertyOp0
 70
     1
102
RTVSPropertyOp1
 70
     1
102
RTVSPropertyOp2
 70
     1
102
RTVSPropertyOp3
 70
     1
102
RTVSPropertyOp4
 70
     1
102
RTVSPropertyOp5
 70
     1
102
RTVSPropertyOp6
 70
     1
102
RTVSPropertyOp7
 70
     1
102
RTVSPropertyOp8
 70
     1
102
RTVSPropertyOp9
 70
     1
102
RTVSPropertyOp10
 70
     1
102
RTVSPropertyOp11
 70
     1
102
RTVSPropertyOp12
 70
     1
102
RTVSPropertyOp13
 70
     1
102
RTVSPropertyOp14
 70
     1
102
RTVSPropertyOp15
 70
     1
102
RTVSPropertyOp16
 70
     1
102
RTVSPropertyOp17
 70
     1
102
RTVSPropertyOp18
 70
     1
102
RTVSPropertyOp19
 70
     1
102
RTVSPropertyOp20
 70
     1
102
RTVSPropertyOp21
 70
     1
102
RTVSPropertyOp22
 70
     1
102
RTVSPropertyOp23
 70
     1
102
RTVSPropertyOp24
 70
     1
102
RTVSPropertyOp25
 70
     1
102
RTVSPropertyOp26
 70
     1
102
RTVSPropertyOp27
 70
     1
102
RTVSPropertyOp28
 70
     1
102
RTVSPropertyOp29
 70
     1
102
RTVSPropertyOp30
 70
     1
102
RTVSPropertyOp31
 70
     1
102
RTVSPropertyOp32
 70
     1
  0
XRECORD
  5
1DC
102
{ACAD_REACTORS
330
1DB
102
}
330
1DB
100
AcDbXrecord
280
     1
102
RTVSPropertyOp0
 70
     1
102
RTVSPropertyOp1
 70
     1
102
RTVSPropertyOp2
 70
     1
102
RTVSPropertyOp3
 70
     1
102
RTVSPropertyOp4
 70
     1
102
RTVSPropertyOp5
 70
     1
102
RTVSPropertyOp6
 70
     1
102
RTVSPropertyOp7
 70
     1
102
RTVSPropertyOp8
 70
     1
102
RTVSPropertyOp9
 70
     1
102
RTVSPropertyOp10
 70
     1
102
RTVSPropertyOp11
 70
     1
102
RTVSPropertyOp12
 70
     1
102
RTVSPropertyOp13
 70
     1
102
RTVSPropertyOp14
 70
     1
102
RTVSPropertyOp15
 70
     1
102
RTVSPropertyOp16
 70
     1
102
RTVSPropertyOp17
 70
     1
102
RTVSPropertyOp18
 70
     1
102
RTVSPropertyOp19
 70
     1
102
RTVSPropertyOp20
 70
     1
102
RTVSPropertyOp21
 70
     1
102
RTVSPropertyOp22
 70
     1
102
RTVSPropertyOp23
 70
     1
102
RTVSPropertyOp24
 70
     1
102
RTVSPropertyOp25
 70
     1
102
RTVSPropertyOp26
 70
     1
102
RTVSPropertyOp27
 70
     1
102
RTVSPropertyOp28
 70
     1
102
RTVSPropertyOp29
 70
     1
102
RTVSPropertyOp30
 70
     1
102
RTVSPropertyOp31
 70
     1
102
RTVSPropertyOp32
 70
     1
  0
XRECORD
  5
1E4
102
{ACAD_REACTORS
330
1E3
102
}
330
1E3
100
AcDbXrecord
280
     1
102
RTVSPropertyOp0
 70
     1
102
RTVSPropertyOp1
 70
     1
102
RTVSPropertyOp2
 70
     1
102
RTVSPropertyOp3
 70
     1
102
RTVSPropertyOp4
 70
     1
102
RTVSPropertyOp5
 70
     1
102
RTVSPropertyOp6
 70
     1
102
RTVSPropertyOp7
 70
     1
102
RTVSPropertyOp8
 70
     1
102
RTVSPropertyOp9
 70
     1
102
RTVSPropertyOp10
 70
     1
102
RTVSPropertyOp11
 70
     1
102
RTVSPropertyOp12
 70
     1
102
RTVSPropertyOp13
 70
     1
102
RTVSPropertyOp14
 70
     1
102
RTVSPropertyOp15
 70
     1
102
RTVSPropertyOp16
 70
     1
102
RTVSPropertyOp17
 70
     1
102
RTVSPropertyOp18
 70
     1
102
RTVSPropertyOp19
 70
     1
102
RTVSPropertyOp20
 70
     1
102
RTVSPropertyOp21
 70
     1
102
RTVSPropertyOp22
 70
     1
102
RTVSPropertyOp23
 70
     1
102
RTVSPropertyOp24
 70
     1
102
RTVSPropertyOp25
 70
     1
102
RTVSPropertyOp26
 70
     1
102
RTVSPropertyOp27
 70
     1
102
RTVSPropertyOp28
 70
     1
102
RTVSPropertyOp29
 70
     1
102
RTVSPropertyOp30
 70
     1
102
RTVSPropertyOp31
 70
     1
102
RTVSPropertyOp32
 70
     1
  0
XRECORD
  5
1D8
102
{ACAD_REACTORS
330
1D7
102
}
330
1D7
100
AcDbXrecord
280
     1
102
RTVSPropertyOp0
 70
     1
102
RTVSPropertyOp1
 70
     1
102
RTVSPropertyOp2
 70
     1
102
RTVSPropertyOp3
 70
     1
102
RTVSPropertyOp4
 70
     1
102
RTVSPropertyOp5
 70
     1
102
RTVSPropertyOp6
 70
     1
102
RTVSPropertyOp7
 70
     1
102
RTVSPropertyOp8
 70
     1
102
RTVSPropertyOp9
 70
     1
102
RTVSPropertyOp10
 70
     1
102
RTVSPropertyOp11
 70
     1
102
RTVSPropertyOp12
 70
     1
102
RTVSPropertyOp13
 70
     1
102
RTVSPropertyOp14
 70
     1
102
RTVSPropertyOp15
 70
     1
102
RTVSPropertyOp16
 70
     1
102
RTVSPropertyOp17
 70
     1
102
RTVSPropertyOp18
 70
     1
102
RTVSPropertyOp19
 70
     1
102
RTVSPropertyOp20
 70
     1
102
RTVSPropertyOp21
 70
     1
102
RTVSPropertyOp22
 70
     1
102
RTVSPropertyOp23
 70
     1
102
RTVSPropertyOp24
 70
     1
102
RTVSPropertyOp25
 70
     1
102
RTVSPropertyOp26
 70
     1
102
RTVSPropertyOp27
 70
     1
102
RTVSPropertyOp28
 70
     1
102
RTVSPropertyOp29
 70
     1
102
RTVSPropertyOp30
 70
     1
102
RTVSPropertyOp31
 70
     1
102
RTVSPropertyOp32
 70
     1
  0
XRECORD
  5
1DA
102
{ACAD_REACTORS
330
1D9
102
}
330
1D9
100
AcDbXrecord
280
     1
102
RTVSPropertyOp0
 70
     1
102
RTVSPropertyOp1
 70
     1
102
RTVSPropertyOp2
 70
     1
102
RTVSPropertyOp3
 70
     1
102
RTVSPropertyOp4
 70
     1
102
RTVSPropertyOp5
 70
     1
102
RTVSPropertyOp6
 70
     1
102
RTVSPropertyOp7
 70
     1
102
RTVSPropertyOp8
 70
     1
102
RTVSPropertyOp9
 70
     1
102
RTVSPropertyOp10
 70
     1
102
RTVSPropertyOp11
 70
     1
102
RTVSPropertyOp12
 70
     1
102
RTVSPropertyOp13
 70
     1
102
RTVSPropertyOp14
 70
     1
102
RTVSPropertyOp15
 70
     1
102
RTVSPropertyOp16
 70
     1
102
RTVSPropertyOp17
 70
     1
102
RTVSPropertyOp18
 70
     1
102
RTVSPropertyOp19
 70
     1
102
RTVSPropertyOp20
 70
     1
102
RTVSPropertyOp21
 70
     1
102
RTVSPropertyOp22
 70
     1
102
RTVSPropertyOp23
 70
     1
102
RTVSPropertyOp24
 70
     1
102
RTVSPropertyOp25
 70
     1
102
RTVSPropertyOp26
 70
     1
102
RTVSPropertyOp27
 70
     1
102
RTVSPropertyOp28
 70
     1
102
RTVSPropertyOp29
 70
     1
102
RTVSPropertyOp30
 70
     1
102
RTVSPropertyOp31
 70
     1
102
RTVSPropertyOp32
 70
     1
  0
XRECORD
  5
1E2
102
{ACAD_REACTORS
330
1E1
102
}
330
1E1
100
AcDbXrecord
280
     1
102
RTVSPropertyOp0
 70
     1
102
RTVSPropertyOp1
 70
     1
102
RTVSPropertyOp2
 70
     1
102
RTVSPropertyOp3
 70
     1
102
RTVSPropertyOp4
 70
     1
102
RTVSPropertyOp5
 70
     1
102
RTVSPropertyOp6
 70
     1
102
RTVSPropertyOp7
 70
     1
102
RTVSPropertyOp8
 70
     1
102
RTVSPropertyOp9
 70
     1
102
RTVSPropertyOp10
 70
     1
102
RTVSPropertyOp11
 70
     1
102
RTVSPropertyOp12
 70
     1
102
RTVSPropertyOp13
 70
     1
102
RTVSPropertyOp14
 70
     1
102
RTVSPropertyOp15
 70
     1
102
RTVSPropertyOp16
 70
     1
102
RTVSPropertyOp17
 70
     1
102
RTVSPropertyOp18
 70
     1
102
RTVSPropertyOp19
 70
     1
102
RTVSPropertyOp20
 70
     1
102
RTVSPropertyOp21
 70
     1
102
RTVSPropertyOp22
 70
     1
102
RTVSPropertyOp23
 70
     1
102
RTVSPropertyOp24
 70
     1
102
RTVSPropertyOp25
 70
     1
102
RTVSPropertyOp26
 70
     1
102
RTVSPropertyOp27
 70
     1
102
RTVSPropertyOp28
 70
     1
102
RTVSPropertyOp29
 70
     1
102
RTVSPropertyOp30
 70
     1
102
RTVSPropertyOp31
 70
     1
102
RTVSPropertyOp32
 70
     1
  0
XRECORD
  5
1C6
102
{ACAD_REACTORS
330
1C5
102
}
330
1C5
100
AcDbXrecord
280
     1
102
RTVSPropertyOp0
 70
     1
102
RTVSPropertyOp1
 70
     1
102
RTVSPropertyOp2
 70
     1
102
RTVSPropertyOp3
 70
     1
102
RTVSPropertyOp4
 70
     1
102
RTVSPropertyOp5
 70
     1
102
RTVSPropertyOp6
 70
     1
102
RTVSPropertyOp7
 70
     1
102
RTVSPropertyOp8
 70
     1
102
RTVSPropertyOp9
 70
     1
102
RTVSPropertyOp10
 70
     1
102
RTVSPropertyOp11
 70
     1
102
RTVSPropertyOp12
 70
     1
102
RTVSPropertyOp13
 70
     1
102
RTVSPropertyOp14
 70
     1
102
RTVSPropertyOp15
 70
     1
102
RTVSPropertyOp16
 70
     1
102
RTVSPropertyOp17
 70
     1
102
RTVSPropertyOp18
 70
     1
102
RTVSPropertyOp19
 70
     1
102
RTVSPropertyOp20
 70
     1
102
RTVSPropertyOp21
 70
     1
102
RTVSPropertyOp22
 70
     1
102
RTVSPropertyOp23
 70
     1
102
RTVSPropertyOp24
 70
     1
102
RTVSPropertyOp25
 70
     1
102
RTVSPropertyOp26
 70
     1
102
RTVSPropertyOp27
 70
     1
102
RTVSPropertyOp28
 70
     1
102
RTVSPropertyOp29
 70
     1
102
RTVSPropertyOp30
 70
     1
102
RTVSPropertyOp31
 70
     1
102
RTVSPropertyOp32
 70
     1
  0
XRECORD
  5
1C8
102
{ACAD_REACTORS
330
1C7
102
}
330
1C7
100
AcDbXrecord
280
     1
102
RTVSPropertyOp0
 70
     1
102
RTVSPropertyOp1
 70
     1
102
RTVSPropertyOp2
 70
     1
102
RTVSPropertyOp3
 70
     1
102
RTVSPropertyOp4
 70
     1
102
RTVSPropertyOp5
 70
     1
102
RTVSPropertyOp6
 70
     1
102
RTVSPropertyOp7
 70
     1
102
RTVSPropertyOp8
 70
     1
102
RTVSPropertyOp9
 70
     1
102
RTVSPropertyOp10
 70
     1
102
RTVSPropertyOp11
 70
     1
102
RTVSPropertyOp12
 70
     1
102
RTVSPropertyOp13
 70
     1
102
RTVSPropertyOp14
 70
     1
102
RTVSPropertyOp15
 70
     1
102
RTVSPropertyOp16
 70
     1
102
RTVSPropertyOp17
 70
     1
102
RTVSPropertyOp18
 70
     1
102
RTVSPropertyOp19
 70
     1
102
RTVSPropertyOp20
 70
     1
102
RTVSPropertyOp21
 70
     1
102
RTVSPropertyOp22
 70
     1
102
RTVSPropertyOp23
 70
     1
102
RTVSPropertyOp24
 70
     1
102
RTVSPropertyOp25
 70
     1
102
RTVSPropertyOp26
 70
     1
102
RTVSPropertyOp27
 70
     1
102
RTVSPropertyOp28
 70
     1
102
RTVSPropertyOp29
 70
     1
102
RTVSPropertyOp30
 70
     1
102
RTVSPropertyOp31
 70
     1
102
RTVSPropertyOp32
 70
     1
  0
XRECORD
  5
1CA
102
{ACAD_REACTORS
330
1C9
102
}
330
1C9
100
AcDbXrecord
280
     1
102
RTVSPropertyOp0
 70
     1
102
RTVSPropertyOp1
 70
     1
102
RTVSPropertyOp2
 70
     1
102
RTVSPropertyOp3
 70
     1
102
RTVSPropertyOp4
 70
     1
102
RTVSPropertyOp5
 70
     1
102
RTVSPropertyOp6
 70
     1
102
RTVSPropertyOp7
 70
     1
102
RTVSPropertyOp8
 70
     1
102
RTVSPropertyOp9
 70
     1
102
RTVSPropertyOp10
 70
     1
102
RTVSPropertyOp11
 70
     1
102
RTVSPropertyOp12
 70
     1
102
RTVSPropertyOp13
 70
     1
102
RTVSPropertyOp14
 70
     1
102
RTVSPropertyOp15
 70
     1
102
RTVSPropertyOp16
 70
     1
102
RTVSPropertyOp17
 70
     1
102
RTVSPropertyOp18
 70
     1
102
RTVSPropertyOp19
 70
     1
102
RTVSPropertyOp20
 70
     1
102
RTVSPropertyOp21
 70
     1
102
RTVSPropertyOp22
 70
     1
102
RTVSPropertyOp23
 70
     1
102
RTVSPropertyOp24
 70
     1
102
RTVSPropertyOp25
 70
     1
102
RTVSPropertyOp26
 70
     1
102
RTVSPropertyOp27
 70
     1
102
RTVSPropertyOp28
 70
     1
102
RTVSPropertyOp29
 70
     1
102
RTVSPropertyOp30
 70
     1
102
RTVSPropertyOp31
 70
     1
102
RTVSPropertyOp32
 70
     1
  0
XRECORD
  5
1CC
102
{ACAD_REACTORS
330
1CB
102
}
330
1CB
100
AcDbXrecord
280
     1
102
RTVSPropertyOp0
 70
     1
102
RTVSPropertyOp1
 70
     1
102
RTVSPropertyOp2
 70
     1
102
RTVSPropertyOp3
 70
     1
102
RTVSPropertyOp4
 70
     1
102
RTVSPropertyOp5
 70
     1
102
RTVSPropertyOp6
 70
     1
102
RTVSPropertyOp7
 70
     1
102
RTVSPropertyOp8
 70
     1
102
RTVSPropertyOp9
 70
     1
102
RTVSPropertyOp10
 70
     1
102
RTVSPropertyOp11
 70
     1
102
RTVSPropertyOp12
 70
     1
102
RTVSPropertyOp13
 70
     1
102
RTVSPropertyOp14
 70
     1
102
RTVSPropertyOp15
 70
     1
102
RTVSPropertyOp16
 70
     1
102
RTVSPropertyOp17
 70
     1
102
RTVSPropertyOp18
 70
     1
102
RTVSPropertyOp19
 70
     1
102
RTVSPropertyOp20
 70
     1
102
RTVSPropertyOp21
 70
     1
102
RTVSPropertyOp22
 70
     1
102
RTVSPropertyOp23
 70
     1
102
RTVSPropertyOp24
 70
     1
102
RTVSPropertyOp25
 70
     1
102
RTVSPropertyOp26
 70
     1
102
RTVSPropertyOp27
 70
     1
102
RTVSPropertyOp28
 70
     1
102
RTVSPropertyOp29
 70
     1
102
RTVSPropertyOp30
 70
     1
102
RTVSPropertyOp31
 70
     1
102
RTVSPropertyOp32
 70
     1
  0
XRECORD
  5
1E0
102
{ACAD_REACTORS
330
1DF
102
}
330
1DF
100
AcDbXrecord
280
     1
102
RTVSPropertyOp0
 70
     1
102
RTVSPropertyOp1
 70
     1
102
RTVSPropertyOp2
 70
     1
102
RTVSPropertyOp3
 70
     1
102
RTVSPropertyOp4
 70
     1
102
RTVSPropertyOp5
 70
     1
102
RTVSPropertyOp6
 70
     1
102
RTVSPropertyOp7
 70
     1
102
RTVSPropertyOp8
 70
     1
102
RTVSPropertyOp9
 70
     1
102
RTVSPropertyOp10
 70
     1
102
RTVSPropertyOp11
 70
     1
102
RTVSPropertyOp12
 70
     1
102
RTVSPropertyOp13
 70
     1
102
RTVSPropertyOp14
 70
     1
102
RTVSPropertyOp15
 70
     1
102
RTVSPropertyOp16
 70
     1
102
RTVSPropertyOp17
 70
     1
102
RTVSPropertyOp18
 70
     1
102
RTVSPropertyOp19
 70
     1
102
RTVSPropertyOp20
 70
     1
102
RTVSPropertyOp21
 70
     1
102
RTVSPropertyOp22
 70
     1
102
RTVSPropertyOp23
 70
     1
102
RTVSPropertyOp24
 70
     1
102
RTVSPropertyOp25
 70
     1
102
RTVSPropertyOp26
 70
     1
102
RTVSPropertyOp27
 70
     1
102
RTVSPropertyOp28
 70
     1
102
RTVSPropertyOp29
 70
     1
102
RTVSPropertyOp30
 70
     1
102
RTVSPropertyOp31
 70
     1
102
RTVSPropertyOp32
 70
     1
  0
XRECORD
  5
1D6
102
{ACAD_REACTORS
330
1D5
102
}
330
1D5
100
AcDbXrecord
280
     1
102
RTVSPropertyOp0
 70
     1
102
RTVSPropertyOp1
 70
     1
102
RTVSPropertyOp2
 70
     1
102
RTVSPropertyOp3
 70
     1
102
RTVSPropertyOp4
 70
     1
102
RTVSPropertyOp5
 70
     1
102
RTVSPropertyOp6
 70
     1
102
RTVSPropertyOp7
 70
     1
102
RTVSPropertyOp8
 70
     1
102
RTVSPropertyOp9
 70
     1
102
RTVSPropertyOp10
 70
     1
102
RTVSPropertyOp11
 70
     1
102
RTVSPropertyOp12
 70
     1
102
RTVSPropertyOp13
 70
     1
102
RTVSPropertyOp14
 70
     1
102
RTVSPropertyOp15
 70
     1
102
RTVSPropertyOp16
 70
     1
102
RTVSPropertyOp17
 70
     1
102
RTVSPropertyOp18
 70
     1
102
RTVSPropertyOp19
 70
     1
102
RTVSPropertyOp20
 70
     1
102
RTVSPropertyOp21
 70
     1
102
RTVSPropertyOp22
 70
     1
102
RTVSPropertyOp23
 70
     1
102
RTVSPropertyOp24
 70
     1
102
RTVSPropertyOp25
 70
     1
102
RTVSPropertyOp26
 70
     1
102
RTVSPropertyOp27
 70
     1
102
RTVSPropertyOp28
 70
     1
102
RTVSPropertyOp29
 70
     1
102
RTVSPropertyOp30
 70
     1
102
RTVSPropertyOp31
 70
     1
102
RTVSPropertyOp32
 70
     1
  0
XRECORD
  5
1DE
102
{ACAD_REACTORS
330
1DD
102
}
330
1DD
100
AcDbXrecord
280
     1
102
RTVSPropertyOp0
 70
     1
102
RTVSPropertyOp1
 70
     1
102
RTVSPropertyOp2
 70
     1
102
RTVSPropertyOp3
 70
     1
102
RTVSPropertyOp4
 70
     1
102
RTVSPropertyOp5
 70
     1
102
RTVSPropertyOp6
 70
     1
102
RTVSPropertyOp7
 70
     1
102
RTVSPropertyOp8
 70
     1
102
RTVSPropertyOp9
 70
     1
102
RTVSPropertyOp10
 70
     1
102
RTVSPropertyOp11
 70
     1
102
RTVSPropertyOp12
 70
     1
102
RTVSPropertyOp13
 70
     1
102
RTVSPropertyOp14
 70
     1
102
RTVSPropertyOp15
 70
     1
102
RTVSPropertyOp16
 70
     1
102
RTVSPropertyOp17
 70
     1
102
RTVSPropertyOp18
 70
     1
102
RTVSPropertyOp19
 70
     1
102
RTVSPropertyOp20
 70
     1
102
RTVSPropertyOp21
 70
     1
102
RTVSPropertyOp22
 70
     1
102
RTVSPropertyOp23
 70
     1
102
RTVSPropertyOp24
 70
     1
102
RTVSPropertyOp25
 70
     1
102
RTVSPropertyOp26
 70
     1
102
RTVSPropertyOp27
 70
     1
102
RTVSPropertyOp28
 70
     1
102
RTVSPropertyOp29
 70
     1
102
RTVSPropertyOp30
 70
     1
102
RTVSPropertyOp31
 70
     1
102
RTVSPropertyOp32
 70
     1
  0
ENDSEC
  0
EOF
