G75*
%MOIN*%
%OFA0B0*%
%FSLAX25Y25*%
%IPPOS*%
%LPD*%
%AMOC8*
5,1,8,0,0,1.08239X$1,22.5*
%
%ADD10C,0.12211*%
%ADD11OC8,0.06700*%
%ADD12C,0.07800*%
%ADD13C,0.07071*%
%ADD14C,0.07211*%
%ADD15OC8,0.06000*%
%ADD16C,0.06737*%
%ADD17C,0.04769*%
%ADD18R,0.07131X0.07131*%
%ADD19C,0.07131*%
%ADD20C,0.06800*%
%ADD21C,0.17400*%
%ADD22R,0.11030X0.11030*%
%ADD23C,0.11030*%
D10*
X0031717Y0038933D03*
X0291122Y0038933D03*
X0291122Y0321925D03*
X0031717Y0321925D03*
D11*
X0109470Y0185673D03*
X0119470Y0185673D03*
X0129470Y0185673D03*
X0139470Y0185673D03*
X0139470Y0155673D03*
X0129470Y0155673D03*
X0119470Y0155673D03*
X0109470Y0155673D03*
D12*
X0081594Y0183441D03*
X0074094Y0188441D03*
X0074094Y0178441D03*
X0096803Y0197407D03*
X0096803Y0227407D03*
X0094843Y0236913D03*
X0086299Y0229465D03*
X0086299Y0259465D03*
X0124843Y0236913D03*
X0129313Y0227347D03*
X0129313Y0197347D03*
X0149885Y0195530D03*
X0158435Y0195480D03*
X0158435Y0165480D03*
X0149885Y0165530D03*
X0063504Y0150764D03*
X0063504Y0142102D03*
X0033504Y0142102D03*
X0033504Y0150764D03*
X0103328Y0073131D03*
X0121128Y0073131D03*
X0142698Y0073131D03*
X0160498Y0073131D03*
X0182069Y0073131D03*
X0199869Y0073131D03*
X0199869Y0047531D03*
X0182069Y0047531D03*
X0160498Y0047531D03*
X0142698Y0047531D03*
X0121128Y0047531D03*
X0103328Y0047531D03*
X0262222Y0047531D03*
X0280022Y0047531D03*
X0280022Y0073131D03*
X0262222Y0073131D03*
X0262222Y0116031D03*
X0280022Y0116031D03*
X0280022Y0141631D03*
X0280022Y0156031D03*
X0262222Y0156031D03*
X0262222Y0141631D03*
X0262222Y0181631D03*
X0280022Y0181631D03*
X0285346Y0196631D03*
X0285346Y0226631D03*
X0251677Y0253445D03*
X0272890Y0274658D03*
X0188047Y0315042D03*
X0176598Y0315723D03*
X0164389Y0315783D03*
X0166833Y0293829D03*
X0155384Y0294509D03*
X0143176Y0294569D03*
D13*
X0119496Y0197383D03*
X0169191Y0195379D03*
X0129421Y0143222D03*
X0235906Y0112772D03*
D14*
X0235906Y0122772D03*
X0169191Y0185379D03*
X0129421Y0133222D03*
X0119496Y0207383D03*
D15*
X0271022Y0099581D03*
X0271022Y0089581D03*
D16*
X0236614Y0264268D03*
X0226614Y0264268D03*
X0216614Y0264268D03*
X0206614Y0264268D03*
X0196614Y0264268D03*
X0186614Y0264268D03*
X0176614Y0264268D03*
X0166614Y0264268D03*
X0156614Y0264268D03*
X0146614Y0264268D03*
X0136614Y0264268D03*
X0126614Y0264268D03*
X0116614Y0264268D03*
X0106614Y0264268D03*
X0096614Y0264268D03*
X0096614Y0324268D03*
X0106614Y0324268D03*
X0116614Y0324268D03*
X0126614Y0324268D03*
X0136614Y0324268D03*
X0146614Y0324268D03*
X0156614Y0324268D03*
X0166614Y0324268D03*
X0176614Y0324268D03*
X0186614Y0324268D03*
X0196614Y0324268D03*
X0206614Y0324268D03*
X0216614Y0324268D03*
X0226614Y0324268D03*
X0236614Y0324268D03*
D17*
X0237932Y0203677D02*
X0233564Y0203677D01*
X0233564Y0193677D02*
X0237932Y0193677D01*
X0237932Y0183677D02*
X0233564Y0183677D01*
X0233564Y0173677D02*
X0237932Y0173677D01*
X0237932Y0163677D02*
X0233564Y0163677D01*
X0233564Y0153677D02*
X0237932Y0153677D01*
X0237932Y0143677D02*
X0233564Y0143677D01*
X0233564Y0133677D02*
X0237932Y0133677D01*
X0207932Y0133677D02*
X0203564Y0133677D01*
X0203564Y0143677D02*
X0207932Y0143677D01*
X0207932Y0153677D02*
X0203564Y0153677D01*
X0203564Y0163677D02*
X0207932Y0163677D01*
X0207932Y0173677D02*
X0203564Y0173677D01*
X0203564Y0183677D02*
X0207932Y0183677D01*
X0207932Y0193677D02*
X0203564Y0193677D01*
X0203564Y0203677D02*
X0207932Y0203677D01*
D18*
X0251457Y0203677D03*
D19*
X0251457Y0193677D03*
X0251457Y0183677D03*
X0251457Y0173677D03*
X0251457Y0163677D03*
X0251457Y0153677D03*
X0251457Y0143677D03*
X0251457Y0133677D03*
D20*
X0042452Y0164386D02*
X0036052Y0164386D01*
X0036052Y0174386D02*
X0042452Y0174386D01*
X0042452Y0184386D02*
X0036052Y0184386D01*
D21*
X0049488Y0272024D03*
X0037677Y0290528D03*
X0061299Y0290528D03*
D22*
X0026260Y0217496D03*
D23*
X0040433Y0199386D03*
X0053031Y0227339D03*
X0057756Y0237969D03*
X0070354Y0201354D03*
M02*
